<?xml version="1.0" encoding="UTF-8" standalone="no"?>
<!-- Created with Inkscape (http://www.inkscape.org/) -->

<svg
   xmlns:dc="http://purl.org/dc/elements/1.1/"
   xmlns:cc="http://creativecommons.org/ns#"
   xmlns:rdf="http://www.w3.org/1999/02/22-rdf-syntax-ns#"
   xmlns:svg="http://www.w3.org/2000/svg"
   xmlns="http://www.w3.org/2000/svg"
   xmlns:sodipodi="http://sodipodi.sourceforge.net/DTD/sodipodi-0.dtd"
   xmlns:inkscape="http://www.inkscape.org/namespaces/inkscape"
   width="256"
   height="256"
   viewBox="0 0 67.733332 67.733335"
   version="1.1"
   id="svg2555"
   inkscape:version="0.92.2 (5c3e80d, 2017-08-06)"
   sodipodi:docname="fig13.svg">
  <defs
     id="defs2549" />
  <sodipodi:namedview
     id="base"
     pagecolor="#ffffff"
     bordercolor="#666666"
     borderopacity="1.0"
     inkscape:pageopacity="0.0"
     inkscape:pageshadow="2"
     inkscape:zoom="1.4"
     inkscape:cx="23.825233"
     inkscape:cy="126.48713"
     inkscape:document-units="px"
     inkscape:current-layer="layer2"
     showgrid="false"
     units="px"
     inkscape:window-width="1366"
     inkscape:window-height="745"
     inkscape:window-x="-8"
     inkscape:window-y="-8"
     inkscape:window-maximized="1"
     inkscape:snap-global="false" />
  <metadata
     id="metadata2552">
    <rdf:RDF>
      <cc:Work
         rdf:about="">
        <dc:format>image/svg+xml</dc:format>
        <dc:type
           rdf:resource="http://purl.org/dc/dcmitype/StillImage" />
        <dc:title />
      </cc:Work>
    </rdf:RDF>
  </metadata>
  <g
     inkscape:groupmode="layer"
     id="layer2"
     inkscape:label="Capa 2"
     style="display:inline">
    <path
       style="fill:none;stroke:#000000;stroke-width:0.26458332px;stroke-linecap:butt;stroke-linejoin:miter;stroke-opacity:1"
       d="M 7.9374999,65.843451 8.7879464,62.536159"
       id="path817"
       inkscape:connector-curvature="0" />
    <path
       style="fill:none;stroke:#000000;stroke-width:0.26458332px;stroke-linecap:butt;stroke-linejoin:miter;stroke-opacity:1"
       d="M 11.055803,64.89851 C 8.4752057,62.541082 8.0057864,61.193824 8.220982,59.748584"
       id="path819"
       inkscape:connector-curvature="0"
       sodipodi:nodetypes="cc" />
    <path
       style="fill:none;stroke:#000000;stroke-width:0.26458332px;stroke-linecap:butt;stroke-linejoin:miter;stroke-opacity:1"
       d="M 13.323661,63.008631 C 6.937135,61.558116 7.2268131,56.856898 7.0870534,54.787648 6.8586549,50.330603 7.2136956,47.040437 7.4650297,43.542857 8.8621741,39.127226 11.169768,37.807122 13.134672,35.321875 l 3.212798,-6.898066 c -0.06591,-0.692956 -0.202629,-1.385913 1.322917,-2.078869 -0.204086,-1.83687 2.104579,-3.135293 3.496279,-4.630208 l 0.755953,-0.283482 c 0.705758,-1.311496 1.728164,-2.496333 2.740327,-3.685268 0.063,-1.259921 0.188988,-2.488343 0.377976,-3.685268 -2.825429,1.611682 -3.025486,5.077028 -3.985454,7.738032"
       id="path821"
       inkscape:connector-curvature="0"
       sodipodi:nodetypes="ccccccccccc" />
    <path
       style="fill:none;stroke:#000000;stroke-width:0.26458332px;stroke-linecap:butt;stroke-linejoin:miter;stroke-opacity:1"
       d="m 17.599516,26.274069 c 0.327405,0.801159 0.736248,1.173363 1.252046,1.346542"
       id="path823"
       inkscape:connector-curvature="0"
       sodipodi:nodetypes="cc" />
    <path
       style="fill:none;stroke:#000000;stroke-width:0.26458332px;stroke-linecap:butt;stroke-linejoin:miter;stroke-opacity:1"
       d="m 16.34747,28.471055 c 0.535466,0.509449 1.070933,0.638211 1.606399,0.850448"
       id="path825"
       inkscape:connector-curvature="0"
       sodipodi:nodetypes="cc" />
    <path
       style="fill:none;stroke:#000000;stroke-width:0.26458332px;stroke-linecap:butt;stroke-linejoin:miter;stroke-opacity:1"
       d="M 9.0871639,58.913439 C 8.5574289,56.601908 9.3164874,54.443274 10.557146,52.833058"
       id="path827"
       inkscape:connector-curvature="0"
       sodipodi:nodetypes="cc" />
    <path
       style="fill:none;stroke:#000000;stroke-width:0.26458332px;stroke-linecap:butt;stroke-linejoin:miter;stroke-opacity:1"
       d="m 13.898015,48.623561 c 1.202713,-1.152227 2.405426,-1.999508 3.608139,-1.737252"
       id="path829"
       inkscape:connector-curvature="0"
       sodipodi:nodetypes="cc" />
    <path
       style="fill:none;stroke:#000000;stroke-width:0.26458332px;stroke-linecap:butt;stroke-linejoin:miter;stroke-opacity:1"
       d="m 25.056518,14.346245 c 4.913,1.723426 2.702843,15.627689 -1.26953,16.971616 1.093937,1.078203 -1.513254,7.395121 -2.271791,7.550364 -1.126613,0.20229 -2.210234,0.103635 -3.274052,-0.133636"
       id="path831"
       inkscape:connector-curvature="0"
       sodipodi:nodetypes="cccc" />
    <path
       style="fill:none;stroke:#000000;stroke-width:0.26458332px;stroke-linecap:butt;stroke-linejoin:miter;stroke-opacity:1"
       d="m 21.544643,38.865402 c -0.510691,1.306159 -0.829333,2.641126 -0.09449,4.134115 0.762229,0.360057 1.807547,0.03737 1.559151,2.834819 0.821094,0.580569 1.216059,1.587265 1.74814,2.456847"
       id="path833"
       inkscape:connector-curvature="0"
       sodipodi:nodetypes="cccc" />
    <path
       style="fill:none;stroke:#000000;stroke-width:0.26458332px;stroke-linecap:butt;stroke-linejoin:miter;stroke-opacity:1"
       d="M 21.497396,43.046763 C 19.34476,42.771968 17.302807,42.165127 14.363095,44.251562"
       id="path835"
       inkscape:connector-curvature="0"
       sodipodi:nodetypes="cc" />
    <path
       style="fill:none;stroke:#000000;stroke-width:0.26458332px;stroke-linecap:butt;stroke-linejoin:miter;stroke-opacity:1"
       d="m 17.764881,42.834152 c -1.38095,-0.406203 -2.323766,-0.909768 -3.141927,-1.441035"
       id="path837"
       inkscape:connector-curvature="0"
       sodipodi:nodetypes="cc" />
    <path
       style="fill:none;stroke:#000000;stroke-width:0.26458332px;stroke-linecap:butt;stroke-linejoin:miter;stroke-opacity:1"
       d="m 24.143229,47.015513 0.07087,-2.976562 c -0.740213,-0.560212 -1.008028,-1.255395 -1.322916,-1.937129"
       id="path839"
       inkscape:connector-curvature="0"
       sodipodi:nodetypes="ccc" />
    <path
       style="fill:none;stroke:#000000;stroke-width:0.26458332px;stroke-linecap:butt;stroke-linejoin:miter;stroke-opacity:1"
       d="m 26.812687,45.64535 c 0.407928,-1.326954 0.607417,-2.74324 1.41741,-3.897881"
       id="path841"
       inkscape:connector-curvature="0"
       sodipodi:nodetypes="cc" />
    <path
       style="fill:none;stroke:#000000;stroke-width:0.26458332px;stroke-linecap:butt;stroke-linejoin:miter;stroke-opacity:1"
       d="m 26.174851,41.936458 1.063058,2.196986"
       id="path843"
       inkscape:connector-curvature="0" />
    <path
       style="fill:none;stroke:#000000;stroke-width:0.26458332px;stroke-linecap:butt;stroke-linejoin:miter;stroke-opacity:1"
       d="m 29.033295,41.983704 0.519718,1.866257"
       id="path845"
       inkscape:connector-curvature="0" />
    <path
       style="fill:none;stroke:#000000;stroke-width:0.26458332px;stroke-linecap:butt;stroke-linejoin:miter;stroke-opacity:1"
       d="M 26.726951,15.548958 C 25.131808,6.4566815 30.527401,4.5378557 32.740518,4.1231857"
       id="path847"
       inkscape:connector-curvature="0"
       sodipodi:nodetypes="cc" />
    <path
       style="fill:none;stroke:#000000;stroke-width:0.26458332px;stroke-linecap:butt;stroke-linejoin:miter;stroke-opacity:1"
       d="m 27.796029,23.901131 c 2.015923,5.480641 5.147708,8.835831 10.891234,7.216276 -0.28643,-0.284363 -0.259861,-0.607851 0.868627,-1.069078 l 2.939963,-0.668173 c 0.334088,0.0459 0.668175,-0.08711 1.002263,1.069078 5.877855,-0.685137 5.685675,-5.820689 5.746295,-6.548103 C 49.165097,18.648089 48.101349,13.066902 46.972619,7.4640548 45.87759,4.033559 43.30124,3.7508717 40.825419,3.2545596 38.085907,3.3767426 35.346394,3.1956054 32.606882,4.323638 30.245996,5.9208909 29.270045,7.1146352 28.931926,9.6022111 28.109383,16.09348 29.489053,21.317289 31.1369,25.571565 c 1.163542,1.8612 2.322356,3.7264 5.746295,3.674956 3.489032,0.211108 6.219389,-0.715794 9.020346,-1.536799 3.216932,-1.036604 2.605138,-2.583704 3.407687,-3.942226"
       id="path849"
       inkscape:connector-curvature="0"
       sodipodi:nodetypes="cccccccccccccc" />
    <path
       style="fill:none;stroke:#000000;stroke-width:0.26458332px;stroke-linecap:butt;stroke-linejoin:miter;stroke-opacity:1"
       d="M 46.905801,16.350766 45.70309,9.2013068 C 45.620596,7.3233581 44.811838,5.7631501 41.894498,5.1254464 39.266348,4.8470019 36.638197,4.5490599 34.010047,5.6599854 31.495994,6.8225075 30.355214,8.5735752 30.33509,10.804924 l 0.334087,7.349912 c 0.400508,1.733923 0.472964,3.623239 4.142679,3.808591 2.41823,0.458458 2.74771,1.106803 3.274052,1.737251 2.929168,2.018208 3.538861,0.451772 4.610399,-0.400904 0.174377,-1.630643 1.309101,-2.060852 2.138156,-2.873147 2.338269,-0.887814 2.158459,-2.495079 2.071338,-4.075861 z"
       id="path851"
       inkscape:connector-curvature="0"
       sodipodi:nodetypes="ccccccccccc" />
    <path
       style="fill:none;stroke:#000000;stroke-width:0.26458332px;stroke-linecap:butt;stroke-linejoin:miter;stroke-opacity:1"
       d="m 36.482289,23.967948 -3.274052,-1.26953 c -0.520892,-0.148661 -1.592148,-0.168349 -1.00226,0.935443 l 1.202714,2.071339 c 1.311958,0.772481 2.556376,1.319829 3.340867,0.334087 0.473271,-0.802918 0.134763,-1.443481 -0.267269,-2.071339 z"
       id="path853"
       inkscape:connector-curvature="0"
       sodipodi:nodetypes="cccccc" />
    <path
       style="fill:none;stroke:#000000;stroke-width:0.26458332px;stroke-linecap:butt;stroke-linejoin:miter;stroke-opacity:1"
       d="m 44.36674,22.163879 c 1.148055,-0.565428 1.870887,-0.981197 2.80633,-1.80407 0.06006,1.342666 0.514679,2.131354 -0.400902,3.286212 -0.846354,1.030386 -1.692707,1.348663 -2.539061,0.25511 z"
       id="path855"
       inkscape:connector-curvature="0"
       sodipodi:nodetypes="ccccc" />
    <path
       style="fill:none;stroke:#000000;stroke-width:0.26458332px;stroke-linecap:butt;stroke-linejoin:miter;stroke-opacity:1"
       d="m 31.604622,11.40628 -0.133636,2.204974 c 0.475304,0.47933 0.724141,0.279258 0.935445,-0.03341 z"
       id="path857"
       inkscape:connector-curvature="0"
       sodipodi:nodetypes="cccc" />
    <path
       style="fill:none;stroke:#000000;stroke-width:0.26458332px;stroke-linecap:butt;stroke-linejoin:miter;stroke-opacity:1"
       d="m 34.076864,11.306054 0.100227,3.006782"
       id="path859"
       inkscape:connector-curvature="0" />
    <path
       style="fill:none;stroke:#000000;stroke-width:0.26458332px;stroke-linecap:butt;stroke-linejoin:miter;stroke-opacity:1"
       d="m 34.277315,15.148054 0.167045,2.772921"
       id="path861"
       inkscape:connector-curvature="0" />
    <path
       style="fill:none;stroke:#000000;stroke-width:0.26458332px;stroke-linecap:butt;stroke-linejoin:miter;stroke-opacity:1"
       d="M 36.215021,13.878523 V 11.40628"
       id="path863"
       inkscape:connector-curvature="0" />
    <path
       style="fill:none;stroke:#000000;stroke-width:0.26458332px;stroke-linecap:butt;stroke-linejoin:miter;stroke-opacity:1"
       d="m 36.515698,10.938559 1.469983,-0.133635"
       id="path865"
       inkscape:connector-curvature="0" />
    <path
       style="fill:none;stroke:#000000;stroke-width:0.26458332px;stroke-linecap:butt;stroke-linejoin:miter;stroke-opacity:1"
       d="m 38.219541,11.105602 0.167045,2.672695"
       id="path867"
       inkscape:connector-curvature="0" />
    <path
       style="fill:none;stroke:#000000;stroke-width:0.26458332px;stroke-linecap:butt;stroke-linejoin:miter;stroke-opacity:1"
       d="m 36.348656,14.914193 0.133633,2.405425"
       id="path869"
       inkscape:connector-curvature="0" />
    <path
       style="fill:none;stroke:#000000;stroke-width:0.26458332px;stroke-linecap:butt;stroke-linejoin:miter;stroke-opacity:1"
       d="m 36.615925,17.720523 1.80407,-0.400905"
       id="path871"
       inkscape:connector-curvature="0" />
    <path
       style="fill:none;stroke:#000000;stroke-width:0.26458332px;stroke-linecap:butt;stroke-linejoin:miter;stroke-opacity:1"
       d="M 38.553628,16.985531 V 14.613515"
       id="path873"
       inkscape:connector-curvature="0" />
    <path
       style="fill:none;stroke:#000000;stroke-width:0.26458332px;stroke-linecap:butt;stroke-linejoin:miter;stroke-opacity:1"
       d="m 41.82768,10.537654 -1.737252,0.167044"
       id="path875"
       inkscape:connector-curvature="0" />
    <path
       style="fill:none;stroke:#000000;stroke-width:0.26458332px;stroke-linecap:butt;stroke-linejoin:miter;stroke-opacity:1"
       d="m 39.656115,10.971967 0.233862,2.271791"
       id="path877"
       inkscape:connector-curvature="0" />
    <path
       style="fill:none;stroke:#000000;stroke-width:0.26458332px;stroke-linecap:butt;stroke-linejoin:miter;stroke-opacity:1"
       d="m 40.02361,14.078975 1.670437,-0.167043"
       id="path879"
       inkscape:connector-curvature="0" />
    <path
       style="fill:none;stroke:#000000;stroke-width:0.26458332px;stroke-linecap:butt;stroke-linejoin:miter;stroke-opacity:1"
       d="m 42.328811,14.045567 0.133636,2.639286"
       id="path881"
       inkscape:connector-curvature="0" />
    <path
       style="fill:none;stroke:#000000;stroke-width:0.26458332px;stroke-linecap:butt;stroke-linejoin:miter;stroke-opacity:1"
       d="m 42.12836,17.219392 -1.971114,0.167044"
       id="path883"
       inkscape:connector-curvature="0" />
    <path
       style="fill:none;stroke:#000000;stroke-width:0.26458332px;stroke-linecap:butt;stroke-linejoin:miter;stroke-opacity:1"
       d="m 43.832203,14.21261 0.23386,1.135896 c 0,0 -0.755632,0.195825 -0.835219,-0.06682 -0.07959,-0.262645 0.634768,-0.50113 0.634768,-0.50113"
       id="path885"
       inkscape:connector-curvature="0"
       sodipodi:nodetypes="cczc" />
    <path
       style="fill:none;stroke:#000000;stroke-width:0.26458332px;stroke-linecap:butt;stroke-linejoin:miter;stroke-opacity:1"
       d="m 44.466967,14.21261 0.133636,1.135896 0.768398,-0.03341"
       id="path887"
       inkscape:connector-curvature="0" />
    <path
       style="fill:none;stroke:#000000;stroke-width:0.26458332px;stroke-linecap:butt;stroke-linejoin:miter;stroke-opacity:1"
       d="m 43.297662,13.678071 2.204974,-0.200452"
       id="path889"
       inkscape:connector-curvature="0" />
    <path
       style="fill:none;stroke:#000000;stroke-width:0.26458332px;stroke-linecap:butt;stroke-linejoin:miter;stroke-opacity:1"
       d="m 42.59608,12.776037 c -0.03093,-0.915611 0.677638,-0.551833 0.7684,0.06682 0.113337,-0.620943 0.494378,-1.138616 0.601356,-0.03341"
       id="path891"
       inkscape:connector-curvature="0"
       sodipodi:nodetypes="ccc" />
    <path
       style="fill:none;stroke:#000000;stroke-width:0.26458332px;stroke-linecap:butt;stroke-linejoin:miter;stroke-opacity:1"
       d="m 44.734236,13.21035 c 0.626629,0.06907 0.457124,-0.458966 0.400905,-0.902035 -0.289542,0.544146 -0.812944,0.369456 -0.868625,0 0.05568,-0.512266 0.879762,-0.612493 0.868625,0"
       id="path893"
       inkscape:connector-curvature="0"
       sodipodi:nodetypes="cccc" />
    <path
       style="fill:none;stroke:#000000;stroke-width:0.26458332px;stroke-linecap:butt;stroke-linejoin:miter;stroke-opacity:1"
       d="m 38.789805,30.549926 1.086684,7.323289 1.41741,1.606399 1.653645,-0.377979 0.708705,-1.653646 -0.992187,-8.173733"
       id="path895"
       inkscape:connector-curvature="0" />
    <path
       style="fill:none;stroke:#000000;stroke-width:0.26458332px;stroke-linecap:butt;stroke-linejoin:miter;stroke-opacity:1"
       d="m 41.813614,36.597545 0.472472,2.598586"
       id="path897"
       inkscape:connector-curvature="0" />
    <path
       style="fill:none;stroke:#000000;stroke-width:0.26458332px;stroke-linecap:butt;stroke-linejoin:miter;stroke-opacity:1"
       d="m 27.729214,26.740868 1.469983,0.334087"
       id="path899"
       inkscape:connector-curvature="0" />
    <path
       style="fill:none;stroke:#000000;stroke-width:0.26458332px;stroke-linecap:butt;stroke-linejoin:miter;stroke-opacity:1"
       d="m 30.702586,29.046069 c -0.311486,1.45614 -1.009333,3.576407 -3.240643,6.013564 -0.756741,-0.617783 -1.875797,-0.655862 -3.073599,-0.567947"
       id="path901"
       inkscape:connector-curvature="0"
       sodipodi:nodetypes="ccc" />
    <path
       style="fill:none;stroke:#000000;stroke-width:0.26458332px;stroke-linecap:butt;stroke-linejoin:miter;stroke-opacity:1"
       d="m 27.52876,34.992815 c 0.09828,0.390047 0.116299,0.791559 -0.400904,1.269532"
       id="path903"
       inkscape:connector-curvature="0"
       sodipodi:nodetypes="cc" />
    <path
       style="fill:none;stroke:#000000;stroke-width:0.26458332px;stroke-linecap:butt;stroke-linejoin:miter;stroke-opacity:1"
       d="m 25.323788,35.861442 c 2.654757,0.405946 3.448872,1.956904 3.808591,3.775181"
       id="path905"
       inkscape:connector-curvature="0"
       sodipodi:nodetypes="cc" />
    <path
       style="fill:none;stroke:#000000;stroke-width:0.26458332px;stroke-linecap:butt;stroke-linejoin:miter;stroke-opacity:1"
       d="m 28.664656,38.033007 c 0.884358,0.08987 2.082964,-0.07166 2.57247,0.334087 0.283138,-0.510429 0.522853,-1.09902 1.23612,-0.835218 l 1.269532,1.035669"
       id="path907"
       inkscape:connector-curvature="0"
       sodipodi:nodetypes="cccc" />
    <path
       style="fill:none;stroke:#000000;stroke-width:0.26458332px;stroke-linecap:butt;stroke-linejoin:miter;stroke-opacity:1"
       d="m 32.43984,37.498467 c -0.15763,-0.761128 0.536139,-1.064424 0.768397,-0.835216 l 1.135896,0.868625"
       id="path909"
       inkscape:connector-curvature="0"
       sodipodi:nodetypes="ccc" />
    <path
       style="fill:none;stroke:#000000;stroke-width:0.26458332px;stroke-linecap:butt;stroke-linejoin:miter;stroke-opacity:1"
       d="m 33.074604,36.563024 c 2.026276,-2.37179 2.664786,-3.588149 3.908817,-5.011303 0.460689,0.50348 0.90491,0.908156 1.302938,1.035669"
       id="path911"
       inkscape:connector-curvature="0"
       sodipodi:nodetypes="ccc" />
    <path
       style="fill:none;stroke:#000000;stroke-width:0.26458332px;stroke-linecap:butt;stroke-linejoin:miter;stroke-opacity:1"
       d="m 31.270535,38.367094 c 0.693793,0.71071 1.79418,1.177464 2.071338,2.138156 1.585162,0.533271 3.232335,0.865007 4.476766,2.505652 1.524499,-1.379135 2.266107,-2.646429 3.207234,-3.942226"
       id="path913"
       inkscape:connector-curvature="0"
       sodipodi:nodetypes="cccc" />
    <path
       style="fill:none;stroke:#000000;stroke-width:0.26458332px;stroke-linecap:butt;stroke-linejoin:miter;stroke-opacity:1"
       d="m 36.849785,43.27817 c 1.340714,-0.501637 2.50001,-0.519492 3.307461,0.400905"
       id="path915"
       inkscape:connector-curvature="0"
       sodipodi:nodetypes="cc" />
    <path
       style="fill:none;stroke:#000000;stroke-width:0.26458332px;stroke-linecap:butt;stroke-linejoin:miter;stroke-opacity:1"
       d="m 39.322028,44.213615 c 0.601356,-0.574385 1.202713,-0.51302 1.804069,-0.200453"
       id="path917"
       inkscape:connector-curvature="0"
       sodipodi:nodetypes="cc" />
    <path
       style="fill:none;stroke:#000000;stroke-width:0.26458332px;stroke-linecap:butt;stroke-linejoin:miter;stroke-opacity:1"
       d="m 43.464707,35.39372 0.668173,-0.334087 c -0.245982,-1.39942 0.494683,-1.592937 1.002261,-2.071338 0.009,-0.994118 0.258412,-2.068387 0.801809,-3.240644"
       id="path919"
       inkscape:connector-curvature="0"
       sodipodi:nodetypes="cccc" />
    <path
       style="fill:none;stroke:#000000;stroke-width:0.26458332px;stroke-linecap:butt;stroke-linejoin:miter;stroke-opacity:1"
       d="m 45.135141,33.088521 c 1.557892,0.07036 2.320543,1.557585 4.009043,2.204972"
       id="path921"
       inkscape:connector-curvature="0"
       sodipodi:nodetypes="cc" />
    <path
       style="fill:none;stroke:#000000;stroke-width:0.26458332px;stroke-linecap:butt;stroke-linejoin:miter;stroke-opacity:1"
       d="m 44.166289,35.126451 c 0.816702,1.516987 3.180316,1.048355 4.476764,1.937705"
       id="path923"
       inkscape:connector-curvature="0"
       sodipodi:nodetypes="cc" />
    <path
       style="fill:none;stroke:#000000;stroke-width:0.26458332px;stroke-linecap:butt;stroke-linejoin:miter;stroke-opacity:1"
       d="m 48.542828,27.275409 c 0.779536,0.531752 1.559071,0.517161 2.338607,0.434313"
       id="path925"
       inkscape:connector-curvature="0"
       sodipodi:nodetypes="cc" />
    <path
       style="fill:none;stroke:#000000;stroke-width:0.26458332px;stroke-linecap:butt;stroke-linejoin:miter;stroke-opacity:1"
       d="M 47.440341,9.7024369 C 52.183317,7.6320295 51.6161,12.13186 51.248931,16.384175"
       id="path927"
       inkscape:connector-curvature="0"
       sodipodi:nodetypes="cc" />
    <path
       style="fill:none;stroke:#000000;stroke-width:0.26458332px;stroke-linecap:butt;stroke-linejoin:miter;stroke-opacity:1"
       d="m 48.94373,17.920975 c 2.429072,-2.354076 4.544533,-2.701044 5.646071,3.441095"
       id="path929"
       inkscape:connector-curvature="0"
       sodipodi:nodetypes="cc" />
    <path
       style="fill:none;stroke:#000000;stroke-width:0.26458332px;stroke-linecap:butt;stroke-linejoin:miter;stroke-opacity:1"
       d="m 52.785732,51.19603 c 1.352574,-1.75613 1.770082,-4.135639 2.639285,-6.214017 1.173663,-1.733176 1.664115,-3.523287 1.77066,-5.34539 0.01633,-1.628988 0.351637,-2.992158 0.902036,-4.176086 1.811442,-3.963749 0.649969,-6.20129 -0.200451,-8.619442 -0.589447,-2.974015 -0.642246,-5.456852 -3.274052,-5.545842 -3.89016,0.479498 -2.391029,7.284454 -2.037932,9.621703 0.880873,0.942799 2.104724,1.405427 3.87541,1.102487"
       id="path931"
       inkscape:connector-curvature="0"
       sodipodi:nodetypes="cccccccc" />
    <path
       style="fill:none;stroke:#000000;stroke-width:0.26458332px;stroke-linecap:butt;stroke-linejoin:miter;stroke-opacity:1"
       d="m 52.551869,30.916956 c -1.619393,2.32463 -2.169286,4.983479 -2.372016,7.750816 l -2.138156,3.708365"
       id="path933"
       inkscape:connector-curvature="0"
       sodipodi:nodetypes="ccc" />
    <path
       style="fill:none;stroke:#000000;stroke-width:0.26458332px;stroke-linecap:butt;stroke-linejoin:miter;stroke-opacity:1"
       d="m 55.157748,40.805928 c -1.117579,-1.209529 -2.576349,-1.56608 -4.042453,-1.904297"
       id="path935"
       inkscape:connector-curvature="0"
       sodipodi:nodetypes="cc" />
    <path
       style="fill:none;stroke:#000000;stroke-width:0.26458332px;stroke-linecap:butt;stroke-linejoin:miter;stroke-opacity:1"
       d="M 55.792512,42.008641 C 54.965085,41.385299 53.7565,41.428983 52.585278,41.407283 51.094234,41.02841 50.979361,40.374302 50.28008,39.837076"
       id="path937"
       inkscape:connector-curvature="0"
       sodipodi:nodetypes="ccc" />
    <path
       style="fill:none;stroke:#000000;stroke-width:0.26458332px;stroke-linecap:butt;stroke-linejoin:miter;stroke-opacity:1"
       d="m 47.247024,52.70878 c 1.28748,0.30711 2.94953,-0.434577 4.866444,-1.889881 -0.944387,-3.039559 -1.733603,-6.079118 -5.24442,-9.118677 -3.346607,-2.38692 -5.188892,-1.423305 -5.764139,2.362351 0.749362,3.139135 2.132997,6.239436 4.29948,9.496652 1.666295,3.720316 3.053947,7.405801 5.669642,11.244792 l 0.141743,1.27567"
       id="path939"
       inkscape:connector-curvature="0"
       sodipodi:nodetypes="ccccccc" />
    <path
       style="fill:none;stroke:#000000;stroke-width:0.26458332px;stroke-linecap:butt;stroke-linejoin:miter;stroke-opacity:1"
       d="m 52.160714,50.818899 c 1.870335,1.241373 3.587273,5.550677 5.338914,9.165923 1.439507,1.070932 1.684602,2.141863 2.315104,3.212795"
       id="path941"
       inkscape:connector-curvature="0"
       sodipodi:nodetypes="ccc" />
    <path
       style="fill:none;stroke:#000000;stroke-width:0.26458332px;stroke-linecap:butt;stroke-linejoin:miter;stroke-opacity:1"
       d="m 57.216145,60.977009 c -0.962347,0.166608 -1.807002,0.803987 -2.645833,1.464657"
       id="path943"
       inkscape:connector-curvature="0"
       sodipodi:nodetypes="cc" />
    <path
       style="fill:none;stroke:#000000;stroke-width:0.26458332px;stroke-linecap:butt;stroke-linejoin:miter;stroke-opacity:1"
       d="m 56.223958,59.748586 c -1.411956,0.301256 -2.453037,1.097011 -3.496281,1.889882"
       id="path945"
       inkscape:connector-curvature="0"
       sodipodi:nodetypes="cc" />
    <path
       style="fill:none;stroke:#000000;stroke-width:0.26458332px;stroke-linecap:butt;stroke-linejoin:miter;stroke-opacity:1"
       d="m 43.561756,45.527232 c 0.542807,-0.250079 0.785407,-0.636616 -0.04725,-1.511906 -0.292464,-0.346478 -0.290187,-0.692956 0.04725,-1.039434 0.926669,-1.197724 0.08032,-0.944796 -0.283482,-1.086681 -0.842018,1.632764 -0.428488,1.830615 -0.472472,2.55134 -0.02233,1.002297 0.423605,0.911971 0.755954,1.086681 z"
       id="path947"
       inkscape:connector-curvature="0"
       sodipodi:nodetypes="cccccc" />
    <path
       style="fill:none;stroke:#000000;stroke-width:0.26458332px;stroke-linecap:butt;stroke-linejoin:miter;stroke-opacity:1"
       d="m 37.750371,55.449107 c 1.560867,-0.06128 2.390484,-0.853813 3.212799,-1.653646 -0.153953,-2.472701 -1.631832,-5.342993 -3.827011,-8.315476 -1.940797,-2.665517 -4.278892,-4.55015 -6.898065,-0.708705 -0.175541,0.330127 -0.320823,1.163805 0.283482,3.401785 0.848287,3.039817 2.344548,7.888195 3.685268,8.126487"
       id="path949"
       inkscape:connector-curvature="0"
       sodipodi:nodetypes="cccccc" />
    <path
       style="fill:none;stroke:#000000;stroke-width:0.26458332px;stroke-linecap:butt;stroke-linejoin:miter;stroke-opacity:1"
       d="m 40.96317,53.842708 c 1.800231,3.06743 3.938813,4.781454 5.291666,9.638392 0.410743,1.617917 1.153994,2.127479 1.937128,2.504093"
       id="path951"
       inkscape:connector-curvature="0"
       sodipodi:nodetypes="ccc" />
    <path
       style="fill:none;stroke:#000000;stroke-width:0.26458332px;stroke-linecap:butt;stroke-linejoin:miter;stroke-opacity:1"
       d="m 46.207589,63.575593 c -1.401662,0.117171 -2.803323,0.834266 -4.204985,1.700895"
       id="path953"
       inkscape:connector-curvature="0"
       sodipodi:nodetypes="cc" />
    <path
       style="fill:none;stroke:#000000;stroke-width:0.26458332px;stroke-linecap:butt;stroke-linejoin:miter;stroke-opacity:1"
       d="M 47.058034,65.181992 45.924107,66.03244"
       id="path955"
       inkscape:connector-curvature="0" />
    <path
       style="fill:none;stroke:#000000;stroke-width:0.26458332px;stroke-linecap:butt;stroke-linejoin:miter;stroke-opacity:1"
       d="m 46.065847,62.441666 c 0.737225,-0.597601 1.42033,-1.465804 2.031621,-2.69308"
       id="path957"
       inkscape:connector-curvature="0"
       sodipodi:nodetypes="cc" />
    <path
       style="fill:none;stroke:#000000;stroke-width:0.26458332px;stroke-linecap:butt;stroke-linejoin:miter;stroke-opacity:1"
       d="m 42.04985,49.684968 c -0.592203,0.365255 -1.139936,0.863923 -1.606399,1.6064"
       id="path959"
       inkscape:connector-curvature="0"
       sodipodi:nodetypes="cc" />
    <path
       style="fill:none;stroke:#000000;stroke-width:0.26458332px;stroke-linecap:butt;stroke-linejoin:miter;stroke-opacity:1"
       d="m 33.356399,55.638093 c 0.02548,2.088605 2.680535,6.806778 4.157736,10.3471"
       id="path961"
       inkscape:connector-curvature="0"
       sodipodi:nodetypes="cc" />
    <path
       style="fill:none;stroke:#000000;stroke-width:0.26458332px;stroke-linecap:butt;stroke-linejoin:miter;stroke-opacity:1"
       d="m 27.167038,65.796204 c -0.182599,-0.347739 -0.559432,-1.375302 -0.992187,-2.598587 -1.084645,-1.871618 -2.66979,-7.33042 -2.787575,-8.646204 -0.120383,-1.506391 -0.4061,-3.288856 1.842634,-4.252233 1.768127,-0.707429 3.827919,0.470557 5.10268,2.315104 0.971212,1.495423 2.546941,3.545199 2.456844,6.37835 -1.716465,1.206952 -3.196668,1.783871 -4.535715,1.984375"
       id="path963"
       inkscape:connector-curvature="0"
       sodipodi:nodetypes="ccccccc" />
    <path
       style="fill:none;stroke:#000000;stroke-width:0.26458332px;stroke-linecap:butt;stroke-linejoin:miter;stroke-opacity:1"
       d="m 29.245906,61.969197 c 1.15619,-0.741036 2.203281,-1.863915 3.590774,-1.795389 1.05607,1.040892 2.024113,1.624048 3.685268,5.811385"
       id="path965"
       inkscape:connector-curvature="0"
       sodipodi:nodetypes="ccc" />
    <path
       style="fill:none;stroke:#000000;stroke-width:0.26458332px;stroke-linecap:butt;stroke-linejoin:miter;stroke-opacity:1"
       d="m 32.883927,60.221055 -0.14174,-1.322917"
       id="path967"
       inkscape:connector-curvature="0" />
    <path
       style="fill:none;stroke:#000000;stroke-width:0.26458332px;stroke-linecap:butt;stroke-linejoin:miter;stroke-opacity:1"
       d="m 24.254709,63.390202 c -2.628319,1.352546 -5.021983,2.302828 -6.414468,1.536801"
       id="path969"
       inkscape:connector-curvature="0"
       sodipodi:nodetypes="cc" />
    <path
       style="fill:none;stroke:#000000;stroke-width:0.26458332px;stroke-linecap:butt;stroke-linejoin:miter;stroke-opacity:1"
       d="M 21.782466,66.062899 20.446119,64.993821"
       id="path971"
       inkscape:connector-curvature="0" />
  </g>
</svg>
