<?xml version="1.0" encoding="UTF-8" standalone="no"?>
<!-- Created with Inkscape (http://www.inkscape.org/) -->

<svg
   xmlns:dc="http://purl.org/dc/elements/1.1/"
   xmlns:cc="http://creativecommons.org/ns#"
   xmlns:rdf="http://www.w3.org/1999/02/22-rdf-syntax-ns#"
   xmlns:svg="http://www.w3.org/2000/svg"
   xmlns="http://www.w3.org/2000/svg"
   xmlns:sodipodi="http://sodipodi.sourceforge.net/DTD/sodipodi-0.dtd"
   xmlns:inkscape="http://www.inkscape.org/namespaces/inkscape"
   width="256"
   height="256"
   viewBox="0 0 67.733332 67.733335"
   version="1.1"
   id="svg3117"
   inkscape:version="0.92.2 (5c3e80d, 2017-08-06)"
   sodipodi:docname="fig14.svg">
  <defs
     id="defs3111" />
  <sodipodi:namedview
     id="base"
     pagecolor="#ffffff"
     bordercolor="#666666"
     borderopacity="1.0"
     inkscape:pageopacity="0.0"
     inkscape:pageshadow="2"
     inkscape:zoom="1.979899"
     inkscape:cx="79.152999"
     inkscape:cy="106.3139"
     inkscape:document-units="px"
     inkscape:current-layer="layer2"
     showgrid="false"
     units="px"
     showguides="true"
     inkscape:guide-bbox="true"
     inkscape:snap-global="false"
     inkscape:window-width="1366"
     inkscape:window-height="745"
     inkscape:window-x="-8"
     inkscape:window-y="-8"
     inkscape:window-maximized="1">
    <sodipodi:guide
       position="67.619189,29.666918"
       orientation="1,0"
       id="guide3675"
       inkscape:locked="false" />
  </sodipodi:namedview>
  <metadata
     id="metadata3114">
    <rdf:RDF>
      <cc:Work
         rdf:about="">
        <dc:format>image/svg+xml</dc:format>
        <dc:type
           rdf:resource="http://purl.org/dc/dcmitype/StillImage" />
        <dc:title />
      </cc:Work>
    </rdf:RDF>
  </metadata>
  <g
     inkscape:groupmode="layer"
     id="layer2"
     inkscape:label="Capa 2">
    <path
       style="fill:none;stroke:#000000;stroke-width:0.26458332px;stroke-linecap:butt;stroke-linejoin:miter;stroke-opacity:1"
       d="M 33.943229,3.4550117 C 20.005664,3.3118401 11.201722,15.28261 11.091685,26.039286 c -0.110037,10.756676 9.01977,23.252448 22.584275,23.252448 13.564505,0 22.71791,-9.312095 22.71791,-22.717908 0,-13.405813 -8.513076,-22.9756427 -22.450641,-23.1188143 z"
       id="path824"
       inkscape:connector-curvature="0"
       sodipodi:nodetypes="zzzzz" />
    <path
       style="fill:none;stroke:#000000;stroke-width:0.26458332px;stroke-linecap:butt;stroke-linejoin:miter;stroke-opacity:1"
       d="M 42.830434,18.088656 C 28.892869,17.945485 20.088927,29.916254 19.97889,40.67293 c -0.110037,10.756677 9.01977,23.252447 22.584275,23.252447 13.564504,0 22.71791,-9.312095 22.71791,-22.717907 0,-13.405812 -8.513077,-22.975642 -22.450641,-23.118814 z"
       id="path824-8"
       inkscape:connector-curvature="0"
       sodipodi:nodetypes="zzzzz" />
    <path
       style="fill:none;stroke:#000000;stroke-width:0.26458332px;stroke-linecap:butt;stroke-linejoin:miter;stroke-opacity:1"
       d="M 24.388837,18.088656 C 10.451271,17.945485 1.6473294,29.916254 1.5372924,40.67293 1.4272554,51.429607 10.557062,63.925377 24.121568,63.925377 c 13.564504,0 22.71791,-9.312095 22.71791,-22.717907 0,-13.405813 -8.513077,-22.975642 -22.450641,-23.118814 z"
       id="path824-6"
       inkscape:connector-curvature="0"
       sodipodi:nodetypes="zzzzz" />
    <path
       style="fill:none;stroke:#000000;stroke-width:0.26458332px;stroke-linecap:butt;stroke-linejoin:miter;stroke-opacity:1"
       d="m 28.597838,11.539915 -1.23612,-4.3097212 c 0.668174,-0.3347705 1.959751,-0.5967231 2.505651,1.6370256 0.5459,2.2337486 -0.470447,2.4810106 -1.269531,2.6726956 z"
       id="path847"
       inkscape:connector-curvature="0"
       sodipodi:nodetypes="cczc" />
    <path
       style="fill:none;stroke:#000000;stroke-width:0.26458332px;stroke-linecap:butt;stroke-linejoin:miter;stroke-opacity:1"
       d="m 31.036672,6.2947504 0.601359,4.7440336"
       id="path849"
       inkscape:connector-curvature="0" />
    <path
       style="fill:none;stroke:#000000;stroke-width:0.26458332px;stroke-linecap:butt;stroke-linejoin:miter;stroke-opacity:1"
       d="m 34.544587,6.2947504 -1.33635,-0.033409 0.06682,4.5101736 1.269532,-0.03341"
       id="path851"
       inkscape:connector-curvature="0" />
    <path
       style="fill:none;stroke:#000000;stroke-width:0.26458332px;stroke-linecap:butt;stroke-linejoin:miter;stroke-opacity:1"
       d="m 33.141422,8.4329065 1.202711,-0.033409"
       id="path853"
       inkscape:connector-curvature="0" />
    <path
       style="fill:none;stroke:#000000;stroke-width:0.26458332px;stroke-linecap:butt;stroke-linejoin:miter;stroke-opacity:1"
       d="m 36.01457,6.3949764 1.804069,0.3340868"
       id="path855"
       inkscape:connector-curvature="0" />
    <path
       style="fill:none;stroke:#000000;stroke-width:0.26458332px;stroke-linecap:butt;stroke-linejoin:miter;stroke-opacity:1"
       d="M 36.950012,6.5620198 36.281838,11.072193"
       id="path857"
       inkscape:connector-curvature="0" />
    <path
       style="fill:none;stroke:#000000;stroke-width:0.26458332px;stroke-linecap:butt;stroke-linejoin:miter;stroke-opacity:1"
       d="M 37.818639,11.272645 40.123837,7.0631502 39.55589,11.807184"
       id="path859"
       inkscape:connector-curvature="0" />
    <path
       style="fill:none;stroke:#000000;stroke-width:0.26458332px;stroke-linecap:butt;stroke-linejoin:miter;stroke-opacity:1"
       d="m 38.653854,9.9697062 1.102487,0.4009048"
       id="path861"
       inkscape:connector-curvature="0" />
    <path
       style="fill:none;stroke:#000000;stroke-width:0.26458332px;stroke-linecap:butt;stroke-linejoin:miter;stroke-opacity:1"
       d="m 27.595578,28.110624 c -1.016594,-0.115804 -1.353063,0.616209 -1.302938,1.670436 0.05013,1.054227 0.384455,1.400239 1.369756,1.302938"
       id="path863"
       inkscape:connector-curvature="0"
       sodipodi:nodetypes="czc" />
    <path
       style="fill:none;stroke:#000000;stroke-width:0.26458332px;stroke-linecap:butt;stroke-linejoin:miter;stroke-opacity:1"
       d="m 29.199197,28.110624 c 1.366972,0.03403 1.250524,3.122587 -0.06682,3.140419 -1.317344,0.01783 -1.300152,-3.174452 0.06682,-3.140419 z"
       id="path865"
       inkscape:connector-curvature="0"
       sodipodi:nodetypes="zzz" />
    <path
       style="fill:none;stroke:#000000;stroke-width:0.26458332px;stroke-linecap:butt;stroke-linejoin:miter;stroke-opacity:1"
       d="m 38.787018,28.177535 c 1.366972,0.03403 1.250524,3.122587 -0.06682,3.140419 -1.317344,0.01783 -1.300152,-3.174452 0.06682,-3.140419 z"
       id="path865-4"
       inkscape:connector-curvature="0"
       sodipodi:nodetypes="zzz" />
    <path
       style="fill:none;stroke:#000000;stroke-width:0.26458332px;stroke-linecap:butt;stroke-linejoin:miter;stroke-opacity:1"
       d="m 31.070081,31.251043 0.100227,-3.274052 1.336347,3.140416 0.06682,-3.107007"
       id="path882"
       inkscape:connector-curvature="0" />
    <path
       style="fill:none;stroke:#000000;stroke-width:0.26458332px;stroke-linecap:butt;stroke-linejoin:miter;stroke-opacity:1"
       d="m 33.341873,28.177442 h 1.670434"
       id="path884"
       inkscape:connector-curvature="0" />
    <path
       style="fill:none;stroke:#000000;stroke-width:0.26458332px;stroke-linecap:butt;stroke-linejoin:miter;stroke-opacity:1"
       d="m 34.177091,28.177442 -0.03341,3.240643"
       id="path886"
       inkscape:connector-curvature="0" />
    <path
       style="fill:none;stroke:#000000;stroke-width:0.26458332px;stroke-linecap:butt;stroke-linejoin:miter;stroke-opacity:1"
       d="m 35.713889,31.284452 0.03341,-3.207234 c 0,0 1.296742,-0.13441 1.33635,0.868624 0.03961,1.003034 -1.169305,0.801809 -1.169305,0.801809 0.629984,0.47536 0.984175,1.005879 1.169305,1.57021"
       id="path888"
       inkscape:connector-curvature="0"
       sodipodi:nodetypes="cczcc" />
    <path
       style="fill:none;stroke:#000000;stroke-width:0.26458332px;stroke-linecap:butt;stroke-linejoin:miter;stroke-opacity:1"
       d="m 40.558151,27.976991 v 3.107007 h 1.069078"
       id="path890"
       inkscape:connector-curvature="0" />
    <path
       style="fill:none;stroke:#000000;stroke-width:0.26458332px;stroke-linecap:butt;stroke-linejoin:miter;stroke-opacity:1"
       d="m 31.638031,32.420345 v 3.541324"
       id="path892"
       inkscape:connector-curvature="0" />
    <path
       style="fill:none;stroke:#000000;stroke-width:0.26458332px;stroke-linecap:butt;stroke-linejoin:miter;stroke-opacity:1"
       d="m 31.61846,34.092808 c -0.101774,-0.692019 -1.170113,-0.504536 -1.183143,-0.03543 v 1.369755 c 0.08996,0.576775 1.122865,0.525911 1.194955,0"
       id="path894"
       inkscape:connector-curvature="0"
       sodipodi:nodetypes="cccc" />
    <path
       style="fill:none;stroke:#000000;stroke-width:0.26458332px;stroke-linecap:butt;stroke-linejoin:miter;stroke-opacity:1"
       d="m 32.612258,34.695852 h 1.181177 c 0,0 -0.03908,-1.108968 -0.651836,-1.129012 -0.61276,-0.02004 -0.564776,0.774658 -0.564776,0.774658 v 0.956752 c 0.06252,0.633154 0.880235,0.686584 1.182573,0.31687"
       id="path896"
       inkscape:connector-curvature="0"
       sodipodi:nodetypes="cczccc" />
    <path
       style="fill:none;stroke:#000000;stroke-width:0.26458332px;stroke-linecap:butt;stroke-linejoin:miter;stroke-opacity:1"
       d="m 35.296281,32.487163 v 3.4578"
       id="path898"
       inkscape:connector-curvature="0" />
    <path
       style="fill:none;stroke:#000000;stroke-width:0.26458332px;stroke-linecap:butt;stroke-linejoin:miter;stroke-opacity:1"
       d="m 36.315247,33.739989 c 0.355141,-0.05551 0.735869,-0.302919 1.007235,0.269888 v 1.918383"
       id="path900"
       inkscape:connector-curvature="0"
       sodipodi:nodetypes="ccc" />
    <path
       style="fill:none;stroke:#000000;stroke-width:0.26458332px;stroke-linecap:butt;stroke-linejoin:miter;stroke-opacity:1"
       d="m 37.284099,34.575207 c -0.433977,-0.154356 -0.824108,-0.185942 -1.037286,0.27794 v 0.640799 c 0.151205,0.386286 0.672505,0.562221 1.02321,0.03135"
       id="path902"
       inkscape:connector-curvature="0"
       sodipodi:nodetypes="cccc" />
    <path
       style="fill:none;stroke:#000000;stroke-width:0.26458332px;stroke-linecap:butt;stroke-linejoin:miter;stroke-opacity:1"
       d="m 23.198289,37.778719 v 5.622395 c 0,0 2.411166,-0.571873 2.362351,-2.929313 -0.04881,-2.35744 -2.362351,-2.693082 -2.362351,-2.693082 z"
       id="path904"
       inkscape:connector-curvature="0"
       sodipodi:nodetypes="cczc" />
    <path
       style="fill:none;stroke:#000000;stroke-width:0.26458332px;stroke-linecap:butt;stroke-linejoin:miter;stroke-opacity:1"
       d="M 26.600073,37.684225 V 43.49561"
       id="path906"
       inkscape:connector-curvature="0" />
    <path
       style="fill:none;stroke:#000000;stroke-width:0.26458332px;stroke-linecap:butt;stroke-linejoin:miter;stroke-opacity:1"
       d="m 28.064732,43.353868 0.944941,-5.622396 1.228421,5.669642"
       id="path908"
       inkscape:connector-curvature="0" />
    <path
       style="fill:none;stroke:#000000;stroke-width:0.26458332px;stroke-linecap:butt;stroke-linejoin:miter;stroke-opacity:1"
       d="m 28.489955,41.511235 h 1.27567"
       id="path910"
       inkscape:connector-curvature="0" />
    <path
       style="fill:none;stroke:#000000;stroke-width:0.26458332px;stroke-linecap:butt;stroke-linejoin:miter;stroke-opacity:1"
       d="m 31.41927,43.306621 v -5.575149 c 0,0 2.204569,0.234324 2.126115,1.559153 -0.07845,1.324829 -2.173361,1.228423 -2.173361,1.228423 0,0 2.250211,-0.0019 2.173361,1.55915 -0.07685,1.561001 -2.126115,1.228423 -2.126115,1.228423 z"
       id="path912"
       inkscape:connector-curvature="0"
       sodipodi:nodetypes="cczczc" />
    <path
       style="fill:none;stroke:#000000;stroke-width:0.26458332px;stroke-linecap:butt;stroke-linejoin:miter;stroke-opacity:1"
       d="M 36.096725,38.062201 H 34.44308 v 5.149927 h 1.842635"
       id="path914"
       inkscape:connector-curvature="0" />
    <path
       style="fill:none;stroke:#000000;stroke-width:0.26458332px;stroke-linecap:butt;stroke-linejoin:miter;stroke-opacity:1"
       d="m 34.44308,40.613541 h 1.653645"
       id="path916"
       inkscape:connector-curvature="0" />
    <path
       style="fill:none;stroke:#000000;stroke-width:0.26458332px;stroke-linecap:butt;stroke-linejoin:miter;stroke-opacity:1"
       d="m 36.947173,38.109448 h 2.220611"
       id="path918"
       inkscape:connector-curvature="0" />
    <path
       style="fill:none;stroke:#000000;stroke-width:0.26458332px;stroke-linecap:butt;stroke-linejoin:miter;stroke-opacity:1"
       d="m 37.93936,38.109448 v 5.197173"
       id="path920"
       inkscape:connector-curvature="0" />
    <path
       style="fill:none;stroke:#000000;stroke-width:0.26458332px;stroke-linecap:butt;stroke-linejoin:miter;stroke-opacity:1"
       d="M 44.317708,38.345684 C 43.50811,37.3079 41.70468,37.945138 43.467263,40.519048 c 1.762583,2.57391 0.553287,3.477072 -0.944941,2.362351"
       id="path922"
       inkscape:connector-curvature="0"
       sodipodi:nodetypes="czc" />
    <path
       style="fill:none;stroke:#000000;stroke-width:0.26458332px;stroke-linecap:butt;stroke-linejoin:miter;stroke-opacity:1"
       d="m 41.667149,38.180319 h -1.653645 v 5.149927 h 1.842635"
       id="path914-6"
       inkscape:connector-curvature="0" />
    <path
       style="fill:none;stroke:#000000;stroke-width:0.26458332px;stroke-linecap:butt;stroke-linejoin:miter;stroke-opacity:1"
       d="m 40.013504,40.731659 h 1.653645"
       id="path916-1"
       inkscape:connector-curvature="0" />
    <path
       style="fill:none;stroke:#000000;stroke-width:0.26458332px;stroke-linecap:butt;stroke-linejoin:miter;stroke-opacity:1"
       d="m 3.5747298,37.197789 c -0.3251464,0.931305 0.6702656,2.392062 2.1047477,1.035669 1.4344821,-1.356393 2.6907468,-0.963099 2.2717908,0.7684"
       id="path942"
       inkscape:connector-curvature="0"
       sodipodi:nodetypes="czc" />
    <path
       style="fill:none;stroke:#000000;stroke-width:0.26458332px;stroke-linecap:butt;stroke-linejoin:miter;stroke-opacity:1"
       d="m 8.0849032,41.173423 c 0.1105682,1.385656 -4.5218974,1.629416 -4.6103994,0.23386 -0.068322,-1.335142 4.4356562,-1.86732 4.6103994,-0.23386 z"
       id="path944"
       inkscape:connector-curvature="0"
       sodipodi:nodetypes="ccc" />
    <path
       style="fill:none;stroke:#000000;stroke-width:0.26458332px;stroke-linecap:butt;stroke-linejoin:miter;stroke-opacity:1"
       d="M 8.5192162,43.445215 3.7417734,44.514293"
       id="path946"
       inkscape:connector-curvature="0" />
    <path
       style="fill:none;stroke:#000000;stroke-width:0.26458332px;stroke-linecap:butt;stroke-linejoin:miter;stroke-opacity:1"
       d="m 8.5860336,44.681335 c 0,0 0.478065,1.489352 -1.5367997,2.238383 -2.0148647,0.749031 -2.7729214,-0.801809 -2.7729214,-0.801809"
       id="path948"
       inkscape:connector-curvature="0"
       sodipodi:nodetypes="czc" />
    <path
       style="fill:none;stroke:#000000;stroke-width:0.26458332px;stroke-linecap:butt;stroke-linejoin:miter;stroke-opacity:1"
       d="M 9.822155,47.354032 5.4122079,49.325143"
       id="path950"
       inkscape:connector-curvature="0" />
    <path
       style="fill:none;stroke:#000000;stroke-width:0.26458332px;stroke-linecap:butt;stroke-linejoin:miter;stroke-opacity:1"
       d="m 12.895755,51.864204 -3.507913,3.207234 c 0,0 -1.1058311,-1.312965 -0.200452,-2.138156 0.905379,-0.825191 1.904295,0.367495 1.904295,0.367495 -0.113973,-1.081519 0.33169,-1.88322 0.734991,-2.706102"
       id="path952"
       inkscape:connector-curvature="0"
       sodipodi:nodetypes="cczcc" />
    <path
       style="fill:none;stroke:#000000;stroke-width:0.26458332px;stroke-linecap:butt;stroke-linejoin:miter;stroke-opacity:1"
       d="m 13.563928,52.899873 1.102487,0.968854 -2.906556,3.407685 -1.002261,-0.902033"
       id="path954"
       inkscape:connector-curvature="0" />
    <path
       style="fill:none;stroke:#000000;stroke-width:0.26458332px;stroke-linecap:butt;stroke-linejoin:miter;stroke-opacity:1"
       d="M 13.096207,55.505751 12.194172,54.703942"
       id="path956"
       inkscape:connector-curvature="0" />
    <path
       style="fill:none;stroke:#000000;stroke-width:0.26458332px;stroke-linecap:butt;stroke-linejoin:miter;stroke-opacity:1"
       d="m 16.542616,55.24342 c -0.64164,-0.460613 -1.144516,-0.101714 -1.437901,0.429902 l -1.846289,2.867493"
       id="path958"
       inkscape:connector-curvature="0"
       sodipodi:nodetypes="ccc" />
    <path
       style="fill:none;stroke:#000000;stroke-width:0.26458332px;stroke-linecap:butt;stroke-linejoin:miter;stroke-opacity:1"
       d="m 10.302678,48.597099 c 0,0 0.79198,1.348882 -1.0104973,2.52012 -1.8024778,1.17124 -2.8811206,-0.176451 -2.8811206,-0.176451"
       id="path948-0"
       inkscape:connector-curvature="0"
       sodipodi:nodetypes="czc" />
    <path
       style="fill:none;stroke:#000000;stroke-width:0.26458332px;stroke-linecap:butt;stroke-linejoin:miter;stroke-opacity:1"
       d="m 17.494425,55.786017 1.299308,0.682607 -2.024263,3.99534 -1.186185,-0.641214"
       id="path954-3"
       inkscape:connector-curvature="0" />
    <path
       style="fill:none;stroke:#000000;stroke-width:0.26458332px;stroke-linecap:butt;stroke-linejoin:miter;stroke-opacity:1"
       d="M 17.652244,58.428829 16.587032,57.861475"
       id="path956-2"
       inkscape:connector-curvature="0" />
    <path
       style="fill:none;stroke:#000000;stroke-width:0.26458332px;stroke-linecap:butt;stroke-linejoin:miter;stroke-opacity:1"
       d="m 57.897262,33.222154 4.977895,-1.00226 -4.443357,2.238383 4.944485,-0.300678 -4.677216,1.703843"
       id="path993"
       inkscape:connector-curvature="0" />
    <path
       style="fill:none;stroke:#000000;stroke-width:0.26458332px;stroke-linecap:butt;stroke-linejoin:miter;stroke-opacity:1"
       d="m 59.367245,38.534136 -0.100227,-1.403165 4.510172,-0.400905 0.03341,1.269532"
       id="path995"
       inkscape:connector-curvature="0" />
    <path
       style="fill:none;stroke:#000000;stroke-width:0.26458332px;stroke-linecap:butt;stroke-linejoin:miter;stroke-opacity:1"
       d="m 61.471992,36.997338 0.100224,1.035669"
       id="path997"
       inkscape:connector-curvature="0" />
    <path
       style="fill:none;stroke:#000000;stroke-width:0.26458332px;stroke-linecap:butt;stroke-linejoin:miter;stroke-opacity:1"
       d="m 63.944235,40.004118 -4.777444,-0.200451 c 0,0 -0.149329,1.767777 2.171565,1.837479 2.320894,0.0697 2.605879,-1.637028 2.605879,-1.637028 z"
       id="path999"
       inkscape:connector-curvature="0"
       sodipodi:nodetypes="cczc" />
    <path
       style="fill:none;stroke:#000000;stroke-width:0.26458332px;stroke-linecap:butt;stroke-linejoin:miter;stroke-opacity:1"
       d="M 63.743781,43.712484 58.799295,42.843857"
       id="path1001"
       inkscape:connector-curvature="0" />
    <path
       style="fill:none;stroke:#000000;stroke-width:0.26458332px;stroke-linecap:butt;stroke-linejoin:miter;stroke-opacity:1"
       d="m 62.374025,47.287214 c 0,0 0.752407,-1.773753 -1.536798,-2.338609 -2.289206,-0.564856 -2.605878,1.202713 -2.605878,1.202713"
       id="path1003"
       inkscape:connector-curvature="0"
       sodipodi:nodetypes="czc" />
    <path
       style="fill:none;stroke:#000000;stroke-width:0.26458332px;stroke-linecap:butt;stroke-linejoin:miter;stroke-opacity:1"
       d="M 57.763626,46.552222 61.77267,49.65923 56.86159,48.256065"
       id="path1005"
       inkscape:connector-curvature="0" />
    <path
       style="fill:none;stroke:#000000;stroke-width:0.26458332px;stroke-linecap:butt;stroke-linejoin:miter;stroke-opacity:1"
       d="M 58.899522,47.587892 58.4318,48.590152"
       id="path1007"
       inkscape:connector-curvature="0" />
    <path
       style="fill:none;stroke:#000000;stroke-width:0.26458332px;stroke-linecap:butt;stroke-linejoin:miter;stroke-opacity:1"
       d="m 56.327053,49.19151 3.741774,3.240643 -4.443357,-2.104747 3.307461,3.841999 -4.176088,-2.772921"
       id="path1009"
       inkscape:connector-curvature="0" />
    <path
       style="fill:none;stroke:#000000;stroke-width:0.26458332px;stroke-linecap:butt;stroke-linejoin:miter;stroke-opacity:1"
       d="m 52.919365,53.501231 1.06908,-0.902036 3.006781,3.507912 -1.069078,0.835218"
       id="path1011"
       inkscape:connector-curvature="0" />
    <path
       style="fill:none;stroke:#000000;stroke-width:0.26458332px;stroke-linecap:butt;stroke-linejoin:miter;stroke-opacity:1"
       d="m 55.257974,54.303038 -0.668173,0.668176"
       id="path1013"
       inkscape:connector-curvature="0" />
    <path
       style="fill:none;stroke:#000000;stroke-width:0.26458332px;stroke-linecap:butt;stroke-linejoin:miter;stroke-opacity:1"
       d="m 51.883696,54.00236 2.772923,4.075861 -4.276312,-3.207234 2.672693,4.209494"
       id="path1015"
       inkscape:connector-curvature="0" />
    <path
       style="fill:none;stroke:#000000;stroke-width:0.26458332px;stroke-linecap:butt;stroke-linejoin:miter;stroke-opacity:1"
       d="m 51.5162,59.514795 -1.77066,0.935442"
       id="path1017"
       inkscape:connector-curvature="0" />
    <path
       style="fill:none;stroke:#000000;stroke-width:0.26458332px;stroke-linecap:butt;stroke-linejoin:miter;stroke-opacity:1"
       d="m 50.580758,59.949108 -2.03793,-4.10927"
       id="path1019"
       inkscape:connector-curvature="0" />
    <path
       style="fill:none;stroke:#000000;stroke-width:0.26458332px;stroke-linecap:butt;stroke-linejoin:miter;stroke-opacity:1"
       d="m 47.206479,61.318864 c 1.136499,-0.369368 -0.06529,-4.655038 -1.069078,-4.476766 -1.399126,0.35805 -0.05974,4.861549 1.069078,4.476766 z"
       id="path1021"
       inkscape:connector-curvature="0"
       sodipodi:nodetypes="ccc" />
    <path
       style="fill:none;stroke:#000000;stroke-width:0.26458332px;stroke-linecap:butt;stroke-linejoin:miter;stroke-opacity:1"
       d="m 43.13062,61.886811 c 1.152414,0.100318 2.482364,-0.679861 0.534538,-2.204974 -1.947826,-1.525113 -0.301573,-2.306169 0.601358,-2.23838"
       id="path1023"
       inkscape:connector-curvature="0"
       sodipodi:nodetypes="czc" />
  </g>
</svg>
