<?xml version="1.0" encoding="UTF-8" standalone="no"?>
<!-- Created with Inkscape (http://www.inkscape.org/) -->

<svg
   xmlns:dc="http://purl.org/dc/elements/1.1/"
   xmlns:cc="http://creativecommons.org/ns#"
   xmlns:rdf="http://www.w3.org/1999/02/22-rdf-syntax-ns#"
   xmlns:svg="http://www.w3.org/2000/svg"
   xmlns="http://www.w3.org/2000/svg"
   xmlns:sodipodi="http://sodipodi.sourceforge.net/DTD/sodipodi-0.dtd"
   xmlns:inkscape="http://www.inkscape.org/namespaces/inkscape"
   width="256"
   height="256"
   viewBox="0 0 67.733332 67.733335"
   version="1.1"
   id="svg5937"
   inkscape:version="0.92.2 (5c3e80d, 2017-08-06)"
   sodipodi:docname="fig19.svg">
  <defs
     id="defs5931" />
  <sodipodi:namedview
     id="base"
     pagecolor="#ffffff"
     bordercolor="#666666"
     borderopacity="1.0"
     inkscape:pageopacity="0.0"
     inkscape:pageshadow="2"
     inkscape:zoom="1.979899"
     inkscape:cx="64.095038"
     inkscape:cy="83.902138"
     inkscape:document-units="px"
     inkscape:current-layer="layer2"
     showgrid="false"
     units="px"
     showguides="true"
     inkscape:guide-bbox="true"
     inkscape:window-width="1366"
     inkscape:window-height="745"
     inkscape:window-x="-8"
     inkscape:window-y="-8"
     inkscape:window-maximized="1"
     inkscape:snap-global="false">
    <sodipodi:guide
       position="67.686007,52.85255"
       orientation="1,0"
       id="guide869"
       inkscape:locked="false" />
  </sodipodi:namedview>
  <metadata
     id="metadata5934">
    <rdf:RDF>
      <cc:Work
         rdf:about="">
        <dc:format>image/svg+xml</dc:format>
        <dc:type
           rdf:resource="http://purl.org/dc/dcmitype/StillImage" />
        <dc:title />
      </cc:Work>
    </rdf:RDF>
  </metadata>
  <g
     inkscape:groupmode="layer"
     id="layer2"
     inkscape:label="Capa 2"
     style="display:inline">
    <path
       style="fill:none;stroke:#000000;stroke-width:0.26458332px;stroke-linecap:butt;stroke-linejoin:miter;stroke-opacity:1"
       d="M 47.573975,21.62934 C 47.055791,11.530178 16.143422,6.9784882 0.40090428,10.671289 20.323735,10.28428 28.941999,15.055665 30.535544,23.032505 c 2.142521,1.123247 4.429584,1.09016 6.748555,0.801808"
       id="path817"
       inkscape:connector-curvature="0"
       sodipodi:nodetypes="cccc" />
    <path
       style="fill:none;stroke:#000000;stroke-width:0.26458332px;stroke-linecap:butt;stroke-linejoin:miter;stroke-opacity:1"
       d="M 0.26726951,12.742628 C 16.776086,11.103605 31.83398,20.491271 30.802812,26.440191"
       id="path819"
       inkscape:connector-curvature="0"
       sodipodi:nodetypes="cc" />
    <path
       style="fill:none;stroke:#000000;stroke-width:0.26458332px;stroke-linecap:butt;stroke-linejoin:miter;stroke-opacity:1"
       d="M 25.52424,24.970209 C -2.666448,19.305061 1.8858043,18.853757 0.26726951,17.419844 23.622888,17.562834 21.695434,24.321874 30.669177,26.774278 c 2.659015,0.575746 4.512293,0.670021 6.414471,0.133635"
       id="path821"
       inkscape:connector-curvature="0"
       sodipodi:nodetypes="cccc" />
    <path
       style="fill:none;stroke:#000000;stroke-width:0.26458332px;stroke-linecap:butt;stroke-linejoin:miter;stroke-opacity:1"
       d="m 14.566189,22.497966 c 0.270393,1.169408 0.522275,2.333121 -1.469982,2.806329 -8.0504421,1.502723 -10.5985218,1.22527 -12.69530272,0.801809"
       id="path823"
       inkscape:connector-curvature="0"
       sodipodi:nodetypes="ccc" />
    <path
       style="fill:none;stroke:#000000;stroke-width:0.26458332px;stroke-linecap:butt;stroke-linejoin:miter;stroke-opacity:1"
       d="m 14.098467,25.037026 0.26727,16.370257"
       id="path825"
       inkscape:connector-curvature="0" />
    <path
       style="fill:none;stroke:#000000;stroke-width:0.26458332px;stroke-linecap:butt;stroke-linejoin:miter;stroke-opacity:1"
       d="m 11.091685,30.449234 0.133635,-1.469983 c 0.06463,-0.651622 -0.470367,-0.836871 -1.202713,-0.868624 l -4.3431295,0.534537 c -0.8352542,0.06476 -1.5977963,0.19562 -1.4699824,1.135896 l -0.066818,1.469983 c -0.00671,0.621099 -0.1961695,1.346627 1.6036173,0.935442 l 4.3431306,-0.734991 c 0.496453,-0.102134 1.102009,-0.04841 1.00226,-1.00226 z"
       id="path827"
       inkscape:connector-curvature="0"
       sodipodi:nodetypes="ccccccccc" />
    <path
       style="fill:none;stroke:#000000;stroke-width:0.26458332px;stroke-linecap:butt;stroke-linejoin:miter;stroke-opacity:1"
       d="m 7.550364,34.12419 0.4677216,7.349911"
       id="path829"
       inkscape:connector-curvature="0" />
    <path
       style="fill:none;stroke:#000000;stroke-width:0.26458332px;stroke-linecap:butt;stroke-linejoin:miter;stroke-opacity:1"
       d="M 0.33408691,44.681335 36.749558,36.39598"
       id="path831"
       inkscape:connector-curvature="0" />
    <path
       style="fill:none;stroke:#000000;stroke-width:0.26458332px;stroke-linecap:butt;stroke-linejoin:miter;stroke-opacity:1"
       d="M 0.46772168,45.817231 33.742778,37.598693"
       id="path833"
       inkscape:connector-curvature="0" />
    <path
       style="fill:none;stroke:#000000;stroke-width:0.26458332px;stroke-linecap:butt;stroke-linejoin:miter;stroke-opacity:1"
       d="m 29.800551,15.548958 9.621704,-0.200452 c 1.431344,0.636182 3.574443,1.292746 5.679477,5.011303 0.147475,0.426868 0.528744,0.91608 -0.601356,1.002261 l -9.755338,0.26727 c -0.907564,0.20647 -1.036965,-0.324105 -1.469983,-1.202713 -0.594369,-1.536124 -1.730281,-3.108438 -3.474504,-4.877669 z"
       id="path835"
       inkscape:connector-curvature="0"
       sodipodi:nodetypes="ccccccc" />
    <path
       style="fill:none;stroke:#000000;stroke-width:0.26458332px;stroke-linecap:butt;stroke-linejoin:miter;stroke-opacity:1"
       d="m 33.007786,16.885305 1.57021,0.03341"
       id="path837"
       inkscape:connector-curvature="0" />
    <path
       style="fill:none;stroke:#000000;stroke-width:0.26458332px;stroke-linecap:butt;stroke-linejoin:miter;stroke-opacity:1"
       d="m 36.749561,16.751671 1.46998,-0.100226"
       id="path839"
       inkscape:connector-curvature="0" />
    <path
       style="fill:none;stroke:#000000;stroke-width:0.26458332px;stroke-linecap:butt;stroke-linejoin:miter;stroke-opacity:1"
       d="m 39.489073,16.618036 0.968851,-0.06682"
       id="path841"
       inkscape:connector-curvature="0" />
    <path
       style="fill:none;stroke:#000000;stroke-width:0.26458332px;stroke-linecap:butt;stroke-linejoin:miter;stroke-opacity:1"
       d="m 37.451143,18.455514 2.171563,-0.167044 0.835218,1.5368 -2.305198,0.03341 z"
       id="path843"
       inkscape:connector-curvature="0" />
    <path
       style="fill:none;stroke:#000000;stroke-width:0.26458332px;stroke-linecap:butt;stroke-linejoin:miter;stroke-opacity:1"
       d="m 36.24843,18.422105 0.534537,1.369757 -2.372016,0.100226 -0.601355,-1.403166 z"
       id="path845"
       inkscape:connector-curvature="0" />
    <path
       style="fill:none;stroke:#000000;stroke-width:0.26458332px;stroke-linecap:butt;stroke-linejoin:miter;stroke-opacity:1"
       d="m 41.426775,19.123688 c 0.296683,0.714369 1.482648,0.614282 1.236123,-0.167044 -0.516695,-0.876199 -1.46228,-0.770372 -1.236123,0.167044 z"
       id="path847"
       inkscape:connector-curvature="0"
       sodipodi:nodetypes="ccc" />
    <path
       style="fill:none;stroke:#000000;stroke-width:0.26458332px;stroke-linecap:butt;stroke-linejoin:miter;stroke-opacity:1"
       d="M 66.550111,25.170661 44.968099,21.36207"
       id="path849"
       inkscape:connector-curvature="0" />
    <path
       style="fill:none;stroke:#000000;stroke-width:0.26458332px;stroke-linecap:butt;stroke-linejoin:miter;stroke-opacity:1"
       d="M 66.616928,27.375635 39.355437,21.829792 c -1.791799,-0.569615 -2.294456,0.233084 -2.138156,1.737252 l -0.601356,24.187892 c 0.0197,1.316643 0.02182,2.650875 1.269529,2.739512 L 66.416477,63.45702"
       id="path851"
       inkscape:connector-curvature="0"
       sodipodi:nodetypes="cccccc" />
    <path
       style="fill:none;stroke:#000000;stroke-width:0.26458332px;stroke-linecap:butt;stroke-linejoin:miter;stroke-opacity:1"
       d="M 66.618302,29.935715 40.065475,23.699107 C 39.437297,23.506155 38.96022,23.06543 38.848517,24.766218 l -0.86191,22.083931 c -0.168554,1.910186 0.942718,1.992048 1.984375,2.173361 l 25.985861,10.394347"
       id="path853"
       inkscape:connector-curvature="0"
       sodipodi:nodetypes="cccccc" />
    <path
       style="fill:none;stroke:#000000;stroke-width:0.26458332px;stroke-linecap:butt;stroke-linejoin:miter;stroke-opacity:1"
       d="M 66.550111,32.58739 55.124339,29.647425 54.723434,44.013162 66.951015,48.489928"
       id="path855"
       inkscape:connector-curvature="0" />
    <path
       style="fill:none;stroke:#000000;stroke-width:0.26458332px;stroke-linecap:butt;stroke-linejoin:miter;stroke-opacity:1"
       d="m 64.478772,32.186485 -1.00226,15.167547"
       id="path857"
       inkscape:connector-curvature="0" />
    <path
       style="fill:none;stroke:#000000;stroke-width:0.26458332px;stroke-linecap:butt;stroke-linejoin:miter;stroke-opacity:1"
       d="M 61.605625,31.451494 60.670183,46.151318"
       id="path859"
       inkscape:connector-curvature="0" />
    <path
       style="fill:none;stroke:#000000;stroke-width:0.26458332px;stroke-linecap:butt;stroke-linejoin:miter;stroke-opacity:1"
       d="M 58.398391,30.649685 57.663399,45.149058"
       id="path861"
       inkscape:connector-curvature="0" />
    <path
       style="fill:none;stroke:#000000;stroke-width:0.26458332px;stroke-linecap:butt;stroke-linejoin:miter;stroke-opacity:1"
       d="m 54.85707,40.605477 12.294399,4.276312"
       id="path863"
       inkscape:connector-curvature="0" />
    <path
       style="fill:none;stroke:#000000;stroke-width:0.26458332px;stroke-linecap:butt;stroke-linejoin:miter;stroke-opacity:1"
       d="m 55.057521,37.197789 11.759861,3.608139"
       id="path865"
       inkscape:connector-curvature="0" />
    <path
       style="fill:none;stroke:#000000;stroke-width:0.26458332px;stroke-linecap:butt;stroke-linejoin:miter;stroke-opacity:1"
       d="m 55.191157,33.522832 11.559407,3.34087"
       id="path867"
       inkscape:connector-curvature="0" />
    <path
       style="fill:none;stroke:#000000;stroke-width:0.26458332px;stroke-linecap:butt;stroke-linejoin:miter;stroke-opacity:1"
       d="M 66.750564,51.496708 54.85707,46.953127 54.656619,51.42989 66.550111,56.307561"
       id="path871"
       inkscape:connector-curvature="0" />
    <path
       style="fill:none;stroke:#000000;stroke-width:0.26458332px;stroke-linecap:butt;stroke-linejoin:miter;stroke-opacity:1"
       d="m 63.944235,50.694902 -0.06682,4.409945"
       id="path873"
       inkscape:connector-curvature="0" />
    <path
       style="fill:none;stroke:#000000;stroke-width:0.26458332px;stroke-linecap:butt;stroke-linejoin:miter;stroke-opacity:1"
       d="m 59.333836,48.690379 -0.33409,4.409948"
       id="path875"
       inkscape:connector-curvature="0" />
    <path
       style="fill:none;stroke:#000000;stroke-width:0.26458332px;stroke-linecap:butt;stroke-linejoin:miter;stroke-opacity:1"
       d="m 40.491333,25.772017 11.960312,3.207234 -1.069078,22.851544 -12.02713,-4.610399 z"
       id="path877"
       inkscape:connector-curvature="0" />
    <path
       style="fill:none;stroke:#000000;stroke-width:0.26458332px;stroke-linecap:butt;stroke-linejoin:miter;stroke-opacity:1"
       d="m 53.955037,29.446974 0.701582,0.167042"
       id="path879"
       inkscape:connector-curvature="0" />
    <path
       style="fill:none;stroke:#000000;stroke-width:0.26458332px;stroke-linecap:butt;stroke-linejoin:miter;stroke-opacity:1"
       d="m 53.687765,33.322381 0.968854,0.267269"
       id="path881"
       inkscape:connector-curvature="0" />
    <path
       style="fill:none;stroke:#000000;stroke-width:0.26458332px;stroke-linecap:butt;stroke-linejoin:miter;stroke-opacity:1"
       d="m 53.554132,36.496206 0.868624,0.267269"
       id="path883"
       inkscape:connector-curvature="0" />
    <path
       style="fill:none;stroke:#000000;stroke-width:0.26458332px;stroke-linecap:butt;stroke-linejoin:miter;stroke-opacity:1"
       d="m 53.28686,40.104345 1.102487,0.23386"
       id="path885"
       inkscape:connector-curvature="0" />
    <path
       style="fill:none;stroke:#000000;stroke-width:0.26458332px;stroke-linecap:butt;stroke-linejoin:miter;stroke-opacity:1"
       d="m 53.153227,43.311579 0.768401,0.300678"
       id="path887"
       inkscape:connector-curvature="0" />
    <path
       style="fill:none;stroke:#000000;stroke-width:0.26458332px;stroke-linecap:butt;stroke-linejoin:miter;stroke-opacity:1"
       d="m 57.42954,45.549962 c 0.429672,0.216007 0.235352,1.182816 -0.133636,1.00226 -0.411793,-0.08604 -0.46059,-1.11702 0.133636,-1.00226 z"
       id="path889"
       inkscape:connector-curvature="0"
       sodipodi:nodetypes="ccc" />
    <path
       style="fill:none;stroke:#000000;stroke-width:0.26458332px;stroke-linecap:butt;stroke-linejoin:miter;stroke-opacity:1"
       d="m 60.682331,47.076346 c 0.429672,0.216007 0.235352,1.182816 -0.133636,1.00226 -0.411793,-0.08604 -0.46059,-1.11702 0.133636,-1.00226 z"
       id="path889-9"
       inkscape:connector-curvature="0"
       sodipodi:nodetypes="ccc" />
    <path
       style="fill:none;stroke:#000000;stroke-width:0.26458332px;stroke-linecap:butt;stroke-linejoin:miter;stroke-opacity:1"
       d="m 63.753387,48.080346 c 0.429672,0.216007 0.235352,1.182816 -0.133636,1.00226 -0.411793,-0.08604 -0.46059,-1.11702 0.133636,-1.00226 z"
       id="path889-1"
       inkscape:connector-curvature="0"
       sodipodi:nodetypes="ccc" />
    <path
       style="fill:none;stroke:#000000;stroke-width:0.26458332px;stroke-linecap:butt;stroke-linejoin:miter;stroke-opacity:1"
       d="m 55.123948,52.460561 c 0.429672,0.216007 0.235352,1.182816 -0.133636,1.00226 -0.411793,-0.08604 -0.46059,-1.11702 0.133636,-1.00226 z"
       id="path889-1-6"
       inkscape:connector-curvature="0"
       sodipodi:nodetypes="ccc" />
    <path
       style="fill:none;stroke:#000000;stroke-width:0.26458332px;stroke-linecap:butt;stroke-linejoin:miter;stroke-opacity:1"
       d="m 59.099583,54.030769 c 0.429672,0.216007 0.235352,1.182816 -0.133636,1.00226 -0.411793,-0.08604 -0.46059,-1.11702 0.133636,-1.00226 z"
       id="path889-1-4"
       inkscape:connector-curvature="0"
       sodipodi:nodetypes="ccc" />
    <path
       style="fill:none;stroke:#000000;stroke-width:0.26458332px;stroke-linecap:butt;stroke-linejoin:miter;stroke-opacity:1"
       d="m 63.943843,56.001882 c 0.429672,0.216007 0.235352,1.182816 -0.133636,1.00226 -0.411793,-0.08604 -0.46059,-1.11702 0.133636,-1.00226 z"
       id="path889-1-60"
       inkscape:connector-curvature="0"
       sodipodi:nodetypes="ccc" />
    <path
       style="fill:none;stroke:#000000;stroke-width:0.26458332px;stroke-linecap:butt;stroke-linejoin:miter;stroke-opacity:1"
       d="m 63.542939,59.910699 c 0.429672,0.216007 0.235352,1.182816 -0.133636,1.00226 -0.411793,-0.08604 -0.46059,-1.11702 0.133636,-1.00226 z"
       id="path889-1-8"
       inkscape:connector-curvature="0"
       sodipodi:nodetypes="ccc" />
    <path
       style="fill:none;stroke:#000000;stroke-width:0.26458332px;stroke-linecap:butt;stroke-linejoin:miter;stroke-opacity:1"
       d="m 59.901782,59.180708 -3.975634,-1.737251 c -0.652956,-0.333917 -0.470149,-1.268938 0.23386,-0.968854 l 3.975634,1.870887 c 0.628526,0.327382 0.686314,1.264887 -0.23386,0.835218 z"
       id="path954"
       inkscape:connector-curvature="0"
       sodipodi:nodetypes="ccccc" />
    <path
       style="fill:none;stroke:#000000;stroke-width:0.26458332px;stroke-linecap:butt;stroke-linejoin:miter;stroke-opacity:1"
       d="m 41.766368,26.392187 c 0.13291,2.929316 0.153197,6.059084 -0.458632,8.9884"
       id="path858"
       inkscape:connector-curvature="0"
       sodipodi:nodetypes="cc" />
    <path
       style="fill:none;stroke:#000000;stroke-width:0.26458332px;stroke-linecap:butt;stroke-linejoin:miter;stroke-opacity:1"
       d="m 42.097097,35.55811 c -1.524013,-0.456996 -1.593919,1.088725 -1.573973,2.056922 0.04442,0.526852 0.561959,0.927612 1.33774,0.966888 l 1.22842,0.188986 c 0.763554,0.05232 0.977728,-0.261622 0.84234,-1.131552 -0.132835,-0.612513 -0.359753,-0.901178 -0.700597,-1.089056 0.700685,-2.988447 0.503968,-6.425595 0.755952,-9.638392"
       id="path860"
       inkscape:connector-curvature="0"
       sodipodi:nodetypes="ccccccc" />
    <path
       style="fill:none;stroke:#000000;stroke-width:0.26458332px;stroke-linecap:butt;stroke-linejoin:miter;stroke-opacity:1"
       d="m 47.072846,27.642904 c 0.0721,2.745138 0.160571,5.487002 -0.200454,8.318765 -0.02376,0.81428 -0.400267,1.356773 -0.801806,2.00452 -0.384113,0.70517 -0.450783,1.625521 0.835215,2.171565 h 1.703843 c 1.473937,0.468085 1.538534,-0.609892 1.069078,-2.672696 -0.09618,-3.186844 -0.05514,-6.275673 0.467722,-9.020344"
       id="path862"
       inkscape:connector-curvature="0"
       sodipodi:nodetypes="ccccccc" />
    <path
       style="fill:none;stroke:#000000;stroke-width:0.26458332px;stroke-linecap:butt;stroke-linejoin:miter;stroke-opacity:1"
       d="m 40.758602,47.754936 c 0.431005,-1.325631 0.682237,-2.79508 0.668173,-4.476766 -0.112602,-0.842779 -0.29294,-1.206802 -0.734989,-2.037929 -0.109326,-0.510231 -0.156169,-0.957978 0,-1.202714 0.09045,-0.378828 0.243974,-0.702475 1.035669,-0.467719 l 0.902034,0.133633 c 0.674081,0.43933 1.363717,0.870363 0.734991,2.004523 l -0.434313,0.400902 c -0.251279,2.265225 -0.460286,4.42477 -0.534538,6.247426"
       id="path864"
       inkscape:connector-curvature="0"
       sodipodi:nodetypes="ccccccccc" />
    <path
       style="fill:none;stroke:#000000;stroke-width:0.26458332px;stroke-linecap:butt;stroke-linejoin:miter;stroke-opacity:1"
       d="m 45.970359,49.692639 c 0.388681,-1.649068 0.513352,-3.518144 0.367495,-5.612659"
       id="path866"
       inkscape:connector-curvature="0"
       sodipodi:nodetypes="cc" />
    <path
       style="fill:none;stroke:#000000;stroke-width:0.26458332px;stroke-linecap:butt;stroke-linejoin:miter;stroke-opacity:1"
       d="m 47.139664,44.31384 c -0.974294,0.494564 -1.631915,-1.579568 -1.369759,-2.204974 0.06935,-0.693402 1.605891,-1.952407 1.837478,-0.167042"
       id="path868"
       inkscape:connector-curvature="0"
       sodipodi:nodetypes="ccc" />
    <path
       style="fill:none;stroke:#000000;stroke-width:0.26458332px;stroke-linecap:butt;stroke-linejoin:miter;stroke-opacity:1"
       d="m 47.640792,41.373877 c 1.562094,-0.583926 2.704419,1.782131 0.267269,3.708363 l -0.334086,5.11153"
       id="path870"
       inkscape:connector-curvature="0"
       sodipodi:nodetypes="ccc" />
    <path
       style="fill:none;stroke:#000000;stroke-width:0.26458332px;stroke-linecap:butt;stroke-linejoin:miter;stroke-opacity:1"
       d="m 48.375784,50.527857 c 0.429534,-1.5693 0.528127,-3.185877 0.334086,-4.844259 0.243355,-0.450581 0.509064,-1.437662 0.668174,0.133633 0.153674,1.789813 0.02372,3.466173 -0.267269,5.078122"
       id="path872"
       inkscape:connector-curvature="0"
       sodipodi:nodetypes="cccc" />
    <path
       style="fill:none;stroke:#000000;stroke-width:0.26458332px;stroke-linecap:butt;stroke-linejoin:miter;stroke-opacity:1"
       d="m 52.585937,57.338989 c -0.09028,0.364472 -0.822413,1.817348 1.937128,3.590771 1.905096,1.465192 4.334233,2.406343 6.992559,3.118305 2.771974,0.584233 2.432828,-0.669924 2.55134,-1.653646"
       id="path874"
       inkscape:connector-curvature="0"
       sodipodi:nodetypes="cccc" />
    <path
       style="fill:none;stroke:#000000;stroke-width:0.26458332px;stroke-linecap:butt;stroke-linejoin:miter;stroke-opacity:1"
       d="m 49.089656,55.779836 -3.401785,1.464657 c -1.691231,0.78473 -0.300953,1.474645 0.803201,2.173364 l 13.134671,7.701264"
       id="path876"
       inkscape:connector-curvature="0"
       sodipodi:nodetypes="cccc" />
    <path
       style="fill:none;stroke:#000000;stroke-width:0.26458332px;stroke-linecap:butt;stroke-linejoin:miter;stroke-opacity:1"
       d="m 44.837426,58.23668 v 0.850448 c -0.01872,0.553799 0.541745,0.840279 1.086681,1.133927 l 11.339285,6.803573"
       id="path878"
       inkscape:connector-curvature="0"
       sodipodi:nodetypes="cccc" />
    <path
       style="fill:none;stroke:#000000;stroke-width:0.26458332px;stroke-linecap:butt;stroke-linejoin:miter;stroke-opacity:1"
       d="M 36.482289,47.153578 25.52424,50.761717 c -2.397264,1.34573 -0.96019,2.342883 0.467721,3.34087 l 20.379302,13.096205"
       id="path880"
       inkscape:connector-curvature="0"
       sodipodi:nodetypes="cccc" />
    <path
       style="fill:none;stroke:#000000;stroke-width:0.26458332px;stroke-linecap:butt;stroke-linejoin:miter;stroke-opacity:1"
       d="m 24.254709,52.365335 0.06682,2.071338 c 0.02137,1.203315 0.579987,2.048464 1.670434,2.539061 l 14.031649,10.223058"
       id="path882"
       inkscape:connector-curvature="0"
       sodipodi:nodetypes="cccc" />
    <path
       style="fill:none;stroke:#000000;stroke-width:0.26458332px;stroke-linecap:butt;stroke-linejoin:miter;stroke-opacity:1"
       d="M 32.205977,67.131977 V 61.586133 L 17.973876,67.131977"
       id="path884"
       inkscape:connector-curvature="0" />
    <path
       style="fill:none;stroke:#000000;stroke-width:0.26458332px;stroke-linecap:butt;stroke-linejoin:miter;stroke-opacity:1"
       d="M 28.33057,58.779803 5.2117558,67.065159"
       id="path886"
       inkscape:connector-curvature="0" />
    <path
       style="fill:none;stroke:#000000;stroke-width:0.26458332px;stroke-linecap:butt;stroke-linejoin:miter;stroke-opacity:1"
       d="M 25.25697,56.708465 0.40090428,64.592916"
       id="path888"
       inkscape:connector-curvature="0" />
    <path
       style="fill:none;stroke:#000000;stroke-width:0.26458332px;stroke-linecap:butt;stroke-linejoin:miter;stroke-opacity:1"
       d="m 24.121075,55.104847 c -0.923429,0.378632 -2.126213,1.276981 -3.006783,1.135896 -0.763682,-0.327261 -0.903351,-0.809281 -1.336347,-1.202714"
       id="path890"
       inkscape:connector-curvature="0"
       sodipodi:nodetypes="ccc" />
    <path
       style="fill:none;stroke:#000000;stroke-width:0.26458332px;stroke-linecap:butt;stroke-linejoin:miter;stroke-opacity:1"
       d="M 10.623964,48.356292 9.4212507,47.354032 C 8.8966753,46.979461 8.4670433,46.551191 9.8889724,46.218135 l 8.6194426,-2.472242 c 1.127831,-0.398246 1.400495,-0.03267 1.870886,0.334087"
       id="path892"
       inkscape:connector-curvature="0"
       sodipodi:nodetypes="ccccc" />
    <path
       style="fill:none;stroke:#000000;stroke-width:0.26458332px;stroke-linecap:butt;stroke-linejoin:miter;stroke-opacity:1"
       d="m 24.143229,53.464732 c -2.043908,-0.145761 -4.156911,1.390493 -5.055432,1.984375 -0.710019,0.457898 -2.31376,1.42186 -8.079241,2.3237 -3.6296888,0.501358 -7.8581699,-0.243272 -10.72507385,2.542744"
       id="path894"
       inkscape:connector-curvature="0"
       sodipodi:nodetypes="cccc" />
    <path
       style="fill:none;stroke:#000000;stroke-width:0.26458332px;stroke-linecap:butt;stroke-linejoin:miter;stroke-opacity:1"
       d="M 0.47247024,53.559225 C 4.1426548,54.113418 13.318221,51.091624 16.725446,49.543229 c 2.02345,-0.916379 4.595456,-4.806564 7.748512,-2.315105"
       id="path896"
       inkscape:connector-curvature="0"
       sodipodi:nodetypes="ccc" />
    <path
       style="fill:none;stroke:#000000;stroke-width:0.26458332px;stroke-linecap:butt;stroke-linejoin:miter;stroke-opacity:1"
       d="m 23.103794,46.424926 c 2.025584,-0.678517 4.060713,-1.404753 6.000372,-1.653646"
       id="path898"
       inkscape:connector-curvature="0"
       sodipodi:nodetypes="cc" />
    <path
       style="fill:none;stroke:#000000;stroke-width:0.26458332px;stroke-linecap:butt;stroke-linejoin:miter;stroke-opacity:1"
       d="M 1.1358955,53.601455 C 1.6478938,55.73941 0.33019575,56.287937 1.8708867,59.11389"
       id="path900"
       inkscape:connector-curvature="0"
       sodipodi:nodetypes="cc" />
    <path
       style="fill:none;stroke:#000000;stroke-width:0.26458332px;stroke-linecap:butt;stroke-linejoin:miter;stroke-opacity:1"
       d="m 0.36749558,53.53464 c 0.55378558,2.162553 -0.0794574,4.751176 0.90203462,6.013564"
       id="path902"
       inkscape:connector-curvature="0"
       sodipodi:nodetypes="cc" />
    <path
       style="fill:none;stroke:#000000;stroke-width:0.26458332px;stroke-linecap:butt;stroke-linejoin:miter;stroke-opacity:1"
       d="M 3.9756341,57.510274 C 3.2480312,57.374104 2.8086876,57.718367 2.3386083,58.011403 1.9684106,58.247271 1.692707,58.129646 1.3697563,57.877767"
       id="path904"
       inkscape:connector-curvature="0"
       sodipodi:nodetypes="ccc" />
    <path
       style="fill:none;stroke:#000000;stroke-width:0.26458332px;stroke-linecap:butt;stroke-linejoin:miter;stroke-opacity:1"
       d="m 22.45064,43.211353 c -1.235915,0.356978 -2.354297,1.066557 -3.507912,1.670436"
       id="path906"
       inkscape:connector-curvature="0"
       sodipodi:nodetypes="cc" />
    <path
       style="fill:none;stroke:#000000;stroke-width:0.26458332px;stroke-linecap:butt;stroke-linejoin:miter;stroke-opacity:1"
       d="m 20.212258,45.316102 c -2.234669,-1.687606 -6.79381,2.350037 -8.151721,2.772921 -4.0794407,1.199651 -10.0167575,3.699816 -11.72645009,3.240643"
       id="path908"
       inkscape:connector-curvature="0"
       sodipodi:nodetypes="ccc" />
    <path
       style="fill:none;stroke:#000000;stroke-width:0.26458332px;stroke-linecap:butt;stroke-linejoin:miter;stroke-opacity:1"
       d="m 21.047475,43.612257 c -0.236282,-0.366688 -1.298138,-0.458185 1.302939,-1.77066 2.458374,-1.248353 5.530616,-2.71059 7.917861,-1.135896"
       id="path910"
       inkscape:connector-curvature="0"
       sodipodi:nodetypes="ccc" />
    <path
       style="fill:none;stroke:#000000;stroke-width:0.26458332px;stroke-linecap:butt;stroke-linejoin:miter;stroke-opacity:1"
       d="m 28.430796,40.037527 c 2.768298,-0.989094 4.842667,-2.871293 8.38558,-2.873147"
       id="path912"
       inkscape:connector-curvature="0"
       sodipodi:nodetypes="cc" />
    <path
       style="fill:none;stroke:#000000;stroke-width:0.26458332px;stroke-linecap:butt;stroke-linejoin:miter;stroke-opacity:1"
       d="m 30.034412,43.612257 c -2.782591,1.780928 -8.919355,-1.943484 -9.120572,-0.06682"
       id="path914"
       inkscape:connector-curvature="0"
       sodipodi:nodetypes="cc" />
    <path
       style="fill:none;stroke:#000000;stroke-width:0.26458332px;stroke-linecap:butt;stroke-linejoin:miter;stroke-opacity:1"
       d="M 34.44436,47.85516 C 32.7127,46.407985 30.997021,44.946429 28.397387,44.280431"
       id="path916"
       inkscape:connector-curvature="0"
       sodipodi:nodetypes="cc" />
    <path
       style="fill:none;stroke:#000000;stroke-width:0.26458332px;stroke-linecap:butt;stroke-linejoin:miter;stroke-opacity:1"
       d="m 14.766641,47.487665 c 0.288755,0.272197 0.60989,0.524965 1.336348,0.53454"
       id="path918"
       inkscape:connector-curvature="0"
       sodipodi:nodetypes="cc" />
    <path
       style="fill:none;stroke:#000000;stroke-width:0.26458332px;stroke-linecap:butt;stroke-linejoin:miter;stroke-opacity:1"
       d="m 18.775684,49.625824 c 0.378632,0.549475 0.757264,0.614113 1.135896,0.734988"
       id="path920"
       inkscape:connector-curvature="0"
       sodipodi:nodetypes="cc" />
  </g>
</svg>
