<?xml version="1.0" encoding="UTF-8" standalone="no"?>
<!-- Created with Inkscape (http://www.inkscape.org/) -->

<svg
   xmlns:dc="http://purl.org/dc/elements/1.1/"
   xmlns:cc="http://creativecommons.org/ns#"
   xmlns:rdf="http://www.w3.org/1999/02/22-rdf-syntax-ns#"
   xmlns:svg="http://www.w3.org/2000/svg"
   xmlns="http://www.w3.org/2000/svg"
   xmlns:sodipodi="http://sodipodi.sourceforge.net/DTD/sodipodi-0.dtd"
   xmlns:inkscape="http://www.inkscape.org/namespaces/inkscape"
   width="256"
   height="256"
   viewBox="0 0 67.733332 67.733335"
   version="1.1"
   id="svg3683"
   inkscape:version="0.92.2 (5c3e80d, 2017-08-06)"
   sodipodi:docname="fig15.svg">
  <defs
     id="defs3677" />
  <sodipodi:namedview
     id="base"
     pagecolor="#ffffff"
     bordercolor="#666666"
     borderopacity="1.0"
     inkscape:pageopacity="0.0"
     inkscape:pageshadow="2"
     inkscape:zoom="1.979899"
     inkscape:cx="133.28393"
     inkscape:cy="100.09821"
     inkscape:document-units="px"
     inkscape:current-layer="layer2"
     showgrid="false"
     units="px"
     inkscape:window-width="1366"
     inkscape:window-height="745"
     inkscape:window-x="-8"
     inkscape:window-y="-8"
     inkscape:window-maximized="1"
     inkscape:snap-global="false" />
  <metadata
     id="metadata3680">
    <rdf:RDF>
      <cc:Work
         rdf:about="">
        <dc:format>image/svg+xml</dc:format>
        <dc:type
           rdf:resource="http://purl.org/dc/dcmitype/StillImage" />
        <dc:title />
      </cc:Work>
    </rdf:RDF>
  </metadata>
  <g
     inkscape:groupmode="layer"
     id="layer2"
     inkscape:label="Capa 2"
     style="display:inline">
    <path
       style="fill:none;stroke:#000000;stroke-width:0.26458332px;stroke-linecap:butt;stroke-linejoin:miter;stroke-opacity:1"
       d="m 1.0690781,33.522832 c 1.2630129,-0.697602 2.6477829,-0.996726 4.8776688,1.469983 1.8389197,2.392962 1.4723935,4.594147 1.3363477,6.815373 0.3786766,0.820893 0.3778984,1.695994 0.1336347,2.605878 -1.6577915,1.528348 -3.3075446,2.952197 -4.8776688,3.34087 C 1.6522835,45.970963 1.7358494,44.628054 1.8040693,43.27817 1.7680701,41.894223 1.1908223,41.268024 0.73499119,40.471841"
       id="path817"
       inkscape:connector-curvature="0"
       sodipodi:nodetypes="ccccccc" />
    <path
       style="fill:none;stroke:#000000;stroke-width:0.26458332px;stroke-linecap:butt;stroke-linejoin:miter;stroke-opacity:1"
       d="m 2.4722431,47.387441 c -0.5122666,0.05791 -1.0245332,-0.04556 -1.53679977,0.601355"
       id="path819"
       inkscape:connector-curvature="0"
       sodipodi:nodetypes="cc" />
    <path
       style="fill:none;stroke:#000000;stroke-width:0.26458332px;stroke-linecap:butt;stroke-linejoin:miter;stroke-opacity:1"
       d="m 3.7417734,44.347249 c 1.7627101,-1.17779 2.0045214,-2.227245 3.6081385,-3.340868"
       id="path821"
       inkscape:connector-curvature="0"
       sodipodi:nodetypes="cc" />
    <path
       style="fill:none;stroke:#000000;stroke-width:0.26458332px;stroke-linecap:butt;stroke-linejoin:miter;stroke-opacity:1"
       d="m 4.1760864,45.048831 c 1.4796822,-0.889817 1.7466796,-2.28375 3.0401908,-3.04019"
       id="path823"
       inkscape:connector-curvature="0"
       sodipodi:nodetypes="cc" />
    <path
       style="fill:none;stroke:#000000;stroke-width:0.26458332px;stroke-linecap:butt;stroke-linejoin:miter;stroke-opacity:1"
       d="m 7.2830946,40.538659 3.5747294,-3.274052 c 0.433198,-0.441428 0.398539,-1.012816 2.338609,-1.035669 1.373477,0.31192 2.755066,0.721185 4.042451,0 0.582973,-0.21709 1.222005,-0.413158 2.505652,-0.367496 0.832407,0.231361 1.717866,-0.120835 2.639287,-0.868627 1.809666,-1.171084 1.855197,-1.780853 1.737252,-2.338607 1.396908,-0.973029 1.363067,-1.809797 0.902034,-2.605879 1.345632,-0.497013 1.01682,-1.649244 0.334087,-2.939965 1.187936,-1.335565 0.452449,-2.002114 -0.367495,-2.639286 -0.677286,1.17864 -2.11225,1.178669 -3.57473,1.135895 -2.907775,-0.242676 -4.488286,0.589907 -6.447878,0.26727"
       id="path825"
       inkscape:connector-curvature="0"
       sodipodi:nodetypes="cccccccccccc" />
    <path
       style="fill:none;stroke:#000000;stroke-width:0.26458332px;stroke-linecap:butt;stroke-linejoin:miter;stroke-opacity:1"
       d="m 25.357196,27.175182 c -0.893171,0.757151 -1.9913,1.001907 -3.240643,0.868627"
       id="path827"
       inkscape:connector-curvature="0"
       sodipodi:nodetypes="cc" />
    <path
       style="fill:none;stroke:#000000;stroke-width:0.26458332px;stroke-linecap:butt;stroke-linejoin:miter;stroke-opacity:1"
       d="m 24.956292,30.014919 c -0.890899,0.571638 -1.71498,0.786912 -2.605878,0.734993"
       id="path829"
       inkscape:connector-curvature="0"
       sodipodi:nodetypes="cc" />
    <path
       style="fill:none;stroke:#000000;stroke-width:0.26458332px;stroke-linecap:butt;stroke-linejoin:miter;stroke-opacity:1"
       d="m 24.054257,32.487163 c -1.057708,0.545442 -1.682469,0.657936 -2.305199,0.7684"
       id="path831"
       inkscape:connector-curvature="0"
       sodipodi:nodetypes="cc" />
    <path
       style="fill:none;stroke:#000000;stroke-width:0.26458332px;stroke-linecap:butt;stroke-linejoin:miter;stroke-opacity:1"
       d="m 20.178849,25.571565 c 1.031093,-0.365079 2.387396,-0.610344 1.804069,-1.570209 0.386787,-1.499293 -1.108132,-0.411239 -2.03793,-0.100226 -1.035669,0.523008 -2.295762,0.172349 -3.107008,0.367496 -1.017124,0.281808 -2.557101,1.380614 -4.209495,1.603617 -0.885464,0.140718 -1.761556,0.370467 -2.472243,2.171566 -1.7429382,2.334965 -4.1386368,3.772385 -6.5815122,5.144937"
       id="path833"
       inkscape:connector-curvature="0"
       sodipodi:nodetypes="ccccccc" />
    <path
       style="fill:none;stroke:#000000;stroke-width:0.26458332px;stroke-linecap:butt;stroke-linejoin:miter;stroke-opacity:1"
       d="m 22.037924,23.930485 -1.291127,0.438367 c -0.648541,0.07493 -0.848284,-0.133588 -0.902035,-0.434313"
       id="path835"
       inkscape:connector-curvature="0"
       sodipodi:nodetypes="ccc" />
    <path
       style="fill:none;stroke:#000000;stroke-width:0.26458332px;stroke-linecap:butt;stroke-linejoin:miter;stroke-opacity:1"
       d="M 0.94494047,27.95134 C 1.6416451,29.438796 2.7865599,31.015894 4.1104909,32.628795"
       id="path837"
       inkscape:connector-curvature="0"
       sodipodi:nodetypes="cc" />
    <path
       style="fill:none;stroke:#000000;stroke-width:0.26458332px;stroke-linecap:butt;stroke-linejoin:miter;stroke-opacity:1"
       d="m 1.0394345,24.974776 c 0.6433157,2.346602 2.3512607,4.693205 3.9687501,7.039807"
       id="path839"
       inkscape:connector-curvature="0"
       sodipodi:nodetypes="cc" />
    <path
       style="fill:none;stroke:#000000;stroke-width:0.26458332px;stroke-linecap:butt;stroke-linejoin:miter;stroke-opacity:1"
       d="m 1.984375,23.746354 c 0.711536,2.87731 1.7500393,5.609302 3.5907739,7.984746"
       id="path841"
       inkscape:connector-curvature="0"
       sodipodi:nodetypes="cc" />
    <path
       style="fill:none;stroke:#000000;stroke-width:0.26458332px;stroke-linecap:butt;stroke-linejoin:miter;stroke-opacity:1"
       d="m 3.2600447,23.179389 c 0.3236478,2.763879 1.6025117,5.44092 3.3072916,8.079242"
       id="path843"
       inkscape:connector-curvature="0"
       sodipodi:nodetypes="cc" />
    <path
       style="fill:none;stroke:#000000;stroke-width:0.26458332px;stroke-linecap:butt;stroke-linejoin:miter;stroke-opacity:1"
       d="m 10.63058,37.447989 2.834822,2.504094"
       id="path845"
       inkscape:connector-curvature="0" />
    <path
       style="fill:none;stroke:#000000;stroke-width:0.26458332px;stroke-linecap:butt;stroke-linejoin:miter;stroke-opacity:1"
       d="m 9.5438988,38.534673 c 4.1729792,3.15503 12.4304502,0.805795 17.2451632,5.055431"
       id="path847"
       inkscape:connector-curvature="0"
       sodipodi:nodetypes="cc" />
    <path
       style="fill:none;stroke:#000000;stroke-width:0.26458332px;stroke-linecap:butt;stroke-linejoin:miter;stroke-opacity:1"
       d="m 8.5517113,39.432364 c 1.6983007,1.547663 5.7175657,2.453246 9.7328867,2.834822 3.055308,0.616285 5.354663,1.079361 8.409971,1.275671 5.884063,0.558895 10.389614,2.26655 14.788319,4.063243"
       id="path849"
       inkscape:connector-curvature="0"
       sodipodi:nodetypes="cccc" />
    <path
       style="fill:none;stroke:#000000;stroke-width:0.26458332px;stroke-linecap:butt;stroke-linejoin:miter;stroke-opacity:1"
       d="m 14.741071,41.794718 c 2.712515,1.939139 5.36062,2.820412 8.929687,3.071056 3.695831,0.36128 3.501498,-0.847287 11.339287,1.937128 3.899327,0.868436 7.886002,1.278294 12.284225,-0.472472 l 3.543528,-1.464656 c 1.270294,-0.472879 1.476624,0.882141 0.661458,1.181174 -4.582663,2.497378 -14.988922,6.07835 -22.631326,-1.039434"
       id="path851"
       inkscape:connector-curvature="0"
       sodipodi:nodetypes="ccccccc" />
    <path
       style="fill:none;stroke:#000000;stroke-width:0.26458332px;stroke-linecap:butt;stroke-linejoin:miter;stroke-opacity:1"
       d="m 42.805802,49.141628 c 3.73821,1.049859 7.057531,0.319439 10.039993,-1.842632 0.445686,-0.336117 -0.07504,-1.056042 -0.543341,-0.803201 -2.285257,1.082894 -4.544369,2.2756 -7.134299,2.078871"
       id="path832"
       inkscape:connector-curvature="0"
       sodipodi:nodetypes="cccc" />
    <path
       style="fill:none;stroke:#000000;stroke-width:0.26458332px;stroke-linecap:butt;stroke-linejoin:miter;stroke-opacity:1"
       d="m 22.149962,24.235217 c 6.342538,-4.880286 10.868377,-2.313906 11.626225,-1.503391 2.849509,2.801219 5.518613,6.506731 7.884451,4.777443 0.486036,-0.09701 0.97976,0.765117 0.400904,1.135895 -4.435517,2.70391 -5.260957,-1.881884 -9.2208,-4.844259 -1.557294,-1.191658 -3.71947,-1.622335 -8.018085,0.634765"
       id="path834"
       inkscape:connector-curvature="0"
       sodipodi:nodetypes="cccccc" />
    <path
       style="fill:none;stroke:#000000;stroke-width:0.26458332px;stroke-linecap:butt;stroke-linejoin:miter;stroke-opacity:1"
       d="m 38.78749,29.380156 c -0.824889,0.488782 -1.329715,1.457658 -1.804069,2.472243"
       id="path836"
       inkscape:connector-curvature="0"
       sodipodi:nodetypes="cc" />
    <path
       style="fill:none;stroke:#000000;stroke-width:0.26458332px;stroke-linecap:butt;stroke-linejoin:miter;stroke-opacity:1"
       d="m 41.727455,28.912433 c -1.285485,0.870581 -2.521642,1.778157 -3.107009,3.173826"
       id="path838"
       inkscape:connector-curvature="0"
       sodipodi:nodetypes="cc" />
    <path
       style="fill:none;stroke:#000000;stroke-width:0.26458332px;stroke-linecap:butt;stroke-linejoin:miter;stroke-opacity:1"
       d="m 39.923386,27.743131 c 0.137551,-1.048218 0.48597,-2.080215 1.770658,-3.040192 1.195847,-0.692346 3.6134,0.51572 3.173827,3.207235 l -1.670434,1.737252 c -1.008097,0.337274 -1.741686,0.262785 -2.03793,-0.467722"
       id="path840"
       inkscape:connector-curvature="0"
       sodipodi:nodetypes="ccccc" />
    <path
       style="fill:none;stroke:#000000;stroke-width:0.26458332px;stroke-linecap:butt;stroke-linejoin:miter;stroke-opacity:1"
       d="M 43.999245,28.645164 C 44.167442,25.1804 41.164683,25.599015 40.324291,26.339965 l 0.300677,-3.207234 c 0.264578,-1.980081 6.937635,-2.054041 6.882191,0.935443 l -0.233861,2.706104 c -0.246976,0.538049 -0.239997,1.145359 -2.372017,1.169305"
       id="path842"
       inkscape:connector-curvature="0"
       sodipodi:nodetypes="cccccc" />
    <path
       style="fill:none;stroke:#000000;stroke-width:0.26458332px;stroke-linecap:butt;stroke-linejoin:miter;stroke-opacity:1"
       d="M 41.927906,24.569304 C 41.265528,24.462392 40.796187,23.777008 40.959055,23.4 c 3.485279,-2.210684 6.280875,-0.05045 6.347651,0.801809 -0.08029,0.877715 -1.124126,1.303945 -2.973375,1.169304"
       id="path844"
       inkscape:connector-curvature="0"
       sodipodi:nodetypes="cccc" />
    <path
       style="fill:none;stroke:#000000;stroke-width:0.26458332px;stroke-linecap:butt;stroke-linejoin:miter;stroke-opacity:1"
       d="m 43.59834,22.965687 1.369759,1.737252"
       id="path846"
       inkscape:connector-curvature="0" />
    <path
       style="fill:none;stroke:#000000;stroke-width:0.26458332px;stroke-linecap:butt;stroke-linejoin:miter;stroke-opacity:1"
       d="m 45.502636,23.099322 -0.902033,0.100226"
       id="path848"
       inkscape:connector-curvature="0" />
    <path
       style="fill:none;stroke:#000000;stroke-width:0.26458332px;stroke-linecap:butt;stroke-linejoin:miter;stroke-opacity:1"
       d="m 46.671941,24.335444 -0.935445,-0.06682"
       id="path850"
       inkscape:connector-curvature="0" />
    <path
       style="fill:none;stroke:#000000;stroke-width:0.26458332px;stroke-linecap:butt;stroke-linejoin:miter;stroke-opacity:1"
       d="m 41.994724,22.965687 0.734992,0.467722"
       id="path852"
       inkscape:connector-curvature="0" />
    <path
       style="fill:none;stroke:#000000;stroke-width:0.26458332px;stroke-linecap:butt;stroke-linejoin:miter;stroke-opacity:1"
       d="m 42.59608,23.901131 -0.801809,0.334086"
       id="path854"
       inkscape:connector-curvature="0" />
    <path
       style="fill:none;stroke:#000000;stroke-width:0.26458332px;stroke-linecap:butt;stroke-linejoin:miter;stroke-opacity:1"
       d="m 25.324405,30.45543 c 2.816777,1.134244 5.753369,1.429787 8.693452,1.700893 -1.046718,1.980413 -2.86787,3.321076 -1.181177,7.559524 l 2.504094,0.236236"
       id="path856"
       inkscape:connector-curvature="0"
       sodipodi:nodetypes="cccc" />
    <path
       style="fill:none;stroke:#000000;stroke-width:0.26458332px;stroke-linecap:butt;stroke-linejoin:miter;stroke-opacity:1"
       d="m 32.978423,39.763094 -0.236236,1.086683 4.677455,0.377976"
       id="path858"
       inkscape:connector-curvature="0" />
    <path
       style="fill:none;stroke:#000000;stroke-width:0.26458332px;stroke-linecap:butt;stroke-linejoin:miter;stroke-opacity:1"
       d="m 32.789434,40.755281 c -0.199774,0.841332 -0.0039,1.583749 0.803201,2.173364 -1.88315,-0.897628 -4.067955,-0.739467 -6.189361,-0.803198"
       id="path860"
       inkscape:connector-curvature="0"
       sodipodi:nodetypes="ccc" />
    <path
       style="fill:none;stroke:#000000;stroke-width:0.26458332px;stroke-linecap:butt;stroke-linejoin:miter;stroke-opacity:1"
       d="m 33.687128,42.834152 4.063243,0.330729 c 2.390164,-0.237015 3.46714,-1.328967 3.590774,-2.882069 -1.092993,0.4694 -2.236144,1.289909 -3.212798,0.944941 l 0.330729,-0.708705 c -0.118017,-2.423404 -1.424749,-4.549629 1.748142,-7.79576 -1.668529,-0.838332 -4.065462,-0.82686 -6.472843,-0.803198"
       id="path862"
       inkscape:connector-curvature="0"
       sodipodi:nodetypes="ccccccc" />
    <path
       style="fill:none;stroke:#000000;stroke-width:0.26458332px;stroke-linecap:butt;stroke-linejoin:miter;stroke-opacity:1"
       d="m 36.427455,33.951711 c -0.624832,0.960422 1.08234,1.054091 1.511905,0.188987 0.28184,-0.634972 -0.642952,-1.282366 -1.511905,-0.188987 z"
       id="path864"
       inkscape:connector-curvature="0"
       sodipodi:nodetypes="ccc" />
    <path
       style="fill:none;stroke:#000000;stroke-width:0.26458332px;stroke-linecap:butt;stroke-linejoin:miter;stroke-opacity:1"
       d="m 40.112722,32.959524 c 2.695085,0.799097 5.669767,0.293407 8.740701,-0.661459 l 1.133927,0.377976"
       id="path866"
       inkscape:connector-curvature="0"
       sodipodi:nodetypes="ccc" />
    <path
       style="fill:none;stroke:#000000;stroke-width:0.26458332px;stroke-linecap:butt;stroke-linejoin:miter;stroke-opacity:1"
       d="m 49.420385,33.243006 c 0.507325,-0.654747 1.241165,-0.856462 2.126118,-0.755954 2.173363,0.760089 4.204986,0.725212 6.52009,0.425224 0.904227,0.256977 1.747471,0.337162 3.260042,0.47247"
       id="path868"
       inkscape:connector-curvature="0"
       sodipodi:nodetypes="cccc" />
    <path
       style="fill:none;stroke:#000000;stroke-width:0.26458332px;stroke-linecap:butt;stroke-linejoin:miter;stroke-opacity:1"
       d="m 38.695312,40.519048 c 2.724579,-0.402374 5.449157,-0.79054 8.173736,-0.330729"
       id="path870"
       inkscape:connector-curvature="0"
       sodipodi:nodetypes="cc" />
    <path
       style="fill:none;stroke:#000000;stroke-width:0.26458332px;stroke-linecap:butt;stroke-linejoin:miter;stroke-opacity:1"
       d="m 40.585194,38.818155 h 1.889879"
       id="path872"
       inkscape:connector-curvature="0" />
    <path
       style="fill:none;stroke:#000000;stroke-width:0.26458332px;stroke-linecap:butt;stroke-linejoin:miter;stroke-opacity:1"
       d="m 43.986979,38.58192 c 0.632794,0.415303 1.20712,1.035245 2.078868,0.614211 1.613596,2.08826 3.090678,1.309738 4.582962,0.850445"
       id="path874"
       inkscape:connector-curvature="0"
       sodipodi:nodetypes="ccc" />
    <path
       style="fill:none;stroke:#000000;stroke-width:0.26458332px;stroke-linecap:butt;stroke-linejoin:miter;stroke-opacity:1"
       d="m 50.176339,39.243378 c 0.551626,1.290598 1.823931,1.139836 2.976563,1.228423"
       id="path876"
       inkscape:connector-curvature="0"
       sodipodi:nodetypes="cc" />
    <path
       style="fill:none;stroke:#000000;stroke-width:0.26458332px;stroke-linecap:butt;stroke-linejoin:miter;stroke-opacity:1"
       d="m 53.011161,39.999329 c 0.739254,2.418009 2.145922,2.611311 3.449032,2.976563 0.920665,0.373764 1.18452,-0.09694 1.228421,-0.850445 L 56.554687,40.94427 c -0.660909,0.01096 -1.038883,0.257694 -0.944941,0.897695 l 0.803201,1.039434"
       id="path878"
       inkscape:connector-curvature="0"
       sodipodi:nodetypes="cccccc" />
    <path
       style="fill:none;stroke:#000000;stroke-width:0.26458332px;stroke-linecap:butt;stroke-linejoin:miter;stroke-opacity:1"
       d="M 56.64918,40.991517 C 56.157419,39.588446 55.374688,38.808881 54.003347,39.290625"
       id="path880"
       inkscape:connector-curvature="0"
       sodipodi:nodetypes="cc" />
    <path
       style="fill:none;stroke:#000000;stroke-width:0.26458332px;stroke-linecap:butt;stroke-linejoin:miter;stroke-opacity:1"
       d="m 55.326263,39.054389 c -0.310095,-0.51276 -0.871121,-0.573845 -1.653645,-0.236234"
       id="path882"
       inkscape:connector-curvature="0"
       sodipodi:nodetypes="cc" />
    <path
       style="fill:none;stroke:#000000;stroke-width:0.26458332px;stroke-linecap:butt;stroke-linejoin:miter;stroke-opacity:1"
       d="m 54.334076,38.487426 -3.543525,-2.173364 c -0.566965,-0.433095 -1.13393,-0.419111 -1.700895,-0.566965"
       id="path884"
       inkscape:connector-curvature="0"
       sodipodi:nodetypes="ccc" />
    <path
       style="fill:none;stroke:#000000;stroke-width:0.26458332px;stroke-linecap:butt;stroke-linejoin:miter;stroke-opacity:1"
       d="m 50.648809,36.125073 1.700892,-0.519716"
       id="path886"
       inkscape:connector-curvature="0" />
    <path
       style="fill:none;stroke:#000000;stroke-width:0.26458332px;stroke-linecap:butt;stroke-linejoin:miter;stroke-opacity:1"
       d="m 52.53869,37.259003 c 0.551411,-0.174881 0.46335,-0.705023 0.472469,-1.181177"
       id="path888"
       inkscape:connector-curvature="0"
       sodipodi:nodetypes="cc" />
    <path
       style="fill:none;stroke:#000000;stroke-width:0.26458332px;stroke-linecap:butt;stroke-linejoin:miter;stroke-opacity:1"
       d="m 53.058406,36.739284 c 1.469182,-0.09128 1.500895,-1.111955 1.606399,-1.748139"
       id="path890"
       inkscape:connector-curvature="0"
       sodipodi:nodetypes="cc" />
    <path
       style="fill:none;stroke:#000000;stroke-width:0.26458332px;stroke-linecap:butt;stroke-linejoin:miter;stroke-opacity:1"
       d="m 54.617558,35.416368 c 3.101995,0.627397 3.439512,-0.241647 3.685268,-0.755952"
       id="path892"
       inkscape:connector-curvature="0"
       sodipodi:nodetypes="cc" />
    <path
       style="fill:none;stroke:#000000;stroke-width:0.26458332px;stroke-linecap:butt;stroke-linejoin:miter;stroke-opacity:1"
       d="m 58.066593,35.274628 c 0.25984,0.519859 0.603392,0.37003 0.921316,0.425222"
       id="path894"
       inkscape:connector-curvature="0"
       sodipodi:nodetypes="cc" />
    <path
       style="fill:none;stroke:#000000;stroke-width:0.26458332px;stroke-linecap:butt;stroke-linejoin:miter;stroke-opacity:1"
       d="m 66.878162,30.006583 c -1.497068,0.266665 -2.712241,0.01182 -6.638208,4.771951 l -1.889881,1.41741 -0.614209,1.488281 c -0.697833,0.738887 -1.545175,0.954495 -2.362354,1.27567"
       id="path896"
       inkscape:connector-curvature="0"
       sodipodi:nodetypes="ccccc" />
    <path
       style="fill:none;stroke:#000000;stroke-width:0.26458332px;stroke-linecap:butt;stroke-linejoin:miter;stroke-opacity:1"
       d="m 60.239954,34.802156 c 2.236359,-0.88123 4.472718,0.793309 6.709077,1.86626"
       id="path898"
       inkscape:connector-curvature="0"
       sodipodi:nodetypes="cc" />
    <path
       style="fill:none;stroke:#000000;stroke-width:0.26458332px;stroke-linecap:butt;stroke-linejoin:miter;stroke-opacity:1"
       d="m 58.326451,36.243191 c 1.03552,0.05386 2.004912,-0.04657 3.401784,0.850447 0.611927,-0.02464 1.195612,0.03544 1.559153,0.755952 1.595388,0.68681 2.561399,1.562434 3.543527,2.433222"
       id="path900"
       inkscape:connector-curvature="0"
       sodipodi:nodetypes="cccc" />
    <path
       style="fill:none;stroke:#000000;stroke-width:0.26458332px;stroke-linecap:butt;stroke-linejoin:miter;stroke-opacity:1"
       d="m 57.806732,37.731472 c 0.751791,-0.469625 1.498154,-0.938476 1.819011,-1.346539"
       id="path902"
       inkscape:connector-curvature="0"
       sodipodi:nodetypes="cc" />
    <path
       style="fill:none;stroke:#000000;stroke-width:0.26458332px;stroke-linecap:butt;stroke-linejoin:miter;stroke-opacity:1"
       d="m 61.704613,37.140885 c -0.637284,1.938425 -3.237909,2.572055 -5.338915,3.000187 1.069322,0.02762 5.202592,0.258669 2.574964,4.252232 -1.646332,1.914907 -4.658736,0.09307 -4.275855,-1.937128"
       id="path904"
       inkscape:connector-curvature="0"
       sodipodi:nodetypes="cccc" />
    <path
       style="fill:none;stroke:#000000;stroke-width:0.26458332px;stroke-linecap:butt;stroke-linejoin:miter;stroke-opacity:1"
       d="m 63.263763,37.84959 c -1.14276,0.960929 -1.217709,1.654904 -4.181361,3.071056"
       id="path906"
       inkscape:connector-curvature="0"
       sodipodi:nodetypes="cc" />
    <path
       style="fill:none;stroke:#000000;stroke-width:0.26458332px;stroke-linecap:butt;stroke-linejoin:miter;stroke-opacity:1"
       d="m 56.720051,40.920646 c 0.281804,-0.06288 3.222315,0.306231 1.866257,2.669458 -0.967614,1.396446 -2.967958,0.130765 -2.787573,-0.708705"
       id="path908"
       inkscape:connector-curvature="0"
       sodipodi:nodetypes="ccc" />
    <path
       style="fill:none;stroke:#000000;stroke-width:0.26458332px;stroke-linecap:butt;stroke-linejoin:miter;stroke-opacity:1"
       d="M 53.353678,41.006381 48.977139,40.538659"
       id="path910"
       inkscape:connector-curvature="0" />
    <path
       style="fill:none;stroke:#000000;stroke-width:0.26458332px;stroke-linecap:butt;stroke-linejoin:miter;stroke-opacity:1"
       d="m 54.155487,42.075459 c -0.379509,0.03495 -1.068447,0.537459 -0.634764,1.870885"
       id="path912"
       inkscape:connector-curvature="0"
       sodipodi:nodetypes="cc" />
    <path
       style="fill:none;stroke:#000000;stroke-width:0.26458332px;stroke-linecap:butt;stroke-linejoin:miter;stroke-opacity:1"
       d="M 53.687765,42.376137 C 50.960666,41.992209 48.298219,41.716036 45.836723,41.774779"
       id="path914"
       inkscape:connector-curvature="0"
       sodipodi:nodetypes="cc" />
    <path
       style="fill:none;stroke:#000000;stroke-width:0.26458332px;stroke-linecap:butt;stroke-linejoin:miter;stroke-opacity:1"
       d="m 53.220045,44.07998 c 0.545675,-0.430216 1.09135,-0.39771 1.637025,-0.300678"
       id="path916"
       inkscape:connector-curvature="0"
       sodipodi:nodetypes="cc" />
    <path
       style="fill:none;stroke:#000000;stroke-width:0.26458332px;stroke-linecap:butt;stroke-linejoin:miter;stroke-opacity:1"
       d="m 55.291383,44.347249 c -0.275675,0.488943 -0.489041,1.023202 -1.236122,1.169304"
       id="path918"
       inkscape:connector-curvature="0"
       sodipodi:nodetypes="cc" />
    <path
       style="fill:none;stroke:#000000;stroke-width:0.26458332px;stroke-linecap:butt;stroke-linejoin:miter;stroke-opacity:1"
       d="m 51.031774,44.681335 -0.133633,-0.618058 c 0.457618,-0.336079 0.873173,-0.742262 1.586913,-0.651471 1.086102,0.92056 1.845766,2.048853 1.954408,3.591433 l -0.952148,0.551244 -0.701582,-0.150339"
       id="path920"
       inkscape:connector-curvature="0"
       sodipodi:nodetypes="cccccc" />
    <path
       style="fill:none;stroke:#000000;stroke-width:0.26458332px;stroke-linecap:butt;stroke-linejoin:miter;stroke-opacity:1"
       d="m 51.365861,43.779302 c 0.530415,0.292475 2.319029,1.864265 2.188271,3.658251"
       id="path922"
       inkscape:connector-curvature="0"
       sodipodi:nodetypes="cc" />
    <path
       style="fill:none;stroke:#000000;stroke-width:0.26458332px;stroke-linecap:butt;stroke-linejoin:miter;stroke-opacity:1"
       d="m 59.011531,44.416927 c 0.04301,0.463627 0.01013,0.881725 -0.259858,1.157552 -1.208982,0.979045 -3.26783,0.312373 -3.850632,-0.377976"
       id="path924"
       inkscape:connector-curvature="0"
       sodipodi:nodetypes="ccc" />
    <path
       style="fill:none;stroke:#000000;stroke-width:0.26458332px;stroke-linecap:butt;stroke-linejoin:miter;stroke-opacity:1"
       d="m 59.672989,43.188503 c 0.429182,0.05393 1.545142,2.648261 -1.606396,4.275857 -1.407656,0.578182 -2.673462,-0.149292 -3.661646,-1.181176"
       id="path926"
       inkscape:connector-curvature="0"
       sodipodi:nodetypes="ccc" />
    <path
       style="fill:none;stroke:#000000;stroke-width:0.26458332px;stroke-linecap:butt;stroke-linejoin:miter;stroke-opacity:1"
       d="m 48.286458,45.763468 c -1.947461,-5.32683 -4.473865,-5.211586 -7.039806,-4.724704"
       id="path928"
       inkscape:connector-curvature="0"
       sodipodi:nodetypes="cc" />
    <path
       style="fill:none;stroke:#000000;stroke-width:0.26458332px;stroke-linecap:butt;stroke-linejoin:miter;stroke-opacity:1"
       d="m 41.152156,41.700222 c 2.000125,0.307021 4.000249,-0.292148 6.000374,4.582962"
       id="path930"
       inkscape:connector-curvature="0"
       sodipodi:nodetypes="cc" />
    <path
       style="fill:none;stroke:#000000;stroke-width:0.26458332px;stroke-linecap:butt;stroke-linejoin:miter;stroke-opacity:1"
       d="m 49.373139,47.228124 0.519718,0.18899"
       id="path932"
       inkscape:connector-curvature="0" />
    <path
       style="fill:none;stroke:#000000;stroke-width:0.26458332px;stroke-linecap:butt;stroke-linejoin:miter;stroke-opacity:1"
       d="m 47.766739,47.700594 0.850448,0.377978"
       id="path934"
       inkscape:connector-curvature="0" />
    <path
       style="fill:none;stroke:#000000;stroke-width:0.26458332px;stroke-linecap:butt;stroke-linejoin:miter;stroke-opacity:1"
       d="m 51.40476,48.267559 c 2.378101,0.536203 4.756201,1.251892 7.134302,-0.283483 3.116631,-2.320485 6.791577,-6.45045 8.409969,-6.66183"
       id="path936"
       inkscape:connector-curvature="0"
       sodipodi:nodetypes="ccc" />
    <path
       style="fill:none;stroke:#000000;stroke-width:0.26458332px;stroke-linecap:butt;stroke-linejoin:miter;stroke-opacity:1"
       d="m 49.892857,48.929017 c 2.693438,0.786798 5.477814,1.989264 9.402156,-0.04725 2.593966,-1.48176 5.7106,-5.793193 7.606771,-6.142114"
       id="path938"
       inkscape:connector-curvature="0"
       sodipodi:nodetypes="ccc" />
    <path
       style="fill:none;stroke:#000000;stroke-width:0.26458332px;stroke-linecap:butt;stroke-linejoin:miter;stroke-opacity:1"
       d="m 54.712052,36.455802 c 0.275028,0.571275 0.147782,1.097852 -0.14174,1.606399"
       id="path940"
       inkscape:connector-curvature="0"
       sodipodi:nodetypes="cc" />
    <path
       style="fill:none;stroke:#000000;stroke-width:0.26458332px;stroke-linecap:butt;stroke-linejoin:miter;stroke-opacity:1"
       d="m 54.901041,37.16451 c 1.04192,-0.09364 2.581648,0.354448 2.645833,-0.803201 -0.02842,0.508494 0.139107,0.703471 0.425223,0.708705"
       id="path942"
       inkscape:connector-curvature="0"
       sodipodi:nodetypes="ccc" />
    <path
       style="fill:none;stroke:#000000;stroke-width:0.26458332px;stroke-linecap:butt;stroke-linejoin:miter;stroke-opacity:1"
       d="m 66.884197,47.554483 c -0.744479,-0.01863 -2.322325,0.935006 -3.541321,1.469982 -0.538638,0.99347 -1.258755,1.926448 -4.944485,1.870888 -1.714981,0.734992 -3.906604,2.137284 -5.14494,2.204974"
       id="path944"
       inkscape:connector-curvature="0"
       sodipodi:nodetypes="cccc" />
    <path
       style="fill:none;stroke:#000000;stroke-width:0.26458332px;stroke-linecap:butt;stroke-linejoin:miter;stroke-opacity:1"
       d="m 53.587541,52.098066 c -0.142022,1.501417 -0.769197,1.385659 -1.436574,1.135894"
       id="path946"
       inkscape:connector-curvature="0"
       sodipodi:nodetypes="cc" />
    <path
       style="fill:none;stroke:#000000;stroke-width:0.26458332px;stroke-linecap:butt;stroke-linejoin:miter;stroke-opacity:1"
       d="m 52.652096,51.931022 c -0.09056,1.68013 -0.959318,1.292543 -1.637025,1.469982"
       id="path948"
       inkscape:connector-curvature="0"
       sodipodi:nodetypes="cc" />
    <path
       style="fill:none;stroke:#000000;stroke-width:0.26458332px;stroke-linecap:butt;stroke-linejoin:miter;stroke-opacity:1"
       d="m 51.616427,51.864204 c -0.08996,0.784898 -0.219363,1.537525 -1.269529,1.5368 l -8.285356,0.03341 c -4.788579,0.357076 -9.577158,1.484836 -14.365737,0.968851"
       id="path950"
       inkscape:connector-curvature="0"
       sodipodi:nodetypes="cccc" />
    <path
       style="fill:none;stroke:#000000;stroke-width:0.26458332px;stroke-linecap:butt;stroke-linejoin:miter;stroke-opacity:1"
       d="m 28.297161,53.668273 c -0.601005,0.917389 -1.282518,0.868687 -1.971113,0.734991"
       id="path952"
       inkscape:connector-curvature="0"
       sodipodi:nodetypes="cc" />
    <path
       style="fill:none;stroke:#000000;stroke-width:0.26458332px;stroke-linecap:butt;stroke-linejoin:miter;stroke-opacity:1"
       d="m 27.127856,53.267369 c -0.392065,1.0101 -0.944532,1.271655 -1.603616,1.035669"
       id="path954"
       inkscape:connector-curvature="0"
       sodipodi:nodetypes="cc" />
    <path
       style="fill:none;stroke:#000000;stroke-width:0.26458332px;stroke-linecap:butt;stroke-linejoin:miter;stroke-opacity:1"
       d="m 25.925144,53.133735 c -0.401423,1.544309 -1.003389,1.684813 -1.670435,1.369756"
       id="path956"
       inkscape:connector-curvature="0"
       sodipodi:nodetypes="cc" />
    <path
       style="fill:none;stroke:#000000;stroke-width:0.26458332px;stroke-linecap:butt;stroke-linejoin:miter;stroke-opacity:1"
       d="m 24.889475,53.267369 c -1.596403,3.510883 -5.065914,2.05803 -8.385582,1.002262 l -0.200452,-0.7684"
       id="path958"
       inkscape:connector-curvature="0"
       sodipodi:nodetypes="ccc" />
    <path
       style="fill:none;stroke:#000000;stroke-width:0.26458332px;stroke-linecap:butt;stroke-linejoin:miter;stroke-opacity:1"
       d="m 16.470485,54.236222 c -1.130115,0.12978 -2.092749,0.147907 -1.904296,-0.601358 0.116765,0.581785 -0.29568,0.898965 -1.069078,1.035669"
       id="path960"
       inkscape:connector-curvature="0"
       sodipodi:nodetypes="ccc" />
    <path
       style="fill:none;stroke:#000000;stroke-width:0.26458332px;stroke-linecap:butt;stroke-linejoin:miter;stroke-opacity:1"
       d="m 25.25697,50.828535 c -0.710064,0.783403 -1.271567,1.694144 -2.572469,1.971114"
       id="path897"
       inkscape:connector-curvature="0"
       sodipodi:nodetypes="cc" />
    <path
       style="fill:none;stroke:#000000;stroke-width:0.26458332px;stroke-linecap:butt;stroke-linejoin:miter;stroke-opacity:1"
       d="M 29.633508,52.298517 H 26.960814"
       id="path899"
       inkscape:connector-curvature="0" />
    <path
       style="fill:none;stroke:#000000;stroke-width:0.26458332px;stroke-linecap:butt;stroke-linejoin:miter;stroke-opacity:1"
       d="m 28.531021,49.325143 c -0.794476,0.276779 -1.614917,0.618471 -2.238382,0.467723"
       id="path901"
       inkscape:connector-curvature="0"
       sodipodi:nodetypes="cc" />
    <path
       style="fill:none;stroke:#000000;stroke-width:0.26458332px;stroke-linecap:butt;stroke-linejoin:miter;stroke-opacity:1"
       d="m 21.080883,51.76398 c -2.580118,1.830481 -6.740174,1.066421 -6.748555,0.334086 -0.04503,1.372728 -2.323269,2.108139 -2.873147,2.27179 -1.9151771,0.319417 -1.9899791,-1.30196 -1.637026,-1.80407 0.620374,0.400905 0.890525,0.80181 1.069078,1.202715 l 1.135896,-1.102487 c -0.08636,-0.300678 -0.273146,-0.601357 -0.801809,-0.902035 l -1.403165,0.801807 1.837478,-1.870885 c 1.043505,-0.739525 1.505688,-0.316409 1.937704,0.167044"
       id="path903"
       inkscape:connector-curvature="0"
       sodipodi:nodetypes="cccccccccc" />
    <path
       style="fill:none;stroke:#000000;stroke-width:0.26458332px;stroke-linecap:butt;stroke-linejoin:miter;stroke-opacity:1"
       d="m 12.76212,50.260588 c 0.389768,-0.122739 0.779536,-0.2024 1.169304,0.200451"
       id="path905"
       inkscape:connector-curvature="0"
       sodipodi:nodetypes="cc" />
    <path
       style="fill:none;stroke:#000000;stroke-width:0.26458332px;stroke-linecap:butt;stroke-linejoin:miter;stroke-opacity:1"
       d="m 13.330067,50.060134 c 0.612493,-0.326677 1.224986,-0.163108 1.837479,0.400905"
       id="path907"
       inkscape:connector-curvature="0"
       sodipodi:nodetypes="cc" />
    <path
       style="fill:none;stroke:#000000;stroke-width:0.26458332px;stroke-linecap:butt;stroke-linejoin:miter;stroke-opacity:1"
       d="m 14.432554,49.792866 c 0.601417,-0.02221 1.16593,-0.08133 1.503391,-0.367496"
       id="path909"
       inkscape:connector-curvature="0"
       sodipodi:nodetypes="cc" />
    <path
       style="fill:none;stroke:#000000;stroke-width:0.26458332px;stroke-linecap:butt;stroke-linejoin:miter;stroke-opacity:1"
       d="m 15.535041,49.559006 c -1.084973,-1.277478 -1.23858,-2.089273 -1.26953,-2.839739"
       id="path911"
       inkscape:connector-curvature="0"
       sodipodi:nodetypes="cc" />
    <path
       style="fill:none;stroke:#000000;stroke-width:0.26458332px;stroke-linecap:butt;stroke-linejoin:miter;stroke-opacity:1"
       d="m 14.465963,47.888569 c -1.550676,0.470461 -2.822748,0.662319 -2.873148,-0.367495 0.471485,1.788673 -1.523559,2.846565 -2.104747,2.772923 0.3764208,0.273902 0.830795,0.313946 0.868626,1.603616"
       id="path913"
       inkscape:connector-curvature="0"
       sodipodi:nodetypes="cccc" />
    <path
       style="fill:none;stroke:#000000;stroke-width:0.26458332px;stroke-linecap:butt;stroke-linejoin:miter;stroke-opacity:1"
       d="m 10.72419,54.403264 c -0.163012,0.757813 -0.48633,1.240813 -1.2695307,0.935445 L 8.853303,55.672796 8.2519466,53.668273"
       id="path915"
       inkscape:connector-curvature="0"
       sodipodi:nodetypes="cccc" />
    <path
       style="fill:none;stroke:#000000;stroke-width:0.26458332px;stroke-linecap:butt;stroke-linejoin:miter;stroke-opacity:1"
       d="M 9.5548854,55.238483 8.753077,53.53464 H 8.1517203 C 7.6432313,52.01502 7.7123041,51.4195 7.6171813,50.561266 7.5624274,49.416398 7.8591373,49.091613 8.0514943,48.523337 11.58027,44.847922 12.049138,45.182042 13.129615,44.714744 l 1.002261,-0.200451 c 3.737652,1.115383 9.944533,1.897087 10.757598,3.407685"
       id="path917"
       inkscape:connector-curvature="0"
       sodipodi:nodetypes="cccccccc" />
    <path
       style="fill:none;stroke:#000000;stroke-width:0.26458332px;stroke-linecap:butt;stroke-linejoin:miter;stroke-opacity:1"
       d="m 24.321527,47.287214 c 0.835721,-0.07048 1.725173,-0.234996 1.870886,0.902036"
       id="path919"
       inkscape:connector-curvature="0"
       sodipodi:nodetypes="cc" />
    <path
       style="fill:none;stroke:#000000;stroke-width:0.26458332px;stroke-linecap:butt;stroke-linejoin:miter;stroke-opacity:1"
       d="m 25.657874,47.086763 c 0.635981,0.129989 1.551255,-0.577903 1.703844,1.00226"
       id="path921"
       inkscape:connector-curvature="0"
       sodipodi:nodetypes="cc" />
    <path
       style="fill:none;stroke:#000000;stroke-width:0.26458332px;stroke-linecap:butt;stroke-linejoin:miter;stroke-opacity:1"
       d="m 26.493091,46.786082 c 0.530115,0.05428 1.307278,-0.434947 1.436574,0.501132"
       id="path923"
       inkscape:connector-curvature="0"
       sodipodi:nodetypes="cc" />
    <path
       style="fill:none;stroke:#000000;stroke-width:0.26458332px;stroke-linecap:butt;stroke-linejoin:miter;stroke-opacity:1"
       d="m 27.361718,46.719267 c 0.983713,-0.343386 1.566221,-0.135114 1.837476,0.501129"
       id="path925"
       inkscape:connector-curvature="0"
       sodipodi:nodetypes="cc" />
    <path
       style="fill:none;stroke:#000000;stroke-width:0.26458332px;stroke-linecap:butt;stroke-linejoin:miter;stroke-opacity:1"
       d="m 28.430796,46.61904 1.870885,-0.367495"
       id="path927"
       inkscape:connector-curvature="0" />
    <path
       style="fill:none;stroke:#000000;stroke-width:0.26458332px;stroke-linecap:butt;stroke-linejoin:miter;stroke-opacity:1"
       d="m 8.5860333,50.360815 -0.968852,0.100224"
       id="path929"
       inkscape:connector-curvature="0" />
    <path
       style="fill:none;stroke:#000000;stroke-width:0.26458332px;stroke-linecap:butt;stroke-linejoin:miter;stroke-opacity:1"
       d="M 8.5526247,49.726048 7.7174076,49.592415"
       id="path931"
       inkscape:connector-curvature="0" />
    <path
       style="fill:none;stroke:#000000;stroke-width:0.26458332px;stroke-linecap:butt;stroke-linejoin:miter;stroke-opacity:1"
       d="M 8.6528507,49.057874 8.1183116,48.690379"
       id="path933"
       inkscape:connector-curvature="0" />
    <path
       style="fill:none;stroke:#000000;stroke-width:0.26458332px;stroke-linecap:butt;stroke-linejoin:miter;stroke-opacity:1"
       d="m 13.196433,45.516553 -0.100227,-0.7684"
       id="path935"
       inkscape:connector-curvature="0" />
    <path
       style="fill:none;stroke:#000000;stroke-width:0.26458332px;stroke-linecap:butt;stroke-linejoin:miter;stroke-opacity:1"
       d="m 13.797789,45.549962 0.26727,-1.035669"
       id="path937"
       inkscape:connector-curvature="0" />
    <path
       style="fill:none;stroke:#000000;stroke-width:0.26458332px;stroke-linecap:butt;stroke-linejoin:miter;stroke-opacity:1"
       d="m 19.076362,48.389701 c -0.690446,-0.266845 -1.380893,-0.167332 -2.071339,0.367495"
       id="path939"
       inkscape:connector-curvature="0"
       sodipodi:nodetypes="cc" />
    <path
       style="fill:none;stroke:#000000;stroke-width:0.26458332px;stroke-linecap:butt;stroke-linejoin:miter;stroke-opacity:1"
       d="m 10.523737,55.071438 1.336348,0.734991 c 0.672117,0.590913 1.208713,0.775266 1.703843,0.835218 V 55.53916 l -1.403165,-0.334086 -0.467721,0.501131"
       id="path941"
       inkscape:connector-curvature="0"
       sodipodi:nodetypes="cccccc" />
    <path
       style="fill:none;stroke:#000000;stroke-width:0.26458332px;stroke-linecap:butt;stroke-linejoin:miter;stroke-opacity:1"
       d="m 13.630746,56.240743 c 0.358719,0.01817 0.976088,-0.586561 0.100226,-1.269529 l -1.302939,-0.935445"
       id="path943"
       inkscape:connector-curvature="0"
       sodipodi:nodetypes="ccc" />
    <path
       style="fill:none;stroke:#000000;stroke-width:0.26458332px;stroke-linecap:butt;stroke-linejoin:miter;stroke-opacity:1"
       d="m 11.926902,55.940065 -1.00226,1.336347 C 10.143434,58.096043 9.6489541,57.768763 9.2207986,57.176185 L 8.9869377,56.975734 9.7887463,55.405525"
       id="path945"
       inkscape:connector-curvature="0"
       sodipodi:nodetypes="ccccc" />
    <path
       style="fill:none;stroke:#000000;stroke-width:0.26458332px;stroke-linecap:butt;stroke-linejoin:miter;stroke-opacity:1"
       d="m 9.0871637,57.009143 0.9020347,0.03341 0.2672696,-1.637027"
       id="path947"
       inkscape:connector-curvature="0" />
    <path
       style="fill:none;stroke:#000000;stroke-width:0.26458332px;stroke-linecap:butt;stroke-linejoin:miter;stroke-opacity:1"
       d="M 39.781993,61.307738 50.554315,53.370239"
       id="path949"
       inkscape:connector-curvature="0" />
    <path
       style="fill:none;stroke:#000000;stroke-width:0.26458332px;stroke-linecap:butt;stroke-linejoin:miter;stroke-opacity:1"
       d="M 47.908482,61.024256 59.909225,50.818899 59.814732,59.51235"
       id="path951"
       inkscape:connector-curvature="0" />
    <path
       style="fill:none;stroke:#000000;stroke-width:0.26458332px;stroke-linecap:butt;stroke-linejoin:miter;stroke-opacity:1"
       d="m 55.468006,54.787648 0.188987,4.630209"
       id="path953"
       inkscape:connector-curvature="0" />
    <path
       style="fill:none;stroke:#000000;stroke-width:0.26458332px;stroke-linecap:butt;stroke-linejoin:miter;stroke-opacity:1"
       d="m 63.877975,48.834524 -0.283483,9.921874"
       id="path955"
       inkscape:connector-curvature="0" />
    <path
       style="fill:none;stroke:#000000;stroke-width:0.26458332px;stroke-linecap:butt;stroke-linejoin:miter;stroke-opacity:1"
       d="m 33.734375,44.865774 4.441219,-1.724518"
       id="path957"
       inkscape:connector-curvature="0"
       sodipodi:nodetypes="cc" />
  </g>
</svg>
