<?xml version="1.0" encoding="UTF-8" standalone="no"?>
<!-- Created with Inkscape (http://www.inkscape.org/) -->

<svg
   xmlns:dc="http://purl.org/dc/elements/1.1/"
   xmlns:cc="http://creativecommons.org/ns#"
   xmlns:rdf="http://www.w3.org/1999/02/22-rdf-syntax-ns#"
   xmlns:svg="http://www.w3.org/2000/svg"
   xmlns="http://www.w3.org/2000/svg"
   xmlns:sodipodi="http://sodipodi.sourceforge.net/DTD/sodipodi-0.dtd"
   xmlns:inkscape="http://www.inkscape.org/namespaces/inkscape"
   width="256"
   height="256"
   viewBox="0 0 67.733332 67.733335"
   version="1.1"
   id="svg4790"
   inkscape:version="0.92.2 (5c3e80d, 2017-08-06)"
   sodipodi:docname="fig10.svg">
  <defs
     id="defs4784" />
  <sodipodi:namedview
     id="base"
     pagecolor="#ffffff"
     bordercolor="#666666"
     borderopacity="1.0"
     inkscape:pageopacity="0.0"
     inkscape:pageshadow="2"
     inkscape:zoom="0.98994949"
     inkscape:cx="13.487985"
     inkscape:cy="182.07552"
     inkscape:document-units="px"
     inkscape:current-layer="layer2"
     showgrid="false"
     units="px"
     showguides="true"
     inkscape:guide-bbox="true"
     inkscape:snap-global="false"
     inkscape:window-width="1366"
     inkscape:window-height="745"
     inkscape:window-x="-8"
     inkscape:window-y="-8"
     inkscape:window-maximized="1" />
  <metadata
     id="metadata4787">
    <rdf:RDF>
      <cc:Work
         rdf:about="">
        <dc:format>image/svg+xml</dc:format>
        <dc:type
           rdf:resource="http://purl.org/dc/dcmitype/StillImage" />
        <dc:title />
      </cc:Work>
    </rdf:RDF>
  </metadata>
  <g
     inkscape:groupmode="layer"
     id="layer2"
     inkscape:label="Capa 2"
     style="display:inline">
    <path
       style="fill:none;stroke:#000000;stroke-width:0.26458332px;stroke-linecap:butt;stroke-linejoin:miter;stroke-opacity:1"
       d="M 6.9925596,30.502677 C 9.8995691,22.178213 5.4678923,6.8965906 1.6063988,14.627678 c -0.054297,9.780463 0.4018168,19.765091 1.6063987,30.049106 0.2568883,1.533181 0.7619336,2.867836 2.2678573,3.401788 5.3231652,2.863647 10.6463292,5.787485 15.9694942,7.181546 3.112926,1.113463 4.792837,0.06619 6.425594,-1.039435 l 5.291667,-2.456844"
       id="path816"
       inkscape:connector-curvature="0"
       sodipodi:nodetypes="ccccccc" />
    <path
       style="fill:none;stroke:#000000;stroke-width:0.26458332px;stroke-linecap:butt;stroke-linejoin:miter;stroke-opacity:1"
       d="m 5.7641368,48.267559 c -0.1393501,2.270236 2.2814309,2.655237 4.6302082,2.456845"
       id="path818"
       inkscape:connector-curvature="0"
       sodipodi:nodetypes="cc" />
    <path
       style="fill:none;stroke:#000000;stroke-width:0.26458332px;stroke-linecap:butt;stroke-linejoin:miter;stroke-opacity:1"
       d="m 22.111607,55.5436 c 0.150211,1.070355 -0.150485,2.33911 3.023809,2.078868 2.123493,-0.248881 2.630928,-1.232333 1.984375,-2.740326"
       id="path820"
       inkscape:connector-curvature="0"
       sodipodi:nodetypes="ccc" />
    <path
       style="fill:none;stroke:#000000;stroke-width:0.26458332px;stroke-linecap:butt;stroke-linejoin:miter;stroke-opacity:1"
       d="m 25.655134,54.220683 c 0.834051,-2.74834 1.113197,-5.615588 0.188988,-8.740698"
       id="path822"
       inkscape:connector-curvature="0"
       sodipodi:nodetypes="cc" />
    <path
       style="fill:none;stroke:#000000;stroke-width:0.26458332px;stroke-linecap:butt;stroke-linejoin:miter;stroke-opacity:1"
       d="M 12.428033,37.799144 C 10.938185,37.375968 10.09128,36.952791 9.4880683,36.529615 7.9583584,36.632616 6.2396756,37.255293 6.0803816,33.58965 6.2008381,31.823537 6.7011531,30.247353 9.287616,29.714243 l 2.071339,-0.734992"
       id="path824"
       inkscape:connector-curvature="0"
       sodipodi:nodetypes="ccccc" />
    <path
       style="fill:none;stroke:#000000;stroke-width:0.26458332px;stroke-linecap:butt;stroke-linejoin:miter;stroke-opacity:1"
       d="M 6.7485555,36.262347 C 5.9219515,37.28688 5.897158,38.311412 5.9467469,39.335945"
       id="path826"
       inkscape:connector-curvature="0"
       sodipodi:nodetypes="cc" />
    <path
       style="fill:none;stroke:#000000;stroke-width:0.26458332px;stroke-linecap:butt;stroke-linejoin:miter;stroke-opacity:1"
       d="M 3.7417734,12.475358 10.423511,10.470837"
       id="path828"
       inkscape:connector-curvature="0" />
    <path
       style="fill:none;stroke:#000000;stroke-width:0.26458332px;stroke-linecap:butt;stroke-linejoin:miter;stroke-opacity:1"
       d="M 9.0203466,13.811706 14.833459,11.807184"
       id="path830"
       inkscape:connector-curvature="0" />
    <path
       style="fill:none;stroke:#000000;stroke-width:0.26458332px;stroke-linecap:butt;stroke-linejoin:miter;stroke-opacity:1"
       d="m 8.8867116,15.348505 4.0090434,2.204974"
       id="path832"
       inkscape:connector-curvature="0" />
    <path
       style="fill:none;stroke:#000000;stroke-width:0.26458332px;stroke-linecap:butt;stroke-linejoin:miter;stroke-opacity:1"
       d="m 10.289877,27.709722 c 2.392288,-3.744776 2.564266,-2.434435 5.144938,-6.013565"
       id="path834"
       inkscape:connector-curvature="0"
       sodipodi:nodetypes="cc" />
    <path
       style="fill:none;stroke:#000000;stroke-width:0.26458332px;stroke-linecap:butt;stroke-linejoin:miter;stroke-opacity:1"
       d="m 15.30118,10.337202 c -0.703855,2.674623 -0.537047,3.728011 1.336348,1.603617"
       id="path836"
       inkscape:connector-curvature="0"
       sodipodi:nodetypes="cc" />
    <path
       style="fill:none;stroke:#000000;stroke-width:0.26458332px;stroke-linecap:butt;stroke-linejoin:miter;stroke-opacity:1"
       d="m 14.766641,13.210349 c -0.896039,2.15707 0.5107,1.214245 1.870887,0.334087"
       id="path838"
       inkscape:connector-curvature="0"
       sodipodi:nodetypes="cc" />
    <path
       style="fill:none;stroke:#000000;stroke-width:0.26458332px;stroke-linecap:butt;stroke-linejoin:miter;stroke-opacity:1"
       d="m 14.633006,14.680332 c -0.423177,2.316336 -1.631916,4.534476 -1.26953,6.949007"
       id="path840"
       inkscape:connector-curvature="0"
       sodipodi:nodetypes="cc" />
    <path
       style="fill:none;stroke:#000000;stroke-width:0.26458332px;stroke-linecap:butt;stroke-linejoin:miter;stroke-opacity:1"
       d="m 17.372519,15.415323 c -2.592782,6.14437 -4.757266,5.488024 -5.211756,9.554885 -0.254351,2.060203 -0.587173,4.120405 -1.369756,6.180608 0.864046,-0.02425 1.388988,0.629712 1.904296,1.30294"
       id="path842"
       inkscape:connector-curvature="0"
       sodipodi:nodetypes="cccc" />
    <path
       style="fill:none;stroke:#000000;stroke-width:0.26458332px;stroke-linecap:butt;stroke-linejoin:miter;stroke-opacity:1"
       d="m 13.029389,27.976991 c 0.181289,4.195132 -1.293028,11.28536 2.939965,13.363477 -0.296478,-3.290237 0.142322,-4.864824 0.334087,-7.015827 0.216552,2.893543 0.318768,5.95859 0.868626,8.352174 2.328661,0.846572 4.611638,1.898719 7.283094,1.202711 2.550563,-2.844758 4.61429,-6.41977 4.343131,-13.49711"
       id="path844"
       inkscape:connector-curvature="0"
       sodipodi:nodetypes="cccccc" />
    <path
       style="fill:none;stroke:#000000;stroke-width:0.26458332px;stroke-linecap:butt;stroke-linejoin:miter;stroke-opacity:1"
       d="m 28.931925,33.58965 c 1.085003,-2.951083 1.813129,-6.318523 4.944488,-6.882191"
       id="path846"
       inkscape:connector-curvature="0"
       sodipodi:nodetypes="cc" />
    <path
       style="fill:none;stroke:#000000;stroke-width:0.26458332px;stroke-linecap:butt;stroke-linejoin:miter;stroke-opacity:1"
       d="m 15.94587,41.322246 c 0.296395,0.637649 0.622014,1.228538 1.228423,1.370163"
       id="path848"
       inkscape:connector-curvature="0"
       sodipodi:nodetypes="cc" />
    <path
       style="fill:none;stroke:#000000;stroke-width:0.26458332px;stroke-linecap:butt;stroke-linejoin:miter;stroke-opacity:1"
       d="m 10.772321,31.116889 c -0.01429,1.073851 0.191614,1.673431 0.992188,0.992187 -0.08204,1.161586 0.105689,1.633788 0.590588,1.346542 -0.242338,1.698369 -0.09603,2.372122 0.354352,2.244232 -0.177983,1.667879 -0.03439,2.371031 0.354353,2.338729 -0.47347,2.91834 0.340415,1.717144 0.732329,1.866257 -0.07165,2.455211 0.58341,1.519148 1.039434,1.511903 0.243896,1.305101 0.662584,1.080773 1.157552,0.18899 0.247392,1.894856 0.714484,2.119995 1.27567,1.630021 0.533549,1.283855 1.155325,2.139183 2.126116,1.299294 0.68561,0.408594 0.670731,1.98467 2.551339,0.401601 0.690673,0.717191 1.400393,1.24867 2.338728,-0.448847 0.884968,2.092288 1.591611,0.142513 2.291481,-1.960753 0.704811,-0.03926 1.364517,-0.198792 1.511903,-1.724515 0.602908,-0.304225 1.211665,-0.592701 1.015813,-3.047433 0.849467,0.08805 1.130575,-0.518567 0.283482,-2.504093 0.975878,0.231804 0.675505,-1.18801 0.637835,-2.267857 1.057888,-0.221242 1.156946,-1.221533 1.228423,-2.244233 1.093398,-0.22839 1.107223,-1.401405 1.228422,-2.480469 0.837058,-0.245565 1.977861,-0.21075 2.055246,-1.157552"
       id="path850"
       inkscape:connector-curvature="0"
       sodipodi:nodetypes="cccccccccccccccccccc" />
    <path
       style="fill:none;stroke:#000000;stroke-width:0.26458332px;stroke-linecap:butt;stroke-linejoin:miter;stroke-opacity:1"
       d="m 14.833459,32.186485 c 0.556811,0.180125 1.113623,-0.143697 1.670434,0.668174 0.896778,1.137591 1.70595,2.581801 2.939965,2.539061 2.355018,4.746542 3.157144,5.943616 4.34313,8.018086"
       id="path852"
       inkscape:connector-curvature="0"
       sodipodi:nodetypes="cccc" />
    <path
       style="fill:none;stroke:#000000;stroke-width:0.26458332px;stroke-linecap:butt;stroke-linejoin:miter;stroke-opacity:1"
       d="m 15.367998,31.117407 c 0.444431,0.157435 0.940699,0.237114 1.737252,-0.133635 0.975451,1.12634 1.865488,2.352331 3.875408,2.271791 1.078353,1.312183 2.039364,1.802972 2.939964,1.870888 1.851634,-4.414582 -1.395198,-10.858526 2.138157,-14.499372"
       id="path854"
       inkscape:connector-curvature="0"
       sodipodi:nodetypes="ccccc" />
    <path
       style="fill:none;stroke:#000000;stroke-width:0.26458332px;stroke-linecap:butt;stroke-linejoin:miter;stroke-opacity:1"
       d="m 22.584275,25.037026 -1.336348,7.416728"
       id="path856"
       inkscape:connector-curvature="0" />
    <path
       style="fill:none;stroke:#000000;stroke-width:0.26458332px;stroke-linecap:butt;stroke-linejoin:miter;stroke-opacity:1"
       d="m 19.377041,27.843355 c 0.958094,-4.466706 2.897645,-7.601433 6.347651,-8.686259 -2.66756,0.616761 -5.42077,0.976573 -7.750816,2.605878"
       id="path858"
       inkscape:connector-curvature="0"
       sodipodi:nodetypes="ccc" />
    <path
       style="fill:none;stroke:#000000;stroke-width:0.26458332px;stroke-linecap:butt;stroke-linejoin:miter;stroke-opacity:1"
       d="m 19.042954,18.689375 2.472243,-0.400905 4.409947,0.801809"
       id="path860"
       inkscape:connector-curvature="0" />
    <path
       style="fill:none;stroke:#000000;stroke-width:0.26458332px;stroke-linecap:butt;stroke-linejoin:miter;stroke-opacity:1"
       d="m 26.326048,22.965687 c -2.4623,13.520664 1.082471,9.662927 -1.737252,20.579752"
       id="path862"
       inkscape:connector-curvature="0"
       sodipodi:nodetypes="cc" />
    <path
       style="fill:none;stroke:#000000;stroke-width:0.26458332px;stroke-linecap:butt;stroke-linejoin:miter;stroke-opacity:1"
       d="m 27.52876,23.633861 c 0.536002,1.080027 0.866507,2.708042 0.868627,5.211754"
       id="path864"
       inkscape:connector-curvature="0"
       sodipodi:nodetypes="cc" />
    <path
       style="fill:none;stroke:#000000;stroke-width:0.26458332px;stroke-linecap:butt;stroke-linejoin:miter;stroke-opacity:1"
       d="m 32.005526,25.571565 c -0.791764,-0.382998 -1.298657,0.373484 -1.737251,1.403166"
       id="path866"
       inkscape:connector-curvature="0"
       sodipodi:nodetypes="cc" />
    <path
       style="fill:none;stroke:#000000;stroke-width:0.26458332px;stroke-linecap:butt;stroke-linejoin:miter;stroke-opacity:1"
       d="m 20.032738,10.46994 c 0.173239,0.41277 0.346478,1.212976 0.519717,2.126116 1.266115,1.309868 1.954897,0.166073 2.740328,-0.566964 2.331935,0.49763 1.8794,-0.706361 2.078869,-1.511905 -1.759843,0.439167 -3.54336,0.913693 -4.819197,2.078869"
       id="path868"
       inkscape:connector-curvature="0"
       sodipodi:nodetypes="ccccc" />
    <path
       style="fill:none;stroke:#000000;stroke-width:0.26458332px;stroke-linecap:butt;stroke-linejoin:miter;stroke-opacity:1"
       d="m 22.517457,12.94308 c 1.248329,1.856433 2.4839,3.885093 3.608139,7.416729 0.579635,1.201941 1.206653,2.337545 2.405425,2.672695 6.327283,5.121169 11.234783,5.804732 16.102991,9.554886 0.877046,0.778304 0.771828,2.081757 1.00226,3.407685 0.387541,0.687477 0.735396,1.388183 0.935442,2.138159 0.209161,0.413135 0.446258,0.622658 1.002261,0.534538"
       id="path870"
       inkscape:connector-curvature="0"
       sodipodi:nodetypes="ccccccc" />
    <path
       style="fill:none;stroke:#000000;stroke-width:0.26458332px;stroke-linecap:butt;stroke-linejoin:miter;stroke-opacity:1"
       d="m 46.467447,35.439992 c -0.05904,0.612236 0.169522,1.080667 0.614212,1.441035 0.06642,1.105624 0.371202,1.337258 0.614212,1.795386 0.930184,0.854373 1.93948,1.603262 3.614396,1.464659 -0.792421,-0.290536 -1.475324,-0.946132 -2.078868,-1.866258 -0.18139,-0.897602 -0.413815,-1.778192 -0.04725,-2.858445 0.500633,-0.615879 0.810253,-1.327264 1.653646,-1.771763"
       id="path872"
       inkscape:connector-curvature="0"
       sodipodi:nodetypes="ccccccc" />
    <path
       style="fill:none;stroke:#000000;stroke-width:0.26458332px;stroke-linecap:butt;stroke-linejoin:miter;stroke-opacity:1"
       d="m 50.294457,33.243006 c 0.897693,0.344294 1.795387,0.245776 2.69308,-0.165364"
       id="path874"
       inkscape:connector-curvature="0"
       sodipodi:nodetypes="cc" />
    <path
       style="fill:none;stroke:#000000;stroke-width:0.26458332px;stroke-linecap:butt;stroke-linejoin:miter;stroke-opacity:1"
       d="m 52.68043,33.313875 c 0.587587,0.503222 1.116424,1.300197 1.819011,1.228423 0.721069,0.252754 0.80002,-0.03782 0.708707,-0.472469 L 54.357701,33.00677 53.152902,31.943712 C 51.735491,31.588389 49.683315,30.300698 48.900669,29.888465 44.222175,29.073691 42.429189,26.14604 40.190655,23.700679 37.882761,21.37638 35.898872,20.4561 33.843004,19.223914 33.393201,18.615775 33.010209,17.940825 31.871891,18.021201"
       id="path876"
       inkscape:connector-curvature="0"
       sodipodi:nodetypes="ccccccccc" />
    <path
       style="fill:none;stroke:#000000;stroke-width:0.26458332px;stroke-linecap:butt;stroke-linejoin:miter;stroke-opacity:1"
       d="m 54.310454,33.077642 c -0.373332,0.331825 -0.24841,0.841599 0.259858,1.488281"
       id="path878"
       inkscape:connector-curvature="0"
       sodipodi:nodetypes="cc" />
    <path
       style="fill:none;stroke:#000000;stroke-width:0.26458332px;stroke-linecap:butt;stroke-linejoin:miter;stroke-opacity:1"
       d="m 30.63577,12.742628 c 1.107526,0.814354 1.685095,3.041927 2.27179,5.245164"
       id="path880"
       inkscape:connector-curvature="0"
       sodipodi:nodetypes="cc" />
    <path
       style="fill:none;stroke:#000000;stroke-width:0.26458332px;stroke-linecap:butt;stroke-linejoin:miter;stroke-opacity:1"
       d="m 30.535544,11.573323 c 0.490397,0.241124 0.925042,0.577825 0.801809,1.870887"
       id="path882"
       inkscape:connector-curvature="0"
       sodipodi:nodetypes="cc" />
    <path
       style="fill:none;stroke:#000000;stroke-width:0.26458332px;stroke-linecap:butt;stroke-linejoin:miter;stroke-opacity:1"
       d="m 30.502135,10.404019 c 0.167044,0.275379 0.334087,0.462148 0.501131,1.336348"
       id="path884"
       inkscape:connector-curvature="0"
       sodipodi:nodetypes="cc" />
    <path
       style="fill:none;stroke:#000000;stroke-width:0.26458332px;stroke-linecap:butt;stroke-linejoin:miter;stroke-opacity:1"
       d="m 38.459076,29.085267 c 0.869361,7.032698 -0.178394,13.061277 0.755954,20.505208 -0.572484,1.102878 -0.846063,0.910498 -1.162531,0.903974"
       id="path886"
       inkscape:connector-curvature="0"
       sodipodi:nodetypes="ccc" />
    <path
       style="fill:none;stroke:#000000;stroke-width:0.26458332px;stroke-linecap:butt;stroke-linejoin:miter;stroke-opacity:1"
       d="m 31.277531,30.78616 c -0.178735,3.301906 -1.392694,7.334559 0.377975,9.260416"
       id="path888"
       inkscape:connector-curvature="0"
       sodipodi:nodetypes="cc" />
    <path
       style="fill:none;stroke:#000000;stroke-width:0.26458332px;stroke-linecap:butt;stroke-linejoin:miter;stroke-opacity:1"
       d="m 31.088541,39.6686 c 0.378519,2.635284 0.746113,5.30178 1.984375,5.480656"
       id="path890"
       inkscape:connector-curvature="0"
       sodipodi:nodetypes="cc" />
    <path
       style="fill:none;stroke:#000000;stroke-width:0.26458332px;stroke-linecap:butt;stroke-linejoin:miter;stroke-opacity:1"
       d="m 32.222469,44.582291 c 0.223139,0.758009 0.270419,1.79739 1.086683,1.606399"
       id="path892"
       inkscape:connector-curvature="0"
       sodipodi:nodetypes="cc" />
    <path
       style="fill:none;stroke:#000000;stroke-width:0.26458332px;stroke-linecap:butt;stroke-linejoin:miter;stroke-opacity:1"
       d="m 32.553198,46.046948 c 0.07199,0.589467 0.255391,1.067527 0.944941,1.039436"
       id="path894"
       inkscape:connector-curvature="0"
       sodipodi:nodetypes="cc" />
    <path
       style="fill:none;stroke:#000000;stroke-width:0.26458332px;stroke-linecap:butt;stroke-linejoin:miter;stroke-opacity:1"
       d="m 32.742187,46.755655 c 1.15451,3.562629 -0.147655,6.259876 0.755952,8.173733 -1.75593,-0.439071 -0.741543,-2.19486 -0.456943,-2.296783"
       id="path896"
       inkscape:connector-curvature="0"
       sodipodi:nodetypes="ccc" />
    <path
       style="fill:none;stroke:#000000;stroke-width:0.26458332px;stroke-linecap:butt;stroke-linejoin:miter;stroke-opacity:1"
       d="m 38.520221,51.162621 c 1.514398,-0.138128 0.986747,-0.888871 0.801807,-1.5368"
       id="path898"
       inkscape:connector-curvature="0"
       sodipodi:nodetypes="cc" />
    <path
       style="fill:none;stroke:#000000;stroke-width:0.26458332px;stroke-linecap:butt;stroke-linejoin:miter;stroke-opacity:1"
       d="m 39.154986,51.931022 c 1.518884,-0.571724 0.533273,-0.892998 0.434313,-1.302938"
       id="path900"
       inkscape:connector-curvature="0"
       sodipodi:nodetypes="cc" />
    <path
       style="fill:none;stroke:#000000;stroke-width:0.26458332px;stroke-linecap:butt;stroke-linejoin:miter;stroke-opacity:1"
       d="m 41.192915,53.066918 c -0.488209,-0.544343 -1.005618,-1.049754 -1.23612,-1.937706 3.146737,-0.05133 3.37938,1.030592 3.374276,2.204974 -0.675267,2.999048 -4.769588,2.913615 -6.147199,3.140417 -1.208893,0.517828 -2.333699,0.941058 -2.839739,0.668176 -0.846355,-0.267269 -1.069076,-0.801811 -0.668173,-1.603619 0.970294,-0.05461 1.064555,0.591612 0.701582,1.603619"
       id="path902"
       inkscape:connector-curvature="0"
       sodipodi:nodetypes="ccccccc" />
    <path
       style="fill:none;stroke:#000000;stroke-width:0.26458332px;stroke-linecap:butt;stroke-linejoin:miter;stroke-opacity:1"
       d="m 41.126097,51.797386 c 1.830359,0.747532 -0.594047,2.238678 -1.837478,2.806332 -3.468306,1.64219 -6.032152,-0.4331 -5.612659,0.801807"
       id="path904"
       inkscape:connector-curvature="0"
       sodipodi:nodetypes="ccc" />
    <path
       style="fill:none;stroke:#000000;stroke-width:0.26458332px;stroke-linecap:butt;stroke-linejoin:miter;stroke-opacity:1"
       d="m 34.477769,50.795126 c 0.416406,1.11394 -0.862929,2.04711 0.334087,2.572469"
       id="path906"
       inkscape:connector-curvature="0"
       sodipodi:nodetypes="cc" />
    <path
       style="fill:none;stroke:#000000;stroke-width:0.26458332px;stroke-linecap:butt;stroke-linejoin:miter;stroke-opacity:1"
       d="m 33.007786,51.76398 c -1.095179,0.566903 -1.966415,3.199403 -0.801809,5.211754 2.102949,1.109136 4.384199,1.973109 5.813113,4.009043 1.663256,2.300875 4.039084,2.82032 6.949009,2.004521 1.112059,-0.398707 1.85833,-0.809301 2.605876,-1.469983 1.47624,-1.736454 0.689745,-2.610913 0.400904,-3.674954 -1.729218,-2.775306 -3.328046,-2.110481 -4.677217,-4.610401"
       id="path908"
       inkscape:connector-curvature="0"
       sodipodi:nodetypes="ccccccc" />
    <path
       style="fill:none;stroke:#000000;stroke-width:0.26458332px;stroke-linecap:butt;stroke-linejoin:miter;stroke-opacity:1"
       d="m 48.342375,60.517055 c 0.09799,0.507257 0.506826,1.454638 -3.207234,3.173825 -2.480514,1.339116 -4.723688,0.60151 -6.848782,-1.169302 l -2.739512,-3.140419 c -3.280038,-0.650309 -3.346278,-1.835306 -3.80859,-2.906556"
       id="path910"
       inkscape:connector-curvature="0"
       sodipodi:nodetypes="ccccc" />
    <path
       style="fill:none;stroke:#000000;stroke-width:0.26458332px;stroke-linecap:butt;stroke-linejoin:miter;stroke-opacity:1"
       d="m 36.582516,56.808689 c 4.013766,5.447545 10.257549,5.098431 11.225321,1.002263"
       id="path912"
       inkscape:connector-curvature="0"
       sodipodi:nodetypes="cc" />
    <path
       style="fill:none;stroke:#000000;stroke-width:0.26458332px;stroke-linecap:butt;stroke-linejoin:miter;stroke-opacity:1"
       d="m 54.145089,48.078572 c -0.314882,-1.735659 -1.361045,-1.847278 -3.118305,-1.606399 -1.805748,0.304587 -3.36642,0.594167 -3.260042,2.267857 -0.717283,0.70352 -0.348546,1.814298 -0.0945,2.882067 -2.24e-4,1.628795 1.309072,1.038659 1.700893,4.063246 0.0371,2.717745 1.475018,4.101375 4.157739,4.299479 4.279893,-0.233753 4.676338,-1.831961 4.346725,-3.68527 0.377823,-1.984221 -0.410417,-2.80238 -0.992187,-3.827008 -0.570481,-0.869713 -0.904908,-1.50337 -1.228423,-2.126117 -0.113872,-2.02376 -0.941346,-1.728312 -1.5119,-2.267855 z"
       id="path914"
       inkscape:connector-curvature="0"
       sodipodi:nodetypes="cccccccccc" />
    <path
       style="fill:none;stroke:#000000;stroke-width:0.26458332px;stroke-linecap:butt;stroke-linejoin:miter;stroke-opacity:1"
       d="m 55.654129,50.365997 c -2.912994,-0.987428 -4.13124,0.284808 -5.052567,0.783631 -1.1124,0.555708 -2.744352,0.110503 -3.160802,-0.653354 0.431357,0.03213 0.846849,0.03974 0.798451,-0.669563"
       id="path916"
       inkscape:connector-curvature="0"
       sodipodi:nodetypes="cccc" />
    <path
       style="fill:none;stroke:#000000;stroke-width:0.26458332px;stroke-linecap:butt;stroke-linejoin:miter;stroke-opacity:1"
       d="m 54.289122,48.18925 c -1.068411,-0.316708 -2.912979,0.03372 -3.658252,0.517834 -0.57762,0.312308 -1.764143,1.514622 -2.121451,0.785104 -0.260892,-0.9079 -0.583905,-0.511252 -0.88533,-0.56795"
       id="path918"
       inkscape:connector-curvature="0"
       sodipodi:nodetypes="cccc" />
    <path
       style="fill:none;stroke:#000000;stroke-width:0.26458332px;stroke-linecap:butt;stroke-linejoin:miter;stroke-opacity:1"
       d="m 48.877045,51.362239 c 0.370686,0.981683 0.627921,2.095922 0.968565,3.590774 0.523832,2.220423 1.847549,3.541666 4.771948,2.952938 2.365038,-0.633629 2.736871,-0.916717 3.260045,-1.582775"
       id="path920"
       inkscape:connector-curvature="0"
       sodipodi:nodetypes="cccc" />
    <path
       style="fill:none;stroke:#000000;stroke-width:0.26458332px;stroke-linecap:butt;stroke-linejoin:miter;stroke-opacity:1"
       d="m 48.971538,54.315177 c -0.134893,3.428696 0.675551,6.72587 4.535715,6.401972 1.133955,-0.123434 4.284245,0.06972 4.181364,-2.220608"
       id="path922"
       inkscape:connector-curvature="0"
       sodipodi:nodetypes="ccc" />
    <path
       style="fill:none;stroke:#000000;stroke-width:0.26458332px;stroke-linecap:butt;stroke-linejoin:miter;stroke-opacity:1"
       d="m 33.828868,10.422693 c -0.142458,1.177283 -0.04256,2.339419 -2.126115,3.638021"
       id="path924"
       inkscape:connector-curvature="0"
       sodipodi:nodetypes="cc" />
    <path
       style="fill:none;stroke:#000000;stroke-width:0.26458332px;stroke-linecap:butt;stroke-linejoin:miter;stroke-opacity:1"
       d="m 37.041666,10.328199 c 0.115032,2.483202 -1.953745,2.373132 -3.779761,2.551339"
       id="path926"
       inkscape:connector-curvature="0"
       sodipodi:nodetypes="cc" />
    <path
       style="fill:none;stroke:#000000;stroke-width:0.26458332px;stroke-linecap:butt;stroke-linejoin:miter;stroke-opacity:1"
       d="m 34.679315,14.013467 c 0.570673,-0.124119 1.11355,-0.498398 1.559153,-1.74814 -0.287614,0.898668 2.159242,0.678689 -3.165551,3.638021"
       id="path928"
       inkscape:connector-curvature="0"
       sodipodi:nodetypes="ccc" />
    <path
       style="fill:none;stroke:#000000;stroke-width:0.26458332px;stroke-linecap:butt;stroke-linejoin:miter;stroke-opacity:1"
       d="m 36.427455,13.399255 c 0.413586,-0.04794 0.701248,0.407805 0.992187,0.850447 0.819763,-0.562506 3.524784,0.577411 4.677455,1.181176 1.050207,0.644197 4.184927,8.665152 8.646207,13.276413 1.982994,1.293689 2.987719,2.801375 8.787945,3.260045"
       id="path930"
       inkscape:connector-curvature="0"
       sodipodi:nodetypes="ccccc" />
    <path
       style="fill:none;stroke:#000000;stroke-width:0.26458332px;stroke-linecap:butt;stroke-linejoin:miter;stroke-opacity:1"
       d="m 37.372395,14.249702 c -2.31995,2.015232 -1.836094,3.865534 -2.173364,5.764137"
       id="path932"
       inkscape:connector-curvature="0"
       sodipodi:nodetypes="cc" />
    <path
       style="fill:none;stroke:#000000;stroke-width:0.26458332px;stroke-linecap:butt;stroke-linejoin:miter;stroke-opacity:1"
       d="m 36.569197,20.62805 c 0.734758,-0.142411 0.09895,-0.893962 -0.236236,-1.511905 0.530752,-0.584285 1.177724,-1.12983 0.614212,-2.078869 0.911214,-0.161013 0.774415,-0.92089 0.850445,-1.559151 1.176221,-0.0576 1.203425,-0.689707 1.417412,-1.228423"
       id="path934"
       inkscape:connector-curvature="0"
       sodipodi:nodetypes="ccccc" />
    <path
       style="fill:none;stroke:#000000;stroke-width:0.26458332px;stroke-linecap:butt;stroke-linejoin:miter;stroke-opacity:1"
       d="m 38.27009,10.422693 c 1.455173,1.603 2.339018,3.282564 4.535715,6.000372 4.409882,4.580493 7.350595,6.378011 10.866813,9.354911"
       id="path936"
       inkscape:connector-curvature="0"
       sodipodi:nodetypes="ccc" />
    <path
       style="fill:none;stroke:#000000;stroke-width:0.26458332px;stroke-linecap:butt;stroke-linejoin:miter;stroke-opacity:1"
       d="m 54.188896,25.204069 c -0.606923,1.527517 -0.255581,1.457927 0.467723,0.7684 -0.231406,1.222379 -0.360364,2.203275 0.634764,0.534539 -0.962658,2.271989 -0.327442,2.679792 0.835219,2.472243 -0.149069,0.270745 -1.269522,0.797117 0.100224,0.668174"
       id="path938"
       inkscape:connector-curvature="0"
       sodipodi:nodetypes="ccccc" />
    <path
       style="fill:none;stroke:#000000;stroke-width:0.26458332px;stroke-linecap:butt;stroke-linejoin:miter;stroke-opacity:1"
       d="m 55.692288,29.680834 v 1.503391"
       id="path940"
       inkscape:connector-curvature="0" />
    <path
       style="fill:none;stroke:#000000;stroke-width:0.26458332px;stroke-linecap:butt;stroke-linejoin:miter;stroke-opacity:1"
       d="m 57.028635,30.58287 v 1.035669"
       id="path942"
       inkscape:connector-curvature="0" />
    <path
       style="fill:none;stroke:#000000;stroke-width:0.26458332px;stroke-linecap:butt;stroke-linejoin:miter;stroke-opacity:1"
       d="m 58.064304,30.716503 v 0.935445"
       id="path944"
       inkscape:connector-curvature="0" />
    <path
       style="fill:none;stroke:#000000;stroke-width:0.26458332px;stroke-linecap:butt;stroke-linejoin:miter;stroke-opacity:1"
       d="m 45.870132,10.404019 c 1.521077,1.257094 3.133659,3.243399 4.276312,5.779704 0.879762,1.659298 4.276007,4.327162 6.848782,8.084903 0.601356,0.407511 1.202713,0.736867 1.804069,1.570208 0.683672,0.68757 1.337883,1.168912 2.104748,2.438835 0.397689,0.362751 0.852828,0.677626 0.734991,1.469982 -0.03789,0.503294 0.01865,1.195472 0.06682,1.870888"
       id="path946"
       inkscape:connector-curvature="0"
       sodipodi:nodetypes="ccccccc" />
    <path
       style="fill:none;stroke:#000000;stroke-width:0.26458332px;stroke-linecap:butt;stroke-linejoin:miter;stroke-opacity:1"
       d="m 59.267018,27.47586 c 0.377694,0.920145 1.069826,1.368634 0.968851,3.006783 0.450923,1.164587 0.985323,2.447023 -0.03341,1.5368 -0.313203,-0.636295 -0.592909,-1.262542 -0.03341,-1.637027"
       id="path948"
       inkscape:connector-curvature="0"
       sodipodi:nodetypes="cccc" />
    <path
       style="fill:none;stroke:#000000;stroke-width:0.26458332px;stroke-linecap:butt;stroke-linejoin:miter;stroke-opacity:1"
       d="M 60.169051,32.05285 C 59.34131,32.686919 58.722925,30.494667 58.064304,28.845615 57.156591,28.486858 56.444168,27.444584 55.892739,25.838834"
       id="path950"
       inkscape:connector-curvature="0"
       sodipodi:nodetypes="ccc" />
    <path
       style="fill:none;stroke:#000000;stroke-width:0.26458332px;stroke-linecap:butt;stroke-linejoin:miter;stroke-opacity:1"
       d="m 60.870634,31.785581 c 1.346565,-0.227526 2.789692,-0.596769 3.107009,0.03341 0.809162,-0.788962 2.15111,-1.569272 2.372017,-0.200451 0.263815,0.731031 -1.304714,2.0998 -2.372018,1.269528 -0.02851,0.355321 0.201235,0.664594 -0.334085,0.935446"
       id="path952"
       inkscape:connector-curvature="0"
       sodipodi:nodetypes="ccccc" />
    <path
       style="fill:none;stroke:#000000;stroke-width:0.26458332px;stroke-linecap:butt;stroke-linejoin:miter;stroke-opacity:1"
       d="m 64.244912,34.725546 c 0.863321,-0.441533 1.519695,-0.930823 1.23612,-1.637025"
       id="path954"
       inkscape:connector-curvature="0"
       sodipodi:nodetypes="cc" />
    <path
       style="fill:none;stroke:#000000;stroke-width:0.26458332px;stroke-linecap:butt;stroke-linejoin:miter;stroke-opacity:1"
       d="m 63.509921,35.627579 c 1.488736,-0.122238 1.41289,-0.679082 1.336347,-1.23612"
       id="path956"
       inkscape:connector-curvature="0"
       sodipodi:nodetypes="cc" />
    <path
       style="fill:none;stroke:#000000;stroke-width:0.26458332px;stroke-linecap:butt;stroke-linejoin:miter;stroke-opacity:1"
       d="m 64.011052,35.527355 c 0.322967,0.438026 0.226414,0.841093 -1.570209,1.102487"
       id="path958"
       inkscape:connector-curvature="0"
       sodipodi:nodetypes="cc" />
    <path
       style="fill:none;stroke:#000000;stroke-width:0.26458332px;stroke-linecap:butt;stroke-linejoin:miter;stroke-opacity:1"
       d="m 62.374025,34.625319 c 0.690287,-0.09939 2.962777,-1.212153 -0.434313,2.104747 -0.875487,0.507217 -2.371087,0.669928 -4.04245,0.734992"
       id="path960"
       inkscape:connector-curvature="0"
       sodipodi:nodetypes="ccc" />
    <path
       style="fill:none;stroke:#000000;stroke-width:0.26458332px;stroke-linecap:butt;stroke-linejoin:miter;stroke-opacity:1"
       d="m 59.567696,36.496206 c -1.560512,1.059765 -3.104724,1.972833 -4.57699,2.238383"
       id="path962"
       inkscape:connector-curvature="0"
       sodipodi:nodetypes="cc" />
    <path
       style="fill:none;stroke:#000000;stroke-width:0.26458332px;stroke-linecap:butt;stroke-linejoin:miter;stroke-opacity:1"
       d="m 54.890479,38.133234 c 0.109911,0.987233 -1.200419,1.951435 -0.968851,0.434311"
       id="path964"
       inkscape:connector-curvature="0"
       sodipodi:nodetypes="cc" />
    <path
       style="fill:none;stroke:#000000;stroke-width:0.26458332px;stroke-linecap:butt;stroke-linejoin:miter;stroke-opacity:1"
       d="m 51.04848,40.104345 c 0.94658,0.154034 1.893159,0.04762 2.839739,-1.035669"
       id="path966"
       inkscape:connector-curvature="0"
       sodipodi:nodetypes="cc" />
    <path
       style="fill:none;stroke:#000000;stroke-width:0.26458332px;stroke-linecap:butt;stroke-linejoin:miter;stroke-opacity:1"
       d="m 51.148704,38.70118 c 1.114637,-1.145512 2.630435,-1.689282 4.276315,-2.037929"
       id="path968"
       inkscape:connector-curvature="0"
       sodipodi:nodetypes="cc" />
    <path
       style="fill:none;stroke:#000000;stroke-width:0.26458332px;stroke-linecap:butt;stroke-linejoin:miter;stroke-opacity:1"
       d="m 56.193417,35.995075 c 0.771441,-0.638791 1.612407,-0.860429 2.472243,-0.968851"
       id="path970"
       inkscape:connector-curvature="0"
       sodipodi:nodetypes="cc" />
    <path
       style="fill:none;stroke:#000000;stroke-width:0.26458332px;stroke-linecap:butt;stroke-linejoin:miter;stroke-opacity:1"
       d="m 52.251191,35.493946 c -0.669546,0.212195 -1.211675,-0.148981 -1.703842,-0.734991"
       id="path972"
       inkscape:connector-curvature="0"
       sodipodi:nodetypes="cc" />
    <path
       style="fill:none;stroke:#000000;stroke-width:0.26458332px;stroke-linecap:butt;stroke-linejoin:miter;stroke-opacity:1"
       d="m 61.939712,36.730066 c -2.710694,1.918918 -5.735395,3.314492 -8.819894,4.610402 -3.318596,1.902272 -6.637193,3.791925 -9.955789,5.078119 -1.35862,0.885909 -2.717241,2.082405 -4.075861,2.271792"
       id="path974"
       inkscape:connector-curvature="0"
       sodipodi:nodetypes="cccc" />
    <path
       style="fill:none;stroke:#000000;stroke-width:0.26458332px;stroke-linecap:butt;stroke-linejoin:miter;stroke-opacity:1"
       d="m 53.152902,41.393117 c 0.579872,-1.123214 0.250101,-1.336784 0.188986,-1.81901"
       id="path976"
       inkscape:connector-curvature="0"
       sodipodi:nodetypes="cc" />
    <path
       style="fill:none;stroke:#000000;stroke-width:0.26458332px;stroke-linecap:butt;stroke-linejoin:miter;stroke-opacity:1"
       d="m 43.136534,46.377677 c 1.068071,-6.119367 0.678477,-9.86328 -1.653646,-10.441591 1.086466,-1.440387 1.173347,-2.922424 -0.755954,-4.488468 -0.759968,-0.788075 -1.394338,-0.57137 -2.031622,-0.377976"
       id="path978"
       inkscape:connector-curvature="0"
       sodipodi:nodetypes="cccc" />
    <path
       style="fill:none;stroke:#000000;stroke-width:0.26458332px;stroke-linecap:butt;stroke-linejoin:miter;stroke-opacity:1"
       d="m 41.388392,36.03058 -2.551337,1.039434"
       id="path980"
       inkscape:connector-curvature="0" />
    <path
       style="fill:none;stroke:#000000;stroke-width:0.26458332px;stroke-linecap:butt;stroke-linejoin:miter;stroke-opacity:1"
       d="m 42.569569,35.463614 2.787573,-1.133927"
       id="path982"
       inkscape:connector-curvature="0" />
    <path
       style="fill:none;stroke:#000000;stroke-width:0.26458332px;stroke-linecap:butt;stroke-linejoin:miter;stroke-opacity:1"
       d="M 38.789805,32.250819 42.23884,31.022395"
       id="path984"
       inkscape:connector-curvature="0" />
    <path
       style="fill:none;stroke:#000000;stroke-width:0.26458332px;stroke-linecap:butt;stroke-linejoin:miter;stroke-opacity:1"
       d="m 60.003721,38.014955 c 0.787432,2.774054 -1.593142,1.927531 -3.307292,1.842635"
       id="path986"
       inkscape:connector-curvature="0"
       sodipodi:nodetypes="cc" />
    <path
       style="fill:none;stroke:#000000;stroke-width:0.26458332px;stroke-linecap:butt;stroke-linejoin:miter;stroke-opacity:1"
       d="m 63.499999,31.400371 c 0.06577,-2.065617 -0.04941,-3.968378 -1.228423,-4.913691 0.407734,-1.534041 0.02973,-2.605886 -1.700893,-2.882067 l -4.299479,-0.377977"
       id="path988"
       inkscape:connector-curvature="0"
       sodipodi:nodetypes="cccc" />
    <path
       style="fill:none;stroke:#000000;stroke-width:0.26458332px;stroke-linecap:butt;stroke-linejoin:miter;stroke-opacity:1"
       d="m 62.271576,26.533927 -1.984375,0.803201"
       id="path990"
       inkscape:connector-curvature="0" />
    <path
       style="fill:none;stroke:#000000;stroke-width:0.26458332px;stroke-linecap:butt;stroke-linejoin:miter;stroke-opacity:1"
       d="m 60.239954,23.557365 -2.645833,0.992188"
       id="path992"
       inkscape:connector-curvature="0" />
    <path
       style="fill:none;stroke:#000000;stroke-width:0.26458332px;stroke-linecap:butt;stroke-linejoin:miter;stroke-opacity:1"
       d="m 53.578124,26.108705 -3.732514,1.41741"
       id="path994"
       inkscape:connector-curvature="0" />
    <path
       style="fill:none;stroke:#000000;stroke-width:0.26458332px;stroke-linecap:butt;stroke-linejoin:miter;stroke-opacity:1"
       d="m 48.71168,25.966964 3.779764,0.519716 c 0.839152,0.775968 1.890149,1.402399 0.661458,3.638021 l 2.173361,-0.992187"
       id="path996"
       inkscape:connector-curvature="0"
       sodipodi:nodetypes="cccc" />
    <path
       style="fill:none;stroke:#000000;stroke-width:0.26458332px;stroke-linecap:butt;stroke-linejoin:miter;stroke-opacity:1"
       d="M 49.656621,22.470684 45.971354,22.234449"
       id="path998"
       inkscape:connector-curvature="0" />
    <path
       style="fill:none;stroke:#000000;stroke-width:0.26458332px;stroke-linecap:butt;stroke-linejoin:miter;stroke-opacity:1"
       d="m 41.577381,12.454315 c 0.861463,-0.381131 1.401699,-0.976414 1.889882,-1.606399"
       id="path1000"
       inkscape:connector-curvature="0"
       sodipodi:nodetypes="cc" />
    <path
       style="fill:none;stroke:#000000;stroke-width:0.26458332px;stroke-linecap:butt;stroke-linejoin:miter;stroke-opacity:1"
       d="m 50.932291,20.864285 c 0.499916,1.072959 1.201012,2.045327 2.078868,2.929316"
       id="path1002"
       inkscape:connector-curvature="0"
       sodipodi:nodetypes="cc" />
    <path
       style="fill:none;stroke:#000000;stroke-width:0.26458332px;stroke-linecap:butt;stroke-linejoin:miter;stroke-opacity:1"
       d="m 37.372395,36.881027 c -0.0812,1.668169 0.07013,3.452599 0.236236,5.24442"
       id="path1004"
       inkscape:connector-curvature="0"
       sodipodi:nodetypes="cc" />
    <path
       style="fill:none;stroke:#000000;stroke-width:0.26458332px;stroke-linecap:butt;stroke-linejoin:miter;stroke-opacity:1"
       d="m 37.183406,28.518302 c -0.660812,0.122047 -0.639846,0.828475 -0.425222,1.700895"
       id="path1006"
       inkscape:connector-curvature="0"
       sodipodi:nodetypes="cc" />
    <path
       style="fill:none;stroke:#000000;stroke-width:0.26458332px;stroke-linecap:butt;stroke-linejoin:miter;stroke-opacity:1"
       d="m 35.860489,27.76235 c -0.551787,0.415088 -1.102613,0.831328 -1.039434,1.984375"
       id="path1008"
       inkscape:connector-curvature="0"
       sodipodi:nodetypes="cc" />
    <path
       style="fill:none;stroke:#000000;stroke-width:0.26458332px;stroke-linecap:butt;stroke-linejoin:miter;stroke-opacity:1"
       d="m 40.679687,21.147767 c 1.259433,2.123922 2.296022,3.245044 3.307292,4.252232"
       id="path1010"
       inkscape:connector-curvature="0"
       sodipodi:nodetypes="cc" />
    <path
       style="fill:none;stroke:#000000;stroke-width:0.26458332px;stroke-linecap:butt;stroke-linejoin:miter;stroke-opacity:1"
       d="m 40.018229,16.045089 c 0.996808,-1.263575 1.417303,-0.106639 1.795388,1.228422"
       id="path1012"
       inkscape:connector-curvature="0"
       sodipodi:nodetypes="cc" />
    <path
       style="fill:none;stroke:#000000;stroke-width:0.26458332px;stroke-linecap:butt;stroke-linejoin:miter;stroke-opacity:1"
       d="m 24.379464,13.918973 c -0.289956,0.768609 -0.112045,1.381263 -0.04725,2.031622 -1.05184,0.184674 -1.948638,-0.560896 -2.882068,-1.086682"
       id="path1014"
       inkscape:connector-curvature="0"
       sodipodi:nodetypes="ccc" />
    <path
       style="fill:none;stroke:#000000;stroke-width:0.26458332px;stroke-linecap:butt;stroke-linejoin:miter;stroke-opacity:1"
       d="m 25.277158,15.619866 c -0.151557,0.348529 -0.209964,0.976508 -0.236235,1.700893"
       id="path1016"
       inkscape:connector-curvature="0"
       sodipodi:nodetypes="cc" />
    <path
       style="fill:none;stroke:#000000;stroke-width:0.26458332px;stroke-linecap:butt;stroke-linejoin:miter;stroke-opacity:1"
       d="m 27.025298,19.872098 c 0.503968,1.70127 1.007935,2.487575 1.511903,2.173363"
       id="path1018"
       inkscape:connector-curvature="0"
       sodipodi:nodetypes="cc" />
  </g>
</svg>
