<?xml version="1.0" encoding="UTF-8" standalone="no"?>
<!-- Created with Inkscape (http://www.inkscape.org/) -->

<svg
   xmlns:dc="http://purl.org/dc/elements/1.1/"
   xmlns:cc="http://creativecommons.org/ns#"
   xmlns:rdf="http://www.w3.org/1999/02/22-rdf-syntax-ns#"
   xmlns:svg="http://www.w3.org/2000/svg"
   xmlns="http://www.w3.org/2000/svg"
   xmlns:sodipodi="http://sodipodi.sourceforge.net/DTD/sodipodi-0.dtd"
   xmlns:inkscape="http://www.inkscape.org/namespaces/inkscape"
   width="256"
   height="256"
   viewBox="0 0 67.733332 67.733335"
   version="1.1"
   id="svg7623"
   inkscape:version="0.92.2 (5c3e80d, 2017-08-06)"
   sodipodi:docname="fig22.svg">
  <defs
     id="defs7617" />
  <sodipodi:namedview
     id="base"
     pagecolor="#ffffff"
     bordercolor="#666666"
     borderopacity="1.0"
     inkscape:pageopacity="0.0"
     inkscape:pageshadow="2"
     inkscape:zoom="2.8"
     inkscape:cx="124.17887"
     inkscape:cy="146.5009"
     inkscape:document-units="px"
     inkscape:current-layer="layer2"
     showgrid="false"
     units="px"
     inkscape:window-width="1366"
     inkscape:window-height="745"
     inkscape:window-x="-8"
     inkscape:window-y="-8"
     inkscape:window-maximized="1"
     showguides="true"
     inkscape:guide-bbox="true"
     inkscape:snap-global="false" />
  <metadata
     id="metadata7620">
    <rdf:RDF>
      <cc:Work
         rdf:about="">
        <dc:format>image/svg+xml</dc:format>
        <dc:type
           rdf:resource="http://purl.org/dc/dcmitype/StillImage" />
        <dc:title />
      </cc:Work>
    </rdf:RDF>
  </metadata>
  <g
     inkscape:groupmode="layer"
     id="layer2"
     inkscape:label="Capa 2"
     style="display:inline">
    <path
       style="fill:none;stroke:#000000;stroke-width:0.26458332px;stroke-linecap:butt;stroke-linejoin:miter;stroke-opacity:1"
       d="M 44.908295,3.4301337 C 46.230038,4.4488398 44.90345,6.9019992 42.23884,5.0601562 40.157549,4.5412055 39.445731,5.4638057 38.506323,6.1468375 35.772959,9.147234 34.576134,9.136016 33.380021,9.1234 c 0.01356,-2.2482925 0.733671,-2.5535576 1.488283,-2.7639507 0.744016,-0.2712965 1.452514,-0.436039 2.315104,-1.063058"
       id="path817"
       inkscape:connector-curvature="0"
       sodipodi:nodetypes="cccccc" />
    <path
       style="fill:none;stroke:#000000;stroke-width:0.26458332px;stroke-linecap:butt;stroke-linejoin:miter;stroke-opacity:1"
       d="m 38.364583,6.3830728 c 1.483522,0.1243485 2.759148,-0.1670945 3.614396,-1.2992933"
       id="path819"
       inkscape:connector-curvature="0"
       sodipodi:nodetypes="cc" />
    <path
       style="fill:none;stroke:#000000;stroke-width:0.26458332px;stroke-linecap:butt;stroke-linejoin:miter;stroke-opacity:1"
       d="M 36.096725,6.6901784 C 37.534487,4.252033 39.512087,4.6673143 41.36477,4.4223212"
       id="path821"
       inkscape:connector-curvature="0"
       sodipodi:nodetypes="cc" />
    <path
       style="fill:none;stroke:#000000;stroke-width:0.26458332px;stroke-linecap:butt;stroke-linejoin:miter;stroke-opacity:1"
       d="M 33.828868,6.9264135 C 33.816639,5.9131964 34.240171,5.0515481 35.671503,4.5404389 39.291239,3.4182309 40.275722,3.81329 41.955357,3.80811"
       id="path823"
       inkscape:connector-curvature="0"
       sodipodi:nodetypes="ccc" />
    <path
       style="fill:none;stroke:#000000;stroke-width:0.26458332px;stroke-linecap:butt;stroke-linejoin:miter;stroke-opacity:1"
       d="M 35.080916,4.6585563 C 34.940094,3.6083259 36.297779,2.8187052 37.561385,2.012723 40.833417,1.933607 42.308497,2.5456269 43.136531,3.4065101"
       id="path825"
       inkscape:connector-curvature="0"
       sodipodi:nodetypes="ccc" />
    <path
       style="fill:none;stroke:#000000;stroke-width:0.26458332px;stroke-linecap:butt;stroke-linejoin:miter;stroke-opacity:1"
       d="m 43.301898,5.2963912 c -1.5247,-1.0550786 0.138334,-2.2822705 1.133927,-2.3151041 0.504414,-0.00933 2.211599,0.3120246 1.559153,2.5277157 -0.291357,0.1784965 -0.582715,0.2195804 -0.874072,-0.1653646"
       id="path827"
       inkscape:connector-curvature="0"
       sodipodi:nodetypes="cccc" />
    <path
       style="fill:none;stroke:#000000;stroke-width:0.26458332px;stroke-linecap:butt;stroke-linejoin:miter;stroke-opacity:1"
       d="m 44.435826,3.4773809 c -0.497736,-0.039134 -1.164857,0.236881 -0.826823,1.0394344 0.276826,0.4042746 0.782174,0.5356657 0.874069,-0.141741"
       id="path829"
       inkscape:connector-curvature="0"
       sodipodi:nodetypes="ccc" />
    <path
       style="fill:none;stroke:#000000;stroke-width:0.26458332px;stroke-linecap:butt;stroke-linejoin:miter;stroke-opacity:1"
       d="m 45.498884,5.6979909 c 0.501274,2.0743819 -0.40978,3.4118973 -1.322916,4.7483261 0.91681,-1.8786291 0.892929,-3.3809821 0.236233,-4.6302087"
       id="path831"
       inkscape:connector-curvature="0"
       sodipodi:nodetypes="ccc" />
    <path
       style="fill:none;stroke:#000000;stroke-width:0.26458332px;stroke-linecap:butt;stroke-linejoin:miter;stroke-opacity:1"
       d="M 44.317708,9.6194937 C 44.0421,9.3877441 43.766493,9.3097679 43.490885,9.2651412 c -0.153479,0.069809 -0.488936,-0.016363 -0.236236,0.4015997 0.590432,0.1653647 0.679567,0.3307294 0.921319,0.4960941"
       id="path833"
       inkscape:connector-curvature="0"
       sodipodi:nodetypes="cccc" />
    <path
       style="fill:none;stroke:#000000;stroke-width:0.26458332px;stroke-linecap:butt;stroke-linejoin:miter;stroke-opacity:1"
       d="M 41.837239,9.0289061 V 8.5328124 C 40.655038,7.8348696 40.033186,8.0174749 39.262277,7.9658479 c 0.819461,0.3543527 1.633119,0.7087055 2.574962,1.0630582 z"
       id="path835"
       inkscape:connector-curvature="0"
       sodipodi:nodetypes="cccc" />
    <path
       style="fill:none;stroke:#000000;stroke-width:0.26458332px;stroke-linecap:butt;stroke-linejoin:miter;stroke-opacity:1"
       d="M 44.081472,8.3910711 C 43.372767,8.2498082 42.616815,7.4581089 41.884486,7.4933777"
       id="path837"
       inkscape:connector-curvature="0"
       sodipodi:nodetypes="cc" />
    <path
       style="fill:none;stroke:#000000;stroke-width:0.26458332px;stroke-linecap:butt;stroke-linejoin:miter;stroke-opacity:1"
       d="m 36.380208,8.4383183 2.220611,-0.07087 3.354538,1.2992931 C 41.796982,10.277316 41.642231,10.889884 40.254465,10.824294 39.368637,10.391136 38.347419,10.108412 38.553572,8.4619421"
       id="path839"
       inkscape:connector-curvature="0"
       sodipodi:nodetypes="ccccc" />
    <path
       style="fill:none;stroke:#000000;stroke-width:0.26458332px;stroke-linecap:butt;stroke-linejoin:miter;stroke-opacity:1"
       d="m 41.884486,10.044717 c 0.311268,-0.081951 0.657792,-0.3578069 0.850447,0.212612 l 2.14974,0.803199 c -0.145271,1.815917 -2.464388,0.816486 -2.740329,0.685082"
       id="path841"
       inkscape:connector-curvature="0"
       sodipodi:nodetypes="cccc" />
    <path
       style="fill:none;stroke:#000000;stroke-width:0.26458332px;stroke-linecap:butt;stroke-linejoin:miter;stroke-opacity:1"
       d="m 42.947544,9.8084819 c -0.3469,0.5316691 -0.661034,1.3582321 -0.94494,2.4568451 -0.03795,0.410248 -0.320297,1.215473 -0.944942,0.425223 -0.0078,-0.307206 -0.04522,-0.324878 -0.236235,-0.448846 -0.0832,0.735924 -1.263348,-0.424093 0.236236,-0.590588"
       id="path843"
       inkscape:connector-curvature="0"
       sodipodi:nodetypes="ccccc" />
    <path
       style="fill:none;stroke:#000000;stroke-width:0.26458332px;stroke-linecap:butt;stroke-linejoin:miter;stroke-opacity:1"
       d="m 40.96317,10.139211 c -0.464596,0.116852 -0.929192,0.168596 -1.393788,-0.5197173"
       id="path845"
       inkscape:connector-curvature="0"
       sodipodi:nodetypes="cc" />
    <path
       style="fill:none;stroke:#000000;stroke-width:0.26458332px;stroke-linecap:butt;stroke-linejoin:miter;stroke-opacity:1"
       d="m 43.727121,11.438504 c -0.345316,0.01588 -0.689384,0.03613 -1.157552,-0.377976"
       id="path847"
       inkscape:connector-curvature="0"
       sodipodi:nodetypes="cc" />
    <path
       style="fill:none;stroke:#000000;stroke-width:0.26458332px;stroke-linecap:butt;stroke-linejoin:miter;stroke-opacity:1"
       d="M 38.057478,9.3832586 37.183406,9.7139878"
       id="path849"
       inkscape:connector-curvature="0" />
    <path
       style="fill:none;stroke:#000000;stroke-width:0.26458332px;stroke-linecap:butt;stroke-linejoin:miter;stroke-opacity:1"
       d="M 38.057478,9.8084819 37.207031,10.328199"
       id="path851"
       inkscape:connector-curvature="0" />
    <path
       style="fill:none;stroke:#000000;stroke-width:0.26458332px;stroke-linecap:butt;stroke-linejoin:miter;stroke-opacity:1"
       d="m 41.317521,13.399256 0.07087,0.826823 c -1.087345,-0.37513 -1.727807,-0.899221 -2.456844,-1.393787 0.504293,0.876786 1.628354,3.328579 2.149739,1.275669"
       id="path853"
       inkscape:connector-curvature="0"
       sodipodi:nodetypes="cccc" />
    <path
       style="fill:none;stroke:#000000;stroke-width:0.26458332px;stroke-linecap:butt;stroke-linejoin:miter;stroke-opacity:1"
       d="m 39.285899,12.477939 c -0.350757,0.184025 -0.630875,0.579968 -0.921316,0.94494"
       id="path855"
       inkscape:connector-curvature="0"
       sodipodi:nodetypes="cc" />
    <path
       style="fill:none;stroke:#000000;stroke-width:0.26458332px;stroke-linecap:butt;stroke-linejoin:miter;stroke-opacity:1"
       d="m 43.372767,12.14721 c -0.301725,0.724454 -0.464704,1.448909 -1.488281,2.173363 -0.721436,1.372713 -1.480419,2.6586 -3.189174,1.748139 -0.690733,-0.247858 -1.111747,-0.863513 -1.110305,-2.055245"
       id="path857"
       inkscape:connector-curvature="0"
       sodipodi:nodetypes="cccc" />
    <path
       style="fill:none;stroke:#000000;stroke-width:0.26458332px;stroke-linecap:butt;stroke-linejoin:miter;stroke-opacity:1"
       d="M 37.726749,14.958407 C 37.357676,15.066902 37.017027,14.69219 36.710937,13.729985"
       id="path859"
       inkscape:connector-curvature="0"
       sodipodi:nodetypes="cc" />
    <path
       style="fill:none;stroke:#000000;stroke-width:0.26458332px;stroke-linecap:butt;stroke-linejoin:miter;stroke-opacity:1"
       d="m 43.278274,12.572433 c 1.354404,0.1155 -0.414767,1.99428 1.08668,1.866257 -0.228595,0.439508 -0.249372,1.102821 -1.252045,0.708706 0.153371,0.621881 0.314473,1.239598 -0.330729,2.29148 -1.183,-1.848846 -0.572558,0.802892 -1.039434,1.322917 -0.633558,-0.486487 -1.019213,-0.187949 -1.27567,0.519717"
       id="path861"
       inkscape:connector-curvature="0"
       sodipodi:nodetypes="cccccc" />
    <path
       style="fill:none;stroke:#000000;stroke-width:0.26458332px;stroke-linecap:butt;stroke-linejoin:miter;stroke-opacity:1"
       d="m 36.191219,8.4855652 c 1.237654,1.5258078 -1.340308,2.3737048 0.543343,3.9923738 -0.462725,0.463029 -0.962608,0.331537 -1.488282,-0.212612 0.630437,1.406607 0.762429,2.469459 -0.425225,2.62221 -0.577582,0.371147 -1.102177,0.772801 0.354354,2.315104 -0.97923,0.776087 -1.95844,-0.945988 -2.716704,-0.637835 -1.020932,0.476213 -1.489774,0.124293 -1.889882,-0.330729 0.782079,-0.300482 2.071194,-0.388282 -0.992186,-2.031622 -0.534572,-0.118118 -0.965795,0.07087 -1.464658,0.165365 0.252066,-0.791058 -0.57464,-1.877936 1.535528,-2.267858 -0.59148,-0.301257 -0.817528,-0.936901 0.188988,-1.724516 0.403873,1.637843 1.528051,0.635197 1.3683,-0.216666 -0.196652,-1.0486329 0.351458,-1.8203071 2.151603,-0.8227683"
       id="path863"
       inkscape:connector-curvature="0"
       sodipodi:nodetypes="cccccccccccsc" />
    <path
       style="fill:none;stroke:#000000;stroke-width:0.26458332px;stroke-linecap:butt;stroke-linejoin:miter;stroke-opacity:1"
       d="m 34.310724,17.453253 c 0.222525,1.593877 2.675173,4.548512 3.207235,1.837478 0.128737,-1.285565 0.1558,-2.672803 0.968853,-3.274052"
       id="path865"
       inkscape:connector-curvature="0"
       sodipodi:nodetypes="ccc" />
    <path
       style="fill:none;stroke:#000000;stroke-width:0.26458332px;stroke-linecap:butt;stroke-linejoin:miter;stroke-opacity:1"
       d="M 37.018042,15.926971 C 36.645868,16.393223 36.44886,17.384974 36.26209,18.40744"
       id="path867"
       inkscape:connector-curvature="0"
       sodipodi:nodetypes="cc" />
    <path
       style="fill:none;stroke:#000000;stroke-width:0.26458332px;stroke-linecap:butt;stroke-linejoin:miter;stroke-opacity:1"
       d="m 38.010229,16.777418 c 0.900809,1.407163 3.078918,1.841145 2.693083,4.228608"
       id="path869"
       inkscape:connector-curvature="0"
       sodipodi:nodetypes="cc" />
    <path
       style="fill:none;stroke:#000000;stroke-width:0.26458332px;stroke-linecap:butt;stroke-linejoin:miter;stroke-opacity:1"
       d="m 28.130119,14.312836 c -0.467695,0.07794 -1.072087,0.224229 -2.07134,0.567948 -0.556652,0.390447 -1.185843,0.472602 -1.403165,2.3052 -0.557905,1.687446 -1.089433,3.412259 -0.601357,6.581512 1.041883,-0.885651 1.323498,-1.911352 5.579251,-2.204974 0.1958,-1.255801 -0.02658,-2.678872 -0.267269,-4.109269"
       id="path871"
       inkscape:connector-curvature="0"
       sodipodi:nodetypes="cccccc" />
    <path
       style="fill:none;stroke:#000000;stroke-width:0.26458332px;stroke-linecap:butt;stroke-linejoin:miter;stroke-opacity:1"
       d="m 24.087666,23.800904 c 0.641341,0.279749 0.984544,0.161981 1.369756,0.100226"
       id="path873"
       inkscape:connector-curvature="0"
       sodipodi:nodetypes="cc" />
    <path
       style="fill:none;stroke:#000000;stroke-width:0.26458332px;stroke-linecap:butt;stroke-linejoin:miter;stroke-opacity:1"
       d="m 25.123335,22.89887 1.837479,4.209494 c 0.645496,1.664359 1.878711,1.369658 3.073598,1.202714 2.332647,-0.601166 4.417532,-1.621621 7.116051,-1.603619 0.556061,0.391294 1.323538,0.651712 2.539061,0.634768 0.288977,0.06508 1.386632,-0.855429 0.334086,-0.868628 -0.389767,0.06131 -0.779535,-0.0066 -1.169302,-0.133634"
       id="path875"
       inkscape:connector-curvature="0"
       sodipodi:nodetypes="ccccccc" />
    <path
       style="fill:none;stroke:#000000;stroke-width:0.26458332px;stroke-linecap:butt;stroke-linejoin:miter;stroke-opacity:1"
       d="m 40.157246,26.440191 c 1.059661,0.03082 0.922172,-0.936036 0.300678,-0.902035 -0.46992,0.09459 -0.858047,-0.01531 -1.269529,-0.06682 v 0"
       id="path877"
       inkscape:connector-curvature="0"
       sodipodi:nodetypes="cccc" />
    <path
       style="fill:none;stroke:#000000;stroke-width:0.26458332px;stroke-linecap:butt;stroke-linejoin:miter;stroke-opacity:1"
       d="m 40.524742,25.538156 c 0.903583,0.01985 0.762374,-0.799828 0.300677,-0.902034 -0.382942,0.07149 -0.82484,0.05454 -1.269529,0.03341"
       id="path879"
       inkscape:connector-curvature="0"
       sodipodi:nodetypes="ccc" />
    <path
       style="fill:none;stroke:#000000;stroke-width:0.26458332px;stroke-linecap:butt;stroke-linejoin:miter;stroke-opacity:1"
       d="m 40.825419,24.569304 c 1.066219,-0.180286 0.471758,-1.254653 0.100227,-1.436573 l -0.167044,0.835217 c -1.023961,0.107269 -1.536827,-0.126193 -2.03793,-0.367496 l 0.601356,-2.338608 c 0.983933,-0.471841 1.565995,-0.240407 1.837478,0.534539 l -0.200451,1.302939"
       id="path881"
       inkscape:connector-curvature="0"
       sodipodi:nodetypes="ccccccc" />
    <path
       style="fill:none;stroke:#000000;stroke-width:0.26458332px;stroke-linecap:butt;stroke-linejoin:miter;stroke-opacity:1"
       d="m 29.222284,21.643861 c 0.31049,0.745798 0.594105,1.572224 0.779576,2.693081"
       id="path883"
       inkscape:connector-curvature="0"
       sodipodi:nodetypes="cc" />
    <path
       style="fill:none;stroke:#000000;stroke-width:0.26458332px;stroke-linecap:butt;stroke-linejoin:miter;stroke-opacity:1"
       d="m 29.222284,24.856659 c 1.247859,-0.93095 4.630641,-0.600355 7.110677,-0.8032 0.83229,-0.526614 1.624742,-1.232494 2.574962,-1.228422"
       id="path885"
       inkscape:connector-curvature="0"
       sodipodi:nodetypes="ccc" />
    <path
       style="fill:none;stroke:#000000;stroke-width:0.26458332px;stroke-linecap:butt;stroke-linejoin:miter;stroke-opacity:1"
       d="m 38.010229,21.242262 c -0.205303,0.599425 -0.435186,1.191828 -0.212611,1.913504"
       id="path887"
       inkscape:connector-curvature="0"
       sodipodi:nodetypes="cc" />
    <path
       style="fill:none;stroke:#000000;stroke-width:0.26458332px;stroke-linecap:butt;stroke-linejoin:miter;stroke-opacity:1"
       d="m 23.859747,22.281696 c -0.544028,0.953925 -1.208988,1.756685 -1.27567,3.307292"
       id="path889"
       inkscape:connector-curvature="0"
       sodipodi:nodetypes="cc" />
    <path
       style="fill:none;stroke:#000000;stroke-width:0.26458332px;stroke-linecap:butt;stroke-linejoin:miter;stroke-opacity:1"
       d="m 25.277157,26.297693 -2.645833,-0.755952 c -1.268292,0.09511 -0.791851,1.474603 -0.330729,1.417411 l 2.409598,-0.04725"
       id="path891"
       inkscape:connector-curvature="0"
       sodipodi:nodetypes="cccc" />
    <path
       style="fill:none;stroke:#000000;stroke-width:0.26458332px;stroke-linecap:butt;stroke-linejoin:miter;stroke-opacity:1"
       d="m 22.206101,26.959152 c -0.640785,0.825836 -0.448486,1.121529 -2.409598,2.787573 -2.029281,1.500365 -2.047219,2.106799 -2.126116,2.740327 0.0876,0.586729 1.521829,0.556255 2.608688,0.684991"
       id="path893"
       inkscape:connector-curvature="0"
       sodipodi:nodetypes="cccc" />
    <path
       style="fill:none;stroke:#000000;stroke-width:0.26458332px;stroke-linecap:butt;stroke-linejoin:miter;stroke-opacity:1"
       d="m 17.673197,32.503869 c -0.523467,-0.01566 -1.58921,0.709789 -0.150339,1.169302 0.948465,0.267989 2.636589,-0.05575 4.2262,-0.300678 1.147032,-0.03402 2.294063,-0.192631 3.441095,0.367496"
       id="path897"
       inkscape:connector-curvature="0"
       sodipodi:nodetypes="cccc" />
    <path
       style="fill:none;stroke:#000000;stroke-width:0.26458332px;stroke-linecap:butt;stroke-linejoin:miter;stroke-opacity:1"
       d="m 17.288997,33.723286 c -0.756849,-0.289861 -1.322347,0.601847 -0.250565,0.801809 2.106237,0.44051 2.712339,0.01292 4.259608,-0.267271 0.838058,-0.171996 3.262493,-0.563013 6.180608,1.085783 1.738764,0.175331 3.477529,-0.270038 5.216293,1.112197 0.500952,0.06716 0.377286,-0.401067 0,-1.086682 -0.409474,-0.774012 -0.818949,-0.87298 -1.228423,-1.110305"
       id="path899"
       inkscape:connector-curvature="0"
       sodipodi:nodetypes="ccccccc" />
    <path
       style="fill:none;stroke:#000000;stroke-width:0.26458332px;stroke-linecap:butt;stroke-linejoin:miter;stroke-opacity:1"
       d="m 32.742187,35.29825 c 0.200393,-0.371158 0.378691,-0.752136 0.02363,-1.370163 -0.503453,-0.74885 -1.264004,-1.112055 -2.645833,-0.543341"
       id="path901"
       inkscape:connector-curvature="0"
       sodipodi:nodetypes="ccc" />
    <path
       style="fill:none;stroke:#000000;stroke-width:0.26458332px;stroke-linecap:butt;stroke-linejoin:miter;stroke-opacity:1"
       d="m 32.860305,33.7391 c 0.2244,-0.518579 0.01686,-0.790334 -0.188989,-1.063059 -0.435468,-0.06537 -1.013542,-0.273338 -1.700893,-0.590587 -0.420355,0.310351 -1.117148,0.43641 -1.913503,0.496094"
       id="path903"
       inkscape:connector-curvature="0"
       sodipodi:nodetypes="cccc" />
    <path
       style="fill:none;stroke:#000000;stroke-width:0.26458332px;stroke-linecap:butt;stroke-linejoin:miter;stroke-opacity:1"
       d="M 26.056733,31.778347 C 24.058269,31.366401 23.534017,30.085956 21.851748,29.91209"
       id="path905"
       inkscape:connector-curvature="0"
       sodipodi:nodetypes="cc" />
    <path
       style="fill:none;stroke:#000000;stroke-width:0.26458332px;stroke-linecap:butt;stroke-linejoin:miter;stroke-opacity:1"
       d="m 25.182664,32.321687 c -1.358519,0.04059 -2.613292,-1.466744 -4.29948,-1.441031"
       id="path907"
       inkscape:connector-curvature="0"
       sodipodi:nodetypes="cc" />
    <path
       style="fill:none;stroke:#000000;stroke-width:0.26458332px;stroke-linecap:butt;stroke-linejoin:miter;stroke-opacity:1"
       d="m 32.742187,32.60517 c 0.371122,-0.85781 0.963345,-1.60507 1.582775,-2.338726"
       id="path909"
       inkscape:connector-curvature="0"
       sodipodi:nodetypes="cc" />
    <path
       style="fill:none;stroke:#000000;stroke-width:0.26458332px;stroke-linecap:butt;stroke-linejoin:miter;stroke-opacity:1"
       d="m 31.962611,31.069642 c 1.126936,-0.371866 2.128818,-0.493623 3.732514,-1.81901"
       id="path911"
       inkscape:connector-curvature="0"
       sodipodi:nodetypes="cc" />
    <path
       style="fill:none;stroke:#000000;stroke-width:0.26458332px;stroke-linecap:butt;stroke-linejoin:miter;stroke-opacity:1"
       d="m 17.10525,34.59191 c -0.238009,3.8993 1.312951,5.252761 3.374277,5.879931"
       id="path913"
       inkscape:connector-curvature="0"
       sodipodi:nodetypes="cc" />
    <path
       style="fill:none;stroke:#000000;stroke-width:0.26458332px;stroke-linecap:butt;stroke-linejoin:miter;stroke-opacity:1"
       d="m 19.443858,38.467321 c 0.602416,2.412339 1.938648,2.4864 2.706104,2.472242"
       id="path915"
       inkscape:connector-curvature="0"
       sodipodi:nodetypes="cc" />
    <path
       style="fill:none;stroke:#000000;stroke-width:0.26458332px;stroke-linecap:butt;stroke-linejoin:miter;stroke-opacity:1"
       d="m 20.512936,38.567545 c 0.337313,3.102728 3.918455,2.636873 7.049233,4.075861"
       id="path917"
       inkscape:connector-curvature="0"
       sodipodi:nodetypes="cc" />
    <path
       style="fill:none;stroke:#000000;stroke-width:0.26458332px;stroke-linecap:butt;stroke-linejoin:miter;stroke-opacity:1"
       d="m 26.660136,41.440692 c 0.232247,0.378632 0.356436,0.757264 0.835215,1.135896 -0.04417,-1.732756 1.129816,-2.02588 2.004523,-2.672694"
       id="path919"
       inkscape:connector-curvature="0"
       sodipodi:nodetypes="ccc" />
    <path
       style="fill:none;stroke:#000000;stroke-width:0.26458332px;stroke-linecap:butt;stroke-linejoin:miter;stroke-opacity:1"
       d="m 28.831701,41.407283 c -1.944894,1.141518 -2.510708,3.815348 -2.873148,6.715149 -0.299513,2.093028 -0.268843,4.020965 -1.570209,6.614919 0.947317,0.734043 1.563138,1.894295 3.073599,1.904296 l 1.469982,-3.975634"
       id="path921"
       inkscape:connector-curvature="0"
       sodipodi:nodetypes="ccccc" />
    <path
       style="fill:none;stroke:#000000;stroke-width:0.26458332px;stroke-linecap:butt;stroke-linejoin:miter;stroke-opacity:1"
       d="m 27.562169,56.307561 0.534541,0.133633"
       id="path923"
       inkscape:connector-curvature="0" />
    <path
       style="fill:none;stroke:#000000;stroke-width:0.26458332px;stroke-linecap:butt;stroke-linejoin:miter;stroke-opacity:1"
       d="m 29.633508,51.663753 c -0.486167,1.651731 -0.700719,2.963944 -1.503389,5.011303 0.808707,0.186164 1.551679,-0.02208 2.271789,-0.367495 0.487695,-3.452762 0.747088,-6.95821 2.33861,-10.156243 0.365422,-0.677239 3.020044,-5.504624 0,-7.450138 -1.324115,-1.058327 -2.615074,-2.464788 -4.109271,-1.737251"
       id="path925"
       inkscape:connector-curvature="0"
       sodipodi:nodetypes="cccccc" />
    <path
       style="fill:none;stroke:#000000;stroke-width:0.26458332px;stroke-linecap:butt;stroke-linejoin:miter;stroke-opacity:1"
       d="M 29.934188,36.730066 27.52876,35.360311"
       id="path927"
       inkscape:connector-curvature="0" />
    <path
       style="fill:none;stroke:#000000;stroke-width:0.26458332px;stroke-linecap:butt;stroke-linejoin:miter;stroke-opacity:1"
       d="m 21.047475,40.872746 0.868626,9.755338 1.469982,0.801806 2.171565,-0.46772"
       id="path929"
       inkscape:connector-curvature="0" />
    <path
       style="fill:none;stroke:#000000;stroke-width:0.26458332px;stroke-linecap:butt;stroke-linejoin:miter;stroke-opacity:1"
       d="m 24.956292,42.075459 0.801809,7.450138"
       id="path931"
       inkscape:connector-curvature="0" />
    <path
       style="fill:none;stroke:#000000;stroke-width:0.26458332px;stroke-linecap:butt;stroke-linejoin:miter;stroke-opacity:1"
       d="m 22.283597,41.27365 1.00226,10.089425"
       id="path933"
       inkscape:connector-curvature="0" />
    <path
       style="fill:none;stroke:#000000;stroke-width:0.26458332px;stroke-linecap:butt;stroke-linejoin:miter;stroke-opacity:1"
       d="m 21.749057,50.628084 c -3.334914,-0.129681 -2.931717,2.08612 -1.77066,4.777441 -0.105563,2.179607 -1.069078,2.550198 -1.202713,4.176088"
       id="path935"
       inkscape:connector-curvature="0"
       sodipodi:nodetypes="ccc" />
    <path
       style="fill:none;stroke:#000000;stroke-width:0.26458332px;stroke-linecap:butt;stroke-linejoin:miter;stroke-opacity:1"
       d="m 21.782466,51.697162 3.040191,1.77066"
       id="path937"
       inkscape:connector-curvature="0" />
    <path
       style="fill:none;stroke:#000000;stroke-width:0.26458332px;stroke-linecap:butt;stroke-linejoin:miter;stroke-opacity:1"
       d="m 31.437577,41.206832 c -0.476917,0.581305 0.881131,1.461314 0.200454,2.204974"
       id="path939"
       inkscape:connector-curvature="0"
       sodipodi:nodetypes="cc" />
    <path
       style="fill:none;stroke:#000000;stroke-width:0.26458332px;stroke-linecap:butt;stroke-linejoin:miter;stroke-opacity:1"
       d="m 25.088169,55.472729 c 0.250527,0.553628 -0.216829,1.237781 -0.637835,1.913506 -0.210167,0.958229 0.858118,2.093302 2.267857,1.488281 0.377432,-0.473083 0.654314,-1.059284 1.511906,-0.992187 0.555023,0.05508 1.206549,-0.150404 1.157552,1.535528 0.329415,1.46772 2.493092,2.733494 2.149739,4.630208"
       id="path941"
       inkscape:connector-curvature="0"
       sodipodi:nodetypes="cccccc" />
    <path
       style="fill:none;stroke:#000000;stroke-width:0.26458332px;stroke-linecap:butt;stroke-linejoin:miter;stroke-opacity:1"
       d="m 24.710193,56.772023 c -0.376224,-0.06578 -1.068276,-0.07647 -0.992187,1.346539 -1.253829,1.836433 0.02775,2.471883 1.086681,3.212798 1.039174,0.848413 1.551051,1.565003 2.102493,2.291483 0.630309,0.64133 1.272442,1.235535 1.842632,1.441032 0.610741,0.131329 1.144944,0.222029 1.46466,-0.425223 0.440972,-0.686056 0.881944,-0.618626 1.322916,-0.637834 0.274654,0.357121 0.506857,0.742145 -0.283482,1.181174 -0.433421,0.205908 -1.14485,0.379993 -1.511906,0.496094 -0.924146,0.07552 -1.705872,-0.162284 -2.315104,-0.779576 -0.459409,-0.409098 -0.894791,-0.962352 -1.322916,-1.55915 -0.525241,-0.667282 -1.057505,-1.159601 -1.582775,-1.511906 -0.65689,-0.399901 -0.783693,-0.594671 -1.063058,-0.850445 -0.50572,-0.573703 -0.306625,-0.628979 -0.07087,-0.708707"
       id="path943"
       inkscape:connector-curvature="0"
       sodipodi:nodetypes="cccccccccccccc" />
    <path
       style="fill:none;stroke:#000000;stroke-width:0.26458332px;stroke-linecap:butt;stroke-linejoin:miter;stroke-opacity:1"
       d="m 29.127791,56.748399 c -0.209521,0.363258 -0.401698,0.732297 -0.425225,1.157552"
       id="path945"
       inkscape:connector-curvature="0"
       sodipodi:nodetypes="cc" />
    <path
       style="fill:none;stroke:#000000;stroke-width:0.26458332px;stroke-linecap:butt;stroke-linejoin:miter;stroke-opacity:1"
       d="m 30.379836,61.945572 c -0.703227,-0.166666 -1.008349,0.144396 -1.41741,0.330729 -0.606223,-0.555438 -1.073967,-1.457072 -1.559152,-2.315104 0.522542,-0.296821 1.045912,-0.583721 1.630021,-0.14174 0.300694,0.659321 0.671399,1.341978 1.346541,2.126115 z"
       id="path947"
       inkscape:connector-curvature="0"
       sodipodi:nodetypes="ccccc" />
    <path
       style="fill:none;stroke:#000000;stroke-width:0.26458332px;stroke-linecap:butt;stroke-linejoin:miter;stroke-opacity:1"
       d="m 23.434524,61.118749 -0.921317,0.212611 -0.543341,0.519719 1.086681,1.133927 c 0.157303,0.384309 0.158949,0.941571 0.850447,0.73233 l 1.110305,1.228423 1.795388,-0.496093"
       id="path949"
       inkscape:connector-curvature="0"
       sodipodi:nodetypes="ccccccc" />
    <path
       style="fill:none;stroke:#000000;stroke-width:0.26458332px;stroke-linecap:butt;stroke-linejoin:miter;stroke-opacity:1"
       d="m 26.434709,64.000818 -1.086681,0.307105 -0.921317,-1.110306"
       id="path951"
       inkscape:connector-curvature="0" />
    <path
       style="fill:none;stroke:#000000;stroke-width:0.26458332px;stroke-linecap:butt;stroke-linejoin:miter;stroke-opacity:1"
       d="M 23.458147,62.370795 22.560454,61.378607"
       id="path953"
       inkscape:connector-curvature="0" />
    <path
       style="fill:none;stroke:#000000;stroke-width:0.26458332px;stroke-linecap:butt;stroke-linejoin:miter;stroke-opacity:1"
       d="m 23.080171,63.008631 c 0.153846,-0.422334 0.605344,-0.833336 1.157552,-0.354354 0.39552,0.516429 0.115431,0.955391 -0.259859,1.086681"
       id="path955"
       inkscape:connector-curvature="0"
       sodipodi:nodetypes="ccc" />
    <path
       style="fill:none;stroke:#000000;stroke-width:0.26458332px;stroke-linecap:butt;stroke-linejoin:miter;stroke-opacity:1"
       d="m 25.371651,64.307923 -0.259858,0.54334"
       id="path957"
       inkscape:connector-curvature="0" />
    <path
       style="fill:none;stroke:#000000;stroke-width:0.26458332px;stroke-linecap:butt;stroke-linejoin:miter;stroke-opacity:1"
       d="m 26.03311,64.804017 -0.779576,1.842635"
       id="path959"
       inkscape:connector-curvature="0" />
    <path
       style="fill:none;stroke:#000000;stroke-width:0.26458332px;stroke-linecap:butt;stroke-linejoin:miter;stroke-opacity:1"
       d="m 27.568638,65.276488 -0.283482,1.370164"
       id="path961"
       inkscape:connector-curvature="0" />
    <path
       style="fill:none;stroke:#000000;stroke-width:0.26458332px;stroke-linecap:butt;stroke-linejoin:miter;stroke-opacity:1"
       d="M 28.111979,65.4891 27.92299,66.623027"
       id="path963"
       inkscape:connector-curvature="0" />
    <path
       style="fill:none;stroke:#000000;stroke-width:0.26458332px;stroke-linecap:butt;stroke-linejoin:miter;stroke-opacity:1"
       d="m 26.741816,66.670274 c 0.125992,-0.558473 -1.000063,-0.817832 -0.968565,-0.02363"
       id="path965"
       inkscape:connector-curvature="0"
       sodipodi:nodetypes="cc" />
    <path
       style="fill:none;stroke:#000000;stroke-width:0.26458332px;stroke-linecap:butt;stroke-linejoin:miter;stroke-opacity:1"
       d="m 28.135603,66.221427 c 0.300431,-0.270754 0.807769,0.246513 0.28348,0.448847"
       id="path967"
       inkscape:connector-curvature="0"
       sodipodi:nodetypes="cc" />
    <path
       style="fill:none;stroke:#000000;stroke-width:0.26458332px;stroke-linecap:butt;stroke-linejoin:miter;stroke-opacity:1"
       d="m 30.47433,56.535788 c 4.741358,3.35874 13.982231,5.951606 13.465402,10.205357"
       id="path969"
       inkscape:connector-curvature="0"
       sodipodi:nodetypes="cc" />
    <path
       style="fill:none;stroke:#000000;stroke-width:0.26458332px;stroke-linecap:butt;stroke-linejoin:miter;stroke-opacity:1"
       d="M 47.624999,66.599405 C 47.333686,61.976744 42.842803,60.775954 39.35677,58.756398"
       id="path971"
       inkscape:connector-curvature="0"
       sodipodi:nodetypes="cc" />
    <path
       style="fill:none;stroke:#000000;stroke-width:0.26458332px;stroke-linecap:butt;stroke-linejoin:miter;stroke-opacity:1"
       d="m 49.089656,66.599405 c 0.22787,-1.534896 0.06599,-10.747141 -9.685639,-10.063617"
       id="path973"
       inkscape:connector-curvature="0"
       sodipodi:nodetypes="cc" />
    <path
       style="fill:none;stroke:#000000;stroke-width:0.26458332px;stroke-linecap:butt;stroke-linejoin:miter;stroke-opacity:1"
       d="M 50.837798,66.599405 C 50.603479,63.770812 51.189419,54.433687 39.35677,54.551413 41.236342,53.92679 52.21694,52.823267 51.924479,66.599405"
       id="path975"
       inkscape:connector-curvature="0"
       sodipodi:nodetypes="ccc" />
    <path
       style="fill:none;stroke:#000000;stroke-width:0.26458332px;stroke-linecap:butt;stroke-linejoin:miter;stroke-opacity:1"
       d="m 37.277902,55.071131 c -0.769927,0.246884 -1.527495,0.567917 -2.173364,1.55915"
       id="path977"
       inkscape:connector-curvature="0"
       sodipodi:nodetypes="cc" />
    <path
       style="fill:none;stroke:#000000;stroke-width:0.26458332px;stroke-linecap:butt;stroke-linejoin:miter;stroke-opacity:1"
       d="m 37.230655,58.709152 c 0.0609,-3.334055 -0.05398,-6.931783 0.33073,-9.780135 0.99338,-2.937638 -0.549414,-2.762008 -0.850448,-4.11049 -0.125293,-0.945379 0.566642,-1.229441 1.133927,-0.944941 0.485903,0.604946 0.949084,1.119003 1.6064,2.409598 0.422935,1.3212 0.019,2.022246 -0.236234,2.834822 l 0.09449,9.638392 c -0.327354,1.722022 -1.977772,0.794368 -2.078865,-0.04725 z"
       id="path979"
       inkscape:connector-curvature="0"
       sodipodi:nodetypes="cccccccc" />
    <path
       style="fill:none;stroke:#000000;stroke-width:0.26458332px;stroke-linecap:butt;stroke-linejoin:miter;stroke-opacity:1"
       d="m 37.050239,57.677317 -5.412209,-2.839738 6.080382,-13.597338 1.737252,0.534538 -1.135896,2.605878"
       id="path981"
       inkscape:connector-curvature="0"
       sodipodi:nodetypes="ccccc" />
    <path
       style="fill:none;stroke:#000000;stroke-width:0.26458332px;stroke-linecap:butt;stroke-linejoin:miter;stroke-opacity:1"
       d="m 37.417734,46.284954 -4.075861,9.254206 2.238383,-0.46772 0.734991,0.23386"
       id="path983"
       inkscape:connector-curvature="0" />
    <path
       style="fill:none;stroke:#000000;stroke-width:0.26458332px;stroke-linecap:butt;stroke-linejoin:miter;stroke-opacity:1"
       d="m 35.546847,55.104847 1.670434,-3.975635"
       id="path985"
       inkscape:connector-curvature="0" />
    <path
       style="fill:none;stroke:#000000;stroke-width:0.26458332px;stroke-linecap:butt;stroke-linejoin:miter;stroke-opacity:1"
       d="M 39.522482,41.808188 41.460184,41.474101 39.422255,46.0845"
       id="path987"
       inkscape:connector-curvature="0" />
    <path
       style="fill:none;stroke:#000000;stroke-width:0.26458332px;stroke-linecap:butt;stroke-linejoin:miter;stroke-opacity:1"
       d="m 39.78975,47.487665 2.204974,2.204974"
       id="path989"
       inkscape:connector-curvature="0" />
    <path
       style="fill:none;stroke:#000000;stroke-width:0.26458332px;stroke-linecap:butt;stroke-linejoin:miter;stroke-opacity:1"
       d="m 39.355437,50.327406 2.772923,-0.601358 c 1.247741,-0.06483 1.37396,1.31469 0.501129,1.5368 l -3.274052,0.7684"
       id="path991"
       inkscape:connector-curvature="0"
       sodipodi:nodetypes="cccc" />
    <path
       style="fill:none;stroke:#000000;stroke-width:0.26458332px;stroke-linecap:butt;stroke-linejoin:miter;stroke-opacity:1"
       d="m 42.629489,51.262848 0.434313,2.839739"
       id="path993"
       inkscape:connector-curvature="0" />
    <path
       style="fill:none;stroke:#000000;stroke-width:0.26458332px;stroke-linecap:butt;stroke-linejoin:miter;stroke-opacity:1"
       d="m 40.123837,44.915198 c 0.709679,0.956704 1.249804,1.981229 2.372016,2.77292 0.772656,0.865262 1.71888,1.333795 1.904296,3.541321 l 0.300678,3.140417"
       id="path995"
       inkscape:connector-curvature="0"
       sodipodi:nodetypes="cccc" />
    <path
       style="fill:none;stroke:#000000;stroke-width:0.26458332px;stroke-linecap:butt;stroke-linejoin:miter;stroke-opacity:1"
       d="m 32.540064,46.786082 c 0.05312,1.685514 -0.03561,3.342658 0.434313,5.111531"
       id="path997"
       inkscape:connector-curvature="0"
       sodipodi:nodetypes="cc" />
    <path
       style="fill:none;stroke:#000000;stroke-width:0.26458332px;stroke-linecap:butt;stroke-linejoin:miter;stroke-opacity:1"
       d="m 32.473246,52.966691 -1.436574,-0.7684"
       id="path999"
       inkscape:connector-curvature="0" />
    <path
       style="fill:none;stroke:#000000;stroke-width:0.26458332px;stroke-linecap:butt;stroke-linejoin:miter;stroke-opacity:1"
       d="M 38.085908,41.173423 43.59834,28.912433"
       id="path1001"
       inkscape:connector-curvature="0" />
    <path
       style="fill:none;stroke:#000000;stroke-width:0.26458332px;stroke-linecap:butt;stroke-linejoin:miter;stroke-opacity:1"
       d="M 44.634012,28.945842 39.221804,41.540919"
       id="path1003"
       inkscape:connector-curvature="0" />
    <path
       style="fill:none;stroke:#000000;stroke-width:0.26458332px;stroke-linecap:butt;stroke-linejoin:miter;stroke-opacity:1"
       d="M 40.925646,41.407283 46.404672,28.979251"
       id="path1005"
       inkscape:connector-curvature="0" />
    <path
       style="fill:none;stroke:#000000;stroke-width:0.26458332px;stroke-linecap:butt;stroke-linejoin:miter;stroke-opacity:1"
       d="m 43.331071,29.213111 c -1.863009,0.02899 -3.999505,2.724483 -5.545841,-0.334087 -1.320815,0.421123 -2.460406,0.298575 -3.608139,0.200454 -1.363793,0.184285 -2.578349,-0.128885 -3.674956,-0.835218"
       id="path1007"
       inkscape:connector-curvature="0"
       sodipodi:nodetypes="cccc" />
    <path
       style="fill:none;stroke:#000000;stroke-width:0.26458332px;stroke-linecap:butt;stroke-linejoin:miter;stroke-opacity:1"
       d="m 37.551367,27.141773 c 0.121348,0.76542 -0.511143,1.842774 2.037932,1.603618 l 8.986938,0.06682 c 2.035499,-0.07505 2.375979,-0.715111 2.572467,-1.403167"
       id="path1009"
       inkscape:connector-curvature="0"
       sodipodi:nodetypes="cccc" />
    <path
       style="fill:none;stroke:#000000;stroke-width:0.26458332px;stroke-linecap:butt;stroke-linejoin:miter;stroke-opacity:1"
       d="m 40.190655,27.141773 c 0.124969,0.212828 0.0046,0.523796 0.968851,0.400905 l 3.808593,-0.03341 c 0.527078,0.889263 1.425887,0.378897 1.837475,0.100226 l 2.605879,-0.03341 c 0.257682,-0.01763 0.517388,-0.02918 0.601358,-0.567946"
       id="path1011"
       inkscape:connector-curvature="0"
       sodipodi:nodetypes="cccccc" />
    <path
       style="fill:none;stroke:#000000;stroke-width:0.26458332px;stroke-linecap:butt;stroke-linejoin:miter;stroke-opacity:1"
       d="m 44.968099,27.509269 c 0.75194,-1.06351 0.656407,-2.12702 0.584649,-3.19053 -0.027,-0.636335 1.242149,-1.128451 1.503392,0.0167 0.03239,1.013905 0.0982,2.011102 -0.300678,3.240644"
       id="path1013"
       inkscape:connector-curvature="0"
       sodipodi:nodetypes="cccc" />
    <path
       style="fill:none;stroke:#000000;stroke-width:0.26458332px;stroke-linecap:butt;stroke-linejoin:miter;stroke-opacity:1"
       d="m 45.218662,26.924616 -2.238381,-0.183748 -0.918739,-0.73499 -1.152601,0.133635"
       id="path1015"
       inkscape:connector-curvature="0" />
    <path
       style="fill:none;stroke:#000000;stroke-width:0.26458332px;stroke-linecap:butt;stroke-linejoin:miter;stroke-opacity:1"
       d="m 42.078245,25.855539 c 0.02373,-0.302782 1.639168,-5.71043 5.078122,-5.044713 2.259339,0.533528 0.374766,3.807306 0.167044,5.946748 h -0.317383"
       id="path1017"
       inkscape:connector-curvature="0"
       sodipodi:nodetypes="cccc" />
    <path
       style="fill:none;stroke:#000000;stroke-width:0.26458332px;stroke-linecap:butt;stroke-linejoin:miter;stroke-opacity:1"
       d="m 42.996985,26.657347 c 0.403876,-1.500351 1.714024,-5.42161 4.259609,-5.829816"
       id="path1019"
       inkscape:connector-curvature="0"
       sodipodi:nodetypes="cc" />
    <path
       style="fill:none;stroke:#000000;stroke-width:0.26458332px;stroke-linecap:butt;stroke-linejoin:miter;stroke-opacity:1"
       d="m 47.624089,25.588269 c 0.305954,-0.280449 0.635058,-0.39885 0.985555,-0.367495"
       id="path1021"
       inkscape:connector-curvature="0"
       sodipodi:nodetypes="cc" />
    <path
       style="fill:none;stroke:#000000;stroke-width:0.26458332px;stroke-linecap:butt;stroke-linejoin:miter;stroke-opacity:1"
       d="M 48.542828,26.039287 C 48.414816,24.7353 49.380914,24.744246 49.845766,24.151696"
       id="path1023"
       inkscape:connector-curvature="0"
       sodipodi:nodetypes="cc" />
    <path
       style="fill:none;stroke:#000000;stroke-width:0.26458332px;stroke-linecap:butt;stroke-linejoin:miter;stroke-opacity:1"
       d="m 51.69995,26.590529 c -0.567371,-0.01325 -1.142486,-0.07295 -1.753955,-0.35079 -0.340278,0.198467 -0.655473,0.402159 0.05011,0.818513 0.650918,0.247807 1.263959,0.306227 1.870887,0.334087 1.362211,-0.995077 1.521112,-3.842845 0.517836,-4.142678"
       id="path1025"
       inkscape:connector-curvature="0"
       sodipodi:nodetypes="ccccc" />
    <path
       style="fill:none;stroke:#000000;stroke-width:0.26458332px;stroke-linecap:butt;stroke-linejoin:miter;stroke-opacity:1"
       d="m 49.945993,26.239739 c -0.592212,-0.339855 -0.278949,-0.81467 0.06682,-0.835218 0.640333,0.338434 1.280666,0.399382 1.920999,0.384201"
       id="path1027"
       inkscape:connector-curvature="0"
       sodipodi:nodetypes="ccc" />
    <path
       style="fill:none;stroke:#000000;stroke-width:0.26458332px;stroke-linecap:butt;stroke-linejoin:miter;stroke-opacity:1"
       d="m 50.046217,25.43793 c -0.282733,-0.08341 -0.517294,-0.980456 0.250566,-0.818513 0.696015,0.319755 1.291803,0.375446 1.937705,0.400905"
       id="path1029"
       inkscape:connector-curvature="0"
       sodipodi:nodetypes="ccc" />
    <path
       style="fill:none;stroke:#000000;stroke-width:0.26458332px;stroke-linecap:butt;stroke-linejoin:miter;stroke-opacity:1"
       d="m 50.664279,23.216252 c -0.05799,0.409734 -0.154941,0.780502 0,1.403165 -0.284755,-0.08175 -0.558439,-0.03066 -0.885331,-0.61806 -0.330199,-0.656838 -0.07029,-1.057956 0.935445,-1.135896 l 0.167044,-0.902034 c 0.440693,-0.354817 0.891071,-0.672279 1.637025,0.150339 l -0.317382,1.703843 c -0.662307,0.485938 -1.129256,0.14161 -1.620322,-0.100226"
       id="path1031"
       inkscape:connector-curvature="0"
       sodipodi:nodetypes="cccccccc" />
    <path
       style="fill:none;stroke:#000000;stroke-width:0.26458332px;stroke-linecap:butt;stroke-linejoin:miter;stroke-opacity:1"
       d="m 32.742187,36.455802 0.09449,2.267857"
       id="path1033"
       inkscape:connector-curvature="0" />
    <path
       style="fill:none;stroke:#000000;stroke-width:0.26458332px;stroke-linecap:butt;stroke-linejoin:miter;stroke-opacity:1"
       d="m 37.726749,42.36168 c 0.212611,-0.393724 0.818948,-0.03937 0.755952,0.283483 -0.249738,0.392615 -0.813298,0.127015 -0.755952,-0.283483 z"
       id="path1035"
       inkscape:connector-curvature="0"
       sodipodi:nodetypes="ccc" />
  </g>
</svg>
