<?xml version="1.0" encoding="UTF-8" standalone="no"?>
<!-- Created with Inkscape (http://www.inkscape.org/) -->

<svg
   xmlns:dc="http://purl.org/dc/elements/1.1/"
   xmlns:cc="http://creativecommons.org/ns#"
   xmlns:rdf="http://www.w3.org/1999/02/22-rdf-syntax-ns#"
   xmlns:svg="http://www.w3.org/2000/svg"
   xmlns="http://www.w3.org/2000/svg"
   xmlns:sodipodi="http://sodipodi.sourceforge.net/DTD/sodipodi-0.dtd"
   xmlns:inkscape="http://www.inkscape.org/namespaces/inkscape"
   width="256"
   height="256"
   viewBox="0 0 67.733332 67.733335"
   version="1.1"
   id="svg8747"
   inkscape:version="0.92.2 (5c3e80d, 2017-08-06)"
   sodipodi:docname="fig24.svg">
  <defs
     id="defs8741" />
  <sodipodi:namedview
     id="base"
     pagecolor="#ffffff"
     bordercolor="#666666"
     borderopacity="1.0"
     inkscape:pageopacity="0.0"
     inkscape:pageshadow="2"
     inkscape:zoom="1.979899"
     inkscape:cx="184.59757"
     inkscape:cy="126.28627"
     inkscape:document-units="px"
     inkscape:current-layer="layer2"
     showgrid="false"
     units="px"
     showguides="true"
     inkscape:guide-bbox="true"
     inkscape:window-width="1366"
     inkscape:window-height="745"
     inkscape:window-x="-8"
     inkscape:window-y="-8"
     inkscape:window-maximized="1"
     inkscape:snap-global="false" />
  <metadata
     id="metadata8744">
    <rdf:RDF>
      <cc:Work
         rdf:about="">
        <dc:format>image/svg+xml</dc:format>
        <dc:type
           rdf:resource="http://purl.org/dc/dcmitype/StillImage" />
        <dc:title />
      </cc:Work>
    </rdf:RDF>
  </metadata>
  <g
     inkscape:groupmode="layer"
     id="layer2"
     inkscape:label="Capa 2">
    <path
       style="fill:none;stroke:#000000;stroke-width:0.26458332px;stroke-linecap:butt;stroke-linejoin:miter;stroke-opacity:1"
       d="m 32.222469,12.407069 c 0.729704,-0.591025 0.141739,-1.072245 0.188989,-1.606399 0.812703,-0.477294 0.05438,-0.769761 -0.09449,-1.1339285 C 33.031591,9.1488879 32.737801,8.7371831 32.269718,8.3438249 33.239576,7.2609815 32.226167,7.335044 31.797246,7.0681551 32.956153,5.7792615 32.124913,5.5439755 31.183035,5.3672624 31.543182,3.9293035 30.708804,4.6047353 30.33259,4.4695687 30.072467,2.8681156 29.479742,3.5283479 28.915177,3.9970986 28.816314,2.264357 28.230835,2.9038669 27.63951,3.5718753 27.248063,2.3699938 26.78675,2.2859666 26.269345,3.0994052 25.666445,1.8457301 25.33288,2.3158038 25.040922,3.0521582 24.458665,2.6955627 23.954592,1.5050101 23.198288,3.0049112 22.828583,2.5574225 22.487871,1.9214862 21.875372,3.0521582 21.09312,1.8786847 20.903724,2.7061002 20.599702,3.1466522 19.537542,2.2849711 19.038575,2.9080723 18.662574,3.8553575 17.968338,3.4848468 17.316291,3.3132284 17.056175,4.989286 15.923167,4.3827717 15.879137,5.0371747 15.922247,5.7924853 15.297088,5.7201201 14.283223,5.2421481 15.024553,6.5956849 14.043516,6.748704 13.262088,7.0686168 14.575706,7.9658483 c -2.019442,0.2239312 -1.05396,0.9212365 -0.448846,1.1811758 -1.441543,0.2252933 -1.262384,0.8152444 -0.188988,1.6063989 -1.772329,0.333846 -0.81705,0.823556 -0.519718,1.275669 -1.036554,0.407268 -1.150237,0.789594 0.141742,1.133929 -1.743019,1.280983 -0.09537,0.866634 0.188988,1.133928 -0.429503,0.52288 -1.290444,1.113881 0.566964,1.27567 -0.985597,0.775929 -0.482198,0.864624 0.141741,0.897694 -0.61938,1.424586 -0.06616,1.496168 0.94494,1.039434 0.03537,1.379002 0.913436,1.176467 1.559152,0.968564 l 0.188989,-1.511904 c -1.939315,-0.126023 -2.293716,-1.189872 -2.196987,-2.126117 0.409918,-2.61533 2.192454,-0.814921 2.267857,-0.188988"
       id="path819"
       inkscape:connector-curvature="0"
       sodipodi:nodetypes="ccccccccccccccccccccccccccccccc" />
    <path
       style="fill:none;stroke:#000000;stroke-width:0.26458332px;stroke-linecap:butt;stroke-linejoin:miter;stroke-opacity:1"
       d="m 16.087611,14.415067 c 0.164474,0.292108 0.696535,0.902701 0.543341,1.27567 -0.445261,0.304368 -0.688223,-0.323875 -0.543341,-0.543341"
       id="path821"
       inkscape:connector-curvature="0"
       sodipodi:nodetypes="ccc" />
    <path
       style="fill:none;stroke:#000000;stroke-width:0.26458332px;stroke-linecap:butt;stroke-linejoin:miter;stroke-opacity:1"
       d="m 16.961681,14.013467 5.386161,1.181176 5.882255,0.236235 c 0.496094,-0.565847 0.992187,-0.630355 1.488281,0 l 2.669455,-0.118118 0.259861,0.307106 -0.661459,1.74814 -1.842635,0.04725 -0.566965,-1.984375"
       id="path823"
       inkscape:connector-curvature="0"
       sodipodi:nodetypes="ccccccccc" />
    <path
       style="fill:none;stroke:#000000;stroke-width:0.26458332px;stroke-linecap:butt;stroke-linejoin:miter;stroke-opacity:1"
       d="m 28.253719,15.501749 -0.496094,1.488281 c -0.880853,0.07353 -1.023103,1.466699 0.850448,1.086681"
       id="path825"
       inkscape:connector-curvature="0"
       sodipodi:nodetypes="ccc" />
    <path
       style="fill:none;stroke:#000000;stroke-width:0.26458332px;stroke-linecap:butt;stroke-linejoin:miter;stroke-opacity:1"
       d="m 30.119978,17.415253 c -0.134222,0.824252 -0.573946,0.793103 -1.015812,0.755952"
       id="path827"
       inkscape:connector-curvature="0"
       sodipodi:nodetypes="cc" />
    <path
       style="fill:none;stroke:#000000;stroke-width:0.26458332px;stroke-linecap:butt;stroke-linejoin:miter;stroke-opacity:1"
       d="m 27.096167,17.4625 -3.945126,-0.02362 -0.87407,-2.173362"
       id="path829"
       inkscape:connector-curvature="0" />
    <path
       style="fill:none;stroke:#000000;stroke-width:0.26458332px;stroke-linecap:butt;stroke-linejoin:miter;stroke-opacity:1"
       d="m 20.765066,16.068713 c -0.496851,0.625392 -0.901632,1.327509 -0.283482,2.882068"
       id="path831"
       inkscape:connector-curvature="0"
       sodipodi:nodetypes="cc" />
    <path
       style="fill:none;stroke:#000000;stroke-width:0.26458332px;stroke-linecap:butt;stroke-linejoin:miter;stroke-opacity:1"
       d="m 31.75,15.24189 0.377975,-2.456845 c -0.117818,-1.859241 0.03456,-3.7034716 -1.157552,-5.6223959"
       id="path833"
       inkscape:connector-curvature="0"
       sodipodi:nodetypes="ccc" />
    <path
       style="fill:none;stroke:#000000;stroke-width:0.26458332px;stroke-linecap:butt;stroke-linejoin:miter;stroke-opacity:1"
       d="m 29.600263,15.383631 c -0.147221,-0.524851 -0.310104,-1.02186 0.09449,-2.527716 l -0.04725,-0.779575 c 0.826823,-0.279381 1.653646,-0.447997 2.480469,-0.165365"
       id="path835"
       inkscape:connector-curvature="0"
       sodipodi:nodetypes="cccc" />
    <path
       style="fill:none;stroke:#000000;stroke-width:0.26458332px;stroke-linecap:butt;stroke-linejoin:miter;stroke-opacity:1"
       d="m 26.883555,14.107962 c -1.06674,0.696952 -2.009008,0.46036 -2.952938,0.236235"
       id="path837"
       inkscape:connector-curvature="0"
       sodipodi:nodetypes="cc" />
    <path
       style="fill:none;stroke:#000000;stroke-width:0.26458332px;stroke-linecap:butt;stroke-linejoin:miter;stroke-opacity:1"
       d="m 29.553013,14.415067 c 0.891143,0.644017 1.526472,0.09423 2.244233,-0.07087"
       id="path839"
       inkscape:connector-curvature="0"
       sodipodi:nodetypes="cc" />
    <path
       style="fill:none;stroke:#000000;stroke-width:0.26458332px;stroke-linecap:butt;stroke-linejoin:miter;stroke-opacity:1"
       d="m 29.742,12.926786 c 0.803199,-0.188986 1.574901,-0.220484 2.315104,-0.09449"
       id="path841"
       inkscape:connector-curvature="0"
       sodipodi:nodetypes="cc" />
    <path
       style="fill:none;stroke:#000000;stroke-width:0.26458332px;stroke-linecap:butt;stroke-linejoin:miter;stroke-opacity:1"
       d="m 26.741816,12.359822 c 0.273898,-0.542486 -0.290874,-0.606579 -0.472472,-0.921317 -1.220548,-0.04174 -2.441096,0.314034 -3.661644,0.637834 0.07942,0.275608 0.02648,0.551215 0.519718,0.826823 1.204799,-0.387933 2.409599,-0.462148 3.614398,-0.54334 z"
       id="path843"
       inkscape:connector-curvature="0"
       sodipodi:nodetypes="ccccc" />
    <path
       style="fill:none;stroke:#000000;stroke-width:0.26458332px;stroke-linecap:butt;stroke-linejoin:miter;stroke-opacity:1"
       d="m 30.285343,10.635305 c -1.535529,0.351889 -3.071057,0.0026 -4.606586,0"
       id="path845"
       inkscape:connector-curvature="0"
       sodipodi:nodetypes="cc" />
    <path
       style="fill:none;stroke:#000000;stroke-width:0.26458332px;stroke-linecap:butt;stroke-linejoin:miter;stroke-opacity:1"
       d="M 29.954614,9.5722473 C 28.875435,9.7593786 27.74136,9.6720301 26.600073,9.5486227"
       id="path847"
       inkscape:connector-curvature="0"
       sodipodi:nodetypes="cc" />
    <path
       style="fill:none;stroke:#000000;stroke-width:0.26458332px;stroke-linecap:butt;stroke-linejoin:miter;stroke-opacity:1"
       d="m 30.781437,5.8633558 c 1.281536,1.5466066 -1.052319,2.1748645 -1.677271,0.921317 -0.551576,0.6331639 -1.046592,1.5868323 -1.96075,0.1653645 -0.430016,0.9975069 -0.932339,0.9465696 -1.488283,0.1181177 -0.777729,1.2631958 -1.172366,0.4832327 -1.582775,-0.2126117 -0.496094,1.30621 -0.992187,0.876132 -1.488281,0.2598586 -0.06764,0.8462577 -0.381434,1.1454924 -1.015811,0.7323288 0.345112,0.9667422 -0.138267,0.8288296 -0.519717,0.826823 0.155946,0.4586691 0.181546,0.8772316 -0.47247,1.0866815 0.04556,0.4459248 0.202223,0.9807268 -0.354353,0.9449408 0.287503,0.548175 0.07435,0.7745 -0.519718,0.755952 0.478299,0.936673 0.130118,1.184614 -0.519717,1.181176 0.162927,0.879507 0.18071,1.613869 -0.590587,1.559151"
       id="path849"
       inkscape:connector-curvature="0"
       sodipodi:nodetypes="ccccccccccccc" />
    <path
       style="fill:none;stroke:#000000;stroke-width:0.26458332px;stroke-linecap:butt;stroke-linejoin:miter;stroke-opacity:1"
       d="m 31.41927,17.4625 c -0.338578,0.978217 -0.371436,1.912897 -1.228423,2.787574 -1.012043,4.020883 -5.522082,2.480824 -6.756324,1.228423"
       id="path851"
       inkscape:connector-curvature="0"
       sodipodi:nodetypes="ccc" />
    <path
       style="fill:none;stroke:#000000;stroke-width:0.26458332px;stroke-linecap:butt;stroke-linejoin:miter;stroke-opacity:1"
       d="m 24.804687,22.612426 c -1.385913,0.279694 -2.771825,-0.522767 -4.157738,-1.74814"
       id="path853"
       inkscape:connector-curvature="0"
       sodipodi:nodetypes="cc" />
    <path
       style="fill:none;stroke:#000000;stroke-width:0.26458332px;stroke-linecap:butt;stroke-linejoin:miter;stroke-opacity:1"
       d="m 29.742,19.588616 c -1.236297,0.865726 -2.472593,0.05434 -3.70889,0.02363"
       id="path855"
       inkscape:connector-curvature="0"
       sodipodi:nodetypes="cc" />
    <path
       style="fill:none;stroke:#000000;stroke-width:0.26458332px;stroke-linecap:butt;stroke-linejoin:miter;stroke-opacity:1"
       d="m 17.005023,18.522332 c -0.319705,2.562502 -2.88772,3.271003 -3.474503,4.510173 -0.501618,1.209047 2.012058,7.154224 7.015824,10.791008 1.37456,1.076935 2.711064,1.297603 3.908817,-1.603619 1.804211,-3.942409 1.643896,-5.330935 1.737252,-7.049233"
       id="path857"
       inkscape:connector-curvature="0"
       sodipodi:nodetypes="ccccc" />
    <path
       style="fill:none;stroke:#000000;stroke-width:0.26458332px;stroke-linecap:butt;stroke-linejoin:miter;stroke-opacity:1"
       d="m 23.72017,27.943582 c 1.023753,-1.362245 3.075994,-2.838767 2.672695,-4.042451"
       id="path859"
       inkscape:connector-curvature="0"
       sodipodi:nodetypes="cc" />
    <path
       style="fill:none;stroke:#000000;stroke-width:0.26458332px;stroke-linecap:butt;stroke-linejoin:miter;stroke-opacity:1"
       d="m 24.455161,25.237478 c 1.604823,-1.002546 2.359674,-1.803783 2.27179,-2.405425"
       id="path861"
       inkscape:connector-curvature="0"
       sodipodi:nodetypes="cc" />
    <path
       style="fill:none;stroke:#000000;stroke-width:0.26458332px;stroke-linecap:butt;stroke-linejoin:miter;stroke-opacity:1"
       d="m 19.607514,23.557366 c -0.213492,1.298999 -0.760762,2.48674 -1.34654,3.661644"
       id="path863"
       inkscape:connector-curvature="0"
       sodipodi:nodetypes="cc" />
    <path
       style="fill:none;stroke:#000000;stroke-width:0.26458332px;stroke-linecap:butt;stroke-linejoin:miter;stroke-opacity:1"
       d="m 15.851376,22.234449 c 0.146122,0.873879 -0.306891,1.414905 -0.708705,1.984375"
       id="path865"
       inkscape:connector-curvature="0"
       sodipodi:nodetypes="cc" />
    <path
       style="fill:none;stroke:#000000;stroke-width:0.26458332px;stroke-linecap:butt;stroke-linejoin:miter;stroke-opacity:1"
       d="m 15.869128,20.794123 c -2.079221,1.105365 -4.662885,2.29693 -5.8799296,3.57473"
       id="path867"
       inkscape:connector-curvature="0"
       sodipodi:nodetypes="cc" />
    <path
       style="fill:none;stroke:#000000;stroke-width:0.26458332px;stroke-linecap:butt;stroke-linejoin:miter;stroke-opacity:1"
       d="M 12.461441,26.473599 C 11.04182,24.044908 8.8684899,23.544372 6.2565147,25.483499"
       id="path869"
       inkscape:connector-curvature="0"
       sodipodi:nodetypes="cc" />
    <path
       style="fill:none;stroke:#000000;stroke-width:0.26458332px;stroke-linecap:butt;stroke-linejoin:miter;stroke-opacity:1"
       d="m 6.1806076,25.509496 0,-2.577217 C 4.7102236,20.985338 3.3301351,21.115191 2.0379301,23.266366 L 1.937704,31.259269"
       id="path871"
       inkscape:connector-curvature="0"
       sodipodi:nodetypes="cccc" />
    <path
       style="fill:none;stroke:#000000;stroke-width:0.26458332px;stroke-linecap:butt;stroke-linejoin:miter;stroke-opacity:1"
       d="m 6.2474252,22.999096 c -0.8692183,1.134711 -2.387082,0.972131 -4.1426777,0.334087"
       id="path873"
       inkscape:connector-curvature="0"
       sodipodi:nodetypes="cc" />
    <path
       style="fill:none;stroke:#000000;stroke-width:0.26458332px;stroke-linecap:butt;stroke-linejoin:miter;stroke-opacity:1"
       d="m 12.294398,44.280431 c -0.491777,-1.260912 -1.087016,-2.02176 -1.069078,-5.746293 0.0017,-3.708475 -0.788142,-4.745612 -1.4699823,-6.147199 -0.5763674,-7.532534 -4.3348478,-7.459925 -5.6794775,-6.280835 -4.76727569,4.060857 -0.5743301,16.366878 1.2695303,20.713387 4.572263,8.975967 7.6284735,5.728761 10.8244155,3.608139 3.177765,-2.620171 7.174702,-6.452718 8.285355,-6.013564"
       id="path875"
       inkscape:connector-curvature="0"
       sodipodi:nodetypes="ccccccc" />
    <path
       style="fill:none;stroke:#000000;stroke-width:0.26458332px;stroke-linecap:butt;stroke-linejoin:miter;stroke-opacity:1"
       d="m 23.954031,44.013162 c 2.082475,0.300059 4.164951,-0.144729 6.247426,-0.534538 0.972692,-0.345223 1.885607,-0.690446 2.505652,-1.035669 1.169142,-1.038348 0.719905,-1.113929 0.129926,-0.894276"
       id="path877"
       inkscape:connector-curvature="0"
       sodipodi:nodetypes="cccc" />
    <path
       style="fill:none;stroke:#000000;stroke-width:0.26458332px;stroke-linecap:butt;stroke-linejoin:miter;stroke-opacity:1"
       d="m 29.466466,42.309319 c 1.537415,-0.305657 3.070669,-0.65293 4.57699,-1.269529 1.062246,-0.487237 0.322434,-1.061649 -0.133636,-0.968854"
       id="path879"
       inkscape:connector-curvature="0"
       sodipodi:nodetypes="ccc" />
    <path
       style="fill:none;stroke:#000000;stroke-width:0.26458332px;stroke-linecap:butt;stroke-linejoin:miter;stroke-opacity:1"
       d="m 29.09897,41.03979 c 1.759524,-0.172738 3.519048,-0.551178 5.278572,-1.169305 1.312063,-0.655689 0.125253,-1.2942 -0.902033,-1.135896"
       id="path881"
       inkscape:connector-curvature="0"
       sodipodi:nodetypes="ccc" />
    <path
       style="fill:none;stroke:#000000;stroke-width:0.26458332px;stroke-linecap:butt;stroke-linejoin:miter;stroke-opacity:1"
       d="m 28.497612,39.636623 c 1.630922,0.06128 3.021776,-0.220395 4.34313,-0.601356 0.839013,-0.309416 1.262699,-1.158674 -0.400905,-0.968851 -1.926567,0.380935 -3.853134,0.339365 -5.779701,0.434313"
       id="path883"
       inkscape:connector-curvature="0"
       sodipodi:nodetypes="cccc" />
    <path
       style="fill:none;stroke:#000000;stroke-width:0.26458332px;stroke-linecap:butt;stroke-linejoin:miter;stroke-opacity:1"
       d="m 29.767143,38.266867 1.369756,-3.374276 11.993721,-0.200454 -1.163572,3.111409"
       id="path885"
       inkscape:connector-curvature="0"
       sodipodi:nodetypes="cccc" />
    <path
       style="fill:none;stroke:#000000;stroke-width:0.26458332px;stroke-linecap:butt;stroke-linejoin:miter;stroke-opacity:1"
       d="m 40.524742,41.808188 -0.367496,1.570209 -12.428032,1.302938 0.267269,-0.734991"
       id="path887"
       inkscape:connector-curvature="0" />
    <path
       style="fill:none;stroke:#000000;stroke-width:0.26458332px;stroke-linecap:butt;stroke-linejoin:miter;stroke-opacity:1"
       d="m 29.065561,22.464557 c 1.050021,0.582479 2.030733,1.379818 2.204974,4.677216 0.395967,2.540512 0.0357,5.768506 1.302938,7.516955"
       id="path889"
       inkscape:connector-curvature="0"
       sodipodi:nodetypes="ccc" />
    <path
       style="fill:none;stroke:#000000;stroke-width:0.26458332px;stroke-linecap:butt;stroke-linejoin:miter;stroke-opacity:1"
       d="m 29.232603,30.315598 c 0.87709,1.022753 2.150446,2.781429 2.472243,2.772923"
       id="path891"
       inkscape:connector-curvature="0"
       sodipodi:nodetypes="cc" />
    <path
       style="fill:none;stroke:#000000;stroke-width:0.26458332px;stroke-linecap:butt;stroke-linejoin:miter;stroke-opacity:1"
       d="m 28.56443,31.484903 c 0.87946,1.200901 1.806794,2.689043 2.605878,3.407688"
       id="path893"
       inkscape:connector-curvature="0"
       sodipodi:nodetypes="cc" />
    <path
       style="fill:none;stroke:#000000;stroke-width:0.26458332px;stroke-linecap:butt;stroke-linejoin:miter;stroke-opacity:1"
       d="m 30.33509,23.333183 c 7.334367,1.104343 5.494398,6.974575 6.514695,11.358954"
       id="path895"
       inkscape:connector-curvature="0"
       sodipodi:nodetypes="cc" />
    <path
       style="fill:none;stroke:#000000;stroke-width:0.26458332px;stroke-linecap:butt;stroke-linejoin:miter;stroke-opacity:1"
       d="m 23.185631,30.349007 c -0.193944,0.70221 -0.685789,1.205819 -1.135896,1.737254 -0.08918,-0.671856 -0.691063,-1.172811 -1.302938,-1.670436"
       id="path897"
       inkscape:connector-curvature="0"
       sodipodi:nodetypes="ccc" />
    <path
       style="fill:none;stroke:#000000;stroke-width:0.26458332px;stroke-linecap:butt;stroke-linejoin:miter;stroke-opacity:1"
       d="m 4.6772165,45.349509 c 0.4059253,2.523984 -0.9171147,5.583124 2.9065561,7.049235"
       id="path899"
       inkscape:connector-curvature="0"
       sodipodi:nodetypes="cc" />
    <path
       style="fill:none;stroke:#000000;stroke-width:0.26458332px;stroke-linecap:butt;stroke-linejoin:miter;stroke-opacity:1"
       d="m 5.4790252,50.928761 c -0.2209568,0.968135 -0.8701289,1.634 0.334087,3.608139"
       id="path901"
       inkscape:connector-curvature="0"
       sodipodi:nodetypes="cc" />
    <path
       style="fill:none;stroke:#000000;stroke-width:0.26458332px;stroke-linecap:butt;stroke-linejoin:miter;stroke-opacity:1"
       d="m 12.194172,54.403264 c -3.0531818,-0.91008 -2.5379144,1.341861 -6.4478772,0.267269 -0.4252002,1.225999 -0.936298,2.400459 -0.5011303,4.142679"
       id="path903"
       inkscape:connector-curvature="0"
       sodipodi:nodetypes="ccc" />
    <path
       style="fill:none;stroke:#000000;stroke-width:0.26458332px;stroke-linecap:butt;stroke-linejoin:miter;stroke-opacity:1"
       d="M 2.3386083,36.879915 2.7395127,60.984777"
       id="path905"
       inkscape:connector-curvature="0"
       sodipodi:nodetypes="cc" />
    <path
       style="fill:none;stroke:#000000;stroke-width:0.26458332px;stroke-linecap:butt;stroke-linejoin:miter;stroke-opacity:1"
       d="m 30.052303,37.398243 -1.254011,-0.06682 c -1.082991,0.07702 -1.675783,-0.466887 -4.543583,1.870887 -3.527935,2.178314 -7.391513,3.3497 -11.091685,5.011303 -1.51501,0.257276 -2.438059,1.06423 -3.0736,2.138156"
       id="path907"
       inkscape:connector-curvature="0"
       sodipodi:nodetypes="ccccc" />
    <path
       style="fill:none;stroke:#000000;stroke-width:0.26458332px;stroke-linecap:butt;stroke-linejoin:miter;stroke-opacity:1"
       d="m 11.953497,30.64442 c 0.0435,2.198756 0.106656,4.405935 -0.708705,6.236607"
       id="path909"
       inkscape:connector-curvature="0"
       sodipodi:nodetypes="cc" />
    <path
       style="fill:none;stroke:#000000;stroke-width:0.26458332px;stroke-linecap:butt;stroke-linejoin:miter;stroke-opacity:1"
       d="m 13.276413,33.668229 c 0.125495,4.289422 -2.948833,5.554067 -0.708705,10.63058"
       id="path911"
       inkscape:connector-curvature="0"
       sodipodi:nodetypes="cc" />
    <path
       style="fill:none;stroke:#000000;stroke-width:0.26458332px;stroke-linecap:butt;stroke-linejoin:miter;stroke-opacity:1"
       d="m 25.323787,47.019945 c -2.73685,0.523731 -2.815555,1.872995 -6.013564,2.138156"
       id="path913"
       inkscape:connector-curvature="0"
       sodipodi:nodetypes="cc" />
    <path
       style="fill:none;stroke:#000000;stroke-width:0.26458332px;stroke-linecap:butt;stroke-linejoin:miter;stroke-opacity:1"
       d="m 27.875743,49.495982 c 3.096894,0.0088 4.705625,-1.794471 7.701265,-1.41741 0.379162,0.907379 0.769334,1.769714 0.519717,2.551337"
       id="path915"
       inkscape:connector-curvature="0"
       sodipodi:nodetypes="ccc" />
    <path
       style="fill:none;stroke:#000000;stroke-width:0.26458332px;stroke-linecap:butt;stroke-linejoin:miter;stroke-opacity:1"
       d="m 29.434895,46.944642 c 1.402031,-0.491221 2.657196,-1.041189 4.346726,-1.41741 1.221086,0.476503 1.406281,1.351426 0.992188,2.456844"
       id="path917"
       inkscape:connector-curvature="0"
       sodipodi:nodetypes="ccc" />
    <path
       style="fill:none;stroke:#000000;stroke-width:0.26458332px;stroke-linecap:butt;stroke-linejoin:miter;stroke-opacity:1"
       d="m 34.017857,44.015326 c 0.253874,0.546005 0.385021,1.058539 -0.04725,1.417413"
       id="path919"
       inkscape:connector-curvature="0"
       sodipodi:nodetypes="cc" />
    <path
       style="fill:none;stroke:#000000;stroke-width:0.26458332px;stroke-linecap:butt;stroke-linejoin:miter;stroke-opacity:1"
       d="m 35.914343,48.389701 c 1.528348,-1.616294 3.105186,-3.159853 4.81085,-4.510172"
       id="path921"
       inkscape:connector-curvature="0"
       sodipodi:nodetypes="cc" />
    <path
       style="fill:none;stroke:#000000;stroke-width:0.26458332px;stroke-linecap:butt;stroke-linejoin:miter;stroke-opacity:1"
       d="m 39.78975,43.912935 c 1.856179,0.0099 3.363581,-0.53829 4.276313,-2.037929 0.335249,-1.102293 0.443269,-2.242457 0.400904,-3.407685 -0.06721,-1.514893 -1.434345,-1.796545 -1.971114,-2.037932"
       id="path923"
       inkscape:connector-curvature="0"
       sodipodi:nodetypes="cccc" />
    <path
       style="fill:none;stroke:#000000;stroke-width:0.26458332px;stroke-linecap:butt;stroke-linejoin:miter;stroke-opacity:1"
       d="m 43.301896,37.636979 c -1.120409,0.396093 -2.330632,0.253299 -3.543525,0.09449 -0.810585,-0.06219 -0.89841,0.555161 -0.07087,0.968565"
       id="path925"
       inkscape:connector-curvature="0"
       sodipodi:nodetypes="ccc" />
    <path
       style="fill:none;stroke:#000000;stroke-width:0.26458332px;stroke-linecap:butt;stroke-linejoin:miter;stroke-opacity:1"
       d="m 43.372767,38.889024 c -1.337315,0.117716 -2.689054,0.189273 -4.181361,-0.188987 -1.28636,-0.209378 -0.651179,1.267832 0.437031,1.358352"
       id="path927"
       inkscape:connector-curvature="0"
       sodipodi:nodetypes="ccc" />
    <path
       style="fill:none;stroke:#000000;stroke-width:0.26458332px;stroke-linecap:butt;stroke-linejoin:miter;stroke-opacity:1"
       d="m 43.372767,40.141072 c -1.165427,0.172856 -2.330854,0.125776 -3.496281,-0.04725 -0.945901,-0.0301 -0.539144,0.923806 0.472472,1.051246"
       id="path929"
       inkscape:connector-curvature="0"
       sodipodi:nodetypes="ccc" />
    <path
       style="fill:none;stroke:#000000;stroke-width:0.26458332px;stroke-linecap:butt;stroke-linejoin:miter;stroke-opacity:1"
       d="m 43.32552,41.08601 -2.504093,0.0945 c -0.950491,-0.03641 -0.689625,0.654589 0.07087,0.826823 0.811074,0.166686 1.622148,0.232981 2.433222,0.02363"
       id="path931"
       inkscape:connector-curvature="0"
       sodipodi:nodetypes="cccc" />
    <path
       style="fill:none;stroke:#000000;stroke-width:0.26458332px;stroke-linecap:butt;stroke-linejoin:miter;stroke-opacity:1"
       d="M 1.2284226,62.725148 C 17.068279,47.967863 49.250523,48.284639 66.712798,56.016072"
       id="path933"
       inkscape:connector-curvature="0"
       sodipodi:nodetypes="cc" />
    <path
       style="fill:none;stroke:#000000;stroke-width:0.26458332px;stroke-linecap:butt;stroke-linejoin:miter;stroke-opacity:1"
       d="m 21.26116,64.000818 c 0.31906,0.397397 0.434431,0.842721 0,1.41741 -1.385913,0.557247 -2.988982,0.449666 -4.040808,-0.125036 -0.366282,-0.8998 -0.264526,-1.13384 -0.11693,-1.434116 1.385913,0.858896 2.771825,0.792979 4.157738,0.141742 z"
       id="path935"
       inkscape:connector-curvature="0"
       sodipodi:nodetypes="ccccc" />
    <path
       style="fill:none;stroke:#000000;stroke-width:0.26458332px;stroke-linecap:butt;stroke-linejoin:miter;stroke-opacity:1"
       d="m 17.121954,63.857925 c 0.896466,-1.190964 3.39655,-0.756752 4.19279,0.06682"
       id="path937"
       inkscape:connector-curvature="0"
       sodipodi:nodetypes="cc" />
    <path
       style="fill:none;stroke:#000000;stroke-width:0.26458332px;stroke-linecap:butt;stroke-linejoin:miter;stroke-opacity:1"
       d="m 21.648831,63.273272 -3.558025,-0.384198 c -1.23909,-1.901052 -1.394037,-3.49365 0.434313,-4.994602 l 3.491208,-0.05011 c 0.526804,0.140709 1.090427,0.249508 0.968852,0.952146 l 0.935443,0.01669 c 1.232963,0.647563 0.805715,2.705419 0.03341,2.956668 l -0.718287,0.03341 c -0.136379,0.967937 -0.437157,1.735737 -1.586914,1.469997 z"
       id="path939"
       inkscape:connector-curvature="0"
       sodipodi:nodetypes="ccccccccc" />
    <path
       style="fill:none;stroke:#000000;stroke-width:0.26458332px;stroke-linecap:butt;stroke-linejoin:miter;stroke-opacity:1"
       d="m 21.665536,63.273272 c -0.980724,-1.18245 -1.64738,-3.978843 0.317382,-5.479026"
       id="path941"
       inkscape:connector-curvature="0"
       sodipodi:nodetypes="cc" />
    <path
       style="fill:none;stroke:#000000;stroke-width:0.26458332px;stroke-linecap:butt;stroke-linejoin:miter;stroke-opacity:1"
       d="m 23.937327,58.829916 c -0.488403,0.29301 -1.078828,2.505366 0.05011,2.973374"
       id="path943"
       inkscape:connector-curvature="0"
       sodipodi:nodetypes="cc" />
    <path
       style="fill:none;stroke:#000000;stroke-width:0.26458332px;stroke-linecap:butt;stroke-linejoin:miter;stroke-opacity:1"
       d="m 22.985179,58.796507 c -0.728011,0.233642 -1.437689,2.490572 0.233861,3.006783"
       id="path945"
       inkscape:connector-curvature="0"
       sodipodi:nodetypes="cc" />
    <path
       style="fill:none;stroke:#000000;stroke-width:0.26458332px;stroke-linecap:butt;stroke-linejoin:miter;stroke-opacity:1"
       d="m 23.363653,64.520534 c 0.07517,-0.89991 0.854894,-1.280681 2.126116,-1.299292 -0.152335,1.307394 -1.107175,1.353708 -2.126116,1.299292 z"
       id="path947"
       inkscape:connector-curvature="0"
       sodipodi:nodetypes="ccc" />
    <path
       style="fill:none;stroke:#000000;stroke-width:0.26458332px;stroke-linecap:butt;stroke-linejoin:miter;stroke-opacity:1"
       d="m 25.088169,64.331547 c 0.370661,0.4317 1.119596,0.968958 1.677269,0.141741 0.359074,-0.609063 -0.408126,-1.003166 -1.252046,-0.779577"
       id="path949"
       inkscape:connector-curvature="0"
       sodipodi:nodetypes="ccc" />
    <path
       style="fill:none;stroke:#000000;stroke-width:0.26458332px;stroke-linecap:butt;stroke-linejoin:miter;stroke-opacity:1"
       d="m 27.237909,62.985006 c 0.593145,0.573269 1.321077,0.787107 2.29148,0.354354 -0.507803,-0.829294 -1.217789,-1.09697 -2.29148,-0.354354 z"
       id="path951"
       inkscape:connector-curvature="0"
       sodipodi:nodetypes="ccc" />
    <path
       style="fill:none;stroke:#000000;stroke-width:0.26458332px;stroke-linecap:butt;stroke-linejoin:miter;stroke-opacity:1"
       d="m 29.553013,64.780395 c 0.799769,-0.688365 1.554421,-0.384149 2.29148,0.307104 -0.789156,0.530862 -1.564836,0.72483 -2.29148,-0.307104 z"
       id="path953"
       inkscape:connector-curvature="0"
       sodipodi:nodetypes="ccc" />
    <path
       style="fill:none;stroke:#000000;stroke-width:0.26458332px;stroke-linecap:butt;stroke-linejoin:miter;stroke-opacity:1"
       d="m 30.702586,61.051595 c -1.81833,1.00851 -2.837892,0.419483 -3.875408,-0.133635 l 0.06682,-5.712886 c 0.274691,-0.452881 0.56566,-0.848793 0.668173,-1.904297 -0.348332,-0.478858 -0.707357,-0.957715 -0.100226,-1.436573 0.85749,-0.497995 1.714979,-0.311208 2.572469,0.167044 0.307414,0.415374 0.337675,0.865393 -0.06682,1.369756 -0.04853,0.386443 0.392179,1.180593 0.868627,2.004521 z"
       id="path955"
       inkscape:connector-curvature="0"
       sodipodi:nodetypes="ccccccccc" />
    <path
       style="fill:none;stroke:#000000;stroke-width:0.26458332px;stroke-linecap:butt;stroke-linejoin:miter;stroke-opacity:1"
       d="m 30.034412,52.098066 c -1.053477,0.659965 -1.883431,0.351329 -2.672694,-0.133635"
       id="path957"
       inkscape:connector-curvature="0"
       sodipodi:nodetypes="cc" />
    <path
       style="fill:none;stroke:#000000;stroke-width:0.26458332px;stroke-linecap:butt;stroke-linejoin:miter;stroke-opacity:1"
       d="m 29.934185,53.467822 c -0.801808,0.290383 -1.603617,0.266427 -2.405425,-0.06682"
       id="path959"
       inkscape:connector-curvature="0"
       sodipodi:nodetypes="cc" />
    <path
       style="fill:none;stroke:#000000;stroke-width:0.26458332px;stroke-linecap:butt;stroke-linejoin:miter;stroke-opacity:1"
       d="M 30.769404,55.405525 C 29.106024,56.000143 27.83449,55.867048 26.793769,55.3053"
       id="path961"
       inkscape:connector-curvature="0"
       sodipodi:nodetypes="cc" />
    <path
       style="fill:none;stroke:#000000;stroke-width:0.26458332px;stroke-linecap:butt;stroke-linejoin:miter;stroke-opacity:1"
       d="m 30.702586,59.34775 c -1.227316,0.193199 -2.442082,0.455427 -3.841999,-0.300678"
       id="path963"
       inkscape:connector-curvature="0"
       sodipodi:nodetypes="cc" />
    <path
       style="fill:none;stroke:#000000;stroke-width:0.26458332px;stroke-linecap:butt;stroke-linejoin:miter;stroke-opacity:1"
       d="m 32.172568,57.042552 c -0.386077,-0.774899 -0.256347,-1.485322 0.06682,-2.171565 -0.102116,-0.569797 -0.699378,-1.040564 0,-1.77066 1.242455,-0.845452 2.510817,-1.09504 3.841999,0.100226 0.0717,0.474475 0.402262,0.801033 -0.100224,1.603616 0.213346,0.757264 0.379394,1.514528 0.06681,2.271792 -1.399015,0.685748 -2.652794,0.42747 -3.875405,-0.03341 z"
       id="path965"
       inkscape:connector-curvature="0"
       sodipodi:nodetypes="ccccccc" />
    <path
       style="fill:none;stroke:#000000;stroke-width:0.26458332px;stroke-linecap:butt;stroke-linejoin:miter;stroke-opacity:1"
       d="m 36.081385,53.23396 c -1.493342,0.357177 -2.749242,0.265852 -3.841999,-0.133633"
       id="path967"
       inkscape:connector-curvature="0"
       sodipodi:nodetypes="cc" />
    <path
       style="fill:none;stroke:#000000;stroke-width:0.26458332px;stroke-linecap:butt;stroke-linejoin:miter;stroke-opacity:1"
       d="m 35.947752,54.837578 c -1.224986,0.237175 -2.449971,0.318146 -3.674957,0.06682"
       id="path969"
       inkscape:connector-curvature="0"
       sodipodi:nodetypes="cc" />
    <path
       style="fill:none;stroke:#000000;stroke-width:0.26458332px;stroke-linecap:butt;stroke-linejoin:miter;stroke-opacity:1"
       d="m 30.852305,58.378423 2.55134,-0.141743 c 0.362372,-0.01279 0.66546,-0.163901 1.204799,0.236236 l 4.748326,2.645833 c 0.289104,0.245675 0.918886,0.461726 -0.165364,0.826823 l -2.858445,0.519719 c -0.644071,0.154214 -1.125162,-0.01753 -1.582774,-0.236236 l -3.897882,-2.504094"
       id="path971"
       inkscape:connector-curvature="0"
       sodipodi:nodetypes="cccccccc" />
    <path
       style="fill:none;stroke:#000000;stroke-width:0.26458332px;stroke-linecap:butt;stroke-linejoin:miter;stroke-opacity:1"
       d="m 35.529762,58.898138 1.464658,-0.755951 c 0.561579,-0.327403 1.178726,-0.404746 1.866257,-0.165365 l 5.575149,1.889882 c 0.949788,0.37138 1.152133,0.770444 0.401598,1.204799 l -2.527716,1.110305 c -0.878906,0.325263 -1.661289,0.512636 -2.102493,0.212611 l -0.614209,-0.519718"
       id="path973"
       inkscape:connector-curvature="0"
       sodipodi:nodetypes="cccccccc" />
    <path
       style="fill:none;stroke:#000000;stroke-width:0.26458332px;stroke-linecap:butt;stroke-linejoin:miter;stroke-opacity:1"
       d="m 31.962611,59.276114 c 0.221674,-0.437718 1.230983,-0.07605 1.157552,0.236236 -0.174944,0.410621 -1.203655,0.364053 -1.157552,-0.236236 z"
       id="path975"
       inkscape:connector-curvature="0"
       sodipodi:nodetypes="ccc" />
    <path
       style="fill:none;stroke:#000000;stroke-width:0.26458332px;stroke-linecap:butt;stroke-linejoin:miter;stroke-opacity:1"
       d="m 33.036118,59.243312 c 0.221674,-0.437718 1.230983,-0.07605 1.157552,0.236236 -0.174944,0.410621 -1.203655,0.364053 -1.157552,-0.236236 z"
       id="path975-2"
       inkscape:connector-curvature="0"
       sodipodi:nodetypes="ccc" />
    <path
       style="fill:none;stroke:#000000;stroke-width:0.26458332px;stroke-linecap:butt;stroke-linejoin:miter;stroke-opacity:1"
       d="m 34.122799,59.680347 c 0.221674,-0.437718 1.230983,-0.07605 1.157552,0.236236 -0.174944,0.410621 -1.203655,0.364053 -1.157552,-0.236236 z"
       id="path975-8"
       inkscape:connector-curvature="0"
       sodipodi:nodetypes="ccc" />
    <path
       style="fill:none;stroke:#000000;stroke-width:0.26458332px;stroke-linecap:butt;stroke-linejoin:miter;stroke-opacity:1"
       d="m 33.000683,60.058323 c 0.221674,-0.437718 1.230983,-0.07605 1.157552,0.236236 -0.174944,0.410621 -1.203655,0.364053 -1.157552,-0.236236 z"
       id="path975-6"
       inkscape:connector-curvature="0"
       sodipodi:nodetypes="ccc" />
    <path
       style="fill:none;stroke:#000000;stroke-width:0.26458332px;stroke-linecap:butt;stroke-linejoin:miter;stroke-opacity:1"
       d="m 35.433905,60.235499 c 0.221674,-0.437718 1.230983,-0.07605 1.157552,0.236236 -0.174944,0.410621 -1.203655,0.364053 -1.157552,-0.236236 z"
       id="path975-67"
       inkscape:connector-curvature="0"
       sodipodi:nodetypes="ccc" />
    <path
       style="fill:none;stroke:#000000;stroke-width:0.26458332px;stroke-linecap:butt;stroke-linejoin:miter;stroke-opacity:1"
       d="m 34.110988,60.696158 c 0.221674,-0.437718 1.230983,-0.07605 1.157552,0.236236 -0.174944,0.410621 -1.203655,0.364053 -1.157552,-0.236236 z"
       id="path975-4"
       inkscape:connector-curvature="0"
       sodipodi:nodetypes="ccc" />
    <path
       style="fill:none;stroke:#000000;stroke-width:0.26458332px;stroke-linecap:butt;stroke-linejoin:miter;stroke-opacity:1"
       d="m 35.280352,61.286745 c 0.221674,-0.437718 1.230983,-0.07605 1.157552,0.236236 -0.174944,0.410621 -1.203655,0.364053 -1.157552,-0.236236 z"
       id="path975-9"
       inkscape:connector-curvature="0"
       sodipodi:nodetypes="ccc" />
    <path
       style="fill:none;stroke:#000000;stroke-width:0.26458332px;stroke-linecap:butt;stroke-linejoin:miter;stroke-opacity:1"
       d="m 36.650516,60.885145 c 0.221674,-0.437718 1.230983,-0.07605 1.157552,0.236236 -0.174944,0.410621 -1.203655,0.364053 -1.157552,-0.236236 z"
       id="path975-22"
       inkscape:connector-curvature="0"
       sodipodi:nodetypes="ccc" />
    <path
       style="fill:none;stroke:#000000;stroke-width:0.26458332px;stroke-linecap:butt;stroke-linejoin:miter;stroke-opacity:1"
       d="m 36.922186,59.196064 c 0.221674,-0.437718 1.230983,-0.07605 1.157552,0.236236 -0.174944,0.410621 -1.203655,0.364053 -1.157552,-0.236236 z"
       id="path975-93"
       inkscape:connector-curvature="0"
       sodipodi:nodetypes="ccc" />
    <path
       style="fill:none;stroke:#000000;stroke-width:0.26458332px;stroke-linecap:butt;stroke-linejoin:miter;stroke-opacity:1"
       d="m 38.008867,58.747218 c 0.221674,-0.437718 1.230983,-0.07605 1.157552,0.236236 -0.174944,0.410621 -1.203655,0.364053 -1.157552,-0.236236 z"
       id="path975-5"
       inkscape:connector-curvature="0"
       sodipodi:nodetypes="ccc" />
    <path
       style="fill:none;stroke:#000000;stroke-width:0.26458332px;stroke-linecap:butt;stroke-linejoin:miter;stroke-opacity:1"
       d="m 39.272725,59.255124 c 0.221674,-0.437718 1.230983,-0.07605 1.157552,0.236236 -0.174944,0.41062 -1.203655,0.364053 -1.157552,-0.236236 z"
       id="path975-68"
       inkscape:connector-curvature="0"
       sodipodi:nodetypes="ccc" />
    <path
       style="fill:none;stroke:#000000;stroke-width:0.26458332px;stroke-linecap:butt;stroke-linejoin:miter;stroke-opacity:1"
       d="m 38.209667,59.857522 c 0.221674,-0.437718 1.230983,-0.07605 1.157552,0.236236 -0.174944,0.410621 -1.203655,0.364053 -1.157552,-0.236236 z"
       id="path975-53"
       inkscape:connector-curvature="0"
       sodipodi:nodetypes="ccc" />
    <path
       style="fill:none;stroke:#000000;stroke-width:0.26458332px;stroke-linecap:butt;stroke-linejoin:miter;stroke-opacity:1"
       d="m 40.820066,59.845711 c 0.221674,-0.437718 1.230983,-0.07605 1.157552,0.236236 -0.174944,0.410621 -1.203655,0.364053 -1.157552,-0.236236 z"
       id="path975-1"
       inkscape:connector-curvature="0"
       sodipodi:nodetypes="ccc" />
    <path
       style="fill:none;stroke:#000000;stroke-width:0.26458332px;stroke-linecap:butt;stroke-linejoin:miter;stroke-opacity:1"
       d="m 39.709761,60.507169 c 0.221674,-0.437718 1.230983,-0.07605 1.157552,0.236236 -0.174944,0.410621 -1.203655,0.364053 -1.157552,-0.236236 z"
       id="path975-65"
       inkscape:connector-curvature="0"
       sodipodi:nodetypes="ccc" />
    <path
       style="fill:none;stroke:#000000;stroke-width:0.26458332px;stroke-linecap:butt;stroke-linejoin:miter;stroke-opacity:1"
       d="m 42.095735,60.483545 c 0.221674,-0.437718 1.230983,-0.07605 1.157552,0.236236 -0.174944,0.410621 -1.203655,0.364053 -1.157552,-0.236236 z"
       id="path975-40"
       inkscape:connector-curvature="0"
       sodipodi:nodetypes="ccc" />
    <path
       style="fill:none;stroke:#000000;stroke-width:0.26458332px;stroke-linecap:butt;stroke-linejoin:miter;stroke-opacity:1"
       d="m 40.938183,61.204063 c 0.221674,-0.437718 1.230983,-0.07605 1.157552,0.236236 -0.174944,0.410621 -1.203655,0.364053 -1.157552,-0.236236 z"
       id="path975-532"
       inkscape:connector-curvature="0"
       sodipodi:nodetypes="ccc" />
    <path
       style="fill:none;stroke:#000000;stroke-width:0.26458332px;stroke-linecap:butt;stroke-linejoin:miter;stroke-opacity:1"
       d="m 43.46726,42.786905 h 2.362351 l -0.14174,8.07924"
       id="path1076"
       inkscape:connector-curvature="0" />
    <path
       style="fill:none;stroke:#000000;stroke-width:0.26458332px;stroke-linecap:butt;stroke-linejoin:miter;stroke-opacity:1"
       d="m 44.412201,40.755281 17.245163,-1.511903 c 0.812887,-0.122959 1.023911,0.401485 0.944941,1.41741 l -0.283483,13.512649"
       id="path1078"
       inkscape:connector-curvature="0"
       sodipodi:nodetypes="cccc" />
    <path
       style="fill:none;stroke:#000000;stroke-width:0.26458332px;stroke-linecap:butt;stroke-linejoin:miter;stroke-opacity:1"
       d="m 45.805989,42.739656 2.244233,-2.196986 2.480469,2.031621 9.827381,-0.637833 2.007997,-2.527716"
       id="path1080"
       inkscape:connector-curvature="0" />
    <path
       style="fill:none;stroke:#000000;stroke-width:0.26458332px;stroke-linecap:butt;stroke-linejoin:miter;stroke-opacity:1"
       d="M 48.050222,40.684412 47.813986,51.244121"
       id="path1082"
       inkscape:connector-curvature="0" />
    <path
       style="fill:none;stroke:#000000;stroke-width:0.26458332px;stroke-linecap:butt;stroke-linejoin:miter;stroke-opacity:1"
       d="m 50.483444,42.621541 v 8.882438"
       id="path1084"
       inkscape:connector-curvature="0" />
    <path
       style="fill:none;stroke:#000000;stroke-width:0.26458332px;stroke-linecap:butt;stroke-linejoin:miter;stroke-opacity:1"
       d="M 60.334448,41.960082 60.169083,53.535603"
       id="path1086"
       inkscape:connector-curvature="0" />
    <path
       style="fill:none;stroke:#000000;stroke-width:0.26458332px;stroke-linecap:butt;stroke-linejoin:miter;stroke-opacity:1"
       d="m 44.506694,38.203944 18.709823,-1.322917 c 1.678272,-0.190731 1.599839,1.285399 1.606399,2.220608 L 64.44494,55.023884"
       id="path1088"
       inkscape:connector-curvature="0"
       sodipodi:nodetypes="cccc" />
    <path
       style="fill:none;stroke:#000000;stroke-width:0.26458332px;stroke-linecap:butt;stroke-linejoin:miter;stroke-opacity:1"
       d="m 64.411954,36.997338 -9.755338,-3.34087"
       id="path1090"
       inkscape:connector-curvature="0" />
    <path
       style="fill:none;stroke:#000000;stroke-width:0.26458332px;stroke-linecap:butt;stroke-linejoin:miter;stroke-opacity:1"
       d="M 36.582516,33.255563 45.803314,32.82125"
       id="path1092"
       inkscape:connector-curvature="0" />
    <path
       style="fill:none;stroke:#000000;stroke-width:0.26458332px;stroke-linecap:butt;stroke-linejoin:miter;stroke-opacity:1"
       d="m 52.384827,36.061893 -4.176088,-0.06681 c -1.573178,-1.139103 -2.941504,-3.201943 -2.405425,-6.046976 0.685027,-1.768854 1.517684,-4.96781 0.7684,-6.949006 2.27543,1.006561 4.64083,1.293356 7.182869,0.167044 -0.144393,1.514398 -0.137128,3.05589 1.169305,6.414469 0.340212,1.07605 0.41544,5.366644 -2.539061,6.481279 z"
       id="path1094"
       inkscape:connector-curvature="0"
       sodipodi:nodetypes="ccccccc" />
    <path
       style="fill:none;stroke:#000000;stroke-width:0.26458332px;stroke-linecap:butt;stroke-linejoin:miter;stroke-opacity:1"
       d="m 46.43808,22.865462 c 2.296918,-1.055669 4.874852,-1.004066 7.349912,0.167046"
       id="path1096"
       inkscape:connector-curvature="0"
       sodipodi:nodetypes="cc" />
    <path
       style="fill:none;stroke:#000000;stroke-width:0.26458332px;stroke-linecap:butt;stroke-linejoin:miter;stroke-opacity:1"
       d="m 49.010548,23.633861 c -0.703609,-3.25143 -1.668414,-5.022753 -2.906556,-5.245164"
       id="path1098"
       inkscape:connector-curvature="0"
       sodipodi:nodetypes="cc" />
    <path
       style="fill:none;stroke:#000000;stroke-width:0.26458332px;stroke-linecap:butt;stroke-linejoin:miter;stroke-opacity:1"
       d="m 49.945993,23.800905 c 0.245078,-1.503063 0.580086,-2.646407 0.400902,-5.846521"
       id="path1100"
       inkscape:connector-curvature="0"
       sodipodi:nodetypes="cc" />
    <path
       style="fill:none;stroke:#000000;stroke-width:0.26458332px;stroke-linecap:butt;stroke-linejoin:miter;stroke-opacity:1"
       d="m 53.153227,18.488923 c -1.568022,1.252887 -1.565285,3.372168 -2.071341,5.278573"
       id="path1102"
       inkscape:connector-curvature="0"
       sodipodi:nodetypes="cc" />
    <path
       style="fill:none;stroke:#000000;stroke-width:0.26458332px;stroke-linecap:butt;stroke-linejoin:miter;stroke-opacity:1"
       d="m 46.304445,17.653706 c -0.121329,1.819873 -2.763158,1.831441 -2.839738,0.03341 -0.0609,-1.572957 2.690359,-2.438081 2.839738,-0.03341 z"
       id="path1104"
       inkscape:connector-curvature="0"
       sodipodi:nodetypes="ccc" />
    <path
       style="fill:none;stroke:#000000;stroke-width:0.26458332px;stroke-linecap:butt;stroke-linejoin:miter;stroke-opacity:1"
       d="m 49.545089,17.820749 c 1.675382,-0.1027 1.205413,-3.86383 0.06682,-3.908817 -1.459346,0.100226 -1.491025,3.674956 -0.06682,3.908817 z"
       id="path1106"
       inkscape:connector-curvature="0"
       sodipodi:nodetypes="ccc" />
    <path
       style="fill:none;stroke:#000000;stroke-width:0.26458332px;stroke-linecap:butt;stroke-linejoin:miter;stroke-opacity:1"
       d="m 56.09319,14.546698 c -1.030709,-0.576108 -3.127916,3.159053 -2.305198,3.875408 0.759341,0.3987 3.16298,-2.863665 2.305198,-3.875408 z"
       id="path1108"
       inkscape:connector-curvature="0"
       sodipodi:nodetypes="ccc" />
    <path
       style="fill:none;stroke:#000000;stroke-width:0.26458332px;stroke-linecap:butt;stroke-linejoin:miter;stroke-opacity:1"
       d="m 53.587538,18.288471 c -0.842157,0.61558 -0.579329,1.279203 -0.434311,1.937704 1.115257,0.03504 1.14447,-1.015958 1.369756,-1.870887 -0.0283,0.819041 0.460695,1.041207 1.00226,1.202713 0.509275,-0.912655 0.219375,-1.530877 -0.100226,-2.138156 0.345533,0.680669 0.94528,0.649539 1.503391,0.734991 -0.121093,-0.703268 -0.307352,-1.328337 -0.868624,-1.503391 0.418446,0.38484 0.918044,0.472121 1.46998,0.367496 -0.237879,-0.539146 -0.393045,-1.212699 -0.968852,-1.202713 0.563123,0.147005 1.084114,-0.464368 1.603619,-1.102487 -0.566841,-0.161388 -1.127609,-0.413865 -1.737254,0.06682 0.86493,-0.234434 0.660562,-1.313051 0.734991,-2.171565 -0.700679,0.415216 -1.700733,0.516089 -1.570207,1.80407 -0.215971,-0.985945 -1.066423,-1.222048 -1.737251,-1.670435 0.01281,0.954421 -0.47651,2.170824 0.46772,2.639287 -0.674959,-0.433874 -1.28454,-0.442793 -1.870885,-0.300678 0.325465,0.798215 0.581192,1.696057 1.202711,2.071338 -0.567028,-0.598748 -1.260053,-0.41002 -2.00452,0.100226 0.551879,0.68997 1.006278,1.737362 1.937702,1.035667 z"
       id="path1110"
       inkscape:connector-curvature="0"
       sodipodi:nodetypes="ccccccccccccccccccc" />
    <path
       style="fill:none;stroke:#000000;stroke-width:0.26458332px;stroke-linecap:butt;stroke-linejoin:miter;stroke-opacity:1"
       d="m 50.881435,16.501106 c 0.590004,0.247594 1.239952,-0.224133 1.870888,-0.467722 -0.54554,-0.500247 -1.070192,-1.078826 -1.787367,-0.935443 1.144257,-0.08351 1.257367,-1.149071 1.503392,-2.088043 -0.720834,0.261523 -1.496794,-0.08334 -2.138156,1.052373 0.528728,-0.856037 0.113014,-1.677095 -0.551244,-2.488947 -0.619612,0.935038 -0.977283,1.820962 -0.88533,2.622582 -0.311656,-1.086152 -1.156213,-0.928869 -1.837478,-1.152599 0.311222,0.882826 0.0707,2.396212 1.219417,2.321903 -0.68482,0.05097 -1.330153,0.694268 -1.971112,1.403165 0.875312,0.449917 1.596789,0.412688 2.204974,0.0167 -0.689951,0.282441 -1.206605,0.778171 -1.319643,1.77066 0.979654,0.277632 1.475073,-0.117285 1.65373,-0.952148 -0.102352,0.666411 -0.0157,1.34394 0.634765,2.054635 0.734087,-0.585029 0.862681,-1.252624 0.618061,-1.971113 0.276292,0.762228 1.227879,0.485541 2.054632,0.400905 -0.330643,-0.636925 -0.676611,-1.25597 -1.269529,-1.586908 z"
       id="path1112"
       inkscape:connector-curvature="0"
       sodipodi:nodetypes="ccccccccccccccccc" />
    <path
       style="fill:none;stroke:#000000;stroke-width:0.26458332px;stroke-linecap:butt;stroke-linejoin:miter;stroke-opacity:1"
       d="m 46.955913,15.983271 c 0.235998,-0.353154 0.134403,-1.212699 0.200454,-1.820774 -0.712999,0.588041 -1.979538,0.752787 -2.021226,1.854183 0.424468,-0.947498 -0.630725,-1.754076 -1.035669,-2.622582 -0.150627,1.035669 -1.10124,2.071339 -0.183748,3.107008 -0.532402,-0.975264 -1.465114,-0.749599 -2.33861,-0.701583 0.485573,0.905064 0.922403,1.941732 1.837478,1.687139 -0.846467,-0.100467 -1.10105,1.042026 -1.536798,1.804069 0.900601,0.02084 1.857016,0.09749 2.15486,-0.484425 -0.810737,0.441399 -0.683264,1.527817 -0.835219,2.422129 1.791157,-0.703437 2.133082,-1.440576 2.021227,-2.188269 -0.257485,1.144165 0.463129,1.623222 1.30294,2.021226 0.245562,-1.001191 0.644233,-2.047747 -0.267271,-2.706104 0.300135,1.92e-4 0.51296,0.209925 1.018966,-0.283974"
       id="path1114"
       inkscape:connector-curvature="0"
       sodipodi:nodetypes="cccccccccccccc" />
    <path
       style="fill:none;stroke:#000000;stroke-width:0.26458332px;stroke-linecap:butt;stroke-linejoin:miter;stroke-opacity:1"
       d="m 48.56994,25.258259 c 2.69837,4.086094 -1.738348,5.074447 0.803199,9.543897"
       id="path1116"
       inkscape:connector-curvature="0"
       sodipodi:nodetypes="cc" />
    <path
       style="fill:none;stroke:#000000;stroke-width:0.26458332px;stroke-linecap:butt;stroke-linejoin:miter;stroke-opacity:1"
       d="m 52.774923,27.95134 c 0.724615,3.959434 -2.540061,3.213931 -1.889879,6.80357"
       id="path1118"
       inkscape:connector-curvature="0"
       sodipodi:nodetypes="cc" />
    <path
       style="fill:none;stroke:#000000;stroke-width:0.26458332px;stroke-linecap:butt;stroke-linejoin:miter;stroke-opacity:1"
       d="m 51.950514,49.592415 c 0.07135,-0.635399 1.004988,-0.390106 1.035669,-0.03341 -0.08389,0.354362 -0.866609,0.689119 -1.035669,0.03341 z"
       id="path1120"
       inkscape:connector-curvature="0"
       sodipodi:nodetypes="ccc" />
    <path
       style="fill:none;stroke:#000000;stroke-width:0.26458332px;stroke-linecap:butt;stroke-linejoin:miter;stroke-opacity:1"
       d="m 43.348056,49.768966 c 0.07135,-0.635399 1.004988,-0.390106 1.035669,-0.03341 -0.08389,0.354362 -0.866609,0.689119 -1.035669,0.03341 z"
       id="path1120-6"
       inkscape:connector-curvature="0"
       sodipodi:nodetypes="ccc" />
  </g>
</svg>
