<?xml version="1.0" encoding="UTF-8" standalone="no"?>
<!-- Created with Inkscape (http://www.inkscape.org/) -->

<svg
   xmlns:dc="http://purl.org/dc/elements/1.1/"
   xmlns:cc="http://creativecommons.org/ns#"
   xmlns:rdf="http://www.w3.org/1999/02/22-rdf-syntax-ns#"
   xmlns:svg="http://www.w3.org/2000/svg"
   xmlns="http://www.w3.org/2000/svg"
   xmlns:sodipodi="http://sodipodi.sourceforge.net/DTD/sodipodi-0.dtd"
   xmlns:inkscape="http://www.inkscape.org/namespaces/inkscape"
   width="256"
   height="256"
   viewBox="0 0 67.733332 67.733335"
   version="1.1"
   id="svg8185"
   inkscape:version="0.92.2 (5c3e80d, 2017-08-06)"
   sodipodi:docname="fig23.svg">
  <defs
     id="defs8179" />
  <sodipodi:namedview
     id="base"
     pagecolor="#ffffff"
     bordercolor="#666666"
     borderopacity="1.0"
     inkscape:pageopacity="0.0"
     inkscape:pageshadow="2"
     inkscape:zoom="1.4"
     inkscape:cx="125.34708"
     inkscape:cy="157.64775"
     inkscape:document-units="px"
     inkscape:current-layer="layer2"
     showgrid="false"
     units="px"
     inkscape:window-width="1366"
     inkscape:window-height="745"
     inkscape:window-x="-8"
     inkscape:window-y="-8"
     inkscape:window-maximized="1"
     inkscape:snap-global="false" />
  <metadata
     id="metadata8182">
    <rdf:RDF>
      <cc:Work
         rdf:about="">
        <dc:format>image/svg+xml</dc:format>
        <dc:type
           rdf:resource="http://purl.org/dc/dcmitype/StillImage" />
        <dc:title />
      </cc:Work>
    </rdf:RDF>
  </metadata>
  <g
     inkscape:groupmode="layer"
     id="layer2"
     inkscape:label="Capa 2"
     style="display:inline">
    <path
       style="fill:none;stroke:#000000;stroke-width:0.26458332px;stroke-linecap:butt;stroke-linejoin:miter;stroke-opacity:1"
       d="M 6.6618302,15.194643 C 4.5072243,15.677568 2.5881163,13.995986 3.7325149,10.422693 4.6023986,7.8612847 7.4455775,6.700351 8.7406992,8.7690475"
       id="path817"
       inkscape:connector-curvature="0"
       sodipodi:nodetypes="ccc" />
    <path
       style="fill:none;stroke:#000000;stroke-width:0.26458332px;stroke-linecap:butt;stroke-linejoin:miter;stroke-opacity:1"
       d="M 10.016369,23.510119 C 8.1366161,21.335976 4.2485131,14.009165 9.7328867,7.9658479 15.126673,3.0039818 18.487459,5.3311916 21.780878,6.8319194"
       id="path819"
       inkscape:connector-curvature="0"
       sodipodi:nodetypes="ccc" />
    <path
       style="fill:none;stroke:#000000;stroke-width:0.26458332px;stroke-linecap:butt;stroke-linejoin:miter;stroke-opacity:1"
       d="m 12.992931,5.5562499 c 2.527035,-1.3258133 9.487315,-2.773895 12.614956,2.9765625 -2.010748,0.4045367 -3.561713,-0.3403846 -5.338914,-0.5197173 -5.232867,-0.2246823 -4.506226,5.5101429 -6.709077,8.3154759 -2.900454,-2.268925 -3.7584731,0.179981 -3.5907742,1.370164 0.2113352,1.58834 1.6384122,1.65961 2.5040922,1.606398"
       id="path821"
       inkscape:connector-curvature="0"
       sodipodi:nodetypes="cccccc" />
    <path
       style="fill:none;stroke:#000000;stroke-width:0.26458332px;stroke-linecap:butt;stroke-linejoin:miter;stroke-opacity:1"
       d="m 13.134672,18.738169 c 0.276053,1.197732 0.435196,2.47897 1.559152,3.071057"
       id="path823"
       inkscape:connector-curvature="0"
       sodipodi:nodetypes="cc" />
    <path
       style="fill:none;stroke:#000000;stroke-width:0.26458332px;stroke-linecap:butt;stroke-linejoin:miter;stroke-opacity:1"
       d="M 13.323661,22.565178 C 13.115223,24.08855 12.349302,25.263495 11.43378,26.34494"
       id="path825"
       inkscape:connector-curvature="0"
       sodipodi:nodetypes="cc" />
    <path
       style="fill:none;stroke:#000000;stroke-width:0.26458332px;stroke-linecap:butt;stroke-linejoin:miter;stroke-opacity:1"
       d="M 10.824416,20.560262 C 9.5081036,19.866493 8.6032532,18.418377 7.8176336,16.751671"
       id="path827"
       inkscape:connector-curvature="0"
       sodipodi:nodetypes="cc" />
    <path
       style="fill:none;stroke:#000000;stroke-width:0.26458332px;stroke-linecap:butt;stroke-linejoin:miter;stroke-opacity:1"
       d="M 9.9557897,15.883045 C 9.1762537,15.743218 8.3967176,14.642704 7.6171816,13.744889"
       id="path829"
       inkscape:connector-curvature="0"
       sodipodi:nodetypes="cc" />
    <path
       style="fill:none;stroke:#000000;stroke-width:0.26458332px;stroke-linecap:butt;stroke-linejoin:miter;stroke-opacity:1"
       d="M 9.4212507,13.477619 C 8.7530769,13.278029 8.0849031,12.592152 7.4167293,11.773776"
       id="path831"
       inkscape:connector-curvature="0"
       sodipodi:nodetypes="cc" />
    <path
       style="fill:none;stroke:#000000;stroke-width:0.26458332px;stroke-linecap:butt;stroke-linejoin:miter;stroke-opacity:1"
       d="M 13.931424,13.511028 C 12.283816,13.235949 10.545454,12.416342 8.7196683,11.072193"
       id="path833"
       inkscape:connector-curvature="0"
       sodipodi:nodetypes="cc" />
    <path
       style="fill:none;stroke:#000000;stroke-width:0.26458332px;stroke-linecap:butt;stroke-linejoin:miter;stroke-opacity:1"
       d="M 12.628485,10.203567 C 11.452988,9.8377282 10.312981,9.4304844 8.6194423,9.6690282"
       id="path835"
       inkscape:connector-curvature="0"
       sodipodi:nodetypes="cc" />
    <path
       style="fill:none;stroke:#000000;stroke-width:0.26458332px;stroke-linecap:butt;stroke-linejoin:miter;stroke-opacity:1"
       d="M 15.668676,9.5688022 C 14.115192,8.794786 12.477284,8.2177607 10.657372,8.0654111"
       id="path837"
       inkscape:connector-curvature="0"
       sodipodi:nodetypes="cc" />
    <path
       style="fill:none;stroke:#000000;stroke-width:0.26458332px;stroke-linecap:butt;stroke-linejoin:miter;stroke-opacity:1"
       d="M 18.642049,7.9317764 C 17.147639,7.3314071 15.514521,6.9737773 13.664154,6.9963331"
       id="path839"
       inkscape:connector-curvature="0"
       sodipodi:nodetypes="cc" />
    <path
       style="fill:none;stroke:#000000;stroke-width:0.26458332px;stroke-linecap:butt;stroke-linejoin:miter;stroke-opacity:1"
       d="m 12.561668,15.548958 5.646068,-1.002261 c 0.22502,-0.680942 0.734847,-0.73531 1.269531,-0.734991 l 3.407686,0.50113 c 0.406852,0.139673 0.53451,0.518655 0.50113,1.03567 0.940093,-0.439694 1.783814,-0.421621 2.472244,0.334087 0.02887,-0.339965 0.140688,-0.648825 0.668173,-0.801809 l 1.637025,0.133635 c 0.512273,0.05846 0.826385,0.265542 0.835218,0.701582 l -0.100227,1.503391 c -0.09621,0.24946 -0.116782,0.55294 -0.634764,0.501131 L 26.29264,17.620297"
       id="path841"
       inkscape:connector-curvature="0"
       sodipodi:nodetypes="cccccccccccc" />
    <path
       style="fill:none;stroke:#000000;stroke-width:0.26458332px;stroke-linecap:butt;stroke-linejoin:miter;stroke-opacity:1"
       d="m 23.363653,15.360007 -0.236235,1.630022 c -0.132284,0.970161 -0.71475,0.739834 -1.204799,0.755953 l -3.118304,-0.425223 c -0.784198,-0.05359 -0.771333,-0.475064 -0.755952,-0.897694 l 0.283482,-1.984375"
       id="path843"
       inkscape:connector-curvature="0"
       sodipodi:nodetypes="cccccc" />
    <path
       style="fill:none;stroke:#000000;stroke-width:0.26458332px;stroke-linecap:butt;stroke-linejoin:miter;stroke-opacity:1"
       d="m 27.308781,12.903162 -1.275671,-0.212612 0.118117,0.94494 1.322918,0.283483"
       id="path845"
       inkscape:connector-curvature="0"
       sodipodi:nodetypes="cccc" />
    <path
       style="fill:none;stroke:#000000;stroke-width:0.26458332px;stroke-linecap:butt;stroke-linejoin:miter;stroke-opacity:1"
       d="m 23.174665,12.312574 0.02362,0.803199 c -1.301547,-0.339717 -2.707982,-0.364771 -4.134115,-0.330729 0.946464,-0.460133 2.282361,-0.6421 4.110495,-0.47247 z"
       id="path847"
       inkscape:connector-curvature="0"
       sodipodi:nodetypes="cccc" />
    <path
       style="fill:none;stroke:#000000;stroke-width:0.26458332px;stroke-linecap:butt;stroke-linejoin:miter;stroke-opacity:1"
       d="m 25.607887,8.6509298 c 1.619695,2.0177352 2.101415,4.1167552 1.960751,6.2602302"
       id="path849"
       inkscape:connector-curvature="0"
       sodipodi:nodetypes="cc" />
    <path
       style="fill:none;stroke:#000000;stroke-width:0.26458332px;stroke-linecap:butt;stroke-linejoin:miter;stroke-opacity:1"
       d="m 19.678385,15.265513 c 0.720021,-0.12576 1.426344,-0.299462 2.267857,0 0,0 -0.577219,1.117821 -0.968564,1.133929 -0.391345,0.01611 -0.614211,-0.968564 -0.614211,-0.968564"
       id="path851"
       inkscape:connector-curvature="0"
       sodipodi:nodetypes="cczc" />
    <path
       style="fill:none;stroke:#000000;stroke-width:0.26458332px;stroke-linecap:butt;stroke-linejoin:miter;stroke-opacity:1"
       d="m 26.009486,15.879724 c 0.473997,-0.316265 0.858751,-0.09707 1.27567,-0.07087"
       id="path853"
       inkscape:connector-curvature="0"
       sodipodi:nodetypes="cc" />
    <path
       style="fill:none;stroke:#000000;stroke-width:0.26458332px;stroke-linecap:butt;stroke-linejoin:miter;stroke-opacity:1"
       d="m 27.001673,15.903348 c 0.05517,0.332484 -0.224539,0.989987 -0.94494,0.992187"
       id="path855"
       inkscape:connector-curvature="0"
       sodipodi:nodetypes="cc" />
    <path
       style="fill:none;stroke:#000000;stroke-width:0.26458332px;stroke-linecap:butt;stroke-linejoin:miter;stroke-opacity:1"
       d="m 25.844122,15.71436 c 0.07189,0.67808 -0.09193,1.154125 0.377976,2.173363 0.253175,0.606048 0.555714,1.217292 -0.354353,1.700893"
       id="path857"
       inkscape:connector-curvature="0"
       sodipodi:nodetypes="ccc" />
    <path
       style="fill:none;stroke:#000000;stroke-width:0.26458332px;stroke-linecap:butt;stroke-linejoin:miter;stroke-opacity:1"
       d="M 25.300781,19.305133 C 24.816864,18.932918 24.406746,18.929702 24.048735,19.187016 22.887014,19.529355 23.18668,17.95207 23.88337,18.00584"
       id="path859"
       inkscape:connector-curvature="0"
       sodipodi:nodetypes="ccc" />
    <path
       style="fill:none;stroke:#000000;stroke-width:0.26458332px;stroke-linecap:butt;stroke-linejoin:miter;stroke-opacity:1"
       d="m 25.607887,20.415439 0.04725,0.661458 c -1.599338,0.06048 -2.918068,-0.370098 -4.275856,-0.732329 1.204799,0.471176 2.409598,3.994566 3.614397,0.779576"
       id="path861"
       inkscape:connector-curvature="0"
       sodipodi:nodetypes="cccc" />
    <path
       style="fill:none;stroke:#000000;stroke-width:0.26458332px;stroke-linecap:butt;stroke-linejoin:miter;stroke-opacity:1"
       d="m 21.875372,19.494122 c -0.312204,0.692645 -0.869772,1.18082 -1.559152,1.559151"
       id="path863"
       inkscape:connector-curvature="0"
       sodipodi:nodetypes="cc" />
    <path
       style="fill:none;stroke:#000000;stroke-width:0.26458332px;stroke-linecap:butt;stroke-linejoin:miter;stroke-opacity:1"
       d="m 27.214285,17.745982 c -0.845789,2.452386 -0.585104,5.653009 -3.992373,7.417783 -2.962936,1.218824 -4.995897,-1.344279 -4.84282,-2.929316"
       id="path865"
       inkscape:connector-curvature="0"
       sodipodi:nodetypes="ccc" />
    <path
       style="fill:none;stroke:#000000;stroke-width:0.26458332px;stroke-linecap:butt;stroke-linejoin:miter;stroke-opacity:1"
       d="m 20.387091,25.329129 c -1.734607,0.233149 -3.429,0.363528 -4.606585,-0.826823"
       id="path867"
       inkscape:connector-curvature="0"
       sodipodi:nodetypes="cc" />
    <path
       style="fill:none;stroke:#000000;stroke-width:0.26458332px;stroke-linecap:butt;stroke-linejoin:miter;stroke-opacity:1"
       d="m 19.135045,25.518117 c -0.101006,0.609039 -1.122339,1.072763 0.992187,2.031622 3.769174,1.239034 5.135167,2.755357 5.646019,4.370351"
       id="path869"
       inkscape:connector-curvature="0"
       sodipodi:nodetypes="ccc" />
    <path
       style="fill:none;stroke:#000000;stroke-width:0.26458332px;stroke-linecap:butt;stroke-linejoin:miter;stroke-opacity:1"
       d="m 11.592816,16.083497 c 0.949905,0.668196 0.663605,1.305998 0.534539,1.971112 -0.77112,-0.0354 -1.007652,-0.322379 -0.26727,-1.069078"
       id="path871"
       inkscape:connector-curvature="0"
       sodipodi:nodetypes="ccc" />
    <path
       style="fill:none;stroke:#000000;stroke-width:0.26458332px;stroke-linecap:butt;stroke-linejoin:miter;stroke-opacity:1"
       d="m 11.292137,19.257322 c -0.489468,2.117026 -0.0059,3.850743 -3.2406427,7.049234 1.7489323,1.403623 4.3735717,3.413465 10.2230597,4.677216 3.004378,0.166788 3.661467,-0.959968 1.570208,-3.507912"
       id="path873"
       inkscape:connector-curvature="0"
       sodipodi:nodetypes="cccc" />
    <path
       style="fill:none;stroke:#000000;stroke-width:0.26458332px;stroke-linecap:butt;stroke-linejoin:miter;stroke-opacity:1"
       d="M 8.031994,26.297693 4.0159969,28.140326"
       id="path875"
       inkscape:connector-curvature="0" />
    <path
       style="fill:none;stroke:#000000;stroke-width:0.26458332px;stroke-linecap:butt;stroke-linejoin:miter;stroke-opacity:1"
       d="M 8.7879464,30.691666 C 6.1339764,29.895809 3.568851,26.612302 0.8031994,28.943527"
       id="path877"
       inkscape:connector-curvature="0"
       sodipodi:nodetypes="cc" />
    <path
       style="fill:none;stroke:#000000;stroke-width:0.26458332px;stroke-linecap:butt;stroke-linejoin:miter;stroke-opacity:1"
       d="M 0.85044641,29.699479 C 1.515263,30.044838 2.1186905,30.41066 2.4095982,30.880656"
       id="path879"
       inkscape:connector-curvature="0"
       sodipodi:nodetypes="cc" />
    <path
       style="fill:none;stroke:#000000;stroke-width:0.26458332px;stroke-linecap:butt;stroke-linejoin:miter;stroke-opacity:1"
       d="m 3.96875,33.47924 c 1.9021646,3.313177 1.9377581,7.117557 1.4646576,11.055804 -1.6388382,0.09638 -3.1488572,-0.06488 -4.53571417,-0.472471"
       id="path881"
       inkscape:connector-curvature="0"
       sodipodi:nodetypes="ccc" />
    <path
       style="fill:none;stroke:#000000;stroke-width:0.26458332px;stroke-linecap:butt;stroke-linejoin:miter;stroke-opacity:1"
       d="m 4.7719493,44.346055 c 0.3464782,1.680302 0.6929564,1.734004 1.0394346,6.142114"
       id="path883"
       inkscape:connector-curvature="0"
       sodipodi:nodetypes="cc" />
    <path
       style="fill:none;stroke:#000000;stroke-width:0.26458332px;stroke-linecap:butt;stroke-linejoin:miter;stroke-opacity:1"
       d="m 3.921503,51.527604 c 2.2975553,-1.760965 4.8670888,-0.394181 7.323289,-0.33073 4.447582,0.689931 8.667519,0.924572 12.85119,1.086681 0.942074,-0.02293 1.926666,0.294287 2.787573,-0.377976 1.313635,-0.810501 2.395013,-0.227468 3.543528,-0.04725 l 1.41741,0.14174 c 1.199952,0.07011 1.028654,0.483042 0.0945,1.086683 l -2.220611,0.09449 c 1.531426,0.659006 3.104197,0.945908 4.724702,0.803199 1.718969,0.157954 0.45557,1.217942 -0.09449,1.27567 -2.527115,-0.03435 -3.365623,-0.267355 -4.441221,-0.47247"
       id="path885"
       inkscape:connector-curvature="0"
       sodipodi:nodetypes="ccccccccccc" />
    <path
       style="fill:none;stroke:#000000;stroke-width:0.26458332px;stroke-linecap:butt;stroke-linejoin:miter;stroke-opacity:1"
       d="m 34.377542,55.271892 c 1.266772,0.130532 2.179421,0.39222 1.069078,1.403164 h -1.202711"
       id="path887"
       inkscape:connector-curvature="0"
       sodipodi:nodetypes="ccc" />
    <path
       style="fill:none;stroke:#000000;stroke-width:0.26458332px;stroke-linecap:butt;stroke-linejoin:miter;stroke-opacity:1"
       d="m 35.482514,56.701152 c 0.369749,0.07458 0.763362,1.094118 -0.04725,1.110306 l -0.661458,0.04725"
       id="path889"
       inkscape:connector-curvature="0"
       sodipodi:nodetypes="ccc" />
    <path
       style="fill:none;stroke:#000000;stroke-width:0.26458332px;stroke-linecap:butt;stroke-linejoin:miter;stroke-opacity:1"
       d="M 29.19866,58.709152 C 27.412731,58.617824 25.258739,57.790371 23.103794,56.96101 17.13492,57.013281 11.166046,57.426773 5.1971725,56.913763 3.1398215,57.004969 1.4804834,56.770528 0.8031994,55.732589"
       id="path891"
       inkscape:connector-curvature="0"
       sodipodi:nodetypes="cccc" />
    <path
       style="fill:none;stroke:#000000;stroke-width:0.26458332px;stroke-linecap:butt;stroke-linejoin:miter;stroke-opacity:1"
       d="m 24.946428,29.982961 c 7.22151,1.91896 3.485808,6.968553 4.441221,10.677827"
       id="path893"
       inkscape:connector-curvature="0"
       sodipodi:nodetypes="cc" />
    <path
       style="fill:none;stroke:#000000;stroke-width:0.26458332px;stroke-linecap:butt;stroke-linejoin:miter;stroke-opacity:1"
       d="m 26.789062,33.809969 c 0.617997,5.047822 7.502056,11.088292 -1.606398,13.559895"
       id="path895"
       inkscape:connector-curvature="0"
       sodipodi:nodetypes="cc" />
    <path
       style="fill:none;stroke:#000000;stroke-width:0.26458332px;stroke-linecap:butt;stroke-linejoin:miter;stroke-opacity:1"
       d="m 20.079985,34.235194 c 0.208267,2.078869 0.329116,4.157738 1.511905,6.236607"
       id="path897"
       inkscape:connector-curvature="0"
       sodipodi:nodetypes="cc" />
    <path
       style="fill:none;stroke:#000000;stroke-width:0.26458332px;stroke-linecap:butt;stroke-linejoin:miter;stroke-opacity:1"
       d="m 16.867187,34.28244 c 1.219234,1.73502 2.322965,3.701044 3.165551,6.189361"
       id="path899"
       inkscape:connector-curvature="0"
       sodipodi:nodetypes="cc" />
    <path
       style="fill:none;stroke:#000000;stroke-width:0.26458332px;stroke-linecap:butt;stroke-linejoin:miter;stroke-opacity:1"
       d="m 7.6540176,45.668972 c 2.8363434,2.144165 5.8733384,3.034256 9.2131694,2.031622"
       id="path901"
       inkscape:connector-curvature="0"
       sodipodi:nodetypes="cc" />
    <path
       style="fill:none;stroke:#000000;stroke-width:0.26458332px;stroke-linecap:butt;stroke-linejoin:miter;stroke-opacity:1"
       d="m 25.796875,49.212499 c -0.339453,0.943536 -0.570024,1.865295 -1.511905,2.929316"
       id="path903"
       inkscape:connector-curvature="0"
       sodipodi:nodetypes="cc" />
    <path
       style="fill:none;stroke:#000000;stroke-width:0.26458332px;stroke-linecap:butt;stroke-linejoin:miter;stroke-opacity:1"
       d="m 21.544643,57.102753 c -0.05147,0.772969 -1.760294,2.043142 -2.976563,3.165549"
       id="path905"
       inkscape:connector-curvature="0"
       sodipodi:nodetypes="cc" />
    <path
       style="fill:none;stroke:#000000;stroke-width:0.26458332px;stroke-linecap:butt;stroke-linejoin:miter;stroke-opacity:1"
       d="m 27.595578,46.61904 c -0.609849,1.643035 -0.677157,3.376493 -0.534537,5.14494"
       id="path907"
       inkscape:connector-curvature="0"
       sodipodi:nodetypes="cc" />
    <path
       style="fill:none;stroke:#000000;stroke-width:0.26458332px;stroke-linecap:butt;stroke-linejoin:miter;stroke-opacity:1"
       d="m 21.450149,60.504538 c 3.461063,-1.831144 6.514973,-2.67655 7.606771,1.228423"
       id="path909"
       inkscape:connector-curvature="0"
       sodipodi:nodetypes="cc" />
    <path
       style="fill:none;stroke:#000000;stroke-width:0.26458332px;stroke-linecap:butt;stroke-linejoin:miter;stroke-opacity:1"
       d="m 33.309152,65.701711 c -2.301829,-2.09615 -3.873774,-5.783853 -9.874628,-3.401785 -4.15332,1.80275 -5.923484,0.600616 -9.21317,0.803198"
       id="path911"
       inkscape:connector-curvature="0"
       sodipodi:nodetypes="ccc" />
    <path
       style="fill:none;stroke:#000000;stroke-width:0.26458332px;stroke-linecap:butt;stroke-linejoin:miter;stroke-opacity:1"
       d="M 20.883184,63.197617 C 17.383365,63.361008 18.599269,65.069204 8.5989582,63.103124 5.9268846,62.646427 2.9080715,61.149512 0.8031994,62.394419"
       id="path913"
       inkscape:connector-curvature="0"
       sodipodi:nodetypes="ccc" />
    <path
       style="fill:none;stroke:#000000;stroke-width:0.26458332px;stroke-linecap:butt;stroke-linejoin:miter;stroke-opacity:1"
       d="M 7.3232885,61.071503 C 5.1552365,60.630346 3.1482882,59.705878 0.75595238,59.937573"
       id="path915"
       inkscape:connector-curvature="0"
       sodipodi:nodetypes="cc" />
    <path
       style="fill:none;stroke:#000000;stroke-width:0.26458332px;stroke-linecap:butt;stroke-linejoin:miter;stroke-opacity:1"
       d="M 0.85044641,58.803645 C 1.9067566,58.641281 2.7666259,58.413437 3.0710565,58.000447 c 2.0392983,1.047903 4.2290284,1.644511 6.5200892,1.937126"
       id="path917"
       inkscape:connector-curvature="0"
       sodipodi:nodetypes="ccc" />
    <path
       style="fill:none;stroke:#000000;stroke-width:0.26458332px;stroke-linecap:butt;stroke-linejoin:miter;stroke-opacity:1"
       d="m 38.907923,59.016256 c -1.412981,1.18844 -2.539561,2.49539 -7.488653,2.220611 -0.810645,-0.0146 -0.775204,-0.142593 -1.322916,-0.803201 -0.594143,-0.903825 -0.835024,-1.757184 -0.992188,-2.598584 -0.139675,-1.161298 0.864706,-1.593631 1.181177,-0.779576"
       id="path919"
       inkscape:connector-curvature="0"
       sodipodi:nodetypes="ccccc" />
    <path
       style="fill:none;stroke:#000000;stroke-width:0.26458332px;stroke-linecap:butt;stroke-linejoin:miter;stroke-opacity:1"
       d="M 31.584635,60.291926 C 31.01907,59.572695 30.479618,58.779477 30.285343,57.008259 30.113654,55.76498 31.19848,55.246728 31.584635,56.110565"
       id="path921"
       inkscape:connector-curvature="0"
       sodipodi:nodetypes="ccc" />
    <path
       style="fill:none;stroke:#000000;stroke-width:0.26458332px;stroke-linecap:butt;stroke-linejoin:miter;stroke-opacity:1"
       d="m 32.789434,60.05569 c -0.799803,-1.135061 -0.944967,-2.488334 -1.204799,-3.803385 -0.146917,-1.019986 1.226437,-1.292647 1.41741,-0.354351"
       id="path923"
       inkscape:connector-curvature="0"
       sodipodi:nodetypes="ccc" />
    <path
       style="fill:none;stroke:#000000;stroke-width:0.26458332px;stroke-linecap:butt;stroke-linejoin:miter;stroke-opacity:1"
       d="m 34.135975,59.795833 c -0.748186,-0.760816 -1.125871,-2.026862 -1.181177,-3.732514 0.189957,-0.660863 0.890227,-0.377242 1.13393,0.425222 0.70223,2.32258 0.918008,2.324273 1.511904,2.952938"
       id="path925"
       inkscape:connector-curvature="0"
       sodipodi:nodetypes="cccc" />
    <path
       style="fill:none;stroke:#000000;stroke-width:0.26458332px;stroke-linecap:butt;stroke-linejoin:miter;stroke-opacity:1"
       d="m 27.143416,50.133816 c 4.081747,0.497191 8.125518,1.099873 12.756695,0.07087 0.541034,-0.04047 1.473912,0.846956 1.630024,1.370163 0.276883,0.805794 -0.691334,1.352562 -1.157553,1.748139 -0.779622,0.386215 -2.00431,0.174913 -1.393787,-0.661458 l 1.015809,-0.54334 c 0.538999,-0.448145 -0.217883,-0.757945 -0.779574,-0.685081 -1.176287,0.512905 -2.167129,1.066124 -1.913506,1.889879 0.919696,1.320136 1.938761,1.845323 3.047434,1.653646"
       id="path927"
       inkscape:connector-curvature="0"
       sodipodi:nodetypes="ccccccccc" />
    <path
       style="fill:none;stroke:#000000;stroke-width:0.26458332px;stroke-linecap:butt;stroke-linejoin:miter;stroke-opacity:1"
       d="M 37.277902,53.275743 C 36.464096,53.132142 36.000919,52.938452 35.624256,52.732402"
       id="path929"
       inkscape:connector-curvature="0"
       sodipodi:nodetypes="cc" />
    <path
       style="fill:none;stroke:#000000;stroke-width:0.26458332px;stroke-linecap:butt;stroke-linejoin:miter;stroke-opacity:1"
       d="m 39.333146,54.929388 c 0.729476,0.440988 -0.601683,0.971713 -1.606397,0.236236 -0.843402,-0.564271 -1.433327,-0.748328 -2.031624,-0.944941"
       id="path931"
       inkscape:connector-curvature="0"
       sodipodi:nodetypes="ccc" />
    <path
       style="fill:none;stroke:#000000;stroke-width:0.26458332px;stroke-linecap:butt;stroke-linejoin:miter;stroke-opacity:1"
       d="m 40.63244,56.464916 c -1.168135,0.111347 -2.40798,0.04342 -3.82701,-0.472469 -0.879871,-0.418705 -1.096571,-0.927843 -0.590587,-1.535528"
       id="path933"
       inkscape:connector-curvature="0"
       sodipodi:nodetypes="ccc" />
    <path
       style="fill:none;stroke:#000000;stroke-width:0.26458332px;stroke-linecap:butt;stroke-linejoin:miter;stroke-opacity:1"
       d="m 40.679687,57.787833 c -0.986249,0.0081 -1.97577,-0.0099 -3.023809,-0.496094 -1.175252,-0.534086 -1.00972,-0.934093 -0.968566,-1.346538"
       id="path935"
       inkscape:connector-curvature="0"
       sodipodi:nodetypes="ccc" />
    <path
       style="fill:none;stroke:#000000;stroke-width:0.26458332px;stroke-linecap:butt;stroke-linejoin:miter;stroke-opacity:1"
       d="m 37.632253,57.315364 c -0.220917,0.392632 -0.166437,1.08556 1.086683,1.535529 0.522552,0.278518 3.1475,0.352991 5.338914,0.236235 3.486841,-0.665205 8.008965,-0.454401 12.260601,-0.472472 4.637911,0.159188 10.110837,0.573519 10.417969,-0.590587"
       id="path937"
       inkscape:connector-curvature="0"
       sodipodi:nodetypes="ccccc" />
    <path
       style="fill:none;stroke:#000000;stroke-width:0.26458332px;stroke-linecap:butt;stroke-linejoin:miter;stroke-opacity:1"
       d="m 40.301711,53.488354 c 0.74605,0.02768 1.310199,0.41916 2.338726,-0.118115 -0.01086,-0.3497 -0.497379,-0.357178 -0.826823,-0.708708 -0.661457,-0.692955 -0.377977,-1.354414 0.566965,-1.275667 l 2.929316,0.968562 c 2.358428,0.417325 5.399926,-0.336328 8.150111,-0.590587 3.843165,-0.338301 8.175527,-1.15493 9.307664,1.157552"
       id="path939"
       inkscape:connector-curvature="0"
       sodipodi:nodetypes="ccccccc" />
    <path
       style="fill:none;stroke:#000000;stroke-width:0.26458332px;stroke-linecap:butt;stroke-linejoin:miter;stroke-opacity:1"
       d="m 60.937451,51.296257 c 1.117669,-2.551212 2.161446,-5.151685 4.009044,-7.216277"
       id="path941"
       inkscape:connector-curvature="0"
       sodipodi:nodetypes="cc" />
    <path
       style="fill:none;stroke:#000000;stroke-width:0.26458332px;stroke-linecap:butt;stroke-linejoin:miter;stroke-opacity:1"
       d="m 66.616928,39.870485 c -0.906988,1.08986 -1.679626,2.34094 -2.271789,3.80859 0.801808,0.952973 1.603617,1.473043 2.405425,1.670434"
       id="path943"
       inkscape:connector-curvature="0"
       sodipodi:nodetypes="ccc" />
    <path
       style="fill:none;stroke:#000000;stroke-width:0.26458332px;stroke-linecap:butt;stroke-linejoin:miter;stroke-opacity:1"
       d="m 60.712426,45.64535 c 0.306225,1.308487 0.554698,2.703603 1.346539,3.283667 -0.905568,0.508272 -1.811137,-0.758854 -2.716705,-1.393788"
       id="path945"
       inkscape:connector-curvature="0"
       sodipodi:nodetypes="ccc" />
    <path
       style="fill:none;stroke:#000000;stroke-width:0.26458332px;stroke-linecap:butt;stroke-linejoin:miter;stroke-opacity:1"
       d="m 37.136159,50.629909 c 0.454097,-2.613898 0.76215,-5.203455 1.937129,-7.9375"
       id="path947"
       inkscape:connector-curvature="0"
       sodipodi:nodetypes="cc" />
    <path
       style="fill:none;stroke:#000000;stroke-width:0.26458332px;stroke-linecap:butt;stroke-linejoin:miter;stroke-opacity:1"
       d="m 42.569569,45.196503 c -1.700893,-1.439731 -3.401787,-2.660697 -5.10268,-2.976563 1.718788,-2.728158 3.13004,-5.588117 3.96875,-8.693451 1.214535,-3.042531 3.810533,-3.232001 4.819197,-3.543528 l 4.960938,-1.464659"
       id="path949"
       inkscape:connector-curvature="0"
       sodipodi:nodetypes="ccccc" />
    <path
       style="fill:none;stroke:#000000;stroke-width:0.26458332px;stroke-linecap:butt;stroke-linejoin:miter;stroke-opacity:1"
       d="m 44.74293,31.069642 c -1.080114,1.758426 -1.238156,4.592605 -1.606399,7.181548"
       id="path951"
       inkscape:connector-curvature="0"
       sodipodi:nodetypes="cc" />
    <path
       style="fill:none;stroke:#000000;stroke-width:0.26458332px;stroke-linecap:butt;stroke-linejoin:miter;stroke-opacity:1"
       d="m 43.18378,39.243378 c 0.369381,2.495497 -0.326671,3.925562 -0.519718,5.858631 1.064096,-2.65267 2.033817,-5.399715 2.598587,-8.551711"
       id="path953"
       inkscape:connector-curvature="0"
       sodipodi:nodetypes="ccc" />
    <path
       style="fill:none;stroke:#000000;stroke-width:0.26458332px;stroke-linecap:butt;stroke-linejoin:miter;stroke-opacity:1"
       d="m 42.569569,44.960267 c -0.10256,2.14993 -0.317259,4.412 -0.18899,6.331101"
       id="path955"
       inkscape:connector-curvature="0"
       sodipodi:nodetypes="cc" />
    <path
       style="fill:none;stroke:#000000;stroke-width:0.26458332px;stroke-linecap:butt;stroke-linejoin:miter;stroke-opacity:1"
       d="m 51.829985,29.085267 -1.559152,3.732514 3.401785,-2.126115"
       id="path957"
       inkscape:connector-curvature="0" />
    <path
       style="fill:none;stroke:#000000;stroke-width:0.26458332px;stroke-linecap:butt;stroke-linejoin:miter;stroke-opacity:1"
       d="m 51.924479,29.604986 c 5.723582,3.295107 3.013671,3.17123 4.441219,4.724701 0.468568,-1.85145 1.89997,-2.499356 3.35454,-3.118302 2.101156,-0.457544 2.401572,-2.023236 2.929314,-3.449035 1.38565,-0.94494 2.833068,-1.889881 3.118305,-2.834821 -0.626911,-0.692956 -0.708946,-1.385913 -0.850448,-2.078869"
       id="path959"
       inkscape:connector-curvature="0"
       sodipodi:nodetypes="cccccc" />
    <path
       style="fill:none;stroke:#000000;stroke-width:0.26458332px;stroke-linecap:butt;stroke-linejoin:miter;stroke-opacity:1"
       d="M 56.318451,34.28244 C 53.57777,39.094177 53.052788,45.098982 53.578124,51.669343"
       id="path961"
       inkscape:connector-curvature="0"
       sodipodi:nodetypes="cc" />
    <path
       style="fill:none;stroke:#000000;stroke-width:0.26458332px;stroke-linecap:butt;stroke-linejoin:miter;stroke-opacity:1"
       d="m 48.617187,42.172694 c -0.416415,2.732854 -0.80543,5.515939 -0.850448,8.929687"
       id="path963"
       inkscape:connector-curvature="0"
       sodipodi:nodetypes="cc" />
    <path
       style="fill:none;stroke:#000000;stroke-width:0.26458332px;stroke-linecap:butt;stroke-linejoin:miter;stroke-opacity:1"
       d="m 49.562128,44.629538 c -0.403864,2.339842 -0.675296,4.767973 -0.330729,7.60677"
       id="path965"
       inkscape:connector-curvature="0"
       sodipodi:nodetypes="cc" />
    <path
       style="fill:none;stroke:#000000;stroke-width:0.26458332px;stroke-linecap:butt;stroke-linejoin:miter;stroke-opacity:1"
       d="m 62.607885,28.110627 c 0.745826,-0.0041 1.778517,-0.920956 1.603618,2.00452 0.329527,1.285841 0.701909,2.460259 1.469983,2.605879 0.29318,-0.999068 0.620111,-1.761874 1.00226,-2.138156"
       id="path967"
       inkscape:connector-curvature="0"
       sodipodi:nodetypes="cccc" />
    <path
       style="fill:none;stroke:#000000;stroke-width:0.26458332px;stroke-linecap:butt;stroke-linejoin:miter;stroke-opacity:1"
       d="m 62.941972,19.624818 1.002263,2.539061 c 0.870299,1.149139 1.606549,1.460471 1.77066,-1.80407 -0.533767,-0.831925 0.227464,-1.478851 0.902035,-2.138156 0.358916,-1.473392 0.408519,-2.534366 -0.03341,-2.939964 0.322051,-1.226193 0.573982,-2.388641 -0.06682,-2.739513 0.298022,-1.042651 0.330415,-2.04103 -0.434313,-2.9065563 -0.991125,-1.9145979 -1.982249,-0.7490644 -2.973374,-0.7349912 -1.258394,0.2628128 -2.422294,-0.088984 -3.775182,-0.1670434 -3.91409,0.221113 -2.558954,1.2861019 -2.305199,1.7706609 1.038736,2.38154 2.023636,4.009384 2.973373,5.144938 1.356726,5.844753 -2.125541,8.336418 -2.939965,8.920121 -2.29367,1.23321 -3.833854,0.523014 -5.044712,0 -3.018133,1.339035 -2.973018,-0.545603 -2.739513,-1.302939 0.957717,2.324269 3.508451,0.0091 3.975639,-0.434313"
       id="path969"
       inkscape:connector-curvature="0"
       sodipodi:nodetypes="ccccccccccccccc" />
    <path
       style="fill:none;stroke:#000000;stroke-width:0.26458332px;stroke-linecap:butt;stroke-linejoin:miter;stroke-opacity:1"
       d="m 50.580758,19.290731 c 0.368097,0.475886 0.904597,0.899146 -0.100227,1.80407 0.297386,0.287375 0.92603,0.51264 2.639287,0.534539 0.867617,0.265025 1.690334,0.571742 1.336347,1.971112 -0.826432,-0.474362 -1.415983,-1.027684 -4.042452,-0.902034 -0.801909,0.311882 -1.248569,0.38693 -1.804069,0.534539 -1.093604,-0.103187 -0.802784,-0.667849 -0.601356,-1.202713 0.818138,-0.613466 0.349575,-0.985676 -0.23386,-1.336348 -1.119108,-0.408347 -0.755085,-1.146278 -0.300678,-1.904295 0.596555,-0.786449 0.906773,-1.763789 0.968852,-2.906556"
       id="path971"
       inkscape:connector-curvature="0"
       sodipodi:nodetypes="cccccccccc" />
    <path
       style="fill:none;stroke:#000000;stroke-width:0.26458332px;stroke-linecap:butt;stroke-linejoin:miter;stroke-opacity:1"
       d="m 48.609644,20.292992 c 0.597595,0.02603 1.200063,0.04719 1.102487,0.7684"
       id="path973"
       inkscape:connector-curvature="0"
       sodipodi:nodetypes="cc" />
    <path
       style="fill:none;stroke:#000000;stroke-width:0.26458332px;stroke-linecap:butt;stroke-linejoin:miter;stroke-opacity:1"
       d="m 52.585278,18.589149 c 0.746128,0.725811 1.492255,1.189292 2.238383,1.469982"
       id="path975"
       inkscape:connector-curvature="0"
       sodipodi:nodetypes="cc" />
    <path
       style="fill:none;stroke:#000000;stroke-width:0.26458332px;stroke-linecap:butt;stroke-linejoin:miter;stroke-opacity:1"
       d="m 61.505398,16.885305 c 0.461205,-2.307614 2.334197,-1.68494 2.472246,0.734992 -0.113819,1.746234 -1.656961,2.818893 -2.271792,1.937704 0.432301,1.367744 0.368442,2.239329 0,2.80633 0.276541,1.111758 0.146482,1.816916 -0.467721,2.03793 -0.162447,0.553542 0.692747,1.615904 -1.069078,1.369757 -0.113132,0.610723 0.498825,1.946535 -1.169305,1.00226 -0.03316,0.988648 -0.108362,1.924749 -1.536799,1.169304 -0.476709,0.919619 -1.160932,1.216694 -2.171565,0.534539 -0.723855,0.741968 -1.44771,0.838622 -2.171565,0.06682 -0.594389,0.560798 -1.195684,1.294264 -1.703843,-0.300678 -0.998165,0.902632 -0.905774,-0.01233 -1.169305,-0.334087 -0.922787,0.747389 -1.269223,0.284441 -1.302939,-0.835218 -0.737884,0.489812 -1.346231,0.755092 -0.768399,-1.035669 -1.697769,-0.127693 -0.574236,-0.868712 -0.400905,-1.403165 -1.497536,-0.0293 -0.887875,-0.585408 -0.300678,-1.135895 -1.323836,-0.657038 -0.409526,-1.314075 -0.06682,-1.971113 -0.318612,-0.412487 -0.324321,-0.711192 0.334087,-0.7684"
       id="path977"
       inkscape:connector-curvature="0"
       sodipodi:nodetypes="cccccccccccccccccc" />
    <path
       style="fill:none;stroke:#000000;stroke-width:0.26458332px;stroke-linecap:butt;stroke-linejoin:miter;stroke-opacity:1"
       d="m 61.639034,16.150314 -5.57925,-1.703843"
       id="path979"
       inkscape:connector-curvature="0" />
    <path
       style="fill:none;stroke:#000000;stroke-width:0.26458332px;stroke-linecap:butt;stroke-linejoin:miter;stroke-opacity:1"
       d="m 55.692288,13.71148 0.668173,2.939965 -0.434313,0.734991 -4.309721,0.7684 -0.7684,-0.501131 -0.334087,-2.171565 0.567949,-0.701582 z"
       id="path981"
       inkscape:connector-curvature="0" />
    <path
       style="fill:none;stroke:#000000;stroke-width:0.26458332px;stroke-linecap:butt;stroke-linejoin:miter;stroke-opacity:1"
       d="m 50.647576,15.716001 -2.33861,0.200452 -0.501129,-0.434313 -1.837478,0.367496 -0.434314,0.267269 0.334087,2.204974 2.00452,-0.100226"
       id="path983"
       inkscape:connector-curvature="0" />
    <path
       style="fill:none;stroke:#000000;stroke-width:0.26458332px;stroke-linecap:butt;stroke-linejoin:miter;stroke-opacity:1"
       d="m 55.224566,13.009897 c 0.185328,-0.239113 0.22546,-0.507265 -0.03341,-0.835217 -1.45851,-0.0095 -2.935938,-0.113498 -4.309722,0.300678 -0.496104,0.97446 -0.215128,1.094132 0.167045,1.102487 1.337708,-0.623888 2.750338,-0.648392 4.176087,-0.567948 z"
       id="path985"
       inkscape:connector-curvature="0"
       sodipodi:nodetypes="ccccc" />
    <path
       style="fill:none;stroke:#000000;stroke-width:0.26458332px;stroke-linecap:butt;stroke-linejoin:miter;stroke-opacity:1"
       d="m 46.571714,14.312836 1.57021,-0.233861 -0.06682,-0.935443 -1.369756,0.06682"
       id="path987"
       inkscape:connector-curvature="0"
       sodipodi:nodetypes="cccc" />
    <path
       style="fill:none;stroke:#000000;stroke-width:0.26458332px;stroke-linecap:butt;stroke-linejoin:miter;stroke-opacity:1"
       d="M 46.538305,15.615775 C 45.478341,6.386696 58.090347,-0.72935483 64.178095,8.4997241"
       id="path989"
       inkscape:connector-curvature="0"
       sodipodi:nodetypes="cc" />
    <path
       style="fill:none;stroke:#000000;stroke-width:0.26458332px;stroke-linecap:butt;stroke-linejoin:miter;stroke-opacity:1"
       d="m 62.89186,16.768375 c -1.268071,0.947071 -0.622146,2.044055 -0.334086,2.037931 0.389398,0.01828 1.043071,-0.830448 -0.167042,-0.968853"
       id="path991"
       inkscape:connector-curvature="0"
       sodipodi:nodetypes="ccc" />
    <path
       style="fill:none;stroke:#000000;stroke-width:0.26458332px;stroke-linecap:butt;stroke-linejoin:miter;stroke-opacity:1"
       d="m 51.452009,15.360007 0.14174,0.425223 3.449032,0.04725"
       id="path993"
       inkscape:connector-curvature="0" />
    <path
       style="fill:none;stroke:#000000;stroke-width:0.26458332px;stroke-linecap:butt;stroke-linejoin:miter;stroke-opacity:1"
       d="m 54.664805,16.399442 c -0.914411,0.213412 -1.869066,0.394628 -2.480469,0.850446"
       id="path995"
       inkscape:connector-curvature="0"
       sodipodi:nodetypes="cc" />
    <path
       style="fill:none;stroke:#000000;stroke-width:0.26458332px;stroke-linecap:butt;stroke-linejoin:miter;stroke-opacity:1"
       d="m 52.302454,15.856101 c 0.03473,0.354353 -0.130928,0.708705 0.307107,1.063058"
       id="path997"
       inkscape:connector-curvature="0"
       sodipodi:nodetypes="cc" />
    <path
       style="fill:none;stroke:#000000;stroke-width:0.26458332px;stroke-linecap:butt;stroke-linejoin:miter;stroke-opacity:1"
       d="m 53.152902,15.856101 c 0.176927,0.23763 0.441385,0.446084 0.259858,0.803199"
       id="path999"
       inkscape:connector-curvature="0"
       sodipodi:nodetypes="cc" />
    <path
       style="fill:none;stroke:#000000;stroke-width:0.26458332px;stroke-linecap:butt;stroke-linejoin:miter;stroke-opacity:1"
       d="m 48.121093,16.6593 -1.157552,-0.165364 c 0.08246,0.571125 0.02294,1.284227 0.826823,1.133928"
       id="path1001"
       inkscape:connector-curvature="0"
       sodipodi:nodetypes="ccc" />
    <path
       style="fill:none;stroke:#000000;stroke-width:0.26458332px;stroke-linecap:butt;stroke-linejoin:miter;stroke-opacity:1"
       d="m 46.972619,20.025722 -6.013564,0.467722 c -6.530711,0.94414 -5.647052,7.466352 -5.078121,10.089426"
       id="path1003"
       inkscape:connector-curvature="0"
       sodipodi:nodetypes="ccc" />
    <path
       style="fill:none;stroke:#000000;stroke-width:0.26458332px;stroke-linecap:butt;stroke-linejoin:miter;stroke-opacity:1"
       d="M 37.751821,21.963427 C 37.256484,21.289142 36.415056,20.837344 34.67822,20.961166 l -8.352172,0.400904"
       id="path1005"
       inkscape:connector-curvature="0"
       sodipodi:nodetypes="ccc" />
    <path
       style="fill:none;stroke:#000000;stroke-width:0.26458332px;stroke-linecap:butt;stroke-linejoin:miter;stroke-opacity:1"
       d="m 28.537201,27.431621 c -0.743669,0.611373 -1.596102,0.968965 -1.984375,2.409598"
       id="path1007"
       inkscape:connector-curvature="0"
       sodipodi:nodetypes="cc" />
    <path
       style="fill:none;stroke:#000000;stroke-width:0.26458332px;stroke-linecap:butt;stroke-linejoin:miter;stroke-opacity:1"
       d="m 35.765996,33.384746 c 1.094368,1.903749 2.050515,2.425297 3.023809,3.118305"
       id="path1009"
       inkscape:connector-curvature="0"
       sodipodi:nodetypes="cc" />
    <path
       style="fill:none;stroke:#000000;stroke-width:0.26458332px;stroke-linecap:butt;stroke-linejoin:miter;stroke-opacity:1"
       d="m 34.773809,39.479614 c 1.193179,-1.367951 2.065543,0.151429 3.023809,0.897691"
       id="path1011"
       inkscape:connector-curvature="0"
       sodipodi:nodetypes="cc" />
    <path
       style="fill:none;stroke:#000000;stroke-width:0.26458332px;stroke-linecap:butt;stroke-linejoin:miter;stroke-opacity:1"
       d="m 33.592635,37.589732 c -1.324484,0.142935 -2.142324,1.172497 -2.976563,2.173362"
       id="path1013"
       inkscape:connector-curvature="0"
       sodipodi:nodetypes="cc" />
    <path
       style="fill:none;stroke:#000000;stroke-width:0.26458332px;stroke-linecap:butt;stroke-linejoin:miter;stroke-opacity:1"
       d="m 66.216024,34.458277 c -1.45408,2.250783 -4.14943,3.012043 -5.144937,5.813113"
       id="path1015"
       inkscape:connector-curvature="0"
       sodipodi:nodetypes="cc" />
    <path
       style="fill:none;stroke:#000000;stroke-width:0.26458332px;stroke-linecap:butt;stroke-linejoin:miter;stroke-opacity:1"
       d="m 41.813614,59.323363 c 0.03247,0.732341 -0.193478,1.76002 -1.039434,3.496279"
       id="path1017"
       inkscape:connector-curvature="0"
       sodipodi:nodetypes="cc" />
    <path
       style="fill:none;stroke:#000000;stroke-width:0.26458332px;stroke-linecap:butt;stroke-linejoin:miter;stroke-opacity:1"
       d="m 44.60119,60.032068 c -0.86376,2.87244 -4.659544,2.128414 -5.622395,5.008185"
       id="path1019"
       inkscape:connector-curvature="0"
       sodipodi:nodetypes="cc" />
    <path
       style="fill:none;stroke:#000000;stroke-width:0.26458332px;stroke-linecap:butt;stroke-linejoin:miter;stroke-opacity:1"
       d="m 43.703496,65.607218 c -1.7537,-0.813376 -3.526533,-1.444994 -5.527902,0.09449"
       id="path1021"
       inkscape:connector-curvature="0"
       sodipodi:nodetypes="cc" />
    <path
       style="fill:none;stroke:#000000;stroke-width:0.26458332px;stroke-linecap:butt;stroke-linejoin:miter;stroke-opacity:1"
       d="m 48.286458,59.937573 c -0.799857,2.763044 -3.573866,2.901199 -4.535715,4.91369"
       id="path1023"
       inkscape:connector-curvature="0"
       sodipodi:nodetypes="cc" />
    <path
       style="fill:none;stroke:#000000;stroke-width:0.26458332px;stroke-linecap:butt;stroke-linejoin:miter;stroke-opacity:1"
       d="m 52.916666,58.756398 c 0.0089,0.96069 0.03709,1.92138 -0.566965,2.88207 -2.440354,2.443701 -2.200855,2.922177 -2.929316,4.11049"
       id="path1025"
       inkscape:connector-curvature="0"
       sodipodi:nodetypes="ccc" />
    <path
       style="fill:none;stroke:#000000;stroke-width:0.26458332px;stroke-linecap:butt;stroke-linejoin:miter;stroke-opacity:1"
       d="m 50.932291,63.717336 c 0.613964,0.551265 0.667633,1.214589 0.661458,1.889882"
       id="path1027"
       inkscape:connector-curvature="0"
       sodipodi:nodetypes="cc" />
    <path
       style="fill:none;stroke:#000000;stroke-width:0.26458332px;stroke-linecap:butt;stroke-linejoin:miter;stroke-opacity:1"
       d="m 55.656993,61.496725 c -0.691354,1.575435 -1.543054,3.097421 -3.354539,4.299479"
       id="path1029"
       inkscape:connector-curvature="0"
       sodipodi:nodetypes="cc" />
    <path
       style="fill:none;stroke:#000000;stroke-width:0.26458332px;stroke-linecap:butt;stroke-linejoin:miter;stroke-opacity:1"
       d="m 61.090402,63.433853 c -0.26041,0.784081 -0.371125,1.62804 -1.228424,2.173365"
       id="path1031"
       inkscape:connector-curvature="0"
       sodipodi:nodetypes="cc" />
    <path
       style="fill:none;stroke:#000000;stroke-width:0.26458332px;stroke-linecap:butt;stroke-linejoin:miter;stroke-opacity:1"
       d="m 62.224329,62.819642 c -0.259889,0.948103 -0.16604,1.75471 -0.992187,2.929316"
       id="path1033"
       inkscape:connector-curvature="0"
       sodipodi:nodetypes="cc" />
    <path
       style="fill:none;stroke:#000000;stroke-width:0.26458332px;stroke-linecap:butt;stroke-linejoin:miter;stroke-opacity:1"
       d="M 0.80180856,21.562522 8.2853553,21.428887"
       id="path1035"
       inkscape:connector-curvature="0" />
    <path
       style="fill:none;stroke:#000000;stroke-width:0.26458332px;stroke-linecap:butt;stroke-linejoin:miter;stroke-opacity:1"
       d="m 4.7774428,10.90515 2.2049735,0.835217"
       id="path1037"
       inkscape:connector-curvature="0" />
    <path
       style="fill:none;stroke:#000000;stroke-width:0.26458332px;stroke-linecap:butt;stroke-linejoin:miter;stroke-opacity:1"
       d="M 5.5124339,9.9028892 C 6.2474251,9.3685124 6.9824164,9.2435297 7.7174076,10.303794"
       id="path1039"
       inkscape:connector-curvature="0"
       sodipodi:nodetypes="cc" />
    <path
       style="fill:none;stroke:#000000;stroke-width:0.26458332px;stroke-linecap:butt;stroke-linejoin:miter;stroke-opacity:1"
       d="m 4.6438079,12.041045 c 0.7633054,2.330545 1.4267471,1.665178 2.1047476,1.436574"
       id="path1041"
       inkscape:connector-curvature="0"
       sodipodi:nodetypes="cc" />
    <path
       style="fill:none;stroke:#000000;stroke-width:0.26458332px;stroke-linecap:butt;stroke-linejoin:miter;stroke-opacity:1"
       d="m 48.239211,10.753422 c 1.43316,0.419213 2.866319,-0.258286 4.299479,-0.519717"
       id="path1043"
       inkscape:connector-curvature="0"
       sodipodi:nodetypes="cc" />
    <path
       style="fill:none;stroke:#000000;stroke-width:0.26458332px;stroke-linecap:butt;stroke-linejoin:miter;stroke-opacity:1"
       d="m 48.664434,9.4777527 c 0.956982,0.4539308 1.706243,-0.1307431 2.55134,-0.2362351"
       id="path1045"
       inkscape:connector-curvature="0"
       sodipodi:nodetypes="cc" />
  </g>
</svg>
