<?xml version="1.0" encoding="UTF-8" standalone="no"?>
<!-- Created with Inkscape (http://www.inkscape.org/) -->

<svg
   xmlns:dc="http://purl.org/dc/elements/1.1/"
   xmlns:cc="http://creativecommons.org/ns#"
   xmlns:rdf="http://www.w3.org/1999/02/22-rdf-syntax-ns#"
   xmlns:svg="http://www.w3.org/2000/svg"
   xmlns="http://www.w3.org/2000/svg"
   xmlns:sodipodi="http://sodipodi.sourceforge.net/DTD/sodipodi-0.dtd"
   xmlns:inkscape="http://www.inkscape.org/namespaces/inkscape"
   width="256"
   height="256"
   viewBox="0 0 67.733332 67.733335"
   version="1.1"
   id="svg9313"
   inkscape:version="0.92.2 (5c3e80d, 2017-08-06)"
   sodipodi:docname="fig25.svg">
  <defs
     id="defs9307" />
  <sodipodi:namedview
     id="base"
     pagecolor="#ffffff"
     bordercolor="#666666"
     borderopacity="1.0"
     inkscape:pageopacity="0.0"
     inkscape:pageshadow="2"
     inkscape:zoom="2.8"
     inkscape:cx="106.29762"
     inkscape:cy="189.24848"
     inkscape:document-units="px"
     inkscape:current-layer="layer2"
     showgrid="false"
     units="px"
     showguides="true"
     inkscape:guide-bbox="true"
     inkscape:window-width="1366"
     inkscape:window-height="745"
     inkscape:window-x="-8"
     inkscape:window-y="-8"
     inkscape:window-maximized="1"
     inkscape:snap-global="false" />
  <metadata
     id="metadata9310">
    <rdf:RDF>
      <cc:Work
         rdf:about="">
        <dc:format>image/svg+xml</dc:format>
        <dc:type
           rdf:resource="http://purl.org/dc/dcmitype/StillImage" />
        <dc:title />
      </cc:Work>
    </rdf:RDF>
  </metadata>
  <g
     inkscape:groupmode="layer"
     id="layer2"
     inkscape:label="Capa 2">
    <path
       style="fill:none;stroke:#000000;stroke-width:0.26458332px;stroke-linecap:butt;stroke-linejoin:miter;stroke-opacity:1"
       d="M 64.01105,4.8581772 C 54.131388,1.2469885 53.414329,0.56621895 48.576235,3.2545602 c 0.222361,0.6459013 -0.285596,1.2918027 1.403164,1.937704 3.983594,-2.5883283 5.200875,-1.1373314 13.430295,1.7372518"
       id="path814"
       inkscape:connector-curvature="0"
       sodipodi:nodetypes="cccc" />
    <path
       style="fill:none;stroke:#000000;stroke-width:0.26458332px;stroke-linecap:butt;stroke-linejoin:miter;stroke-opacity:1"
       d="m 48.56994,3.2411461 c -1.64347,-0.112861 -2.703449,0.7645612 -3.590774,1.3229166 -0.437522,1.7102076 1.065304,3.9777898 3.779761,3.8742559 1.110704,-0.9852475 1.136438,-2.1061162 1.27567,-3.2127976"
       id="path816"
       inkscape:connector-curvature="0"
       sodipodi:nodetypes="cccc" />
    <path
       style="fill:none;stroke:#000000;stroke-width:0.26458332px;stroke-linecap:butt;stroke-linejoin:miter;stroke-opacity:1"
       d="m 45.026413,4.5168158 c -0.944941,-0.1208255 -1.672726,-0.062341 -2.768006,1.2451269 0.279089,2.6013717 1.799823,5.0380363 5.319346,5.1332213 1.437299,-1.4867586 1.024928,-1.894543 1.039434,-2.5513392"
       id="path818"
       inkscape:connector-curvature="0"
       sodipodi:nodetypes="cccc" />
    <path
       style="fill:none;stroke:#000000;stroke-width:0.26458332px;stroke-linecap:butt;stroke-linejoin:miter;stroke-opacity:1"
       d="M 44.182993,6.0775944 C 43.563179,6.3512207 43.10684,6.897306 42.612786,7.3805335"
       id="path820"
       inkscape:connector-curvature="0"
       sodipodi:nodetypes="cc" />
    <path
       style="fill:none;stroke:#000000;stroke-width:0.26458332px;stroke-linecap:butt;stroke-linejoin:miter;stroke-opacity:1"
       d="M 45.034914,8.0988203 43.832203,9.3850549"
       id="path822"
       inkscape:connector-curvature="0" />
    <path
       style="fill:none;stroke:#000000;stroke-width:0.26458332px;stroke-linecap:butt;stroke-linejoin:miter;stroke-opacity:1"
       d="M 46.93921,9.3349417 C 46.745267,9.8309743 46.310176,10.206433 45.853429,10.571063"
       id="path824"
       inkscape:connector-curvature="0"
       sodipodi:nodetypes="cc" />
    <path
       style="fill:none;stroke:#000000;stroke-width:0.26458332px;stroke-linecap:butt;stroke-linejoin:miter;stroke-opacity:1"
       d="m 45.640624,3.9970985 c -4.543995,-4.44176337 -13.033728,-1.3248176 -5.05543,8.0319935 6.44687,6.817737 14.932966,3.941267 9.02418,-4.1104905"
       id="path826"
       inkscape:connector-curvature="0"
       sodipodi:nodetypes="ccc" />
    <path
       style="fill:none;stroke:#000000;stroke-width:0.26458332px;stroke-linecap:butt;stroke-linejoin:miter;stroke-opacity:1"
       d="M 46.0186,3.7136165 C 44.846483,2.5052651 43.364295,1.6601638 42.38058,1.1622772"
       id="path828"
       inkscape:connector-curvature="0"
       sodipodi:nodetypes="cc" />
    <path
       style="fill:none;stroke:#000000;stroke-width:0.26458332px;stroke-linecap:butt;stroke-linejoin:miter;stroke-opacity:1"
       d="M 37.561382,0.92604203 C 31.496084,5.3813466 34.40149,9.7298572 38.789805,14.060714 43.72394,18.64984 49.0692,19.645392 51.310267,17.179018 53.783738,14.123794 52.597843,10.720059 49.798361,7.1626491"
       id="path830"
       inkscape:connector-curvature="0"
       sodipodi:nodetypes="cccc" />
    <path
       style="fill:none;stroke:#000000;stroke-width:0.26458332px;stroke-linecap:butt;stroke-linejoin:miter;stroke-opacity:1"
       d="M 32.316965,6.5484377 29.812871,9.194271"
       id="path832"
       inkscape:connector-curvature="0" />
    <path
       style="fill:none;stroke:#000000;stroke-width:0.26458332px;stroke-linecap:butt;stroke-linejoin:miter;stroke-opacity:1"
       d="m 27.497767,10.80067 -2.315104,2.22061"
       id="path834"
       inkscape:connector-curvature="0" />
    <path
       style="fill:none;stroke:#000000;stroke-width:0.26458332px;stroke-linecap:butt;stroke-linejoin:miter;stroke-opacity:1"
       d="m 31.372024,9.9974706 -1.13393,1.0394344"
       id="path836"
       inkscape:connector-curvature="0" />
    <path
       style="fill:none;stroke:#000000;stroke-width:0.26458332px;stroke-linecap:butt;stroke-linejoin:miter;stroke-opacity:1"
       d="m 33.828868,10.139212 -2.126115,2.126116"
       id="path838"
       inkscape:connector-curvature="0" />
    <path
       style="fill:none;stroke:#000000;stroke-width:0.26458332px;stroke-linecap:butt;stroke-linejoin:miter;stroke-opacity:1"
       d="m 36.758184,13.02128 -1.133928,1.228423"
       id="path840"
       inkscape:connector-curvature="0" />
    <path
       style="fill:none;stroke:#000000;stroke-width:0.26458332px;stroke-linecap:butt;stroke-linejoin:miter;stroke-opacity:1"
       d="m 39.120534,16.045089 -1.700892,1.984375"
       id="path842"
       inkscape:connector-curvature="0" />
    <path
       style="fill:none;stroke:#000000;stroke-width:0.26458332px;stroke-linecap:butt;stroke-linejoin:miter;stroke-opacity:1"
       d="m 39.545757,19.021652 -1.039434,0.94494"
       id="path844"
       inkscape:connector-curvature="0" />
    <path
       style="fill:none;stroke:#000000;stroke-width:0.26458332px;stroke-linecap:butt;stroke-linejoin:miter;stroke-opacity:1"
       d="m 42.569569,18.643676 -1.27567,1.653646"
       id="path846"
       inkscape:connector-curvature="0" />
    <path
       style="fill:none;stroke:#000000;stroke-width:0.26458332px;stroke-linecap:butt;stroke-linejoin:miter;stroke-opacity:1"
       d="M 48.239211,19.777604 46.16034,22.565178"
       id="path848"
       inkscape:connector-curvature="0" />
    <path
       style="fill:none;stroke:#000000;stroke-width:0.26458332px;stroke-linecap:butt;stroke-linejoin:miter;stroke-opacity:1"
       d="m 43.986979,22.234449 -1.322917,1.74814"
       id="path850"
       inkscape:connector-curvature="0" />
    <path
       style="fill:none;stroke:#000000;stroke-width:0.26458332px;stroke-linecap:butt;stroke-linejoin:miter;stroke-opacity:1"
       d="m 40.868674,26.108705 -1.322917,1.889881"
       id="path852"
       inkscape:connector-curvature="0" />
    <path
       style="fill:none;stroke:#000000;stroke-width:0.26458332px;stroke-linecap:butt;stroke-linejoin:miter;stroke-opacity:1"
       d="m 43.042038,28.09308 -2.315104,3.307291"
       id="path854"
       inkscape:connector-curvature="0" />
    <path
       style="fill:none;stroke:#000000;stroke-width:0.26458332px;stroke-linecap:butt;stroke-linejoin:miter;stroke-opacity:1"
       d="m 32.505951,20.486309 -0.850445,0.992188"
       id="path856"
       inkscape:connector-curvature="0" />
    <path
       style="fill:none;stroke:#000000;stroke-width:0.26458332px;stroke-linecap:butt;stroke-linejoin:miter;stroke-opacity:1"
       d="m 28.206472,21.100521 -1.181174,1.74814"
       id="path858"
       inkscape:connector-curvature="0" />
    <path
       style="fill:none;stroke:#000000;stroke-width:0.26458332px;stroke-linecap:butt;stroke-linejoin:miter;stroke-opacity:1"
       d="m 25.22991,27.95134 -0.897693,1.322916"
       id="path860"
       inkscape:connector-curvature="0" />
    <path
       style="fill:none;stroke:#000000;stroke-width:0.26458332px;stroke-linecap:butt;stroke-linejoin:miter;stroke-opacity:1"
       d="M 31.135788,28.660045 29.907365,30.31369"
       id="path862"
       inkscape:connector-curvature="0" />
    <path
       style="fill:none;stroke:#000000;stroke-width:0.26458332px;stroke-linecap:butt;stroke-linejoin:miter;stroke-opacity:1"
       d="m 36.096725,37.211756 -0.755951,1.228421"
       id="path864"
       inkscape:connector-curvature="0" />
    <path
       style="fill:none;stroke:#000000;stroke-width:0.26458332px;stroke-linecap:butt;stroke-linejoin:miter;stroke-opacity:1"
       d="m 31.75,37.495239 -0.708705,1.55915"
       id="path866"
       inkscape:connector-curvature="0" />
    <path
       style="fill:none;stroke:#000000;stroke-width:0.26458332px;stroke-linecap:butt;stroke-linejoin:miter;stroke-opacity:1"
       d="m 22.06436,43.968079 1.228422,3.02381"
       id="path868"
       inkscape:connector-curvature="0" />
    <path
       style="fill:none;stroke:#000000;stroke-width:0.26458332px;stroke-linecap:butt;stroke-linejoin:miter;stroke-opacity:1"
       d="m 14.882812,16.848289 c -0.02658,-1.031812 0.553198,-1.608849 1.27567,-2.078869 -0.506936,0.801252 0.370756,3.416023 2.598586,-0.236235 1.914904,1.08948 2.848974,0.217292 3.779762,-0.661459 1.479919,0.915816 2.957043,1.785046 4.252232,-0.377976 3.74187,1.231863 2.244014,-0.277053 2.173364,-1.039434 1.960577,-0.158366 2.602058,0.507702 2.551338,1.606398 1.15919,0.155249 2.149277,0.541902 2.126117,2.315104 3.014248,0.37943 2.312742,1.670272 2.126115,2.834822 0.367961,0.380843 0.236152,0.511801 1.27567,1.228423 -0.271641,1.88083 0.642148,1.729496 1.181174,2.22061 0.157571,1.133098 -0.770503,0.988963 -1.653646,0.897693 -1.894559,-2.36315 -2.475316,-4.924821 -5.008182,-7.06343 -1.191625,-0.41547 -1.969325,-0.182968 -0.614211,0.661459 1.078886,1.571809 0.760387,2.866491 -0.87407,2.126116 0.29676,-1.540152 -0.464484,-1.688193 -1.346541,-1.67727 0.261511,-1.653111 -0.821406,-1.4118 -1.913504,-1.157552 0.715732,1.050442 -0.264059,1.616448 -0.779576,2.315104 -0.213188,1.297725 0.637293,0.64539 1.110305,0.685082 -0.310684,0.596259 -2.747632,2.793528 -2.102492,-1.700893 -1.054732,0.604492 -2.435711,0.745371 -2.362352,2.952939 0.217695,1.167969 0.03438,2.135434 -1.252046,2.55134 1.597865,0.77146 0.961753,2.130809 0.212612,3.519903 2.446632,1.143895 1.438306,2.168653 0.307106,3.189174 1.588104,1.716883 1.013955,2.152431 1.015811,2.929316 -0.603537,-0.916242 -1.125241,-1.914318 -2.14974,-2.409599 -0.08127,-0.843181 0.884284,-1.651468 -0.897694,-2.551339 0.103751,-1.105752 0.160326,-2.098279 -0.04725,-2.456845 -0.354353,-0.11573 -0.708705,-0.332658 -1.063058,-1.441034 -0.167805,1.323832 -1.23035,2.983191 0.448847,3.614397 -0.330282,1.165695 -1.314721,1.938896 0.425223,4.346726 -0.167143,0.992188 -0.53917,1.984375 0.685082,2.976563 0.337523,1.553725 -0.0172,2.5141 -0.07087,3.732514 -0.412144,-1.89102 -1.063677,-3.395335 -2.291481,-3.96875 -0.325002,-1.078448 -0.05904,-1.713675 0.09449,-2.433221 -1.00431,-1.006205 -1.635661,-2.06569 -1.322917,-3.260045 -0.44813,0.82167 -1.067052,1.370072 -0.921317,3.141927 0.843892,0.771701 0.903003,1.543403 -0.141741,2.315104 0.438934,1.128092 1.436613,1.69744 0.968564,3.732515 0.610935,1.878674 1.427879,1.491252 2.22061,1.370164 -0.544008,0.635826 -1.335557,1.899194 -2.952932,0 C 15.544488,38.51124 15.81147,38.009567 15.875,37.329874 15.190687,36.258363 13.766963,36.93809 14.150484,33.3375 13.249739,31.518477 13.372044,30.277699 13.914248,29.274256"
       id="path870"
       inkscape:connector-curvature="0"
       sodipodi:nodetypes="cccccccccccccccccccccccccccccccccccccccccccc" />
    <path
       style="fill:none;stroke:#000000;stroke-width:0.26458332px;stroke-linecap:butt;stroke-linejoin:miter;stroke-opacity:1"
       d="m 15.497023,16.942783 c -1.321892,-0.0047 -2.561198,0.118585 -2.645833,2.031622 -2.569743,0.07052 -2.676997,1.926346 -2.787574,3.779762 -1.5067484,1.674224 -1.6105068,0.377409 -2.1261161,-0.04725 0.064301,0.787015 -0.3509873,1.733894 0.7559524,2.173363 -1.7254799,1.373768 -1.4713111,2.276191 -0.5669642,3.02381 0.9067339,-2.171319 1.5355411,-0.779641 1.2756694,0.708705 -1.3406418,2.371213 -0.6157125,3.709641 0,5.102677 -1.1651074,0.951047 -1.7062655,1.867431 -0.6142111,2.69308 0.4240876,-1.767367 3.1983346,-0.828836 0.8504462,2.126118 -1.6599184,0.998914 -1.2462951,1.763323 -0.8031993,2.929316"
       id="path872"
       inkscape:connector-curvature="0"
       sodipodi:nodetypes="ccccccccccc" />
    <path
       style="fill:none;stroke:#000000;stroke-width:0.26458332px;stroke-linecap:butt;stroke-linejoin:miter;stroke-opacity:1"
       d="m 35.458892,22.210826 c -1.084637,0.138369 -2.149197,0.166316 -3.354539,0.968564 0.456345,1.262588 0.37612,2.584794 1.866257,3.732516 0.709284,0.873579 3.085075,0.337038 2.126115,2.622208 0.863251,-0.949961 0.980846,0.05026 1.039434,1.204799"
       id="path874"
       inkscape:connector-curvature="0"
       sodipodi:nodetypes="ccccc" />
    <path
       style="fill:none;stroke:#000000;stroke-width:0.26458332px;stroke-linecap:butt;stroke-linejoin:miter;stroke-opacity:1"
       d="m 36.025854,22.966778 c -1.329685,0.067 -2.641073,0.174261 -3.661643,0.921317"
       id="path876"
       inkscape:connector-curvature="0"
       sodipodi:nodetypes="cc" />
    <path
       style="fill:none;stroke:#000000;stroke-width:0.26458332px;stroke-linecap:butt;stroke-linejoin:miter;stroke-opacity:1"
       d="m 36.521948,25.352753 c -0.740165,0.58085 -1.630273,0.749356 -2.622209,0.637835"
       id="path878"
       inkscape:connector-curvature="0"
       sodipodi:nodetypes="cc" />
    <path
       style="fill:none;stroke:#000000;stroke-width:0.26458332px;stroke-linecap:butt;stroke-linejoin:miter;stroke-opacity:1"
       d="m 29.505767,25.588988 c 0.332057,0.38408 0.54095,0.93238 0.496093,1.819011 -1.037627,0.436712 -2.114967,0.794001 -3.401787,0.732327"
       id="path880"
       inkscape:connector-curvature="0"
       sodipodi:nodetypes="ccc" />
    <path
       style="fill:none;stroke:#000000;stroke-width:0.26458332px;stroke-linecap:butt;stroke-linejoin:miter;stroke-opacity:1"
       d="m 29.340402,24.644048 c -1.659809,0.200923 -3.276893,0.334705 -5.362538,1.204799 1.054402,-0.994033 2.275034,-2.112846 5.126302,-2.126116 0.350657,0.273117 0.388863,0.58529 0.236236,0.921317 z"
       id="path882"
       inkscape:connector-curvature="0"
       sodipodi:nodetypes="cccc" />
    <path
       style="fill:none;stroke:#000000;stroke-width:0.26458332px;stroke-linecap:butt;stroke-linejoin:miter;stroke-opacity:1"
       d="m 32.505952,29.817596 c -0.763374,0.277206 -1.415768,1.278272 -0.02363,1.889882"
       id="path884"
       inkscape:connector-curvature="0"
       sodipodi:nodetypes="cc" />
    <path
       style="fill:none;stroke:#000000;stroke-width:0.26458332px;stroke-linecap:butt;stroke-linejoin:miter;stroke-opacity:1"
       d="m 34.513951,29.888468 c -0.696415,-0.04117 -0.793008,0.656769 -0.992187,1.299293 0.357091,0.03521 0.50261,0.04082 0.496092,-0.590589"
       id="path886"
       inkscape:connector-curvature="0"
       sodipodi:nodetypes="ccc" />
    <path
       style="fill:none;stroke:#000000;stroke-width:0.26458332px;stroke-linecap:butt;stroke-linejoin:miter;stroke-opacity:1"
       d="m 36.427455,29.817597 c 0.07517,0.268926 0.29792,0.488655 0.02362,0.874069 -0.269819,0.115473 -0.405806,0.03976 -0.236236,-0.472469"
       id="path888"
       inkscape:connector-curvature="0"
       sodipodi:nodetypes="ccc" />
    <path
       style="fill:none;stroke:#000000;stroke-width:0.26458332px;stroke-linecap:butt;stroke-linejoin:miter;stroke-opacity:1"
       d="m 36.521948,23.462872 c 0.537119,4.492915 5.100847,7.792351 1.700892,14.12686"
       id="path890"
       inkscape:connector-curvature="0"
       sodipodi:nodetypes="cc" />
    <path
       style="fill:none;stroke:#000000;stroke-width:0.26458332px;stroke-linecap:butt;stroke-linejoin:miter;stroke-opacity:1"
       d="m 37.277902,36.314062 c 1.419579,1.225408 0.696766,4.058645 -1.086682,4.204984 -2.829505,0.202278 -7.821026,2.289253 -8.55171,0.0945"
       id="path892"
       inkscape:connector-curvature="0"
       sodipodi:nodetypes="ccc" />
    <path
       style="fill:none;stroke:#000000;stroke-width:0.26458332px;stroke-linecap:butt;stroke-linejoin:miter;stroke-opacity:1"
       d="m 36.521948,33.644604 c -0.523288,0.206844 -0.950189,-0.06825 -1.41741,-0.14174 -0.576602,0.658632 -1.203601,0.561297 -1.842633,0.283483 -1.210463,1.165224 -2.601968,1.379975 -4.063245,1.228423"
       id="path894"
       inkscape:connector-curvature="0"
       sodipodi:nodetypes="cccc" />
    <path
       style="fill:none;stroke:#000000;stroke-width:0.26458332px;stroke-linecap:butt;stroke-linejoin:miter;stroke-opacity:1"
       d="m 36.569197,34.495052 c -0.889076,1.469802 -2.576388,1.642471 -4.464844,1.488281"
       id="path896"
       inkscape:connector-curvature="0"
       sodipodi:nodetypes="cc" />
    <path
       style="fill:none;stroke:#000000;stroke-width:0.26458332px;stroke-linecap:butt;stroke-linejoin:miter;stroke-opacity:1"
       d="m 29.245906,34.28244 c 0.02774,0.530843 0.0575,1.061349 -0.28348,1.653646"
       id="path898"
       inkscape:connector-curvature="0"
       sodipodi:nodetypes="cc" />
    <path
       style="fill:none;stroke:#000000;stroke-width:0.26458332px;stroke-linecap:butt;stroke-linejoin:miter;stroke-opacity:1"
       d="m 23.252448,16.350767 c -1.133,-0.687664 -2.040525,-0.435847 -2.639286,1.102487 -1.904696,-0.134035 -2.803476,0.737844 -3.107008,2.204973 0.117699,1.050454 -0.546533,1.439275 -2.739513,0.534539 0.940115,0.76552 1.560273,2.490913 3.240643,1.035669 0.699495,-0.871778 0.574842,-2.470746 2.639287,-2.138156"
       id="path900"
       inkscape:connector-curvature="0"
       sodipodi:nodetypes="cccccc" />
    <path
       style="fill:none;stroke:#000000;stroke-width:0.26458332px;stroke-linecap:butt;stroke-linejoin:miter;stroke-opacity:1"
       d="m 14.098467,19.424366 c -0.552977,0.297211 -0.939244,0.927842 -1.135895,1.937704 -1.673213,-0.465945 -1.518003,0.564091 -1.26953,1.670435 -0.08277,2.637778 -0.621003,1.973447 -1.03567,2.204973"
       id="path902"
       inkscape:connector-curvature="0"
       sodipodi:nodetypes="cccc" />
    <path
       style="fill:none;stroke:#000000;stroke-width:0.26458332px;stroke-linecap:butt;stroke-linejoin:miter;stroke-opacity:1"
       d="m 14.432554,22.665009 c -1.114835,0.271512 -0.985291,1.567807 -0.601356,3.0736 0.154705,1.529829 -0.983562,1.55119 -1.837478,1.904295 1.081778,0.575671 2.102768,0.634644 3.006782,-0.300677"
       id="path904"
       inkscape:connector-curvature="0"
       sodipodi:nodetypes="cccc" />
    <path
       style="fill:none;stroke:#000000;stroke-width:0.26458332px;stroke-linecap:butt;stroke-linejoin:miter;stroke-opacity:1"
       d="m 16.136398,23.633861 c -0.102736,0.878508 -0.16253,1.778486 0.434312,3.006783"
       id="path906"
       inkscape:connector-curvature="0"
       sodipodi:nodetypes="cc" />
    <path
       style="fill:none;stroke:#000000;stroke-width:0.26458332px;stroke-linecap:butt;stroke-linejoin:miter;stroke-opacity:1"
       d="m 11.325546,28.611756 c -1.3658089,1.382866 0.907731,3.115424 -1.403165,3.942225"
       id="path908"
       inkscape:connector-curvature="0"
       sodipodi:nodetypes="cc" />
    <path
       style="fill:none;stroke:#000000;stroke-width:0.26458332px;stroke-linecap:butt;stroke-linejoin:miter;stroke-opacity:1"
       d="m 13.53052,32.286712 c -1.172361,0.489997 -1.315065,5.876821 2.171565,5.646068"
       id="path910"
       inkscape:connector-curvature="0"
       sodipodi:nodetypes="cc" />
    <path
       style="fill:none;stroke:#000000;stroke-width:0.26458332px;stroke-linecap:butt;stroke-linejoin:miter;stroke-opacity:1"
       d="m 11.960311,36.997338 c 0.290979,1.799399 -1.374224,1.608943 -1.102487,3.207234"
       id="path912"
       inkscape:connector-curvature="0"
       sodipodi:nodetypes="cc" />
    <path
       style="fill:none;stroke:#000000;stroke-width:0.26458332px;stroke-linecap:butt;stroke-linejoin:miter;stroke-opacity:1"
       d="m 15.835719,39.703441 c -0.611431,0.06116 -1.058675,0.395971 -1.403165,0.902036 0.314125,0.749505 0.63406,1.423468 1.03567,1.035669 -0.342514,0.823539 -0.508949,1.611863 0.467721,2.171565 0.391078,1.168125 -0.243748,1.515526 -0.701582,2.00452 0.688223,0.0011 1.483636,0.618617 1.837478,-1.302938 -0.323429,-0.690446 -0.712496,-1.380892 -0.434313,-2.071338"
       id="path914"
       inkscape:connector-curvature="0"
       sodipodi:nodetypes="ccccccc" />
    <path
       style="fill:none;stroke:#000000;stroke-width:0.26458332px;stroke-linecap:butt;stroke-linejoin:miter;stroke-opacity:1"
       d="m 18.040693,40.572068 c 0.07796,1.024533 1.458691,7.417577 -2.372017,9.187389"
       id="path916"
       inkscape:connector-curvature="0"
       sodipodi:nodetypes="cc" />
    <path
       style="fill:none;stroke:#000000;stroke-width:0.26458332px;stroke-linecap:butt;stroke-linejoin:miter;stroke-opacity:1"
       d="m 26.392865,43.077719 c -1.50045,0.16964 -4.576944,0.259501 -6.414468,-2.204973"
       id="path918"
       inkscape:connector-curvature="0"
       sodipodi:nodetypes="cc" />
    <path
       style="fill:none;stroke:#000000;stroke-width:0.26458332px;stroke-linecap:butt;stroke-linejoin:miter;stroke-opacity:1"
       d="m 20.546344,44.113389 c 0.816329,2.216392 2.573802,4.511212 4.443356,6.815372"
       id="path920"
       inkscape:connector-curvature="0"
       sodipodi:nodetypes="cc" />
    <path
       style="fill:none;stroke:#000000;stroke-width:0.26458332px;stroke-linecap:butt;stroke-linejoin:miter;stroke-opacity:1"
       d="m 32.10575,43.545442 -2.171565,7.617179"
       id="path922"
       inkscape:connector-curvature="0" />
    <path
       style="fill:none;stroke:#000000;stroke-width:0.26458332px;stroke-linecap:butt;stroke-linejoin:miter;stroke-opacity:1"
       d="m 34.945489,40.805928 c -1.264018,1.081098 -2.997425,5.540323 0.567949,8.051495 1.475668,1.172754 4.287545,1.039166 4.276312,3.173825"
       id="path924"
       inkscape:connector-curvature="0"
       sodipodi:nodetypes="ccc" />
    <path
       style="fill:none;stroke:#000000;stroke-width:0.26458332px;stroke-linecap:butt;stroke-linejoin:miter;stroke-opacity:1"
       d="m 35.480029,48.824014 c 0.618247,-0.604816 1.964078,-0.802185 0.501132,-2.572469 -0.808867,-1.363772 0.235386,-1.977822 0.768397,-0.835218 0.337976,2.362827 1.357009,2.920854 3.474506,0.567949 -1.403191,0.43774 -2.430593,0.336304 -1.804069,-2.138156 -0.585946,-1.156933 -0.950978,-1.098842 -1.369756,-1.33635 0.879895,-1.388064 0.417092,-1.921683 0.400902,-2.739511"
       id="path926"
       inkscape:connector-curvature="0"
       sodipodi:nodetypes="ccccccc" />
    <path
       style="fill:none;stroke:#000000;stroke-width:0.26458332px;stroke-linecap:butt;stroke-linejoin:miter;stroke-opacity:1"
       d="m 26.125596,31.251043 c -0.698467,0.282755 -0.793742,1.075903 -0.334087,2.338607 -0.05776,0.378632 0.343084,0.757264 -0.200452,1.135896 0.512082,0.864874 1.093523,0.131118 1.069079,-0.634764 -0.487681,-1.03943 -0.921359,-2.062659 -0.53454,-2.839739 z"
       id="path928"
       inkscape:connector-curvature="0"
       sodipodi:nodetypes="ccccc" />
    <path
       style="fill:none;stroke:#000000;stroke-width:0.26458332px;stroke-linecap:butt;stroke-linejoin:miter;stroke-opacity:1"
       d="m 25.190153,38.868225 c 0.01365,0.902263 -0.497182,1.756846 0.400904,2.739512 0.451168,0.607477 1.20856,0.249732 0.801808,-0.200454 -1.070539,-0.913316 -0.952769,-1.707801 -1.202712,-2.539058 z"
       id="path930"
       inkscape:connector-curvature="0"
       sodipodi:nodetypes="cccc" />
    <path
       style="fill:none;stroke:#000000;stroke-width:0.26458332px;stroke-linecap:butt;stroke-linejoin:miter;stroke-opacity:1"
       d="m 29.850664,42.593294 c -0.08903,0.629221 -0.241319,1.231334 -0.03341,1.987817 0.117914,0.575476 1.113029,0.588005 0.868627,-0.03341 -0.305332,-0.634765 -0.578699,-1.302938 -0.835217,-1.954407 z"
       id="path932"
       inkscape:connector-curvature="0"
       sodipodi:nodetypes="cccc" />
    <path
       style="fill:none;stroke:#000000;stroke-width:0.26458332px;stroke-linecap:butt;stroke-linejoin:miter;stroke-opacity:1"
       d="m 35.880934,50.694902 c -1.127052,0.216173 -2.284425,0.492987 -3.674957,1.23612"
       id="path934"
       inkscape:connector-curvature="0"
       sodipodi:nodetypes="cc" />
    <path
       style="fill:none;stroke:#000000;stroke-width:0.26458332px;stroke-linecap:butt;stroke-linejoin:miter;stroke-opacity:1"
       d="m 30.669177,53.100327 c -0.770645,1.798425 -2.08431,1.334264 -3.374276,0.968851"
       id="path936"
       inkscape:connector-curvature="0"
       sodipodi:nodetypes="cc" />
    <path
       style="fill:none;stroke:#000000;stroke-width:0.26458332px;stroke-linecap:butt;stroke-linejoin:miter;stroke-opacity:1"
       d="M 25.089927,53.300777 C 23.48631,53.506728 21.882692,53.78923 20.279075,53.133735"
       id="path938"
       inkscape:connector-curvature="0"
       sodipodi:nodetypes="cc" />
    <path
       style="fill:none;stroke:#000000;stroke-width:0.26458332px;stroke-linecap:butt;stroke-linejoin:miter;stroke-opacity:1"
       d="m 20.345892,54.670533 c 0.143974,1.459149 0.889074,1.640904 1.737252,1.603619 -0.297093,2.195047 0.770279,2.025021 1.770661,1.971111 0.492224,0.242762 0.776696,1.039532 0.734991,2.706106 0.202451,1.306423 1.545607,0.918774 1.202713,-0.267269 l -0.50113,-1.57021 c -0.227026,-0.782274 -0.171029,-1.298173 1.102486,-0.668173 -0.05385,-1.201963 0.515889,-1.067678 1.069078,-0.968851 0.522235,-0.582602 0.497777,-1.074088 0.501131,-1.57021"
       id="path940"
       inkscape:connector-curvature="0"
       sodipodi:nodetypes="ccccccccc" />
    <path
       style="fill:none;stroke:#000000;stroke-width:0.26458332px;stroke-linecap:butt;stroke-linejoin:miter;stroke-opacity:1"
       d="m 23.419492,55.138256 c -0.105655,2.024176 1.078876,0.850102 0.968852,2.472243"
       id="path942"
       inkscape:connector-curvature="0"
       sodipodi:nodetypes="cc" />
    <path
       style="fill:none;stroke:#000000;stroke-width:0.26458332px;stroke-linecap:butt;stroke-linejoin:miter;stroke-opacity:1"
       d="m 34.477769,53.668273 -0.367496,2.672697 c -0.189783,0.70922 0.733148,0.843669 0.935443,0.03341 0.180193,-0.975937 -0.353328,-1.809132 -0.567947,-2.706107 z"
       id="path944"
       inkscape:connector-curvature="0"
       sodipodi:nodetypes="cccc" />
    <path
       style="fill:none;stroke:#000000;stroke-width:0.26458332px;stroke-linecap:butt;stroke-linejoin:miter;stroke-opacity:1"
       d="M 22.725818,65.607218 C 21.038077,60.623955 18.61263,56.009545 15.922247,51.527604"
       id="path883"
       inkscape:connector-curvature="0"
       sodipodi:nodetypes="cc" />
    <path
       style="fill:none;stroke:#000000;stroke-width:0.26458332px;stroke-linecap:butt;stroke-linejoin:miter;stroke-opacity:1"
       d="m 15.063202,51.991968 1.000786,-0.936834 c 0.528161,-0.539106 -0.258901,-1.032519 -0.661459,-1.27567"
       id="path885"
       inkscape:connector-curvature="0"
       sodipodi:nodetypes="ccc" />
    <path
       style="fill:none;stroke:#000000;stroke-width:0.26458332px;stroke-linecap:butt;stroke-linejoin:miter;stroke-opacity:1"
       d="m 14.454723,51.191633 c 0.909437,-0.839498 1.156017,-1.712139 0.286348,-2.640592 -1.222023,-1.257951 -1.995616,-2.157158 -2.551339,-2.882069 -0.293665,-0.604572 -0.52434,-1.171349 -0.377976,-1.511903 -0.02719,-1.203573 0.14374,-1.746728 0.236235,-2.55134"
       id="path887"
       inkscape:connector-curvature="0"
       sodipodi:nodetypes="ccccc" />
    <path
       style="fill:none;stroke:#000000;stroke-width:0.26458332px;stroke-linecap:butt;stroke-linejoin:miter;stroke-opacity:1"
       d="m 12.010424,42.526476 0.718287,0.684877 c 0.577511,0.616868 1.459675,-0.02774 0.785104,-1.286233 l -0.618061,-1.119192 c -0.775969,-1.00982 -1.940077,0.07665 -2.121451,0.334086 l -0.9354438,2.505652"
       id="path889"
       inkscape:connector-curvature="0"
       sodipodi:nodetypes="cccccc" />
    <path
       style="fill:none;stroke:#000000;stroke-width:0.26458332px;stroke-linecap:butt;stroke-linejoin:miter;stroke-opacity:1"
       d="M 10.924642,40.722407 C 10.415783,40.439551 9.5549192,40.433977 8.9201203,41.941824 L 8.0013814,44.698041"
       id="path891"
       inkscape:connector-curvature="0"
       sodipodi:nodetypes="ccc" />
    <path
       style="fill:none;stroke:#000000;stroke-width:0.26458332px;stroke-linecap:butt;stroke-linejoin:miter;stroke-opacity:1"
       d="M 9.0871637,41.423989 C 8.4482091,41.25198 7.3430883,41.848868 6.9991207,43.261467 l -0.8018086,2.555764"
       id="path893"
       inkscape:connector-curvature="0"
       sodipodi:nodetypes="ccc" />
    <path
       style="fill:none;stroke:#000000;stroke-width:0.26458332px;stroke-linecap:butt;stroke-linejoin:miter;stroke-opacity:1"
       d="m 6.9657119,43.27817 c -0.7806487,0.05707 -1.1821789,-0.0044 -1.553504,0.968854 -0.2388352,0.882013 -0.6059167,1.678529 -0.6013564,2.722806 -0.016601,1.047369 0.3786441,2.115329 1.2528259,3.207237"
       id="path895"
       inkscape:connector-curvature="0"
       sodipodi:nodetypes="cccc" />
    <path
       style="fill:none;stroke:#000000;stroke-width:0.26458332px;stroke-linecap:butt;stroke-linejoin:miter;stroke-opacity:1"
       d="m 4.7106253,47.320622 c -0.5286522,0.520897 -1.2626455,1.275554 -0.7516956,2.706103 0.6970955,1.554826 4.4925493,3.370829 6.9155993,2.722809"
       id="path897"
       inkscape:connector-curvature="0"
       sodipodi:nodetypes="ccc" />
    <path
       style="fill:none;stroke:#000000;stroke-width:0.26458332px;stroke-linecap:butt;stroke-linejoin:miter;stroke-opacity:1"
       d="M 11.559407,54.169405 C 10.234899,53.790773 9.6294084,53.412141 9.18739,53.033509 3.637485,56.703961 5.2705942,62.572034 6.7151469,65.494951"
       id="path899"
       inkscape:connector-curvature="0"
       sodipodi:nodetypes="ccc" />
    <path
       style="fill:none;stroke:#000000;stroke-width:0.26458332px;stroke-linecap:butt;stroke-linejoin:miter;stroke-opacity:1"
       d="m 10.323285,53.801909 c 1.408827,2.606634 2.205356,7.540003 3.207235,11.693041"
       id="path901"
       inkscape:connector-curvature="0"
       sodipodi:nodetypes="cc" />
    <path
       style="fill:none;stroke:#000000;stroke-width:0.26458332px;stroke-linecap:butt;stroke-linejoin:miter;stroke-opacity:1"
       d="m 7.9512683,55.77302 c -0.3901401,0.93141 -0.7676815,1.991782 0,3.808593 -0.1756535,1.046805 -0.2780294,2.093611 -0.100226,3.140416 0.3842462,1.322544 1.5708317,0.675301 1.2027127,0.03341 C 8.8080058,62.283277 8.4645102,61.490014 8.5526247,60.283196 8.2660097,57.166793 7.4750437,59.276639 7.9512683,55.77302 Z"
       id="path903"
       inkscape:connector-curvature="0"
       sodipodi:nodetypes="cccccc" />
    <path
       style="fill:none;stroke:#000000;stroke-width:0.26458332px;stroke-linecap:butt;stroke-linejoin:miter;stroke-opacity:1"
       d="m 14.065059,55.839838 0.835217,1.503392"
       id="path905"
       inkscape:connector-curvature="0" />
    <path
       style="fill:none;stroke:#000000;stroke-width:0.26458332px;stroke-linecap:butt;stroke-linejoin:miter;stroke-opacity:1"
       d="m 16.002763,58.278672 1.00226,3.040192"
       id="path907"
       inkscape:connector-curvature="0" />
    <path
       style="fill:none;stroke:#000000;stroke-width:0.26458332px;stroke-linecap:butt;stroke-linejoin:miter;stroke-opacity:1"
       d="m 39.404017,50.582663 c 0.972178,-0.175667 2.068258,-0.655457 1.700892,2.456846"
       id="path909"
       inkscape:connector-curvature="0"
       sodipodi:nodetypes="cc" />
    <path
       style="fill:none;stroke:#000000;stroke-width:0.26458332px;stroke-linecap:butt;stroke-linejoin:miter;stroke-opacity:1"
       d="m 41.010416,50.866145 c 8.125934,-1.590987 8.588003,11.595877 9.21317,14.741073"
       id="path911"
       inkscape:connector-curvature="0"
       sodipodi:nodetypes="cc" />
    <path
       style="fill:none;stroke:#000000;stroke-width:0.26458332px;stroke-linecap:butt;stroke-linejoin:miter;stroke-opacity:1"
       d="m 38.553569,58.378423 c 0.621048,2.20965 1.4675,4.519478 3.212799,7.228795 -0.616024,-2.182145 -0.828321,-4.162425 -0.944941,-6.094868"
       id="path913"
       inkscape:connector-curvature="0"
       sodipodi:nodetypes="ccc" />
    <path
       style="fill:none;stroke:#000000;stroke-width:0.26458332px;stroke-linecap:butt;stroke-linejoin:miter;stroke-opacity:1"
       d="m 25.702381,65.465475 c -0.409474,-2.571075 2.39385,-1.570205 2.315105,-0.14174"
       id="path915"
       inkscape:connector-curvature="0"
       sodipodi:nodetypes="cc" />
    <path
       style="fill:none;stroke:#000000;stroke-width:0.26458332px;stroke-linecap:butt;stroke-linejoin:miter;stroke-opacity:1"
       d="m 30.33259,62.252677 c 0.297435,1.061488 -0.104483,1.511041 1.08668,3.354541"
       id="path917"
       inkscape:connector-curvature="0"
       sodipodi:nodetypes="cc" />
    <path
       style="fill:none;stroke:#000000;stroke-width:0.26458332px;stroke-linecap:butt;stroke-linejoin:miter;stroke-opacity:1"
       d="m 32.458705,63.055878 -0.188987,2.50409"
       id="path919"
       inkscape:connector-curvature="0" />
    <path
       style="fill:none;stroke:#000000;stroke-width:0.26458332px;stroke-linecap:butt;stroke-linejoin:miter;stroke-opacity:1"
       d="m 37.136159,65.512722 c -1.184276,-2.24752 -0.736483,-3.225652 -0.897694,-4.677455 0.03954,1.535697 -0.537928,2.454384 0.283483,4.771951"
       id="path921"
       inkscape:connector-curvature="0"
       sodipodi:nodetypes="ccc" />
    <path
       style="fill:none;stroke:#000000;stroke-width:0.26458332px;stroke-linecap:butt;stroke-linejoin:miter;stroke-opacity:1"
       d="m 43.939732,55.40186 c 0.190958,0.80359 0.563968,1.352307 0.472469,2.551338 -0.05512,0.917193 0.763827,0.615376 0.755952,0.188989 -0.130557,-1.42479 -0.746197,-1.96026 -1.228421,-2.740327 z"
       id="path923"
       inkscape:connector-curvature="0"
       sodipodi:nodetypes="cccc" />
    <path
       style="fill:none;stroke:#000000;stroke-width:0.26458332px;stroke-linecap:butt;stroke-linejoin:miter;stroke-opacity:1"
       d="m 47.837611,57.008259 c -0.689437,0.539529 -0.997659,1.618296 0.236235,1.700893 -1.431699,0.49284 -0.41062,1.791322 0.614212,1.464656"
       id="path925"
       inkscape:connector-curvature="0"
       sodipodi:nodetypes="ccc" />
    <path
       style="fill:none;stroke:#000000;stroke-width:0.26458332px;stroke-linecap:butt;stroke-linejoin:miter;stroke-opacity:1"
       d="m 47.365142,53.842708 c 2.023673,-0.825168 2.193151,1.363185 1.015809,2.126115"
       id="path927"
       inkscape:connector-curvature="0"
       sodipodi:nodetypes="cc" />
    <path
       style="fill:none;stroke:#000000;stroke-width:0.26458332px;stroke-linecap:butt;stroke-linejoin:miter;stroke-opacity:1"
       d="m 49.089656,55.00026 c 0.985889,0.391997 1.458872,1.397416 0.330729,2.362351 2.053562,1.100988 0.783078,3.64639 0.236236,3.945127"
       id="path929"
       inkscape:connector-curvature="0"
       sodipodi:nodetypes="ccc" />
  </g>
</svg>
