<?xml version="1.0" encoding="UTF-8" standalone="no"?>
<!-- Created with Inkscape (http://www.inkscape.org/) -->

<svg
   xmlns:dc="http://purl.org/dc/elements/1.1/"
   xmlns:cc="http://creativecommons.org/ns#"
   xmlns:rdf="http://www.w3.org/1999/02/22-rdf-syntax-ns#"
   xmlns:svg="http://www.w3.org/2000/svg"
   xmlns="http://www.w3.org/2000/svg"
   xmlns:sodipodi="http://sodipodi.sourceforge.net/DTD/sodipodi-0.dtd"
   xmlns:inkscape="http://www.inkscape.org/namespaces/inkscape"
   width="256"
   height="256"
   viewBox="0 0 67.733332 67.733335"
   version="1.1"
   id="svg9875"
   inkscape:version="0.92.2 (5c3e80d, 2017-08-06)"
   sodipodi:docname="fig26.svg">
  <defs
     id="defs9869" />
  <sodipodi:namedview
     id="base"
     pagecolor="#ffffff"
     bordercolor="#666666"
     borderopacity="1.0"
     inkscape:pageopacity="0.0"
     inkscape:pageshadow="2"
     inkscape:zoom="1.979899"
     inkscape:cx="140.86993"
     inkscape:cy="128.4271"
     inkscape:document-units="px"
     inkscape:current-layer="layer2"
     showgrid="false"
     units="px"
     inkscape:window-width="1366"
     inkscape:window-height="745"
     inkscape:window-x="-8"
     inkscape:window-y="-8"
     inkscape:window-maximized="1"
     inkscape:snap-global="false"
     showguides="true"
     inkscape:guide-bbox="true">
    <sodipodi:guide
       position="29.245908,0.80319941"
       orientation="0,1"
       id="guide1400"
       inkscape:locked="false" />
  </sodipodi:namedview>
  <metadata
     id="metadata9872">
    <rdf:RDF>
      <cc:Work
         rdf:about="">
        <dc:format>image/svg+xml</dc:format>
        <dc:type
           rdf:resource="http://purl.org/dc/dcmitype/StillImage" />
        <dc:title />
      </cc:Work>
    </rdf:RDF>
  </metadata>
  <g
     inkscape:groupmode="layer"
     id="layer2"
     inkscape:label="Capa 2">
    <path
       style="fill:none;stroke:#000000;stroke-width:0.26458332px;stroke-linecap:butt;stroke-linejoin:miter;stroke-opacity:1"
       d="M 3.7797618,1.3040175 14.930059,25.022023 H 5.1971725 L 33.356399,48.078572 62.366072,24.738541 H 52.633183 L 63.311013,1.2095235 Z"
       id="path817"
       inkscape:connector-curvature="0" />
    <path
       style="fill:none;stroke:#000000;stroke-width:0.26458332px;stroke-linecap:butt;stroke-linejoin:miter;stroke-opacity:1"
       d="m 19.938244,5.7924847 v 3.6852677 c 0,0 3.386904,0.2103767 3.343741,-1.9305097 -0.04316,-2.1408864 -3.343741,-1.754758 -3.343741,-1.754758 z"
       id="path819"
       inkscape:connector-curvature="0"
       sodipodi:nodetypes="cczc" />
    <path
       style="fill:none;stroke:#000000;stroke-width:0.26458332px;stroke-linecap:butt;stroke-linejoin:miter;stroke-opacity:1"
       d="m 24.28497,5.8397317 v 3.779762"
       id="path821"
       inkscape:connector-curvature="0" />
    <path
       style="fill:none;stroke:#000000;stroke-width:0.26458332px;stroke-linecap:butt;stroke-linejoin:miter;stroke-opacity:1"
       d="m 25.466146,9.6194937 1.370163,-3.827009 1.228423,3.8742559"
       id="path823"
       inkscape:connector-curvature="0" />
    <path
       style="fill:none;stroke:#000000;stroke-width:0.26458332px;stroke-linecap:butt;stroke-linejoin:miter;stroke-opacity:1"
       d="m 27.545014,7.9658479 -1.559151,0.047247"
       id="path825"
       inkscape:connector-curvature="0" />
    <path
       style="fill:none;stroke:#000000;stroke-width:0.26458332px;stroke-linecap:butt;stroke-linejoin:miter;stroke-opacity:1"
       d="m 29.340402,5.8397317 v 3.7325148 h 1.464657 c 1.48949,-0.00296 0.943833,-1.9117885 0.330728,-2.0434337 0.665227,-0.1417411 0.890906,-1.7835751 -0.330728,-1.7363281 z"
       id="path827"
       inkscape:connector-curvature="0"
       sodipodi:nodetypes="cccccc" />
    <path
       style="fill:none;stroke:#000000;stroke-width:0.26458332px;stroke-linecap:butt;stroke-linejoin:miter;stroke-opacity:1"
       d="m 31.183035,7.5406246 h -1.74814"
       id="path829"
       inkscape:connector-curvature="0" />
    <path
       style="fill:none;stroke:#000000;stroke-width:0.26458332px;stroke-linecap:butt;stroke-linejoin:miter;stroke-opacity:1"
       d="m 34.632069,9.6194937 h -1.842635 v -3.779762 l 1.795388,0"
       id="path831"
       inkscape:connector-curvature="0" />
    <path
       style="fill:none;stroke:#000000;stroke-width:0.26458332px;stroke-linecap:butt;stroke-linejoin:miter;stroke-opacity:1"
       d="m 32.83668,7.6351187 h 1.748142"
       id="path833"
       inkscape:connector-curvature="0" />
    <path
       style="fill:none;stroke:#000000;stroke-width:0.26458332px;stroke-linecap:butt;stroke-linejoin:miter;stroke-opacity:1"
       d="M 35.104538,5.8869788 H 37.93936"
       id="path835"
       inkscape:connector-curvature="0" />
    <path
       style="fill:none;stroke:#000000;stroke-width:0.26458332px;stroke-linecap:butt;stroke-linejoin:miter;stroke-opacity:1"
       d="M 36.427455,9.6194937 V 5.9814729"
       id="path837"
       inkscape:connector-curvature="0" />
    <path
       style="fill:none;stroke:#000000;stroke-width:0.26458332px;stroke-linecap:butt;stroke-linejoin:miter;stroke-opacity:1"
       d="M 40.674963,9.5722467 H 38.832328 V 5.7924849 h 1.795388"
       id="path831-2"
       inkscape:connector-curvature="0" />
    <path
       style="fill:none;stroke:#000000;stroke-width:0.26458332px;stroke-linecap:butt;stroke-linejoin:miter;stroke-opacity:1"
       d="m 38.879574,7.5878718 h 1.748142"
       id="path833-7"
       inkscape:connector-curvature="0" />
    <path
       style="fill:none;stroke:#000000;stroke-width:0.26458332px;stroke-linecap:butt;stroke-linejoin:miter;stroke-opacity:1"
       d="m 43.51451,5.9170298 c -1.298525,-0.3054166 -3.133343,0.1950147 -1.086684,1.9070768 2.046659,1.7120621 0.161186,1.714467 -1.114357,1.6708421"
       id="path857"
       inkscape:connector-curvature="0"
       sodipodi:nodetypes="czc" />
    <path
       style="fill:none;stroke:#000000;stroke-width:0.26458332px;stroke-linecap:butt;stroke-linejoin:miter;stroke-opacity:1"
       d="M 46.821801,7.3043896 46.113096,9.4777524 C 45.86924,10.071641 45.553504,10.473849 45.120909,10.564434"
       id="path859"
       inkscape:connector-curvature="0"
       sodipodi:nodetypes="ccc" />
    <path
       style="fill:none;stroke:#000000;stroke-width:0.26458332px;stroke-linecap:butt;stroke-linejoin:miter;stroke-opacity:1"
       d="m 45.168155,7.3043896 0.944939,2.1024923"
       id="path861"
       inkscape:connector-curvature="0"
       sodipodi:nodetypes="cc" />
    <path
       style="fill:none;stroke:#000000;stroke-width:0.26458332px;stroke-linecap:butt;stroke-linejoin:miter;stroke-opacity:1"
       d="m 24.988951,16.375818 h -1.842635 v -3.779762 h 1.795388"
       id="path831-1"
       inkscape:connector-curvature="0" />
    <path
       style="fill:none;stroke:#000000;stroke-width:0.26458332px;stroke-linecap:butt;stroke-linejoin:miter;stroke-opacity:1"
       d="m 23.193562,14.391443 h 1.748142"
       id="path833-1"
       inkscape:connector-curvature="0" />
    <path
       style="fill:none;stroke:#000000;stroke-width:0.26458332px;stroke-linecap:butt;stroke-linejoin:miter;stroke-opacity:1"
       d="m 39.143382,16.505986 1.370163,-3.827009 1.228423,3.874256"
       id="path823-4"
       inkscape:connector-curvature="0" />
    <path
       style="fill:none;stroke:#000000;stroke-width:0.26458332px;stroke-linecap:butt;stroke-linejoin:miter;stroke-opacity:1"
       d="m 41.22225,14.85234 -1.559151,0.04725"
       id="path825-4"
       inkscape:connector-curvature="0" />
    <path
       style="fill:none;stroke:#000000;stroke-width:0.26458332px;stroke-linecap:butt;stroke-linejoin:miter;stroke-opacity:1"
       d="m 47.742341,16.562683 1.370163,-3.827009 1.228423,3.874256"
       id="path823-7"
       inkscape:connector-curvature="0" />
    <path
       style="fill:none;stroke:#000000;stroke-width:0.26458332px;stroke-linecap:butt;stroke-linejoin:miter;stroke-opacity:1"
       d="m 49.821209,14.909037 -1.559151,0.04725"
       id="path825-9"
       inkscape:connector-curvature="0" />
    <path
       style="fill:none;stroke:#000000;stroke-width:0.26458332px;stroke-linecap:butt;stroke-linejoin:miter;stroke-opacity:1"
       d="m 27.829453,12.828086 c -1.298525,-0.305417 -3.133343,0.195014 -1.086684,1.907076 2.046659,1.712063 0.161186,1.714467 -1.114357,1.670843"
       id="path857-0"
       inkscape:connector-curvature="0"
       sodipodi:nodetypes="czc" />
    <path
       style="fill:none;stroke:#000000;stroke-width:0.26458332px;stroke-linecap:butt;stroke-linejoin:miter;stroke-opacity:1"
       d="m 29.104167,12.69055 v 3.779762"
       id="path821-7"
       inkscape:connector-curvature="0" />
    <path
       style="fill:none;stroke:#000000;stroke-width:0.26458332px;stroke-linecap:butt;stroke-linejoin:miter;stroke-opacity:1"
       d="m 44.790179,12.685826 h 2.834822"
       id="path835-0"
       inkscape:connector-curvature="0" />
    <path
       style="fill:none;stroke:#000000;stroke-width:0.26458332px;stroke-linecap:butt;stroke-linejoin:miter;stroke-opacity:1"
       d="M 46.113096,16.418341 V 12.78032"
       id="path837-7"
       inkscape:connector-curvature="0" />
    <path
       style="fill:none;stroke:#000000;stroke-width:0.26458332px;stroke-linecap:butt;stroke-linejoin:miter;stroke-opacity:1"
       d="m 16.620824,16.417583 v -3.825295 h 1.453278 c 0,0 0.87262,0.352881 0.87262,1.344379 0,0.991497 -0.933425,1.100469 -0.933425,1.100469 h -1.325656"
       id="path955"
       inkscape:connector-curvature="0"
       sodipodi:nodetypes="ccczcc" />
    <path
       style="fill:none;stroke:#000000;stroke-width:0.26458332px;stroke-linecap:butt;stroke-linejoin:miter;stroke-opacity:1"
       d="m 19.777945,16.450992 v -3.841999 h 1.553504 c 0,0 0.61774,0.363073 0.61774,1.069956 0,0.706883 -0.550762,0.953947 -0.550762,0.953947 H 19.76124"
       id="path957"
       inkscape:connector-curvature="0"
       sodipodi:nodetypes="ccczcc" />
    <path
       style="fill:none;stroke:#000000;stroke-width:0.26458332px;stroke-linecap:butt;stroke-linejoin:miter;stroke-opacity:1"
       d="m 21.014066,14.613514 c 0.394135,0.587879 0.813106,1.172998 0.818513,1.804069"
       id="path959"
       inkscape:connector-curvature="0"
       sodipodi:nodetypes="cc" />
    <path
       style="fill:none;stroke:#000000;stroke-width:0.26458332px;stroke-linecap:butt;stroke-linejoin:miter;stroke-opacity:1"
       d="m 31.838482,12.592288 c 2.201253,0 2.569566,4.009043 0,4.009043 -2.265983,0 -2.143347,-4.009043 0,-4.009043 z"
       id="path961"
       inkscape:connector-curvature="0"
       sodipodi:nodetypes="ccc" />
    <path
       style="fill:none;stroke:#000000;stroke-width:0.26458332px;stroke-linecap:butt;stroke-linejoin:miter;stroke-opacity:1"
       d="m 34.461063,16.450992 v -3.825295 l 2.455541,3.842 0,-3.875408"
       id="path963"
       inkscape:connector-curvature="0" />
    <path
       style="fill:none;stroke:#000000;stroke-width:0.26458332px;stroke-linecap:butt;stroke-linejoin:miter;stroke-opacity:1"
       d="m 43.113914,12.625697 v 3.825295 h 2.004523"
       id="path965"
       inkscape:connector-curvature="0" />
    <path
       style="fill:none;stroke:#000000;stroke-width:0.26458332px;stroke-linecap:butt;stroke-linejoin:miter;stroke-opacity:1"
       d="m 31.986235,12.241703 0.637834,-0.755952"
       id="path967"
       inkscape:connector-curvature="0" />
    <path
       style="fill:none;stroke:#000000;stroke-width:0.26458332px;stroke-linecap:butt;stroke-linejoin:miter;stroke-opacity:1"
       d="m 18.074102,19.958905 v 2.488947"
       id="path984"
       inkscape:connector-curvature="0" />
    <path
       style="fill:none;stroke:#000000;stroke-width:0.26458332px;stroke-linecap:butt;stroke-linejoin:miter;stroke-opacity:1"
       d="m 18.090806,20.643783 c 0,-0.495738 1.486687,-0.498088 1.486687,0 0,-0.507303 1.469982,-0.656859 1.469982,0 v 1.720548"
       id="path986"
       inkscape:connector-curvature="0"
       sodipodi:nodetypes="cccc" />
    <path
       style="fill:none;stroke:#000000;stroke-width:0.26458332px;stroke-linecap:butt;stroke-linejoin:miter;stroke-opacity:1"
       d="m 19.575465,20.627079 v 1.804069"
       id="path988"
       inkscape:connector-curvature="0" />
    <path
       style="fill:none;stroke:#000000;stroke-width:0.26458332px;stroke-linecap:butt;stroke-linejoin:miter;stroke-opacity:1"
       d="m 21.86356,20.297321 c 0.306477,-0.129301 0.517749,-0.163396 0.732329,-0.2008 0.273523,-0.02501 0.521746,0.07648 0.732329,0.366165 v 1.88988"
       id="path990"
       inkscape:connector-curvature="0"
       sodipodi:nodetypes="cccc" />
    <path
       style="fill:none;stroke:#000000;stroke-width:0.26458332px;stroke-linecap:butt;stroke-linejoin:miter;stroke-opacity:1"
       d="m 23.257347,21.041462 c -1.260441,-0.122301 -1.594814,0.273013 -1.535528,0.696893 0.06324,0.425217 0.388354,0.583795 0.661458,0.555153 0.330798,-0.02739 0.652745,-0.195023 0.921317,-0.437035"
       id="path992"
       inkscape:connector-curvature="0"
       sodipodi:nodetypes="cccc" />
    <path
       style="fill:none;stroke:#000000;stroke-width:0.26458332px;stroke-linecap:butt;stroke-linejoin:miter;stroke-opacity:1"
       d="M 24.379464,18.938969 V 22.37619"
       id="path994"
       inkscape:connector-curvature="0" />
    <path
       style="fill:none;stroke:#000000;stroke-width:0.26458332px;stroke-linecap:butt;stroke-linejoin:miter;stroke-opacity:1"
       d="m 27.875743,20.191015 h -0.862259 c -0.399119,0.02937 -0.643739,0.318231 -0.643739,0.643741 v 0.679176 c 0,0.483718 0.400639,0.652599 0.6526,0.652599 h 0.829776"
       id="path996"
       inkscape:connector-curvature="0"
       sodipodi:nodetypes="cccccc" />
    <path
       style="fill:none;stroke:#000000;stroke-width:0.26458332px;stroke-linecap:butt;stroke-linejoin:miter;stroke-opacity:1"
       d="m 29.316778,20.084709 c 1.166276,0 1.388183,2.161552 0,2.161552 -1.329486,0 -1.241371,-2.161552 0,-2.161552 z"
       id="path998"
       inkscape:connector-curvature="0"
       sodipodi:nodetypes="ccc" />
    <path
       style="fill:none;stroke:#000000;stroke-width:0.26458332px;stroke-linecap:butt;stroke-linejoin:miter;stroke-opacity:1"
       d="m 31.147602,19.931156 v 2.468657"
       id="path1000"
       inkscape:connector-curvature="0" />
    <path
       style="fill:none;stroke:#000000;stroke-width:0.26458332px;stroke-linecap:butt;stroke-linejoin:miter;stroke-opacity:1"
       d="m 31.206659,20.62805 c 0,0 0.356877,-0.555153 0.897694,-0.555153 0.412634,0 0.626023,0.519718 0.626023,0.519718 v 1.783575"
       id="path1002"
       inkscape:connector-curvature="0"
       sodipodi:nodetypes="cscc" />
    <path
       style="fill:none;stroke:#000000;stroke-width:0.26458332px;stroke-linecap:butt;stroke-linejoin:miter;stroke-opacity:1"
       d="m 33.864304,19.423251 v 2.326916 c 0,0.33588 0.118421,0.460658 0.460658,0.460658 h 0.425225"
       id="path1004"
       inkscape:connector-curvature="0"
       sodipodi:nodetypes="cccc" />
    <path
       style="fill:none;stroke:#000000;stroke-width:0.26458332px;stroke-linecap:butt;stroke-linejoin:miter;stroke-opacity:1"
       d="M 33.273716,20.179203 H 34.70294"
       id="path1006"
       inkscape:connector-curvature="0" />
    <path
       style="fill:none;stroke:#000000;stroke-width:0.26458332px;stroke-linecap:butt;stroke-linejoin:miter;stroke-opacity:1"
       d="M 35.328963,19.942968 V 22.37619"
       id="path1008"
       inkscape:connector-curvature="0" />
    <path
       style="fill:none;stroke:#000000;stroke-width:0.26458332px;stroke-linecap:butt;stroke-linejoin:miter;stroke-opacity:1"
       d="m 35.364398,20.710732 c 0.216558,-0.390896 0.519937,-0.620552 0.956752,-0.602399"
       id="path1010"
       inkscape:connector-curvature="0"
       sodipodi:nodetypes="cc" />
    <path
       style="fill:none;stroke:#000000;stroke-width:0.26458332px;stroke-linecap:butt;stroke-linejoin:miter;stroke-opacity:1"
       d="m 37.563689,20.114239 c 1.166276,0 1.388183,2.161552 0,2.161552 -1.329486,0 -1.241371,-2.161552 0,-2.161552 z"
       id="path998-7"
       inkscape:connector-curvature="0"
       sodipodi:nodetypes="ccc" />
    <path
       style="fill:none;stroke:#000000;stroke-width:0.26458332px;stroke-linecap:butt;stroke-linejoin:miter;stroke-opacity:1"
       d="m 39.451264,18.909434 v 3.437221"
       id="path994-3"
       inkscape:connector-curvature="0" />
    <path
       style="fill:none;stroke:#000000;stroke-width:0.26458332px;stroke-linecap:butt;stroke-linejoin:miter;stroke-opacity:1"
       d="m 40.422609,20.297489 c 0.306477,-0.129301 0.517749,-0.163396 0.732329,-0.2008 0.273523,-0.02501 0.521746,0.07648 0.732329,0.366165 v 1.88988"
       id="path990-7"
       inkscape:connector-curvature="0"
       sodipodi:nodetypes="cccc" />
    <path
       style="fill:none;stroke:#000000;stroke-width:0.26458332px;stroke-linecap:butt;stroke-linejoin:miter;stroke-opacity:1"
       d="m 41.816396,21.04163 c -1.260441,-0.122301 -1.594814,0.273013 -1.535528,0.696893 0.06324,0.425217 0.388354,0.583795 0.661458,0.555153 0.330798,-0.02739 0.652745,-0.195023 0.921317,-0.437035"
       id="path992-2"
       inkscape:connector-curvature="0"
       sodipodi:nodetypes="cccc" />
    <path
       style="fill:none;stroke:#000000;stroke-width:0.26458332px;stroke-linecap:butt;stroke-linejoin:miter;stroke-opacity:1"
       d="m 45.383541,20.297491 c 0.306477,-0.129301 0.517749,-0.163396 0.732329,-0.2008 0.273523,-0.02501 0.521746,0.07648 0.732329,0.366165 v 1.88988"
       id="path990-8"
       inkscape:connector-curvature="0"
       sodipodi:nodetypes="cccc" />
    <path
       style="fill:none;stroke:#000000;stroke-width:0.26458332px;stroke-linecap:butt;stroke-linejoin:miter;stroke-opacity:1"
       d="m 46.777328,21.041632 c -1.260441,-0.122301 -1.594814,0.273013 -1.535528,0.696893 0.06324,0.425217 0.388354,0.583795 0.661458,0.555153 0.330798,-0.02739 0.652745,-0.195023 0.921317,-0.437035"
       id="path992-7"
       inkscape:connector-curvature="0"
       sodipodi:nodetypes="cccc" />
    <path
       style="fill:none;stroke:#000000;stroke-width:0.26458332px;stroke-linecap:butt;stroke-linejoin:miter;stroke-opacity:1"
       d="m 44.435826,18.915345 v 3.484468"
       id="path1068"
       inkscape:connector-curvature="0" />
    <path
       style="fill:none;stroke:#000000;stroke-width:0.26458332px;stroke-linecap:butt;stroke-linejoin:miter;stroke-opacity:1"
       d="m 44.388579,20.521744 c 0,-0.540025 -1.630024,-0.602621 -1.630024,0 v 1.263858 c 0,0.657118 1.689082,0.759066 1.689082,0"
       id="path1070"
       inkscape:connector-curvature="0"
       sodipodi:nodetypes="cccc" />
    <path
       style="fill:none;stroke:#000000;stroke-width:0.26458332px;stroke-linecap:butt;stroke-linejoin:miter;stroke-opacity:1"
       d="m 48.806176,20.15558 c -1.047841,-0.213954 -1.552903,0.489407 -0.496094,1.051246 1.056809,0.561839 0.09331,1.200271 -0.767765,0.992188"
       id="path1072"
       inkscape:connector-curvature="0"
       sodipodi:nodetypes="czc" />
    <path
       style="fill:none;stroke:#000000;stroke-width:0.26458332px;stroke-linecap:butt;stroke-linejoin:miter;stroke-opacity:1"
       d="m 29.135535,25.900396 c -1.047841,-0.213954 -1.552903,0.489407 -0.496094,1.051246 1.056808,0.561839 0.09331,1.200271 -0.767765,0.992188"
       id="path1072-9"
       inkscape:connector-curvature="0"
       sodipodi:nodetypes="czc" />
    <path
       style="fill:none;stroke:#000000;stroke-width:0.26458332px;stroke-linecap:butt;stroke-linejoin:miter;stroke-opacity:1"
       d="m 30.795555,25.807506 c 1.166276,0 1.388183,2.161552 0,2.161552 -1.329486,0 -1.241371,-2.161552 0,-2.161552 z"
       id="path998-3"
       inkscape:connector-curvature="0"
       sodipodi:nodetypes="ccc" />
    <path
       style="fill:none;stroke:#000000;stroke-width:0.26458332px;stroke-linecap:butt;stroke-linejoin:miter;stroke-opacity:1"
       d="m 32.612259,25.642141 v 2.468657"
       id="path1000-1"
       inkscape:connector-curvature="0" />
    <path
       style="fill:none;stroke:#000000;stroke-width:0.26458332px;stroke-linecap:butt;stroke-linejoin:miter;stroke-opacity:1"
       d="m 32.671316,26.339035 c 0,0 0.356877,-0.555153 0.897694,-0.555153 0.412634,0 0.626023,0.519718 0.626023,0.519718 v 1.783575"
       id="path1002-7"
       inkscape:connector-curvature="0"
       sodipodi:nodetypes="cscc" />
    <path
       style="fill:none;stroke:#000000;stroke-width:0.26458332px;stroke-linecap:butt;stroke-linejoin:miter;stroke-opacity:1"
       d="m 36.18983,24.597018 v 3.43722"
       id="path994-3-9"
       inkscape:connector-curvature="0" />
    <path
       style="fill:none;stroke:#000000;stroke-width:0.26458332px;stroke-linecap:butt;stroke-linejoin:miter;stroke-opacity:1"
       d="m 37.161175,25.985073 c 0.306477,-0.129301 0.517749,-0.163396 0.732329,-0.2008 0.273523,-0.02501 0.521746,0.07648 0.732329,0.366165 v 1.889879"
       id="path990-7-6"
       inkscape:connector-curvature="0"
       sodipodi:nodetypes="cccc" />
    <path
       style="fill:none;stroke:#000000;stroke-width:0.26458332px;stroke-linecap:butt;stroke-linejoin:miter;stroke-opacity:1"
       d="m 38.554962,26.729214 c -1.260441,-0.122301 -1.594814,0.273013 -1.535528,0.696893 0.06324,0.425217 0.388354,0.583795 0.661458,0.555153 0.330798,-0.02739 0.652745,-0.195023 0.921317,-0.437035"
       id="path992-2-3"
       inkscape:connector-curvature="0"
       sodipodi:nodetypes="cccc" />
    <path
       style="fill:none;stroke:#000000;stroke-width:0.26458332px;stroke-linecap:butt;stroke-linejoin:miter;stroke-opacity:1"
       d="m 22.784727,33.940443 v -3.257349 h 1.436574 c 0.647158,0 0.627466,2.037931 0,2.037931 h -1.353052"
       id="path1158"
       inkscape:connector-curvature="0"
       sodipodi:nodetypes="ccccc" />
    <path
       style="fill:none;stroke:#000000;stroke-width:0.26458332px;stroke-linecap:butt;stroke-linejoin:miter;stroke-opacity:1"
       d="m 25.540944,33.957146 v -3.223937 h 1.403165 c 0.713436,0 0.738755,1.536799 0,1.536799 h -1.319643"
       id="path1160"
       inkscape:connector-curvature="0"
       sodipodi:nodetypes="ccccc" />
    <path
       style="fill:none;stroke:#000000;stroke-width:0.26458332px;stroke-linecap:butt;stroke-linejoin:miter;stroke-opacity:1"
       d="m 26.5265,32.303415 c 0.506846,0.487738 0.670365,1.044141 0.734992,1.620322"
       id="path1162"
       inkscape:connector-curvature="0"
       sodipodi:nodetypes="cc" />
    <path
       style="fill:none;stroke:#000000;stroke-width:0.26458332px;stroke-linecap:butt;stroke-linejoin:miter;stroke-opacity:1"
       d="m 28.380682,30.733209 v 3.257346"
       id="path1164"
       inkscape:connector-curvature="0" />
    <path
       style="fill:none;stroke:#000000;stroke-width:0.26458332px;stroke-linecap:butt;stroke-linejoin:miter;stroke-opacity:1"
       d="M 29.717031,33.940443 V 30.6998 l 2.054633,3.290755 V 30.6998"
       id="path1166"
       inkscape:connector-curvature="0" />
    <path
       style="fill:none;stroke:#000000;stroke-width:0.26458332px;stroke-linecap:butt;stroke-linejoin:miter;stroke-opacity:1"
       d="m 34.995604,30.916956 h -1.286235 c 0,0 -0.802227,0.214677 -0.802227,1.389497 0,1.17482 0.868052,1.50351 0.868052,1.50351 h 1.170298"
       id="path1168"
       inkscape:connector-curvature="0"
       sodipodi:nodetypes="cczcc" />
    <path
       style="fill:none;stroke:#000000;stroke-width:0.26458332px;stroke-linecap:butt;stroke-linejoin:miter;stroke-opacity:1"
       d="m 35.830821,30.708155 v 3.257346"
       id="path1164-5"
       inkscape:connector-curvature="0" />
    <path
       style="fill:none;stroke:#000000;stroke-width:0.26458332px;stroke-linecap:butt;stroke-linejoin:miter;stroke-opacity:1"
       d="m 37.100184,33.992886 v -3.257349 h 1.436574 c 0.647158,0 0.627466,2.037931 0,2.037931 h -1.353052"
       id="path1158-3"
       inkscape:connector-curvature="0"
       sodipodi:nodetypes="ccccc" />
    <path
       style="fill:none;stroke:#000000;stroke-width:0.26458332px;stroke-linecap:butt;stroke-linejoin:miter;stroke-opacity:1"
       d="m 39.404017,33.951711 1.039434,-3.283669 1.299295,3.283669"
       id="path1200"
       inkscape:connector-curvature="0" />
    <path
       style="fill:none;stroke:#000000;stroke-width:0.26458332px;stroke-linecap:butt;stroke-linejoin:miter;stroke-opacity:1"
       d="M 41.152159,32.46343 H 39.947357"
       id="path1202"
       inkscape:connector-curvature="0" />
    <path
       style="fill:none;stroke:#000000;stroke-width:0.26458332px;stroke-linecap:butt;stroke-linejoin:miter;stroke-opacity:1"
       d="m 29.282898,39.853367 1.039434,-3.283669 1.299295,3.283669"
       id="path1200-4"
       inkscape:connector-curvature="0" />
    <path
       style="fill:none;stroke:#000000;stroke-width:0.26458332px;stroke-linecap:butt;stroke-linejoin:miter;stroke-opacity:1"
       d="M 31.03104,38.365086 H 29.826238"
       id="path1202-7"
       inkscape:connector-curvature="0" />
    <path
       style="fill:none;stroke:#000000;stroke-width:0.26458332px;stroke-linecap:butt;stroke-linejoin:miter;stroke-opacity:1"
       d="m 38.070845,39.853367 1.039434,-3.283669 1.299295,3.283669"
       id="path1200-5"
       inkscape:connector-curvature="0" />
    <path
       style="fill:none;stroke:#000000;stroke-width:0.26458332px;stroke-linecap:butt;stroke-linejoin:miter;stroke-opacity:1"
       d="M 39.818987,38.365086 H 38.614185"
       id="path1202-3"
       inkscape:connector-curvature="0" />
    <path
       style="fill:none;stroke:#000000;stroke-width:0.26458332px;stroke-linecap:butt;stroke-linejoin:miter;stroke-opacity:1"
       d="m 42.687687,30.64442 v 3.260045 h 1.724514"
       id="path1230"
       inkscape:connector-curvature="0" />
    <path
       style="fill:none;stroke:#000000;stroke-width:0.26458332px;stroke-linecap:butt;stroke-linejoin:miter;stroke-opacity:1"
       d="m 28.584521,36.757439 h -1.286235 c 0,0 -0.802227,0.214677 -0.802227,1.389497 0,1.174821 0.868052,1.50351 0.868052,1.50351 h 1.170298"
       id="path1168-1"
       inkscape:connector-curvature="0"
       sodipodi:nodetypes="cczcc" />
    <path
       style="fill:none;stroke:#000000;stroke-width:0.26458332px;stroke-linecap:butt;stroke-linejoin:miter;stroke-opacity:1"
       d="m 32.473246,36.529615 v 2.45554 c 0,0.950293 1.887593,0.843816 1.887593,0 v -2.45554"
       id="path1247"
       inkscape:connector-curvature="0"
       sodipodi:nodetypes="cccc" />
    <path
       style="fill:none;stroke:#000000;stroke-width:0.26458332px;stroke-linecap:butt;stroke-linejoin:miter;stroke-opacity:1"
       d="m 37.217281,36.913814 c -0.683238,-0.300193 -2.746123,0.350525 -0.88533,1.302941 1.860793,0.952416 -0.395169,1.46065 -1.03567,1.252826"
       id="path1249"
       inkscape:connector-curvature="0"
       sodipodi:nodetypes="czc" />
    <path
       style="fill:none;stroke:#000000;stroke-width:0.26458332px;stroke-linecap:butt;stroke-linejoin:miter;stroke-opacity:1"
       d="m 7.4167293,53.300777 v 5.412209"
       id="path1251"
       inkscape:connector-curvature="0" />
    <path
       style="fill:none;stroke:#000000;stroke-width:0.26458332px;stroke-linecap:butt;stroke-linejoin:miter;stroke-opacity:1"
       d="M 9.7553377,58.646168 V 53.23396 l 3.4076863,5.345393 v -5.211758"
       id="path1253"
       inkscape:connector-curvature="0" />
    <path
       style="fill:none;stroke:#000000;stroke-width:0.26458332px;stroke-linecap:butt;stroke-linejoin:miter;stroke-opacity:1"
       d="m 18.040693,53.968951 c -1.566024,-0.389153 -3.909826,0.610844 -1.670434,2.138156 2.239392,1.527312 0.470541,2.728409 -1.5368,1.937705"
       id="path1255"
       inkscape:connector-curvature="0"
       sodipodi:nodetypes="czc" />
    <path
       style="fill:none;stroke:#000000;stroke-width:0.26458332px;stroke-linecap:butt;stroke-linejoin:miter;stroke-opacity:1"
       d="m 19.820126,53.393861 v 3.590774 c 0,1.728717 3.189174,1.782296 3.189174,0 v -3.614396"
       id="path1257"
       inkscape:connector-curvature="0"
       sodipodi:nodetypes="cccc" />
    <path
       style="fill:none;stroke:#000000;stroke-width:0.26458332px;stroke-linecap:butt;stroke-linejoin:miter;stroke-opacity:1"
       d="m 25.395275,58.496541 v -5.149927 h 2.598586"
       id="path1259"
       inkscape:connector-curvature="0" />
    <path
       style="fill:none;stroke:#000000;stroke-width:0.26458332px;stroke-linecap:butt;stroke-linejoin:miter;stroke-opacity:1"
       d="m 25.324405,56.016072 h 2.527716"
       id="path1261"
       inkscape:connector-curvature="0" />
    <path
       style="fill:none;stroke:#000000;stroke-width:0.26458332px;stroke-linecap:butt;stroke-linejoin:miter;stroke-opacity:1"
       d="m 29.765625,53.275743 v 5.386162"
       id="path1263"
       inkscape:connector-curvature="0" />
    <path
       style="fill:none;stroke:#000000;stroke-width:0.26458332px;stroke-linecap:butt;stroke-linejoin:miter;stroke-opacity:1"
       d="m 35.24628,53.960826 c -0.692957,-0.394737 -1.496157,-0.396005 -2.149741,-0.141741 -0.653584,0.254264 -1.275668,0.626156 -1.275668,2.220609 0,1.594453 0.851357,1.966104 1.464657,2.173362 0.613299,0.207258 1.4333,-0.02482 1.937128,-0.212611"
       id="path1265"
       inkscape:connector-curvature="0"
       sodipodi:nodetypes="czzzc" />
    <path
       style="fill:none;stroke:#000000;stroke-width:0.26458332px;stroke-linecap:butt;stroke-linejoin:miter;stroke-opacity:1"
       d="m 36.876302,53.252116 v 5.386161"
       id="path1263-7"
       inkscape:connector-curvature="0" />
    <path
       style="fill:none;stroke:#000000;stroke-width:0.26458332px;stroke-linecap:butt;stroke-linejoin:miter;stroke-opacity:1"
       d="m 42.111654,58.512535 h -2.77292 v -5.094828 l 2.589173,0"
       id="path1282"
       inkscape:connector-curvature="0" />
    <path
       style="fill:none;stroke:#000000;stroke-width:0.26458332px;stroke-linecap:butt;stroke-linejoin:miter;stroke-opacity:1"
       d="M 41.744159,55.889953 H 39.438961"
       id="path1284"
       inkscape:connector-curvature="0" />
    <path
       style="fill:none;stroke:#000000;stroke-width:0.26458332px;stroke-linecap:butt;stroke-linejoin:miter;stroke-opacity:1"
       d="m 43.644705,58.593787 v -5.412208 l 3.407686,5.345393 v -5.211758"
       id="path1253-5"
       inkscape:connector-curvature="0" />
    <path
       style="fill:none;stroke:#000000;stroke-width:0.26458332px;stroke-linecap:butt;stroke-linejoin:miter;stroke-opacity:1"
       d="m 52.347673,53.959397 c -0.692957,-0.394737 -1.496157,-0.396005 -2.14974,-0.141741 -0.653585,0.254264 -1.275669,0.626156 -1.275669,2.220609 0,1.594453 0.851357,1.966104 1.464657,2.173362 0.613299,0.207258 1.4333,-0.02482 1.937128,-0.212611"
       id="path1265-3"
       inkscape:connector-curvature="0"
       sodipodi:nodetypes="czzzc" />
    <path
       style="fill:none;stroke:#000000;stroke-width:0.26458332px;stroke-linecap:butt;stroke-linejoin:miter;stroke-opacity:1"
       d="m 54.050596,53.322991 v 5.386161"
       id="path1263-7-3"
       inkscape:connector-curvature="0" />
    <path
       style="fill:none;stroke:#000000;stroke-width:0.26458332px;stroke-linecap:butt;stroke-linejoin:miter;stroke-opacity:1"
       d="m 56.058593,58.520163 1.677271,-5.24442 1.913503,5.291666"
       id="path1331"
       inkscape:connector-curvature="0" />
    <path
       style="fill:none;stroke:#000000;stroke-width:0.26458332px;stroke-linecap:butt;stroke-linejoin:miter;stroke-opacity:1"
       d="m 56.719807,56.464916 h 2.126362"
       id="path1333"
       inkscape:connector-curvature="0"
       sodipodi:nodetypes="cc" />
    <path
       style="fill:none;stroke:#000000;stroke-width:0.26458332px;stroke-linecap:butt;stroke-linejoin:miter;stroke-opacity:1"
       d="m 14.870761,65.669439 h -2.77292 v -5.094828 h 2.589173"
       id="path1282-0"
       inkscape:connector-curvature="0" />
    <path
       style="fill:none;stroke:#000000;stroke-width:0.26458332px;stroke-linecap:butt;stroke-linejoin:miter;stroke-opacity:1"
       d="M 14.503266,63.046857 H 12.198068"
       id="path1284-3"
       inkscape:connector-curvature="0" />
    <path
       style="fill:none;stroke:#000000;stroke-width:0.26458332px;stroke-linecap:butt;stroke-linejoin:miter;stroke-opacity:1"
       d="m 15.824803,65.956031 v -5.412208 l 3.407686,5.345393 v -5.211758"
       id="path1253-6"
       inkscape:connector-curvature="0" />
    <path
       style="fill:none;stroke:#000000;stroke-width:0.26458332px;stroke-linecap:butt;stroke-linejoin:miter;stroke-opacity:1"
       d="m 20.836736,65.903253 1.677271,-5.24442 1.913503,5.291666"
       id="path1331-6"
       inkscape:connector-curvature="0" />
    <path
       style="fill:none;stroke:#000000;stroke-width:0.26458332px;stroke-linecap:butt;stroke-linejoin:miter;stroke-opacity:1"
       d="m 21.49795,63.848006 h 2.126362"
       id="path1333-1"
       inkscape:connector-curvature="0"
       sodipodi:nodetypes="cc" />
    <path
       style="fill:none;stroke:#000000;stroke-width:0.26458332px;stroke-linecap:butt;stroke-linejoin:miter;stroke-opacity:1"
       d="m 56.64998,65.997748 1.677271,-5.24442 1.913503,5.291666"
       id="path1331-4"
       inkscape:connector-curvature="0" />
    <path
       style="fill:none;stroke:#000000;stroke-width:0.26458332px;stroke-linecap:butt;stroke-linejoin:miter;stroke-opacity:1"
       d="m 57.311194,63.942501 h 2.126362"
       id="path1333-4"
       inkscape:connector-curvature="0"
       sodipodi:nodetypes="cc" />
    <path
       style="fill:none;stroke:#000000;stroke-width:0.26458332px;stroke-linecap:butt;stroke-linejoin:miter;stroke-opacity:1"
       d="m 34.204816,61.348833 c -0.692957,-0.394737 -1.496157,-0.396005 -2.149741,-0.141741 -0.653584,0.254264 -1.275668,0.626156 -1.275668,2.220609 0,1.594453 0.851357,1.966104 1.464657,2.173362 0.613299,0.207258 1.4333,-0.02482 1.937128,-0.212611"
       id="path1265-5"
       inkscape:connector-curvature="0"
       sodipodi:nodetypes="czzzc" />
    <path
       style="fill:none;stroke:#000000;stroke-width:0.26458332px;stroke-linecap:butt;stroke-linejoin:miter;stroke-opacity:1"
       d="M 45.023464,66.050525 V 60.638317 L 48.43115,65.98371 V 60.771952"
       id="path1253-5-6"
       inkscape:connector-curvature="0" />
    <path
       style="fill:none;stroke:#000000;stroke-width:0.26458332px;stroke-linecap:butt;stroke-linejoin:miter;stroke-opacity:1"
       d="m 50.64881,60.485642 v 5.386161"
       id="path1263-7-3-1"
       inkscape:connector-curvature="0" />
    <path
       style="fill:none;stroke:#000000;stroke-width:0.26458332px;stroke-linecap:butt;stroke-linejoin:miter;stroke-opacity:1"
       d="m 55.702212,61.301586 c -0.692957,-0.394736 -1.496157,-0.396004 -2.149741,-0.141741 -0.653584,0.254265 -1.275668,0.626156 -1.275668,2.220609 0,1.594453 0.851357,1.966104 1.464657,2.173362 0.613299,0.207259 1.4333,-0.02482 1.937128,-0.212611"
       id="path1265-5-4"
       inkscape:connector-curvature="0"
       sodipodi:nodetypes="czzzc" />
    <path
       style="fill:none;stroke:#000000;stroke-width:0.26458332px;stroke-linecap:butt;stroke-linejoin:miter;stroke-opacity:1"
       d="m 7.4672131,66.124256 v -5.527903 h 1.8898808 c 1.0404681,0 1.0019371,2.74033 0,2.74033 H 7.51446"
       id="path1471"
       inkscape:connector-curvature="0"
       sodipodi:nodetypes="ccccc" />
    <path
       style="fill:none;stroke:#000000;stroke-width:0.26458332px;stroke-linecap:butt;stroke-linejoin:miter;stroke-opacity:1"
       d="m 8.9082473,63.336683 c 0.6046325,0.889819 1.0648162,1.897755 1.2992937,2.787573"
       id="path1473"
       inkscape:connector-curvature="0"
       sodipodi:nodetypes="cc" />
    <path
       style="fill:none;stroke:#000000;stroke-width:0.26458332px;stroke-linecap:butt;stroke-linejoin:miter;stroke-opacity:1"
       d="m 35.782484,66.25036 v -5.527902 h 1.889881 c 1.040468,0 1.001937,2.74033 0,2.74033 h -1.842634"
       id="path1471-5"
       inkscape:connector-curvature="0"
       sodipodi:nodetypes="ccccc" />
    <path
       style="fill:none;stroke:#000000;stroke-width:0.26458332px;stroke-linecap:butt;stroke-linejoin:miter;stroke-opacity:1"
       d="m 37.223518,63.462788 c 0.604633,0.889819 1.064817,1.897755 1.299294,2.787572"
       id="path1473-3"
       inkscape:connector-curvature="0"
       sodipodi:nodetypes="cc" />
    <path
       style="fill:none;stroke:#000000;stroke-width:0.26458332px;stroke-linecap:butt;stroke-linejoin:miter;stroke-opacity:1"
       d="m 25.740726,60.431009 v 5.479023 h 2.438833"
       id="path1511"
       inkscape:connector-curvature="0" />
    <path
       style="fill:none;stroke:#000000;stroke-width:0.26458332px;stroke-linecap:butt;stroke-linejoin:miter;stroke-opacity:1"
       d="m 41.622048,60.647492 c 2.705842,0 3.124018,5.445617 0,5.445617 -2.966638,0 -2.842466,-5.445617 0,-5.445617 z"
       id="path1528"
       inkscape:connector-curvature="0"
       sodipodi:nodetypes="ccc" />
    <path
       style="fill:none;stroke:#000000;stroke-width:0.26458332px;stroke-linecap:butt;stroke-linejoin:miter;stroke-opacity:1"
       d="m 41.827681,60.316603 0.534538,-0.868627"
       id="path1545"
       inkscape:connector-curvature="0" />
  </g>
</svg>
