<?xml version="1.0" encoding="UTF-8" standalone="no"?>
<!-- Created with Inkscape (http://www.inkscape.org/) -->

<svg
   xmlns:dc="http://purl.org/dc/elements/1.1/"
   xmlns:cc="http://creativecommons.org/ns#"
   xmlns:rdf="http://www.w3.org/1999/02/22-rdf-syntax-ns#"
   xmlns:svg="http://www.w3.org/2000/svg"
   xmlns="http://www.w3.org/2000/svg"
   xmlns:sodipodi="http://sodipodi.sourceforge.net/DTD/sodipodi-0.dtd"
   xmlns:inkscape="http://www.inkscape.org/namespaces/inkscape"
   width="256"
   height="256"
   viewBox="0 0 67.733332 67.733335"
   version="1.1"
   id="svg10437"
   inkscape:version="0.92.2 (5c3e80d, 2017-08-06)"
   sodipodi:docname="fig27.svg">
  <defs
     id="defs10431" />
  <sodipodi:namedview
     id="base"
     pagecolor="#ffffff"
     bordercolor="#666666"
     borderopacity="1.0"
     inkscape:pageopacity="0.0"
     inkscape:pageshadow="2"
     inkscape:zoom="1.979899"
     inkscape:cx="131.17036"
     inkscape:cy="124.81333"
     inkscape:document-units="px"
     inkscape:current-layer="layer2"
     showgrid="false"
     units="px"
     inkscape:window-width="1366"
     inkscape:window-height="745"
     inkscape:window-x="-8"
     inkscape:window-y="-8"
     inkscape:window-maximized="1"
     inkscape:snap-global="false" />
  <metadata
     id="metadata10434">
    <rdf:RDF>
      <cc:Work
         rdf:about="">
        <dc:format>image/svg+xml</dc:format>
        <dc:type
           rdf:resource="http://purl.org/dc/dcmitype/StillImage" />
        <dc:title />
      </cc:Work>
    </rdf:RDF>
  </metadata>
  <g
     inkscape:groupmode="layer"
     id="layer2"
     inkscape:label="Capa 2"
     style="display:inline">
    <path
       style="fill:none;stroke:#000000;stroke-width:0.26458332px;stroke-linecap:butt;stroke-linejoin:miter;stroke-opacity:1"
       d="M 7.1815475,14.296949 C 4.8547331,11.49551 5.114449,8.9404075 8.0792409,6.6429312"
       id="path817"
       inkscape:connector-curvature="0"
       sodipodi:nodetypes="cc" />
    <path
       style="fill:none;stroke:#000000;stroke-width:0.26458332px;stroke-linecap:butt;stroke-linejoin:miter;stroke-opacity:1"
       d="m 21.544643,10.139211 c -2.454253,1.594303 -4.796328,2.822596 -6.236607,-0.4724701 -2.14373,-3.8104722 -4.991704,0.8760151 -6.0003725,0 -3.546113,-5.6027493 4.3658935,-8.5032509 7.2760415,-7.984747 4.669021,1.1175599 6.367282,3.126348 8.646205,4.9609373"
       id="path819"
       inkscape:connector-curvature="0"
       sodipodi:nodetypes="ccccc" />
    <path
       style="fill:none;stroke:#000000;stroke-width:0.26458332px;stroke-linecap:butt;stroke-linejoin:miter;stroke-opacity:1"
       d="m 13.040178,3.5246278 c 2.113957,-2.3977996 12.1993,4.9450521 12.189732,3.1183032 1.543402,-0.094493 2.141867,0.5039678 1.795388,1.7953873 -1.60614,2.7076227 -5.734457,3.1372847 -6.803572,2.6930807"
       id="path821"
       inkscape:connector-curvature="0"
       sodipodi:nodetypes="cccc" />
    <path
       style="fill:none;stroke:#000000;stroke-width:0.26458332px;stroke-linecap:butt;stroke-linejoin:miter;stroke-opacity:1"
       d="m 10.441592,6.9264135 c 7.021917,-6.31079388 9.638459,5.8830985 14.977307,1.1811756"
       id="path823"
       inkscape:connector-curvature="0"
       sodipodi:nodetypes="cc" />
    <path
       style="fill:none;stroke:#000000;stroke-width:0.26458332px;stroke-linecap:butt;stroke-linejoin:miter;stroke-opacity:1"
       d="m 27.167038,8.3438242 c 0.873795,-0.2151931 1.145004,1.019879 0.614212,1.6536458 -1.466846,1.549676 -3.499692,2.195079 -5.386161,2.409598 -0.711075,0.04105 -1.381937,-0.562069 -1.181175,-1.039434"
       id="path825"
       inkscape:connector-curvature="0"
       sodipodi:nodetypes="cccc" />
    <path
       style="fill:none;stroke:#000000;stroke-width:0.26458332px;stroke-linecap:butt;stroke-linejoin:miter;stroke-opacity:1"
       d="m 27.796029,10.003115 c 0.64787,-0.3573432 1.288104,0.358209 0.133636,1.436574 -1.013777,0.998253 -2.966987,1.79295 -4.443356,1.904295 -1.861761,0.07606 -2.166452,-0.387345 -1.403165,-0.935443"
       id="path827"
       inkscape:connector-curvature="0"
       sodipodi:nodetypes="cccc" />
    <path
       style="fill:none;stroke:#000000;stroke-width:0.26458332px;stroke-linecap:butt;stroke-linejoin:miter;stroke-opacity:1"
       d="m 27.061041,12.208089 c 0.677098,2.910052 -1.752928,5.658029 -1.804071,8.686259 -0.481173,-0.898896 -0.6951,-1.950504 -0.735765,-3.101119"
       id="path829"
       inkscape:connector-curvature="0"
       sodipodi:nodetypes="ccc" />
    <path
       style="fill:none;stroke:#000000;stroke-width:0.26458332px;stroke-linecap:butt;stroke-linejoin:miter;stroke-opacity:1"
       d="M 8.8867116,9.4017588 C 6.6066488,10.603377 7.6362064,12.599305 7.3499119,14.279428 c -0.016983,1.158168 0.095549,2.316335 0.434313,3.474503 0.8098812,1.224861 0.9875493,2.168739 1.0022609,3.040192 0.6874667,1.153773 1.3648312,2.368159 2.1381562,3.006782"
       id="path831"
       inkscape:connector-curvature="0"
       sodipodi:nodetypes="ccccc" />
    <path
       style="fill:none;stroke:#000000;stroke-width:0.26458332px;stroke-linecap:butt;stroke-linejoin:miter;stroke-opacity:1"
       d="M 7.6505902,16.484401 9.721929,15.74941 c 0.546023,-0.233861 -0.1441422,-0.7684 -0.5345391,-0.7684 l -1.7038433,0.668174"
       id="path833"
       inkscape:connector-curvature="0"
       sodipodi:nodetypes="cccc" />
    <path
       style="fill:none;stroke:#000000;stroke-width:0.26458332px;stroke-linecap:butt;stroke-linejoin:miter;stroke-opacity:1"
       d="m 12.461441,14.747149 c 1.216875,-1.029618 2.820618,-1.2855 4.476765,-1.436573 0.188411,-0.537849 -0.446109,-0.709951 -1.035669,-0.902035 -1.716449,0.109893 -2.835682,0.817002 -3.942226,1.5368 0.05487,0.772054 0.271112,0.817924 0.50113,0.801808 z"
       id="path835"
       inkscape:connector-curvature="0"
       sodipodi:nodetypes="ccccc" />
    <path
       style="fill:none;stroke:#000000;stroke-width:0.26458332px;stroke-linecap:butt;stroke-linejoin:miter;stroke-opacity:1"
       d="m 23.452901,14.279428 -5.278573,0.868625 c -2.374745,-0.665959 -3.914844,0.546035 -5.61266,1.403165 -0.620296,-0.311886 -1.171996,0.06217 -1.703844,0.634766 -2.0637569,-0.07349 -3.0139672,0.780972 -4.0424511,1.570208 0.3721623,1.228856 0.9760879,1.820363 1.7038431,2.071339 1.191705,-0.0747 2.17,-0.271345 2.739513,-0.701582"
       id="path837"
       inkscape:connector-curvature="0"
       sodipodi:nodetypes="ccccccc" />
    <path
       style="fill:none;stroke:#000000;stroke-width:0.26458332px;stroke-linecap:butt;stroke-linejoin:miter;stroke-opacity:1"
       d="m 12.628485,16.51781 c 0.207881,0.801809 0.132469,1.603617 1.436574,2.405426 1.139409,0.135577 2.178062,0.502891 4.176086,-1.336348 0.368541,-0.71242 0.42213,-1.514827 0.167044,-2.405426"
       id="path839"
       inkscape:connector-curvature="0"
       sodipodi:nodetypes="cccc" />
    <path
       style="fill:none;stroke:#000000;stroke-width:0.26458332px;stroke-linecap:butt;stroke-linejoin:miter;stroke-opacity:1"
       d="m 10.991459,17.052349 c 0.286133,1.568592 0.405341,2.992427 0.300678,4.643808 0.106754,1.167932 1.042825,0.425682 1.637026,0.534539"
       id="path841"
       inkscape:connector-curvature="0"
       sodipodi:nodetypes="ccc" />
    <path
       style="fill:none;stroke:#000000;stroke-width:0.26458332px;stroke-linecap:butt;stroke-linejoin:miter;stroke-opacity:1"
       d="m 14.131876,20.359809 c 0.372072,-0.146288 1.42176,0.243114 0.634765,1.202713 1.74527,-0.37516 3.097269,-0.07848 3.775182,1.369756 -1.748931,-1.106667 -2.676173,0.744743 -4.009043,1.135896 -2.440958,-0.01503 -3.230463,0.364846 -3.641547,0.835217 -0.236638,-1.67246 0.95647,-1.376838 0.835217,-2.639286"
       id="path845"
       inkscape:connector-curvature="0"
       sodipodi:nodetypes="cccccc" />
    <path
       style="fill:none;stroke:#000000;stroke-width:0.26458332px;stroke-linecap:butt;stroke-linejoin:miter;stroke-opacity:1"
       d="m 13.497111,25.371113 c 1.246882,0.328452 2.415642,-0.514934 3.57473,-1.503391"
       id="path847"
       inkscape:connector-curvature="0"
       sodipodi:nodetypes="cc" />
    <path
       style="fill:none;stroke:#000000;stroke-width:0.26458332px;stroke-linecap:butt;stroke-linejoin:miter;stroke-opacity:1"
       d="m 11.525998,24.702939 c 1.832895,2.717592 3.46785,3.406298 4.944487,2.472243 3.297637,-0.792419 2.898282,-1.892921 3.140416,-2.939965"
       id="path849"
       inkscape:connector-curvature="0"
       sodipodi:nodetypes="ccc" />
    <path
       style="fill:none;stroke:#000000;stroke-width:0.26458332px;stroke-linecap:butt;stroke-linejoin:miter;stroke-opacity:1"
       d="m 19.076363,26.072695 c 0.855488,-0.232202 1.767802,-0.730761 1.570208,-3.507912"
       id="path851"
       inkscape:connector-curvature="0"
       sodipodi:nodetypes="cc" />
    <path
       style="fill:none;stroke:#000000;stroke-width:0.26458332px;stroke-linecap:butt;stroke-linejoin:miter;stroke-opacity:1"
       d="m 20.479528,25.103844 c 1.46589,-1.017787 2.229726,-2.55785 2.27179,-4.376539"
       id="path853"
       inkscape:connector-curvature="0"
       sodipodi:nodetypes="cc" />
    <path
       style="fill:none;stroke:#000000;stroke-width:0.26458332px;stroke-linecap:butt;stroke-linejoin:miter;stroke-opacity:1"
       d="m 16.604119,16.718262 c -0.484547,0.572257 -1.17481,0.897654 -2.104747,0.935443"
       id="path855"
       inkscape:connector-curvature="0"
       sodipodi:nodetypes="cc" />
    <path
       style="fill:none;stroke:#000000;stroke-width:0.26458332px;stroke-linecap:butt;stroke-linejoin:miter;stroke-opacity:1"
       d="m 10.590555,18.655966 c -0.640792,0.650291 -1.0637035,0.538 -1.5367997,0.601356"
       id="path857"
       inkscape:connector-curvature="0"
       sodipodi:nodetypes="cc" />
    <path
       style="fill:none;stroke:#000000;stroke-width:0.26458332px;stroke-linecap:butt;stroke-linejoin:miter;stroke-opacity:1"
       d="m 13.193731,21.508026 c 0.289055,0.0068 0.570657,-0.09816 0.87407,0.124023 -0.202156,0.05035 -0.281045,0.131523 -0.360258,0.212612"
       id="path859"
       inkscape:connector-curvature="0"
       sodipodi:nodetypes="ccc" />
    <path
       style="fill:none;stroke:#000000;stroke-width:0.26458332px;stroke-linecap:butt;stroke-linejoin:miter;stroke-opacity:1"
       d="m 24.143229,17.982217 c 0.405041,-0.182124 1.550477,-0.186983 1.370164,-2.645833 -0.44369,-3.700716 -1.799314,-1.559281 -2.14974,-0.732329"
       id="path861"
       inkscape:connector-curvature="0"
       sodipodi:nodetypes="ccc" />
    <path
       style="fill:none;stroke:#000000;stroke-width:0.26458332px;stroke-linecap:butt;stroke-linejoin:miter;stroke-opacity:1"
       d="m 24.355841,14.722172 c -0.143661,0.384009 -0.325021,0.670001 -0.165365,1.842634 0.393725,-0.09449 0.535466,-0.31498 0.425223,-0.661458"
       id="path863"
       inkscape:connector-curvature="0"
       sodipodi:nodetypes="ccc" />
    <path
       style="fill:none;stroke:#000000;stroke-width:0.26458332px;stroke-linecap:butt;stroke-linejoin:miter;stroke-opacity:1"
       d="m 25.22991,20.722544 c 0.379082,0.909229 0.849643,1.795588 2.22061,2.456846 -0.593904,1.97194 -3.101516,1.908905 -3.827008,2.409598 -0.894336,0.727275 -1.721854,3.178841 -3.685268,3.307293"
       id="path865"
       inkscape:connector-curvature="0"
       sodipodi:nodetypes="cccc" />
    <path
       style="fill:none;stroke:#000000;stroke-width:0.26458332px;stroke-linecap:butt;stroke-linejoin:miter;stroke-opacity:1"
       d="m 13.559896,27.100892 c -0.559024,0.308602 -1.182806,0.694913 -2.362351,1.748139 -1.2933338,1.942662 -1.8009664,4.199605 -2.5040927,6.37835 -0.020379,0.448846 -0.079474,0.897692 0.141741,1.346539"
       id="path867"
       inkscape:connector-curvature="0"
       sodipodi:nodetypes="cccc" />
    <path
       style="fill:none;stroke:#000000;stroke-width:0.26458332px;stroke-linecap:butt;stroke-linejoin:miter;stroke-opacity:1"
       d="m 8.6934523,35.463614 c 0.4449075,-1.072903 2.3762047,0.08378 4.0159967,0.803201"
       id="path869"
       inkscape:connector-curvature="0"
       sodipodi:nodetypes="cc" />
    <path
       style="fill:none;stroke:#000000;stroke-width:0.26458332px;stroke-linecap:butt;stroke-linejoin:miter;stroke-opacity:1"
       d="m 17.245164,27.100892 c 0.14875,0.687907 -0.437185,1.807981 0.661458,1.937128"
       id="path871"
       inkscape:connector-curvature="0"
       sodipodi:nodetypes="cc" />
    <path
       style="fill:none;stroke:#000000;stroke-width:0.26458332px;stroke-linecap:butt;stroke-linejoin:miter;stroke-opacity:1"
       d="M 9.3544333,35.326902 C 8.156045,38.828004 6.6094293,41.980878 4.8776688,44.948607"
       id="path873"
       inkscape:connector-curvature="0"
       sodipodi:nodetypes="cc" />
    <path
       style="fill:none;stroke:#000000;stroke-width:0.26458332px;stroke-linecap:butt;stroke-linejoin:miter;stroke-opacity:1"
       d="m 4.8776688,52.098066 c 1.2382988,3.577345 3.5063894,0.561686 5.2117562,-0.868627 1.994689,-1.890565 3.321922,-8.273567 6.214016,-13.296659"
       id="path875"
       inkscape:connector-curvature="0"
       sodipodi:nodetypes="ccc" />
    <path
       style="fill:none;stroke:#000000;stroke-width:0.26458332px;stroke-linecap:butt;stroke-linejoin:miter;stroke-opacity:1"
       d="m 15.756882,37.873215 c 0.934566,0.222734 1.617066,-0.91569 2.338728,-1.842635 0.504416,-1.05368 1.508328,-1.936104 3.56715,-2.456845 0.617042,-0.200486 1.076796,-1.215095 -0.212611,-1.13393 -2.031197,0.312842 -3.159419,1.175322 -4.181362,2.102493"
       id="path877"
       inkscape:connector-curvature="0"
       sodipodi:nodetypes="ccccc" />
    <path
       style="fill:none;stroke:#000000;stroke-width:0.26458332px;stroke-linecap:butt;stroke-linejoin:miter;stroke-opacity:1"
       d="m 21.213913,32.487053 2.291481,-0.401599 c 1.198014,-0.137678 0.791856,-1.02666 0,-0.921319 -3.202935,-0.262966 -5.295017,0.415879 -6.449219,1.889882"
       id="path879"
       inkscape:connector-curvature="0"
       sodipodi:nodetypes="cccc" />
    <path
       style="fill:none;stroke:#000000;stroke-width:0.26458332px;stroke-linecap:butt;stroke-linejoin:miter;stroke-opacity:1"
       d="m 23.48177,31.152324 c 1.034715,0.04315 1.993716,-1.039426 0.188989,-1.169363 -5.804015,0.08548 -6.397776,1.185338 -7.323289,2.220611"
       id="path881"
       inkscape:connector-curvature="0"
       sodipodi:nodetypes="ccc" />
    <path
       style="fill:none;stroke:#000000;stroke-width:0.26458332px;stroke-linecap:butt;stroke-linejoin:miter;stroke-opacity:1"
       d="m 23.257347,30.018398 c 0.67727,-0.314387 0.349349,-0.791888 -0.93362,-0.815013 -2.35542,0.235074 -4.453796,0.452506 -5.551034,1.511906"
       id="path883"
       inkscape:connector-curvature="0"
       sodipodi:nodetypes="ccc" />
    <path
       style="fill:none;stroke:#000000;stroke-width:0.26458332px;stroke-linecap:butt;stroke-linejoin:miter;stroke-opacity:1"
       d="m 19.558762,29.561039 c 0.750858,-0.21264 0.713648,-0.854826 -0.360577,-0.756938 -1.149226,0.179101 -2.427346,0.357345 -3.596326,1.578315 -0.739894,2.249518 -1.82031,4.499037 -3.441096,6.748555 -1.217516,2.389696 -3.2726782,4.500178 -5.2154506,6.648122"
       id="path885"
       inkscape:connector-curvature="0"
       sodipodi:nodetypes="ccccc" />
    <path
       style="fill:none;stroke:#000000;stroke-width:0.26458332px;stroke-linecap:butt;stroke-linejoin:miter;stroke-opacity:1"
       d="m 27.395127,23.199548 c 0.724302,-0.117601 1.454489,-0.244031 1.135894,1.202713 -0.945833,1.130259 -2.526648,1.371542 -3.875407,1.937704 -1.001238,1.099116 -1.759447,2.279241 -3.775182,3.040191"
       id="path887"
       inkscape:connector-curvature="0"
       sodipodi:nodetypes="cccc" />
    <path
       style="fill:none;stroke:#000000;stroke-width:0.26458332px;stroke-linecap:butt;stroke-linejoin:miter;stroke-opacity:1"
       d="m 28.631247,24.302035 c 1.985232,1.741975 4.293555,2.967813 5.946747,7.283094"
       id="path889"
       inkscape:connector-curvature="0"
       sodipodi:nodetypes="cc" />
    <path
       style="fill:none;stroke:#000000;stroke-width:0.26458332px;stroke-linecap:butt;stroke-linejoin:miter;stroke-opacity:1"
       d="m 27.729214,28.344487 c 1.240466,-0.267818 2.493317,-0.473717 3.908817,0.133633 1.113603,1.302883 1.665838,0.921661 3.340867,3.908819 0.492539,0.915715 0.465397,1.31175 0.53454,1.804069"
       id="path891"
       inkscape:connector-curvature="0"
       sodipodi:nodetypes="cccc" />
    <path
       style="fill:none;stroke:#000000;stroke-width:0.26458332px;stroke-linecap:butt;stroke-linejoin:miter;stroke-opacity:1"
       d="m 30.969857,30.516052 c 0.50113,-0.155919 1.002259,0.08496 1.503389,0.367495 3.103172,3.961126 2.347383,2.599545 3.140419,3.374277 0.391172,0.894811 0.343885,1.263471 0.300678,1.637027"
       id="path893"
       inkscape:connector-curvature="0"
       sodipodi:nodetypes="cccc" />
    <path
       style="fill:none;stroke:#000000;stroke-width:0.26458332px;stroke-linecap:butt;stroke-linejoin:miter;stroke-opacity:1"
       d="m 26.493091,31.184225 c 1.587368,-1.474231 3.446721,-0.826977 5.479026,1.169305"
       id="path895"
       inkscape:connector-curvature="0"
       sodipodi:nodetypes="cc" />
    <path
       style="fill:none;stroke:#000000;stroke-width:0.26458332px;stroke-linecap:butt;stroke-linejoin:miter;stroke-opacity:1"
       d="m 29.733734,31.919217 c 1.087112,0.05884 2.142231,0.309635 3.140417,0.902033 0.600978,0.141358 1.282554,1.008105 1.971114,1.937705 -0.195968,0.230332 -0.215626,0.672236 0.03341,1.436574"
       id="path897"
       inkscape:connector-curvature="0"
       sodipodi:nodetypes="cccc" />
    <path
       style="fill:none;stroke:#000000;stroke-width:0.26458332px;stroke-linecap:butt;stroke-linejoin:miter;stroke-opacity:1"
       d="m 34.110273,36.462798 c -1.486965,-2.511049 -3.603404,-3.823073 -6.314244,-3.541321 -5.616309,0.569454 -5.210142,5.36665 -3.674954,8.385582"
       id="path899"
       inkscape:connector-curvature="0"
       sodipodi:nodetypes="ccc" />
    <path
       style="fill:none;stroke:#000000;stroke-width:0.26458332px;stroke-linecap:butt;stroke-linejoin:miter;stroke-opacity:1"
       d="m 22.584275,33.923737 c -0.570147,1.77928 -1.509514,3.32939 0.400904,6.648331"
       id="path901"
       inkscape:connector-curvature="0"
       sodipodi:nodetypes="cc" />
    <path
       style="fill:none;stroke:#000000;stroke-width:0.26458332px;stroke-linecap:butt;stroke-linejoin:miter;stroke-opacity:1"
       d="m 40.457924,34.157599 c -0.231456,0.04033 -0.463654,0.07967 -0.434314,0.46772 0.141935,0.57362 0.490284,0.734414 0.801809,0.968854 0.301247,0.02646 0.532555,-0.0054 0.56795,-0.200453"
       id="path903"
       inkscape:connector-curvature="0"
       sodipodi:nodetypes="cccc" />
    <path
       style="fill:none;stroke:#000000;stroke-width:0.26458332px;stroke-linecap:butt;stroke-linejoin:miter;stroke-opacity:1"
       d="m 39.923386,34.625319 -1.570209,0.634767 c -0.105684,0.569395 0.261628,0.837793 0.634764,1.102485 l 1.703845,-0.768398"
       id="path905"
       inkscape:connector-curvature="0"
       sodipodi:nodetypes="cccc" />
    <path
       style="fill:none;stroke:#000000;stroke-width:0.26458332px;stroke-linecap:butt;stroke-linejoin:miter;stroke-opacity:1"
       d="m 39.054759,34.825773 c -0.287363,-0.78438 -1.842173,-0.93548 -1.77066,0.601355 0.100228,0.668173 0.512266,1.224985 1.236122,1.670434 1.012512,0.438401 1.34005,-0.73431 1.269529,-1.035669"
       id="path907"
       inkscape:connector-curvature="0"
       sodipodi:nodetypes="cccc" />
    <path
       style="fill:none;stroke:#000000;stroke-width:0.26458332px;stroke-linecap:butt;stroke-linejoin:miter;stroke-opacity:1"
       d="m 37.217281,35.594173 -4.159382,1.553504 c -0.10578,0.518526 0.0458,0.956628 0.65147,1.252826 l 4.293018,-1.620322"
       id="path909"
       inkscape:connector-curvature="0"
       sodipodi:nodetypes="cccc" />
    <path
       style="fill:none;stroke:#000000;stroke-width:0.26458332px;stroke-linecap:butt;stroke-linejoin:miter;stroke-opacity:1"
       d="m 32.974377,37.515172 -1.035669,0.534538 c -0.01588,0.213969 -0.176954,0.454338 0.267269,0.584653 l 1.152599,-0.484426"
       id="path911"
       inkscape:connector-curvature="0"
       sodipodi:nodetypes="cccc" />
    <path
       style="fill:none;stroke:#000000;stroke-width:0.26458332px;stroke-linecap:butt;stroke-linejoin:miter;stroke-opacity:1"
       d="m 31.919137,38.442017 -2.001655,0.743589"
       id="path913"
       inkscape:connector-curvature="0"
       sodipodi:nodetypes="cc" />
    <path
       style="fill:none;stroke:#000000;stroke-width:0.26458332px;stroke-linecap:butt;stroke-linejoin:miter;stroke-opacity:1"
       d="m 34.490326,38.203944 c 0.64138,4.397612 0.466863,10.223044 0.661459,15.402528"
       id="path915"
       inkscape:connector-curvature="0"
       sodipodi:nodetypes="cc" />
    <path
       style="fill:none;stroke:#000000;stroke-width:0.26458332px;stroke-linecap:butt;stroke-linejoin:miter;stroke-opacity:1"
       d="m 36.049479,37.542485 c 0.53001,1.921379 -0.704366,3.842757 -1.181177,5.764136"
       id="path917"
       inkscape:connector-curvature="0"
       sodipodi:nodetypes="cc" />
    <path
       style="fill:none;stroke:#000000;stroke-width:0.26458332px;stroke-linecap:butt;stroke-linejoin:miter;stroke-opacity:1"
       d="M 22.158854,47.653347 C 20.858267,47.342551 19.072452,47.419938 18.331845,46.661159"
       id="path919"
       inkscape:connector-curvature="0"
       sodipodi:nodetypes="cc" />
    <path
       style="fill:none;stroke:#000000;stroke-width:0.26458332px;stroke-linecap:butt;stroke-linejoin:miter;stroke-opacity:1"
       d="m 18.473586,52.661531 c -1.807772,-2.976102 -3.499607,-4.850806 -5.055431,-5.433407 1.531786,1.074525 2.937579,4.920878 4.346726,8.693452"
       id="path921"
       inkscape:connector-curvature="0"
       sodipodi:nodetypes="ccc" />
    <path
       style="fill:none;stroke:#000000;stroke-width:0.26458332px;stroke-linecap:butt;stroke-linejoin:miter;stroke-opacity:1"
       d="m 14.930059,53.700968 c -0.408805,-2.2062 -1.21768,-3.61226 -2.126116,-4.819198"
       id="path923"
       inkscape:connector-curvature="0"
       sodipodi:nodetypes="cc" />
    <path
       style="fill:none;stroke:#000000;stroke-width:0.26458332px;stroke-linecap:butt;stroke-linejoin:miter;stroke-opacity:1"
       d="m 11.008556,50.251934 c 1.167664,2.38543 1.184519,6.401173 0.850447,10.914062"
       id="path925"
       inkscape:connector-curvature="0"
       sodipodi:nodetypes="cc" />
    <path
       style="fill:none;stroke:#000000;stroke-width:0.26458332px;stroke-linecap:butt;stroke-linejoin:miter;stroke-opacity:1"
       d="m 6.4728423,62.866888 c -0.1005982,-0.78482 0.6458015,-1.33864 3.3072916,-1.370163 6.2144291,-0.613688 11.3153941,-3.484688 13.1819191,-4.677455 1.866525,-1.192767 3.987626,-2.595343 5.008186,0"
       id="path927"
       inkscape:connector-curvature="0"
       sodipodi:nodetypes="cczc" />
    <path
       style="fill:none;stroke:#000000;stroke-width:0.26458332px;stroke-linecap:butt;stroke-linejoin:miter;stroke-opacity:1"
       d="M 9.2604166,62.441666 C 7.7309085,62.742739 6.1099467,62.913062 4.8900669,64.307924"
       id="path929"
       inkscape:connector-curvature="0"
       sodipodi:nodetypes="cc" />
    <path
       style="fill:none;stroke:#000000;stroke-width:0.26458332px;stroke-linecap:butt;stroke-linejoin:miter;stroke-opacity:1"
       d="M 7.5595238,63.622843 C 5.7896805,64.370325 5.2221961,65.238042 5.3389135,66.17418"
       id="path931"
       inkscape:connector-curvature="0"
       sodipodi:nodetypes="cc" />
    <path
       style="fill:none;stroke:#000000;stroke-width:0.26458332px;stroke-linecap:butt;stroke-linejoin:miter;stroke-opacity:1"
       d="M 8.8824405,64.331548 C 8.1848823,64.93001 6.4097993,65.528471 6.9453124,66.126933"
       id="path933"
       inkscape:connector-curvature="0"
       sodipodi:nodetypes="cc" />
    <path
       style="fill:none;stroke:#000000;stroke-width:0.26458332px;stroke-linecap:butt;stroke-linejoin:miter;stroke-opacity:1"
       d="M 10.536086,64.945759 C 9.7649786,65.316157 8.6840572,65.531648 8.3627231,66.126933"
       id="path935"
       inkscape:connector-curvature="0"
       sodipodi:nodetypes="cc" />
    <path
       style="fill:none;stroke:#000000;stroke-width:0.26458332px;stroke-linecap:butt;stroke-linejoin:miter;stroke-opacity:1"
       d="m 10.772321,66.126933 c 0.680073,-0.221343 1.462681,-0.360659 2.456846,-0.330729 2.759746,0.791192 2.886538,-0.765798 3.968749,-1.204798 5.281233,-1.684553 10.889808,-1.627831 15.544271,-3.42541"
       id="path937"
       inkscape:connector-curvature="0"
       sodipodi:nodetypes="cccc" />
    <path
       style="fill:none;stroke:#000000;stroke-width:0.26458332px;stroke-linecap:butt;stroke-linejoin:miter;stroke-opacity:1"
       d="m 26.459682,55.271892 c 0.527088,-1.338239 -0.06054,-4.125603 -0.367495,-6.548104"
       id="path939"
       inkscape:connector-curvature="0"
       sodipodi:nodetypes="cc" />
    <path
       style="fill:none;stroke:#000000;stroke-width:0.26458332px;stroke-linecap:butt;stroke-linejoin:miter;stroke-opacity:1"
       d="m 15.935946,65.628585 c 0.968852,0.131813 1.937704,0.06202 2.906556,0.601356"
       id="path941"
       inkscape:connector-curvature="0"
       sodipodi:nodetypes="cc" />
    <path
       style="fill:none;stroke:#000000;stroke-width:0.26458332px;stroke-linecap:butt;stroke-linejoin:miter;stroke-opacity:1"
       d="m 24.321527,66.163123 c 3.932819,-1.778778 7.224692,-1.581305 10.089424,-0.06682 L 34.67822,64.69314"
       id="path943"
       inkscape:connector-curvature="0"
       sodipodi:nodetypes="ccc" />
    <path
       style="fill:none;stroke:#000000;stroke-width:0.26458332px;stroke-linecap:butt;stroke-linejoin:miter;stroke-opacity:1"
       d="M 35.814116,66.096308 C 33.808947,62.589671 32.048097,61.002679 29.466466,52.966691"
       id="path945"
       inkscape:connector-curvature="0"
       sodipodi:nodetypes="cc" />
    <path
       style="fill:none;stroke:#000000;stroke-width:0.26458332px;stroke-linecap:butt;stroke-linejoin:miter;stroke-opacity:1"
       d="m 39.656115,53.935542 c -0.922076,1.052949 -1.299433,4.965675 -1.904294,7.684"
       id="path947"
       inkscape:connector-curvature="0"
       sodipodi:nodetypes="cc" />
    <path
       style="fill:none;stroke:#000000;stroke-width:0.26458332px;stroke-linecap:butt;stroke-linejoin:miter;stroke-opacity:1"
       d="M 38.386586,58.245263 C 36.579899,55.401984 34.749615,53.990188 33.475509,50.928761"
       id="path949"
       inkscape:connector-curvature="0"
       sodipodi:nodetypes="cc" />
    <path
       style="fill:none;stroke:#000000;stroke-width:0.26458332px;stroke-linecap:butt;stroke-linejoin:miter;stroke-opacity:1"
       d="m 43.030393,66.163123 c 1.615936,-2.900396 3.67603,-5.578713 4.810853,-8.719666"
       id="path951"
       inkscape:connector-curvature="0"
       sodipodi:nodetypes="cc" />
    <path
       style="fill:none;stroke:#000000;stroke-width:0.26458332px;stroke-linecap:butt;stroke-linejoin:miter;stroke-opacity:1"
       d="m 46.638532,60.182968 c 0.436323,0.623071 0.590402,3.410005 0.7684,6.013564"
       id="path953"
       inkscape:connector-curvature="0"
       sodipodi:nodetypes="cc" />
    <path
       style="fill:none;stroke:#000000;stroke-width:0.26458332px;stroke-linecap:butt;stroke-linejoin:miter;stroke-opacity:1"
       d="m 50.848027,51.129212 -2.57247,6.447878 c -0.855364,-0.333855 -1.415793,-0.414909 -2.839739,-1.23612 h -1.00226 c -2.100485,-0.555266 -3.897466,-1.793414 -5.646068,-3.140417 1.195796,-3.985365 3.467903,-7.032875 4.677217,-10.724192 2.758798,-1.476381 5.482042,-3.028949 9.454658,-1.904293"
       id="path955"
       inkscape:connector-curvature="0"
       sodipodi:nodetypes="ccccccc" />
    <path
       style="fill:none;stroke:#000000;stroke-width:0.26458332px;stroke-linecap:butt;stroke-linejoin:miter;stroke-opacity:1"
       d="m 49.177593,55.205074 c -1.113623,-0.09623 -2.227247,0.05399 -3.34087,-0.968852 l -1.169305,-0.30068 C 42.69656,53.823417 41.085523,52.631829 39.55589,51.19603"
       id="path957"
       inkscape:connector-curvature="0"
       sodipodi:nodetypes="cccc" />
    <path
       style="fill:none;stroke:#000000;stroke-width:0.26458332px;stroke-linecap:butt;stroke-linejoin:miter;stroke-opacity:1"
       d="m 46.772168,49.091283 c -0.196505,1.549134 -1.297332,3.248988 -1.971114,4.877668 0.165698,0.721408 0.205884,1.474194 -0.334087,2.372019"
       id="path959"
       inkscape:connector-curvature="0"
       sodipodi:nodetypes="ccc" />
    <path
       style="fill:none;stroke:#000000;stroke-width:0.26458332px;stroke-linecap:butt;stroke-linejoin:miter;stroke-opacity:1"
       d="m 47.273297,51.062395 c -0.391243,1.117635 -1.509858,2.017059 -1.102487,3.374278 l -0.567947,1.870888"
       id="path961"
       inkscape:connector-curvature="0"
       sodipodi:nodetypes="ccc" />
    <path
       style="fill:none;stroke:#000000;stroke-width:0.26458332px;stroke-linecap:butt;stroke-linejoin:miter;stroke-opacity:1"
       d="m 33.642551,50.928761 c -0.930637,-1.825078 -0.21775,-2.705946 -0.734991,-3.875407 -1.31193,-1.456918 -1.580677,-2.260488 -1.770661,-3.240643 l -0.06682,-1.703845 c 0.01517,-1.320058 -1.118591,-1.261272 -1.436573,-0.634765 l -0.400905,1.770661 c -0.09482,1.686327 -1.113812,1.157214 -1.804067,0.668173 -1.664835,-1.311938 -0.839812,-1.554366 -0.467722,-2.338607 l 0.7684,-1.102487 c 0.121369,-1.178182 0.136608,-2.144106 -0.968854,-0.868627 -0.63966,0.830751 -1.331769,1.792626 -1.804068,2.204974 -1.069676,0.823306 -0.212707,2.117876 0.200452,3.34087"
       id="path963"
       inkscape:connector-curvature="0"
       sodipodi:nodetypes="cccccccccccc" />
    <path
       style="fill:none;stroke:#000000;stroke-width:0.26458332px;stroke-linecap:butt;stroke-linejoin:miter;stroke-opacity:1"
       d="m 26.392865,40.037528 c -0.139851,-0.434255 -0.439624,-0.26657 -1.202712,0.501131 l -1.236122,1.369756 c -1.004062,0.796633 0.02227,2.405425 0.03341,3.608138"
       id="path965"
       inkscape:connector-curvature="0"
       sodipodi:nodetypes="cccc" />
    <path
       style="fill:none;stroke:#000000;stroke-width:0.26458332px;stroke-linecap:butt;stroke-linejoin:miter;stroke-opacity:1"
       d="m 24.004144,41.77478 c -0.02455,-1.517573 -0.955388,-1.967278 -1.236121,-0.233862 -0.133152,1.072062 -0.309215,2.043996 -0.317383,3.407688 0.540107,0.628003 1.080215,1.293374 1.620322,1.837475"
       id="path967"
       inkscape:connector-curvature="0"
       sodipodi:nodetypes="cccc" />
    <path
       style="fill:none;stroke:#000000;stroke-width:0.26458332px;stroke-linecap:butt;stroke-linejoin:miter;stroke-opacity:1"
       d="m 22.968475,45.666892 c -0.445032,-0.359121 -1.020712,0.753671 -0.03341,1.403165 2.742888,1.146845 4.1435,2.600907 5.646069,4.009043 0.367496,-1.027119 0.734991,-1.414607 1.102487,-1.987817"
       id="path969"
       inkscape:connector-curvature="0"
       sodipodi:nodetypes="cccc" />
    <path
       style="fill:none;stroke:#000000;stroke-width:0.26458332px;stroke-linecap:butt;stroke-linejoin:miter;stroke-opacity:1"
       d="m 28.56443,50.945465 c 0.06936,0.514086 0.05914,1.132233 0.684879,0.918739 l 1.169305,-2.03793"
       id="path971"
       inkscape:connector-curvature="0"
       sodipodi:nodetypes="ccc" />
    <path
       style="fill:none;stroke:#000000;stroke-width:0.26458332px;stroke-linecap:butt;stroke-linejoin:miter;stroke-opacity:1"
       d="m 29.266014,51.8475 c -0.810823,1.556002 -0.01938,1.569316 0.05011,1.252827 0.749403,-1.736686 2.626369,-1.884534 4.309721,-2.305201"
       id="path973"
       inkscape:connector-curvature="0"
       sodipodi:nodetypes="ccc" />
    <path
       style="fill:none;stroke:#000000;stroke-width:0.26458332px;stroke-linecap:butt;stroke-linejoin:miter;stroke-opacity:1"
       d="m 47.807837,41.975232 c -1.524282,0.05298 -2.540049,1.005652 -2.906556,3.107008"
       id="path975"
       inkscape:connector-curvature="0"
       sodipodi:nodetypes="cc" />
    <path
       style="fill:none;stroke:#000000;stroke-width:0.26458332px;stroke-linecap:butt;stroke-linejoin:miter;stroke-opacity:1"
       d="m 58.264758,42.777042 2.672693,-0.367496"
       id="path977"
       inkscape:connector-curvature="0" />
    <path
       style="fill:none;stroke:#000000;stroke-width:0.26458332px;stroke-linecap:butt;stroke-linejoin:miter;stroke-opacity:1"
       d="m 63.710372,45.950867 0.334087,14.365737"
       id="path979"
       inkscape:connector-curvature="0" />
    <path
       style="fill:none;stroke:#000000;stroke-width:0.26458332px;stroke-linecap:butt;stroke-linejoin:miter;stroke-opacity:1"
       d="m 62.54107,52.933282 c 0.0986,4.185597 0.306681,8.480674 0.935442,13.196432"
       id="path981"
       inkscape:connector-curvature="0"
       sodipodi:nodetypes="cc" />
    <path
       style="fill:none;stroke:#000000;stroke-width:0.26458332px;stroke-linecap:butt;stroke-linejoin:miter;stroke-opacity:1"
       d="m 49.27782,40.104345 c 2.437381,-3.018409 5.240069,-3.114361 8.118311,-2.605878 2.66077,0.517391 4.731863,0.108146 6.781964,-0.334087"
       id="path983"
       inkscape:connector-curvature="0"
       sodipodi:nodetypes="ccc" />
    <path
       style="fill:none;stroke:#000000;stroke-width:0.26458332px;stroke-linecap:butt;stroke-linejoin:miter;stroke-opacity:1"
       d="m 64.144686,34.558504 c -3.029947,0.2078 -6.089331,0.6414 -9.287616,0.400902 -2.317192,-0.02244 -4.012991,2.164095 -3.80859,3.407688 -0.774765,-0.36145 -1.40661,-0.808651 -1.737252,-1.436574 -0.102204,-0.607518 -1.865323,-1.71331 -2.80633,-2.572469 -1.046745,-0.59095 -1.601025,-1.458912 -3.975634,-1.302939 -0.713256,-0.244326 -1.473986,-0.429309 -2.539061,-0.233861 -1.069078,0.03311 -2.138156,0.543317 -3.207234,1.102487 -0.290525,0.497855 -0.481278,0.980361 0.367495,1.302939"
       id="path985"
       inkscape:connector-curvature="0"
       sodipodi:nodetypes="ccccccccc" />
    <path
       style="fill:none;stroke:#000000;stroke-width:0.26458332px;stroke-linecap:butt;stroke-linejoin:miter;stroke-opacity:1"
       d="m 44.767645,34.758955 c -0.841862,-0.478796 -1.30449,-0.325536 -1.904296,-0.400905 l -1.302938,-0.501131 c -1.136315,-0.671369 -1.344745,0.296548 -0.634765,0.935445 0.578268,0.557423 1.014459,1.221404 2.271792,1.269529 0.82176,0.256133 1.327326,0.512267 1.436574,0.7684"
       id="path987"
       inkscape:connector-curvature="0"
       sodipodi:nodetypes="cccccc" />
    <path
       style="fill:none;stroke:#000000;stroke-width:0.26458332px;stroke-linecap:butt;stroke-linejoin:miter;stroke-opacity:1"
       d="m 37.685003,36.93052 c -0.628496,1.805764 1.064415,1.269676 1.536801,0.567947 0.453841,0.525233 1.19346,0.859946 2.973373,0.501131 1.951462,-0.467619 0.921656,-1.289466 0.400904,-1.336347 L 40.32429,36.462799"
       id="path989"
       inkscape:connector-curvature="0"
       sodipodi:nodetypes="ccccc" />
    <path
       style="fill:none;stroke:#000000;stroke-width:0.26458332px;stroke-linecap:butt;stroke-linejoin:miter;stroke-opacity:1"
       d="m 40.190655,38.099825 c 0.535059,0.42719 0.256689,1.108575 2.071338,1.135893 l 1.102487,-0.133633 c 0.945241,-0.271936 0.406097,-1.452228 -0.367495,-1.236123"
       id="path991"
       inkscape:connector-curvature="0"
       sodipodi:nodetypes="cccc" />
    <path
       style="fill:none;stroke:#000000;stroke-width:0.26458332px;stroke-linecap:butt;stroke-linejoin:miter;stroke-opacity:1"
       d="m 43.899021,38.600954 c 0.911632,0.01317 1.66498,-0.232659 2.088041,-1.018964"
       id="path993"
       inkscape:connector-curvature="0"
       sodipodi:nodetypes="cc" />
    <path
       style="fill:none;stroke:#000000;stroke-width:0.26458332px;stroke-linecap:butt;stroke-linejoin:miter;stroke-opacity:1"
       d="m 44.81776,38.617659 1.436573,2.372016"
       id="path995"
       inkscape:connector-curvature="0" />
    <path
       style="fill:none;stroke:#000000;stroke-width:0.26458332px;stroke-linecap:butt;stroke-linejoin:miter;stroke-opacity:1"
       d="m 45.586157,39.954006 c 1.143303,-0.600186 2.20633,-0.935461 3.775184,-2.939965"
       id="path997"
       inkscape:connector-curvature="0"
       sodipodi:nodetypes="cc" />
    <path
       style="fill:none;stroke:#000000;stroke-width:0.26458332px;stroke-linecap:butt;stroke-linejoin:miter;stroke-opacity:1"
       d="m 48.759985,36.462798 c -0.299166,0.59494 -0.805316,1.051892 -1.369758,1.469982"
       id="path999"
       inkscape:connector-curvature="0"
       sodipodi:nodetypes="cc" />
    <path
       style="fill:none;stroke:#000000;stroke-width:0.26458332px;stroke-linecap:butt;stroke-linejoin:miter;stroke-opacity:1"
       d="m 54.334076,34.943899 c -0.33338,-0.943849 -3.227892,-0.545911 -4.299479,-2.031622 -2.163034,-2.70883 -1.301179,-5.417659 -1.228421,-8.126489 -1.023735,-1.779671 -0.713778,-2.670214 -0.661458,-3.732515"
       id="path1001"
       inkscape:connector-curvature="0"
       sodipodi:nodetypes="cccc" />
    <path
       style="fill:none;stroke:#000000;stroke-width:0.26458332px;stroke-linecap:butt;stroke-linejoin:miter;stroke-opacity:1"
       d="m 64.114211,33.14851 -1.370163,0.04725"
       id="path1003"
       inkscape:connector-curvature="0" />
    <path
       style="fill:none;stroke:#000000;stroke-width:0.26458332px;stroke-linecap:butt;stroke-linejoin:miter;stroke-opacity:1"
       d="m 64.066964,30.266444 c -0.582215,2.172131 -0.957715,4.685791 -4.346726,2.220608"
       id="path1005"
       inkscape:connector-curvature="0"
       sodipodi:nodetypes="cc" />
    <path
       style="fill:none;stroke:#000000;stroke-width:0.26458332px;stroke-linecap:butt;stroke-linejoin:miter;stroke-opacity:1"
       d="m 62.129836,27.100892 c -1.305086,3.619583 -2.409852,8.379454 -5.291667,3.023809"
       id="path1007"
       inkscape:connector-curvature="0"
       sodipodi:nodetypes="cc" />
    <path
       style="fill:none;stroke:#000000;stroke-width:0.26458332px;stroke-linecap:butt;stroke-linejoin:miter;stroke-opacity:1"
       d="m 60.287201,25.163765 c -1.334698,2.64879 -3.722702,7.774151 -5.291667,2.882068"
       id="path1009"
       inkscape:connector-curvature="0"
       sodipodi:nodetypes="cc" />
    <path
       style="fill:none;stroke:#000000;stroke-width:0.26458332px;stroke-linecap:butt;stroke-linejoin:miter;stroke-opacity:1"
       d="m 58.019343,25.825223 c -0.922989,1.187706 -2.260947,3.529403 -4.441219,0.94494"
       id="path1011"
       inkscape:connector-curvature="0"
       sodipodi:nodetypes="cc" />
    <path
       style="fill:none;stroke:#000000;stroke-width:0.26458332px;stroke-linecap:butt;stroke-linejoin:miter;stroke-opacity:1"
       d="m 51.640996,30.549926 c 1.086044,0.92664 1.844322,-0.308228 2.031622,-2.126117 0.126003,-2.569078 -1.252457,-3.273028 -2.480467,-1.771763 -1.292547,-0.46633 -0.8172,-1.575593 -0.685082,-2.338728"
       id="path1013"
       inkscape:connector-curvature="0"
       sodipodi:nodetypes="cccc" />
    <path
       style="fill:none;stroke:#000000;stroke-width:0.26458332px;stroke-linecap:butt;stroke-linejoin:miter;stroke-opacity:1"
       d="m 57.195677,23.533635 c -3.249349,1.478918 -6.489116,2.932683 -7.650588,-1.069078"
       id="path1015"
       inkscape:connector-curvature="0"
       sodipodi:nodetypes="cc" />
    <path
       style="fill:none;stroke:#000000;stroke-width:0.26458332px;stroke-linecap:butt;stroke-linejoin:miter;stroke-opacity:1"
       d="m 54.656619,22.197287 c -2.501694,0.758348 -10.138989,0.318917 -7.416731,-6.247425 2.96367,-4.389958 6.492739,-2.123226 9.287615,-1.469982"
       id="path1017"
       inkscape:connector-curvature="0"
       sodipodi:nodetypes="ccc" />
    <path
       style="fill:none;stroke:#000000;stroke-width:0.26458332px;stroke-linecap:butt;stroke-linejoin:miter;stroke-opacity:1"
       d="m 51.215522,13.477619 c -0.511138,-1.097386 3.181471,-3.675618 6.68174,1.169304 -0.493206,2.803409 -3.36399,5.006166 4.109267,9.822155 0.202157,-1.647594 0.874846,-3.138344 1.603619,-4.610399 -1.870887,-0.886928 -3.741775,-2.153792 -5.612662,-5.245165 1.545009,-0.989582 3.885897,-0.884829 6.113791,-0.935443"
       id="path1019"
       inkscape:connector-curvature="0"
       sodipodi:nodetypes="cccccc" />
    <path
       style="fill:none;stroke:#000000;stroke-width:0.26458332px;stroke-linecap:butt;stroke-linejoin:miter;stroke-opacity:1"
       d="m 57.062044,19.491183 c -2.808003,-0.01572 -5.405313,1.10631 -8.619442,-1.102487"
       id="path1021"
       inkscape:connector-curvature="0"
       sodipodi:nodetypes="cc" />
    <path
       style="fill:none;stroke:#000000;stroke-width:0.26458332px;stroke-linecap:butt;stroke-linejoin:miter;stroke-opacity:1"
       d="m 56.661139,17.085757 c -1.189481,-0.464194 -2.340662,-0.660285 -3.441094,-0.50113"
       id="path1023"
       inkscape:connector-curvature="0"
       sodipodi:nodetypes="cc" />
    <path
       style="fill:none;stroke:#000000;stroke-width:0.26458332px;stroke-linecap:butt;stroke-linejoin:miter;stroke-opacity:1"
       d="m 55.157748,12.074454 c 1.879373,-1.51613 3.588501,-0.989328 5.11153,1.770661"
       id="path1025"
       inkscape:connector-curvature="0"
       sodipodi:nodetypes="cc" />
    <path
       style="fill:none;stroke:#000000;stroke-width:0.26458332px;stroke-linecap:butt;stroke-linejoin:miter;stroke-opacity:1"
       d="m 59.2002,12.408541 c 1.224301,-0.602409 2.438272,-0.884611 3.57473,1.236121"
       id="path1027"
       inkscape:connector-curvature="0"
       sodipodi:nodetypes="cc" />
    <path
       style="fill:none;stroke:#000000;stroke-width:0.26458332px;stroke-linecap:butt;stroke-linejoin:miter;stroke-opacity:1"
       d="m 64.144686,14.880784 c -0.611418,-0.04347 -1.146989,-0.01109 -1.670434,0.03341 1.020227,0.858659 1.191101,1.398811 1.536798,2.004521"
       id="path1029"
       inkscape:connector-curvature="0"
       sodipodi:nodetypes="ccc" />
    <path
       style="fill:none;stroke:#000000;stroke-width:0.26458332px;stroke-linecap:butt;stroke-linejoin:miter;stroke-opacity:1"
       d="M 64.144686,17.820749 C 62.20577,18.003118 61.027989,17.652692 59.9686,17.219392"
       id="path1031"
       inkscape:connector-curvature="0"
       sodipodi:nodetypes="cc" />
    <path
       style="fill:none;stroke:#000000;stroke-width:0.26458332px;stroke-linecap:butt;stroke-linejoin:miter;stroke-opacity:1"
       d="m 63.944235,21.762974 c -0.951205,-0.197559 -1.556634,1.714825 0.03341,2.906556"
       id="path1033"
       inkscape:connector-curvature="0"
       sodipodi:nodetypes="cc" />
    <path
       style="fill:none;stroke:#000000;stroke-width:0.26458332px;stroke-linecap:butt;stroke-linejoin:miter;stroke-opacity:1"
       d="m 52.685505,26.841095 c -1.953778,1.05092 0.556186,1.692892 -0.7684,2.706103"
       id="path1035"
       inkscape:connector-curvature="0"
       sodipodi:nodetypes="cc" />
  </g>
</svg>
