<?xml version="1.0" encoding="UTF-8" standalone="no"?>
<!-- Created with Inkscape (http://www.inkscape.org/) -->

<svg
   xmlns:dc="http://purl.org/dc/elements/1.1/"
   xmlns:cc="http://creativecommons.org/ns#"
   xmlns:rdf="http://www.w3.org/1999/02/22-rdf-syntax-ns#"
   xmlns:svg="http://www.w3.org/2000/svg"
   xmlns="http://www.w3.org/2000/svg"
   xmlns:sodipodi="http://sodipodi.sourceforge.net/DTD/sodipodi-0.dtd"
   xmlns:inkscape="http://www.inkscape.org/namespaces/inkscape"
   width="256"
   height="256"
   viewBox="0 0 67.733332 67.733335"
   version="1.1"
   id="svg836"
   inkscape:version="0.92.2 (5c3e80d, 2017-08-06)"
   sodipodi:docname="fig3.svg">
  <defs
     id="defs830" />
  <sodipodi:namedview
     id="base"
     pagecolor="#ffffff"
     bordercolor="#666666"
     borderopacity="1.0"
     inkscape:pageopacity="0.0"
     inkscape:pageshadow="2"
     inkscape:zoom="1.979899"
     inkscape:cx="138.59755"
     inkscape:cy="125.28673"
     inkscape:document-units="px"
     inkscape:current-layer="layer2"
     showgrid="false"
     units="px"
     showguides="true"
     inkscape:guide-bbox="true"
     inkscape:window-width="1366"
     inkscape:window-height="745"
     inkscape:window-x="-8"
     inkscape:window-y="-8"
     inkscape:window-maximized="1"
     inkscape:snap-global="false" />
  <metadata
     id="metadata833">
    <rdf:RDF>
      <cc:Work
         rdf:about="">
        <dc:format>image/svg+xml</dc:format>
        <dc:type
           rdf:resource="http://purl.org/dc/dcmitype/StillImage" />
        <dc:title />
      </cc:Work>
    </rdf:RDF>
  </metadata>
  <g
     inkscape:groupmode="layer"
     id="layer2"
     inkscape:label="Capa 2"
     style="display:inline">
    <path
       style="fill:none;stroke:#000000;stroke-width:0.26458332px;stroke-linecap:butt;stroke-linejoin:miter;stroke-opacity:1"
       d="M 21.780877,32.014584 C 16.614692,29.878849 8.9339287,7.7451324 26.174851,4.6585566"
       id="path816"
       inkscape:connector-curvature="0"
       sodipodi:nodetypes="cc" />
    <path
       style="fill:none;stroke:#000000;stroke-width:0.26458332px;stroke-linecap:butt;stroke-linejoin:miter;stroke-opacity:1"
       d="m 23.97856,7.5129482 c 9.335854,-15.5693724 23.094492,5.3259158 6.637512,6.7367538"
       id="path818"
       inkscape:connector-curvature="0"
       sodipodi:nodetypes="cc" />
    <path
       style="fill:none;stroke:#000000;stroke-width:0.26458332px;stroke-linecap:butt;stroke-linejoin:miter;stroke-opacity:1"
       d="M 33.261905,8.3910714 C 32.219656,12.055723 32.324737,16.386726 23.245535,15.383631"
       id="path820"
       inkscape:connector-curvature="0"
       sodipodi:nodetypes="cc" />
    <path
       style="fill:none;stroke:#000000;stroke-width:0.26458332px;stroke-linecap:butt;stroke-linejoin:miter;stroke-opacity:1"
       d="m 25.513392,15.478125 c 0.314539,1.379977 -0.321464,2.811335 -4.630208,4.44122"
       id="path822"
       inkscape:connector-curvature="0"
       sodipodi:nodetypes="cc" />
    <path
       style="fill:none;stroke:#000000;stroke-width:0.26458332px;stroke-linecap:butt;stroke-linejoin:miter;stroke-opacity:1"
       d="m 23.434524,18.695671 c -0.273978,1.749655 -1.14041,3.717577 0.850446,6.420846 -0.881944,0.09129 -1.763889,-0.529981 -2.645833,-1.511904 -4.821577,-6.606238 -5.037406,2.69889 1.039434,5.386161 -0.230457,1.624981 -0.841107,3.478078 -1.700892,5.480655 l 2.834821,6.472842 c 2.918716,1.239468 5.075362,5.963071 8.598958,2.787574 0.918763,-2.834736 2.231985,-5.196122 3.779762,-7.276041"
       id="path824"
       inkscape:connector-curvature="0"
       sodipodi:nodetypes="cccccccc" />
    <path
       style="fill:none;stroke:#000000;stroke-width:0.26458332px;stroke-linecap:butt;stroke-linejoin:miter;stroke-opacity:1"
       d="m 19.109771,29.446974 c -6.188332,1.042565 -5.306234,-5.547608 -3.006782,-6.481287"
       id="path826"
       inkscape:connector-curvature="0"
       sodipodi:nodetypes="cc" />
    <path
       style="fill:none;stroke:#000000;stroke-width:0.26458332px;stroke-linecap:butt;stroke-linejoin:miter;stroke-opacity:1"
       d="m 38.353177,8.7335851 c 3.374089,1.1016578 2.539606,5.3139989 1.937705,9.3544329 -1.113623,-4.01391 -2.227247,-6.599151 -3.34087,-6.347651"
       id="path828"
       inkscape:connector-curvature="0"
       sodipodi:nodetypes="ccc" />
    <path
       style="fill:none;stroke:#000000;stroke-width:0.26458332px;stroke-linecap:butt;stroke-linejoin:miter;stroke-opacity:1"
       d="m 40.290882,17.820749 0.133633,3.073599"
       id="path830"
       inkscape:connector-curvature="0" />
    <path
       style="fill:none;stroke:#000000;stroke-width:0.26458332px;stroke-linecap:butt;stroke-linejoin:miter;stroke-opacity:1"
       d="m 40.491333,19.491183 2.438834,1.03567 -15.267771,2.706104 -6.681738,-0.467722"
       id="path832"
       inkscape:connector-curvature="0"
       sodipodi:nodetypes="cccc" />
    <path
       style="fill:none;stroke:#000000;stroke-width:0.26458332px;stroke-linecap:butt;stroke-linejoin:miter;stroke-opacity:1"
       d="m 27.79603,23.199548 0.868626,3.641547 6.280836,-1.102486 0.167042,-3.842"
       id="path834"
       inkscape:connector-curvature="0"
       sodipodi:nodetypes="cccc" />
    <path
       style="fill:none;stroke:#000000;stroke-width:0.26458332px;stroke-linecap:butt;stroke-linejoin:miter;stroke-opacity:1"
       d="m 37.517958,21.595931 c 0.05298,2.446759 2.265604,5.887999 0.501132,6.113791 -0.811275,-0.345447 -1.687575,-0.768925 -2.071338,-0.601358"
       id="path836"
       inkscape:connector-curvature="0"
       sodipodi:nodetypes="ccc" />
    <path
       style="fill:none;stroke:#000000;stroke-width:0.26458332px;stroke-linecap:butt;stroke-linejoin:miter;stroke-opacity:1"
       d="m 34.878674,25.638382 c -0.263306,0.668174 -1.355903,1.469983 0.200451,2.004522 -2.08617,0.29329 -1.619196,2.919944 -2.873148,4.34313"
       id="path838"
       inkscape:connector-curvature="0"
       sodipodi:nodetypes="ccc" />
    <path
       style="fill:none;stroke:#000000;stroke-width:0.26458332px;stroke-linecap:butt;stroke-linejoin:miter;stroke-opacity:1"
       d="M 43.030393,20.460036 V 24.1684 l -4.677216,0.868626"
       id="path840"
       inkscape:connector-curvature="0"
       sodipodi:nodetypes="ccc" />
    <path
       style="fill:none;stroke:#000000;stroke-width:0.26458332px;stroke-linecap:butt;stroke-linejoin:miter;stroke-opacity:1"
       d="m 29.666917,24.43567 c 1.158168,0.285849 2.316337,0.497108 3.474505,-0.26727"
       id="path842"
       inkscape:connector-curvature="0"
       sodipodi:nodetypes="cc" />
    <path
       style="fill:none;stroke:#000000;stroke-width:0.26458332px;stroke-linecap:butt;stroke-linejoin:miter;stroke-opacity:1"
       d="m 38.01909,23.433409 c 1.064855,0.09088 2.005174,0.01572 2.539061,-0.601357"
       id="path844"
       inkscape:connector-curvature="0"
       sodipodi:nodetypes="cc" />
    <path
       style="fill:none;stroke:#000000;stroke-width:0.26458332px;stroke-linecap:butt;stroke-linejoin:miter;stroke-opacity:1"
       d="m 40.290882,18.889827 c -1.351872,-0.01215 -2.408284,0.41889 -3.407688,0.935443"
       id="path846"
       inkscape:connector-curvature="0"
       sodipodi:nodetypes="cc" />
    <path
       style="fill:none;stroke:#000000;stroke-width:0.26458332px;stroke-linecap:butt;stroke-linejoin:miter;stroke-opacity:1"
       d="m 33.609142,20.226175 c -2.125919,0.185222 -3.613354,0.867044 -4.944486,1.670434"
       id="path848"
       inkscape:connector-curvature="0"
       sodipodi:nodetypes="cc" />
    <path
       style="fill:none;stroke:#000000;stroke-width:0.26458332px;stroke-linecap:butt;stroke-linejoin:miter;stroke-opacity:1"
       d="m 34.410951,17.820749 0.668174,1.804069"
       id="path850"
       inkscape:connector-curvature="0" />
    <path
       style="fill:none;stroke:#000000;stroke-width:0.26458332px;stroke-linecap:butt;stroke-linejoin:miter;stroke-opacity:1"
       d="M 32.606882,16.885305 29.33283,17.753931"
       id="path852"
       inkscape:connector-curvature="0" />
    <path
       style="fill:none;stroke:#000000;stroke-width:0.26458332px;stroke-linecap:butt;stroke-linejoin:miter;stroke-opacity:1"
       d="m 37.885454,15.148054 -1.670433,1.00226"
       id="path854"
       inkscape:connector-curvature="0" />
    <path
       style="fill:none;stroke:#000000;stroke-width:0.26458332px;stroke-linecap:butt;stroke-linejoin:miter;stroke-opacity:1"
       d="m 19.711127,23.299774 c 0.699462,0.558899 2.636742,1.885085 1.603617,2.80633 -0.523224,0.244234 -1.610115,-0.636109 -0.467721,-1.870887"
       id="path856"
       inkscape:connector-curvature="0"
       sodipodi:nodetypes="ccc" />
    <path
       style="fill:none;stroke:#000000;stroke-width:0.26458332px;stroke-linecap:butt;stroke-linejoin:miter;stroke-opacity:1"
       d="m 21.544643,27.431621 c -2.781289,0.494018 -0.919319,4.282326 1.133928,1.606399"
       id="path858"
       inkscape:connector-curvature="0"
       sodipodi:nodetypes="cc" />
    <path
       style="fill:none;stroke:#000000;stroke-width:0.26458332px;stroke-linecap:butt;stroke-linejoin:miter;stroke-opacity:1"
       d="m 22.820312,27.478868 c 0.514411,2.715131 1.363224,5.127708 4.488469,5.480656 0.966838,1.913207 2.31207,2.596631 3.77976,2.882069"
       id="path860"
       inkscape:connector-curvature="0"
       sodipodi:nodetypes="ccc" />
    <path
       style="fill:none;stroke:#000000;stroke-width:0.26458332px;stroke-linecap:butt;stroke-linejoin:miter;stroke-opacity:1"
       d="m 28.348215,28.707291 c -0.538598,0.858858 -0.621438,2.021555 -0.803201,3.118303"
       id="path862"
       inkscape:connector-curvature="0"
       sodipodi:nodetypes="cc" />
    <path
       style="fill:none;stroke:#000000;stroke-width:0.26458332px;stroke-linecap:butt;stroke-linejoin:miter;stroke-opacity:1"
       d="m 40.915923,24.644047 c 2.083942,3.749956 1.477938,7.588819 -0.225756,9.63078"
       id="path864"
       inkscape:connector-curvature="0"
       sodipodi:nodetypes="cc" />
    <path
       style="fill:none;stroke:#000000;stroke-width:0.26458332px;stroke-linecap:butt;stroke-linejoin:miter;stroke-opacity:1"
       d="m 40.490698,33.101264 c 0.566965,2.267858 -0.314982,3.1498 -2.645834,2.645833 -2.833714,1.687697 -3.393941,0.533535 -4.299479,-0.188987"
       id="path866"
       inkscape:connector-curvature="0"
       sodipodi:nodetypes="ccc" />
    <path
       style="fill:none;stroke:#000000;stroke-width:0.26458332px;stroke-linecap:butt;stroke-linejoin:miter;stroke-opacity:1"
       d="m 33.309152,36.550298 c -0.285516,1.497144 -2.141844,1.039633 -3.165552,4.11049"
       id="path868"
       inkscape:connector-curvature="0"
       sodipodi:nodetypes="cc" />
    <path
       style="fill:none;stroke:#000000;stroke-width:0.26458332px;stroke-linecap:butt;stroke-linejoin:miter;stroke-opacity:1"
       d="m 39.026041,27.431621 c 0.546975,0.48822 0.901571,0.97644 1.133928,1.46466"
       id="path870"
       inkscape:connector-curvature="0"
       sodipodi:nodetypes="cc" />
    <path
       style="fill:none;stroke:#000000;stroke-width:0.26458332px;stroke-linecap:butt;stroke-linejoin:miter;stroke-opacity:1"
       d="m 39.876489,29.557739 c -1.209255,-0.42187 -1.204064,-0.101525 -1.889882,0.472469 -1.341057,-0.717209 -0.450316,0.765366 -4.252232,0.283482 3.64535,2.245155 5.574679,1.911367 5.126302,-0.755951"
       id="path872"
       inkscape:connector-curvature="0"
       sodipodi:nodetypes="cccc" />
    <path
       style="fill:none;stroke:#000000;stroke-width:0.26458332px;stroke-linecap:butt;stroke-linejoin:miter;stroke-opacity:1"
       d="m 21.648831,32.119667 c -7.446984,0.58621 5.773875,21.321166 -4.810851,25.256972"
       id="path874"
       inkscape:connector-curvature="0"
       sodipodi:nodetypes="cc" />
    <path
       style="fill:none;stroke:#000000;stroke-width:0.26458332px;stroke-linecap:butt;stroke-linejoin:miter;stroke-opacity:1"
       d="m 16.370258,50.561266 c 1.188504,3.01395 0.922152,4.734694 0.534539,6.34765 1.343878,-1.800842 1.552052,-4.088414 1.670435,-6.414468"
       id="path876"
       inkscape:connector-curvature="0"
       sodipodi:nodetypes="ccc" />
    <path
       style="fill:none;stroke:#000000;stroke-width:0.26458332px;stroke-linecap:butt;stroke-linejoin:miter;stroke-opacity:1"
       d="m 20.713388,34.458277 c 0.502481,4.046249 0.981676,8.075033 2.873147,13.163024 0.556678,0.85969 1.173081,1.731325 3.474506,2.939965"
       id="path878"
       inkscape:connector-curvature="0"
       sodipodi:nodetypes="ccc" />
    <path
       style="fill:none;stroke:#000000;stroke-width:0.26458332px;stroke-linecap:butt;stroke-linejoin:miter;stroke-opacity:1"
       d="m 35.446621,54.403264 -8.552624,-3.140416 c -0.451782,-0.336855 -1.353327,-1.054556 0.835215,-0.668174 l 10.84112,2.856444"
       id="path880"
       inkscape:connector-curvature="0"
       sodipodi:nodetypes="cccc" />
    <path
       style="fill:none;stroke:#000000;stroke-width:0.26458332px;stroke-linecap:butt;stroke-linejoin:miter;stroke-opacity:1"
       d="m 31.437577,52.899873 c -2.636873,0.253165 -5.440417,-0.827035 -8.251946,-1.971112 -1.008269,6.338278 -3.614804,7.377042 -6.280833,8.218538 0.14708,1.060251 -0.460891,1.365451 -0.902035,1.837478 l -0.534539,-2.071338"
       id="path882"
       inkscape:connector-curvature="0"
       sodipodi:nodetypes="ccccc" />
    <path
       style="fill:none;stroke:#000000;stroke-width:0.26458332px;stroke-linecap:butt;stroke-linejoin:miter;stroke-opacity:1"
       d="m 15.969354,60.851143 1.703843,5.779702"
       id="path884"
       inkscape:connector-curvature="0"
       sodipodi:nodetypes="cc" />
    <path
       style="fill:none;stroke:#000000;stroke-width:0.26458332px;stroke-linecap:butt;stroke-linejoin:miter;stroke-opacity:1"
       d="m 19.654762,33.526489 c -2.699511,1.724997 -5.232442,3.505521 -7.181548,5.480653"
       id="path886"
       inkscape:connector-curvature="0"
       sodipodi:nodetypes="cc" />
    <path
       style="fill:none;stroke:#000000;stroke-width:0.26458332px;stroke-linecap:butt;stroke-linejoin:miter;stroke-opacity:1"
       d="M 15.119047,43.542857 C 12.745249,34.710398 9.7712239,41.385746 7.1343006,41.747471"
       id="path888"
       inkscape:connector-curvature="0"
       sodipodi:nodetypes="cc" />
    <path
       style="fill:none;stroke:#000000;stroke-width:0.26458332px;stroke-linecap:butt;stroke-linejoin:miter;stroke-opacity:1"
       d="M 9.3549106,42.21994 C 6.7233667,41.808464 4.8923121,40.799802 2.7403274,46.094197 1.1538023,49.497405 2.2781116,52.303749 3.6380208,55.543602 l 6.9844532,-0.04152 c 1.156067,-0.984089 2.717687,-1.192902 4.118597,-1.564884 0.07877,-0.836953 -0.143809,-1.587808 -0.94494,-2.173362 -0.399058,-6.493053 -1.505527,-6.265698 -2.362351,-8.409971"
       id="path890"
       inkscape:connector-curvature="0"
       sodipodi:nodetypes="ccccccc" />
    <path
       style="fill:none;stroke:#000000;stroke-width:0.26458332px;stroke-linecap:butt;stroke-linejoin:miter;stroke-opacity:1"
       d="m 13.843378,51.716593 c -1.087619,1.335327 -3.478493,2.707341 -5.8233399,3.791223"
       id="path892"
       inkscape:connector-curvature="0"
       sodipodi:nodetypes="cc" />
    <path
       style="fill:none;stroke:#000000;stroke-width:0.26458332px;stroke-linecap:butt;stroke-linejoin:miter;stroke-opacity:1"
       d="m 3.6852677,55.590847 c -0.3646164,0.897693 -0.7668542,1.795387 0.094494,2.69308 4.620649,-0.08036 5.0876231,-1.718349 6.9453123,-2.83482"
       id="path894"
       inkscape:connector-curvature="0"
       sodipodi:nodetypes="ccc" />
    <path
       style="fill:none;stroke:#000000;stroke-width:0.26458332px;stroke-linecap:butt;stroke-linejoin:miter;stroke-opacity:1"
       d="m 3.7325149,58.23668 c -1.5134223,-0.2723 -0.6334074,1.335958 1.3701635,3.82701 4.9515756,0.182021 8.4902096,-1.578753 11.4337796,-4.157739 0.74862,-1.468761 -0.160732,-1.797384 -0.57507,-2.453978"
       id="path896"
       inkscape:connector-curvature="0"
       sodipodi:nodetypes="cccc" />
    <path
       style="fill:none;stroke:#000000;stroke-width:0.26458332px;stroke-linecap:butt;stroke-linejoin:miter;stroke-opacity:1"
       d="m 15.308036,56.866517 c 0.956071,-0.907663 1.103733,-1.932571 -0.572697,-2.965591"
       id="path898"
       inkscape:connector-curvature="0"
       sodipodi:nodetypes="cc" />
    <path
       style="fill:none;stroke:#000000;stroke-width:0.26458332px;stroke-linecap:butt;stroke-linejoin:miter;stroke-opacity:1"
       d="M 6.2366072,62.06369 8.315476,66.599405"
       id="path900"
       inkscape:connector-curvature="0" />
    <path
       style="fill:none;stroke:#000000;stroke-width:0.26458332px;stroke-linecap:butt;stroke-linejoin:miter;stroke-opacity:1"
       d="M 6.331101,62.914135 5.7641368,66.410416"
       id="path902"
       inkscape:connector-curvature="0" />
    <path
       style="fill:none;stroke:#000000;stroke-width:0.26458332px;stroke-linecap:butt;stroke-linejoin:miter;stroke-opacity:1"
       d="m 23.653353,66.597437 8.352173,-2.672694 c 0.322276,-2.409308 0.292335,-3.938074 0.267269,-5.479026 1.465398,-1.774207 2.529157,-4.184342 4.677217,-4.877668 1.943307,-0.306492 3.794696,0.03044 5.612659,0.601356 1.303736,0.793877 1.096652,1.09896 0.267271,1.202711 2.249486,0.909921 3.346739,1.833869 0.46772,2.806332 0.278164,1.391624 0.0062,1.866447 -0.46772,2.00452 0.205125,1.118296 0.428429,1.829553 -0.200453,2.539061 -0.909631,1.02917 -2.082712,1.563357 -1.737252,-0.06682 l 0.200451,-1.269529"
       id="path904"
       inkscape:connector-curvature="0"
       sodipodi:nodetypes="ccccccccccc" />
    <path
       style="fill:none;stroke:#000000;stroke-width:0.26458332px;stroke-linecap:butt;stroke-linejoin:miter;stroke-opacity:1"
       d="m 41.961315,61.385682 c -0.734991,-0.12517 -1.469983,-0.09986 -2.204974,0.400905 -1.01435,1.408983 -1.547996,3.092655 -2.138156,4.744032"
       id="path906"
       inkscape:connector-curvature="0"
       sodipodi:nodetypes="ccc" />
    <path
       style="fill:none;stroke:#000000;stroke-width:0.26458332px;stroke-linecap:butt;stroke-linejoin:miter;stroke-opacity:1"
       d="m 36.758184,55.827083 c 1.513522,-1.475412 3.660387,-1.508209 6.307478,-0.401601"
       id="path908"
       inkscape:connector-curvature="0"
       sodipodi:nodetypes="cc" />
    <path
       style="fill:none;stroke:#000000;stroke-width:0.26458332px;stroke-linecap:butt;stroke-linejoin:miter;stroke-opacity:1"
       d="m 37.821242,57.622468 c 1.559876,-0.706169 3.162187,-1.299252 5.457031,0.566966"
       id="path910"
       inkscape:connector-curvature="0"
       sodipodi:nodetypes="cc" />
    <path
       style="fill:none;stroke:#000000;stroke-width:0.26458332px;stroke-linecap:butt;stroke-linejoin:miter;stroke-opacity:1"
       d="m 39.380395,59.37061 c 1.9484,-0.919872 2.661081,0.04635 3.449032,0.897692"
       id="path912"
       inkscape:connector-curvature="0"
       sodipodi:nodetypes="cc" />
    <path
       style="fill:none;stroke:#000000;stroke-width:0.26458332px;stroke-linecap:butt;stroke-linejoin:miter;stroke-opacity:1"
       d="m 22.049736,64.325647 c 2.696624,1.36756 6.14681,1.012693 10.089423,-0.467722 l 0.734992,1.135896"
       id="path914"
       inkscape:connector-curvature="0"
       sodipodi:nodetypes="ccc" />
    <path
       style="fill:none;stroke:#000000;stroke-width:0.26458332px;stroke-linecap:butt;stroke-linejoin:miter;stroke-opacity:1"
       d="m 35.435267,37.778719 c 2.441096,1.213107 4.882192,2.953391 7.323288,3.49628 l 4.204986,8.693452 c 0.440972,-0.03892 0.881945,-0.401719 1.322917,0.377976 l 0.09449,-0.944938 15.827753,-5.291667 -1.748139,15.497021"
       id="path916"
       inkscape:connector-curvature="0"
       sodipodi:nodetypes="ccccccc" />
    <path
       style="fill:none;stroke:#000000;stroke-width:0.26458332px;stroke-linecap:butt;stroke-linejoin:miter;stroke-opacity:1"
       d="m 34.868302,38.345684 c 0.226471,3.25415 0.881343,6.785486 0.283484,9.921874 -1.496425,0.9606 -2.885736,2.059273 -3.626209,3.271857"
       id="path918"
       inkscape:connector-curvature="0"
       sodipodi:nodetypes="ccc" />
    <path
       style="fill:none;stroke:#000000;stroke-width:0.26458332px;stroke-linecap:butt;stroke-linejoin:miter;stroke-opacity:1"
       d="m 35.954985,38.345684 c 0.141153,3.649979 -0.06365,7.386447 1.511904,10.677826 1.352805,1.148185 2.613616,2.511022 3.590774,4.535715 2.255736,-1.016017 4.394306,-2.062897 5.953124,-3.543526"
       id="path920"
       inkscape:connector-curvature="0"
       sodipodi:nodetypes="cccc" />
    <path
       style="fill:none;stroke:#000000;stroke-width:0.26458332px;stroke-linecap:butt;stroke-linejoin:miter;stroke-opacity:1"
       d="m 33.02567,51.905579 c 0.634947,-1.127543 1.878584,-1.669506 2.882069,-1.937128 1.345624,0.77921 2.557538,1.792414 3.401785,3.449034"
       id="path922"
       inkscape:connector-curvature="0"
       sodipodi:nodetypes="ccc" />
    <path
       style="fill:none;stroke:#000000;stroke-width:0.26458332px;stroke-linecap:butt;stroke-linejoin:miter;stroke-opacity:1"
       d="M 48.286458,50.204687 46.254836,66.646652"
       id="path924"
       inkscape:connector-curvature="0" />
    <path
       style="fill:none;stroke:#000000;stroke-width:0.26458332px;stroke-linecap:butt;stroke-linejoin:miter;stroke-opacity:1"
       d="m 46.632812,62.866888 c -1.133928,-0.79833 -2.267857,-1.7567 -3.401785,-3.921503"
       id="path926"
       inkscape:connector-curvature="0"
       sodipodi:nodetypes="cc" />
    <path
       style="fill:none;stroke:#000000;stroke-width:0.26458332px;stroke-linecap:butt;stroke-linejoin:miter;stroke-opacity:1"
       d="m 47.341517,58.09494 -2.55134,-0.803201"
       id="path928"
       inkscape:connector-curvature="0" />
    <path
       style="fill:none;stroke:#000000;stroke-width:0.26458332px;stroke-linecap:butt;stroke-linejoin:miter;stroke-opacity:1"
       d="M 47.43601,56.81927 43.231027,55.40186"
       id="path930"
       inkscape:connector-curvature="0" />
    <path
       style="fill:none;stroke:#000000;stroke-width:0.26458332px;stroke-linecap:butt;stroke-linejoin:miter;stroke-opacity:1"
       d="m 47.624999,55.023884 -1.559152,1.039435"
       id="path932"
       inkscape:connector-curvature="0" />
    <path
       style="fill:none;stroke:#000000;stroke-width:0.26458332px;stroke-linecap:butt;stroke-linejoin:miter;stroke-opacity:1"
       d="m 47.908482,52.425298 -2.69308,1.795385"
       id="path934"
       inkscape:connector-curvature="0"
       sodipodi:nodetypes="cc" />
    <path
       style="fill:none;stroke:#000000;stroke-width:0.26458332px;stroke-linecap:butt;stroke-linejoin:miter;stroke-opacity:1"
       d="m 42.380579,62.914135 c 0.121598,1.960926 0.370078,2.779917 0.614212,3.638021"
       id="path936"
       inkscape:connector-curvature="0"
       sodipodi:nodetypes="cc" />
    <path
       style="fill:none;stroke:#000000;stroke-width:0.26458332px;stroke-linecap:butt;stroke-linejoin:miter;stroke-opacity:1"
       d="m 41.152156,63.670089 c 0.04351,0.884704 0.06258,1.753108 0.472472,2.882067"
       id="path938"
       inkscape:connector-curvature="0"
       sodipodi:nodetypes="cc" />
    <path
       style="fill:none;stroke:#000000;stroke-width:0.26458332px;stroke-linecap:butt;stroke-linejoin:miter;stroke-opacity:1"
       d="m 62.975381,56.508012 c 2.957778,0.65197 2.963508,4.091985 2.772923,7.717409 -2.309463,2.500109 -4.713791,2.346978 -7.14946,2.472242 -1.1379,-0.03879 -1.144718,-0.668173 -0.501131,-1.00226 -2.050033,0.02189 -1.531029,-0.881972 -1.236123,-1.436574 -1.615518,-0.166804 -1.622405,-1.447273 0.100227,-1.5368 -0.905324,-0.187271 -1.060121,-1.082428 0.367496,-1.169305 2.103826,-0.26365 4.068709,-0.727998 5.378799,-2.138156"
       id="path940"
       inkscape:connector-curvature="0"
       sodipodi:nodetypes="cccccccc" />
    <path
       style="fill:none;stroke:#000000;stroke-width:0.26458332px;stroke-linecap:butt;stroke-linejoin:miter;stroke-opacity:1"
       d="m 63.309467,61.519315 c -1.669001,0.702538 -3.432572,1.34203 -6.414468,1.169305"
       id="path942"
       inkscape:connector-curvature="0"
       sodipodi:nodetypes="cc" />
    <path
       style="fill:none;stroke:#000000;stroke-width:0.26458332px;stroke-linecap:butt;stroke-linejoin:miter;stroke-opacity:1"
       d="m 63.710372,62.822256 c -2.130118,1.03338 -4.455477,1.563262 -6.852835,1.4386"
       id="path944"
       inkscape:connector-curvature="0"
       sodipodi:nodetypes="cc" />
    <path
       style="fill:none;stroke:#000000;stroke-width:0.26458332px;stroke-linecap:butt;stroke-linejoin:miter;stroke-opacity:1"
       d="m 63.844008,64.392463 c -1.892719,0.693528 -3.822543,1.245442 -5.803328,1.322508"
       id="path946"
       inkscape:connector-curvature="0"
       sodipodi:nodetypes="cc" />
    <path
       style="fill:none;stroke:#000000;stroke-width:0.26458332px;stroke-linecap:butt;stroke-linejoin:miter;stroke-opacity:1"
       d="m 40.357697,46.585631 c 0.193411,1.63805 -0.118475,3.149775 -0.634765,4.610399 0.756676,-0.06595 1.303262,-0.814681 1.703845,-2.037929"
       id="path948"
       inkscape:connector-curvature="0"
       sodipodi:nodetypes="ccc" />
    <path
       style="fill:none;stroke:#000000;stroke-width:0.26458332px;stroke-linecap:butt;stroke-linejoin:miter;stroke-opacity:1"
       d="m 43.314367,45.900751 c 0.39343,-0.377792 0.822776,-0.751197 0.868627,-1.737251"
       id="path950"
       inkscape:connector-curvature="0"
       sodipodi:nodetypes="cc" />
  </g>
</svg>
