<?xml version="1.0" encoding="UTF-8" standalone="no"?>
<!-- Created with Inkscape (http://www.inkscape.org/) -->

<svg
   xmlns:dc="http://purl.org/dc/elements/1.1/"
   xmlns:cc="http://creativecommons.org/ns#"
   xmlns:rdf="http://www.w3.org/1999/02/22-rdf-syntax-ns#"
   xmlns:svg="http://www.w3.org/2000/svg"
   xmlns="http://www.w3.org/2000/svg"
   xmlns:sodipodi="http://sodipodi.sourceforge.net/DTD/sodipodi-0.dtd"
   xmlns:inkscape="http://www.inkscape.org/namespaces/inkscape"
   width="256"
   height="256"
   viewBox="0 0 67.733332 67.733335"
   version="1.1"
   id="svg1402"
   inkscape:version="0.92.2 (5c3e80d, 2017-08-06)"
   sodipodi:docname="fig4.svg">
  <defs
     id="defs1396" />
  <sodipodi:namedview
     id="base"
     pagecolor="#ffffff"
     bordercolor="#666666"
     borderopacity="1.0"
     inkscape:pageopacity="0.0"
     inkscape:pageshadow="2"
     inkscape:zoom="2.8"
     inkscape:cx="105.89945"
     inkscape:cy="126.4087"
     inkscape:document-units="px"
     inkscape:current-layer="layer2"
     showgrid="false"
     units="px"
     showguides="true"
     inkscape:guide-bbox="true"
     inkscape:snap-global="false"
     inkscape:window-width="1366"
     inkscape:window-height="745"
     inkscape:window-x="-8"
     inkscape:window-y="-8"
     inkscape:window-maximized="1">
    <sodipodi:guide
       position="-0.13363476,38.085909"
       orientation="1,0"
       id="guide1958"
       inkscape:locked="false" />
    <sodipodi:guide
       position="67.752824,42.763125"
       orientation="1,0"
       id="guide1960"
       inkscape:locked="false" />
  </sodipodi:namedview>
  <metadata
     id="metadata1399">
    <rdf:RDF>
      <cc:Work
         rdf:about="">
        <dc:format>image/svg+xml</dc:format>
        <dc:type
           rdf:resource="http://purl.org/dc/dcmitype/StillImage" />
        <dc:title />
      </cc:Work>
    </rdf:RDF>
  </metadata>
  <g
     inkscape:groupmode="layer"
     id="layer2"
     inkscape:label="Capa 2"
     style="display:inline">
    <path
       style="fill:none;stroke:#000000;stroke-width:0.26458332px;stroke-linecap:butt;stroke-linejoin:miter;stroke-opacity:1"
       d="m 12.284226,11.509375 c 0.02984,-0.992187 0.365791,-1.9843749 1.27567,-2.9765623 3.260044,-1.3403705 6.520089,-1.5738491 9.780133,0.8504465"
       id="path816"
       inkscape:connector-curvature="0"
       sodipodi:nodetypes="ccc" />
    <path
       style="fill:none;stroke:#000000;stroke-width:0.26458332px;stroke-linecap:butt;stroke-linejoin:miter;stroke-opacity:1"
       d="m 21.213913,8.2020835 c 4.137686,-1.6738824 5.062372,2.0252155 5.740513,5.7877605"
       id="path818"
       inkscape:connector-curvature="0"
       sodipodi:nodetypes="cc" />
    <path
       style="fill:none;stroke:#000000;stroke-width:0.26458332px;stroke-linecap:butt;stroke-linejoin:miter;stroke-opacity:1"
       d="M 11.622768,26.203199 C 0.56130911,22.537696 2.3574069,15.958169 7.5681604,12.379981 12.778913,8.8017938 18.569502,16.256941 27.592261,13.918973"
       id="path820"
       inkscape:connector-curvature="0"
       sodipodi:nodetypes="csc" />
    <path
       style="fill:none;stroke:#000000;stroke-width:0.26458332px;stroke-linecap:butt;stroke-linejoin:miter;stroke-opacity:1"
       d="m 26.626727,12.241498 c -2.754785,1.601539 -6.976773,-0.04454 -9.788747,0.634765"
       id="path822"
       inkscape:connector-curvature="0"
       sodipodi:nodetypes="cc" />
    <path
       style="fill:none;stroke:#000000;stroke-width:0.26458332px;stroke-linecap:butt;stroke-linejoin:miter;stroke-opacity:1"
       d="M 29.065561,22.097062 C 35.53575,15.976409 33.710255,7.207809 26.647975,12.345778"
       id="path824"
       inkscape:connector-curvature="0"
       sodipodi:nodetypes="cc" />
    <path
       style="fill:none;stroke:#000000;stroke-width:0.26458332px;stroke-linecap:butt;stroke-linejoin:miter;stroke-opacity:1"
       d="m 30.067821,11.94082 c -2.331253,8.400205 -12.513501,-2.1037719 -17.773423,7.550364 -0.33337,0.425619 -1.436144,0.620417 -0.133635,1.536799 -1.192562,0.592114 -0.701551,1.257428 0.133635,1.937705 -2.05739,1.5314 -0.499061,1.663167 0,2.204973 -0.006,0.576388 -1.209496,1.424953 0.534539,1.603616 0.219275,1.56941 -0.299546,3.179208 1.135896,1.870887 l 1.00226,0.80181 -0.100226,-2.004522 c -3.349569,-3.773329 -1.216532,-4.331977 -0.7684,-4.426652 0.817756,-0.08256 1.447504,1.424284 1.80407,2.121453 -0.313513,0.45701 0.164537,0.716129 0.534539,1.00226 -0.05455,0.633638 -0.387046,1.545215 0.567948,1.169305 0.05452,0.64431 -0.268274,1.607893 0.868626,1.336347 0.127166,1.010984 0.28333,1.969246 1.369756,1.236122 0.02854,0.648355 -0.193848,1.644158 0.935443,0.7684 0.416662,0.90582 0.881624,1.618442 1.737252,0.7684 0.295602,1.072348 0.68769,0.600914 1.069078,0.300678 0.401975,0.849882 0.67748,0.624772 0.902035,-0.03341 0.360616,0.75478 0.93122,0.837595 1.737252,0.167044 1.174599,0.768035 1.229672,0.04337 1.369756,-0.567948 0.956966,1.121439 0.737483,0.210829 0.7684,-0.26727 1.710299,0.56199 0.920786,-0.506332 0.701583,-1.202713 1.349561,0.605932 0.843651,-0.534462 0.768399,-1.26953 1.368375,0.18994 0.331492,-0.689125 0.26727,-1.135895 0.412228,-0.312543 0.745535,-0.653271 -0.06682,-1.403165 -0.05594,-1.497698 -0.401605,-1.604709 -0.902035,-0.968852 -0.296665,-1.07296 -0.882512,-0.796402 -1.436574,-0.668174 L 26.45968,24.1684 c 2.389543,-2.086363 -0.797634,-1.40608 -0.467722,-3.541322 0.724556,-0.153805 1.382097,-0.508654 2.271791,-0.167043"
       id="path826"
       inkscape:connector-curvature="0"
       sodipodi:nodetypes="ccccccccccccccccccccccccccccccc" />
    <path
       style="fill:none;stroke:#000000;stroke-width:0.26458332px;stroke-linecap:butt;stroke-linejoin:miter;stroke-opacity:1"
       d="m 27.562169,15.114645 c 1.205236,1.510705 1.38273,3.727982 1.169305,6.214017 0.515658,1.255812 0.350029,2.284529 0.367496,3.374277"
       id="path828"
       inkscape:connector-curvature="0"
       sodipodi:nodetypes="ccc" />
    <path
       style="fill:none;stroke:#000000;stroke-width:0.26458332px;stroke-linecap:butt;stroke-linejoin:miter;stroke-opacity:1"
       d="m 28.798292,19.357549 c -0.900423,-0.232398 -1.850252,-0.168359 -2.83974,0.133635 l 0.03341,-0.7684 c 0.890898,-0.358126 1.781797,-0.613337 2.672695,-0.26727"
       id="path830"
       inkscape:connector-curvature="0"
       sodipodi:nodetypes="cccc" />
    <path
       style="fill:none;stroke:#000000;stroke-width:0.26458332px;stroke-linecap:butt;stroke-linejoin:miter;stroke-opacity:1"
       d="m 23.352675,19.624818 c -1.247258,-0.0706 -2.494516,0.115585 -3.741774,0.668174 0.590545,-1.340256 2.067955,-1.657206 3.808591,-1.670434 z"
       id="path832"
       inkscape:connector-curvature="0"
       sodipodi:nodetypes="cccc" />
    <path
       style="fill:none;stroke:#000000;stroke-width:0.26458332px;stroke-linecap:butt;stroke-linejoin:miter;stroke-opacity:1"
       d="m 26.493091,16.283949 c -1.074456,-0.240415 -1.832592,0.77964 -3.240643,0.601357"
       id="path834"
       inkscape:connector-curvature="0"
       sodipodi:nodetypes="cc" />
    <path
       style="fill:none;stroke:#000000;stroke-width:0.26458332px;stroke-linecap:butt;stroke-linejoin:miter;stroke-opacity:1"
       d="m 17.305702,15.381915 c -0.316196,0.657037 -0.422419,1.314075 0.23386,1.971112 -0.04093,0.873442 0.160884,1.959188 -0.400904,2.138156 -0.472656,1.457517 -1.025115,2.68157 -0.267271,3.875409 0.634868,-0.106077 1.156951,0.098 1.436573,0.968852 0.558258,0.08345 1.191286,0.06721 1.236122,0.835217 0.456585,0.126093 0.913171,-0.690771 1.369756,0.701583 0.400904,-0.03688 0.801809,-0.644125 1.202713,0.634764 -0.08717,-1.263618 0.683596,-1.133106 1.26953,-1.302938 0.155918,-0.695206 0.97982,-0.627002 1.737252,-0.634765 -1.555239,-0.811465 -1.117471,-1.267036 -0.200452,-1.637026"
       id="path836"
       inkscape:connector-curvature="0"
       sodipodi:nodetypes="ccccccccccc" />
    <path
       style="fill:none;stroke:#000000;stroke-width:0.26458332px;stroke-linecap:butt;stroke-linejoin:miter;stroke-opacity:1"
       d="M 26.092187,23.867722 C 25.578256,23.48576 25.307859,23.590867 25.056518,23.734087"
       id="path838"
       inkscape:connector-curvature="0"
       sodipodi:nodetypes="cc" />
    <path
       style="fill:none;stroke:#000000;stroke-width:0.26458332px;stroke-linecap:butt;stroke-linejoin:miter;stroke-opacity:1"
       d="m 24.054257,21.662749 c 0.611475,-0.628111 0.122153,-0.941709 -1.135895,-1.03567 -1.171986,0.278406 -1.465214,0.556811 -2.071339,0.835217"
       id="path840"
       inkscape:connector-curvature="0"
       sodipodi:nodetypes="ccc" />
    <path
       style="fill:none;stroke:#000000;stroke-width:0.26458332px;stroke-linecap:butt;stroke-linejoin:miter;stroke-opacity:1"
       d="m 23.026346,21.870959 c -1.090131,-0.364087 -0.608734,-0.760692 0.05906,-0.909793 0.617966,0.169398 0.949967,0.586843 -0.05906,0.909793 z"
       id="path842"
       inkscape:connector-curvature="0"
       sodipodi:nodetypes="ccc" />
    <path
       style="fill:none;stroke:#000000;stroke-width:0.26458332px;stroke-linecap:butt;stroke-linejoin:miter;stroke-opacity:1"
       d="M 27.294901,21.62934 C 26.17313,21.392953 26.6771,20.886505 27.194674,20.79447 c 0.599043,0.126384 0.856962,0.590947 0.100227,0.83487 z"
       id="path844"
       inkscape:connector-curvature="0"
       sodipodi:nodetypes="ccc" />
    <path
       style="fill:none;stroke:#000000;stroke-width:0.26458332px;stroke-linecap:butt;stroke-linejoin:miter;stroke-opacity:1"
       d="m 26.10398,25.730729 c -0.740203,0.148309 -1.480407,0.09285 -2.22061,1.015812 -0.0021,0.760543 -0.674953,1.332409 1.204799,2.622209 0.388261,0.365635 0.79122,0.713632 1.488282,0.708705 0.506993,-0.321077 1.018661,-0.590731 1.464657,-1.582775 0.253568,-0.32284 0.360212,-0.890553 0.236235,-1.842635 -0.416811,-0.799335 -1.126662,-1.129806 -2.173363,-0.921316 z"
       id="path846"
       inkscape:connector-curvature="0"
       sodipodi:nodetypes="ccccccc" />
    <path
       style="fill:none;stroke:#000000;stroke-width:0.26458332px;stroke-linecap:butt;stroke-linejoin:miter;stroke-opacity:1"
       d="m 24.851934,26.959152 c 0.996142,0.413535 1.892746,0.130295 2.763951,-0.330729"
       id="path848"
       inkscape:connector-curvature="0"
       sodipodi:nodetypes="cc" />
    <path
       style="fill:none;stroke:#000000;stroke-width:0.26458332px;stroke-linecap:butt;stroke-linejoin:miter;stroke-opacity:1"
       d="m 24.733816,27.667857 c 1.139602,0.517133 2.159801,0.467106 3.047434,-0.212611"
       id="path850"
       inkscape:connector-curvature="0"
       sodipodi:nodetypes="cc" />
    <path
       style="fill:none;stroke:#000000;stroke-width:0.26458332px;stroke-linecap:butt;stroke-linejoin:miter;stroke-opacity:1"
       d="m 14.03165,24.385557 c 1.330317,0.951002 1.055589,1.636301 0.734991,1.703843 -0.320598,0.06754 -0.97962,0.01851 -0.08352,-1.119191"
       id="path852"
       inkscape:connector-curvature="0"
       sodipodi:nodetypes="czc" />
    <path
       style="fill:none;stroke:#000000;stroke-width:0.26458332px;stroke-linecap:butt;stroke-linejoin:miter;stroke-opacity:1"
       d="m 14.967093,29.313338 -0.133634,2.071338 c 0.246212,1.767811 0.69245,3.489462 5.479025,4.209497 -0.3772,1.959976 0.454165,3.919952 1.670434,5.879928 1.011401,4.303155 1.18503,8.187424 1.135896,11.960312 0.607685,1.711695 1.387156,3.938744 1.670434,4.677217 0.726108,1.095984 1.452316,2.192671 2.004521,2.071338 -0.239507,-3.156259 1.699472,-0.141227 0.868627,1.937705 2.405426,0.846353 4.790028,-1.289782 5.412208,0.133633"
       id="path854"
       inkscape:connector-curvature="0"
       sodipodi:nodetypes="ccccccccc" />
    <path
       style="fill:none;stroke:#000000;stroke-width:0.26458332px;stroke-linecap:butt;stroke-linejoin:miter;stroke-opacity:1"
       d="m 14.699824,30.516052 c -0.812329,0.379863 -1.113709,1.781625 -1.403165,3.207234 2.308988,2.326553 3.072391,4.459908 4.009043,6.614919 0.720041,-1.53686 1.358997,-3.122371 2.939964,-4.142676"
       id="path856"
       inkscape:connector-curvature="0"
       sodipodi:nodetypes="cccc" />
    <path
       style="fill:none;stroke:#000000;stroke-width:0.26458332px;stroke-linecap:butt;stroke-linejoin:miter;stroke-opacity:1"
       d="m 13.497111,33.58965 c -3.162689,1.859314 -6.3253788,2.738141 -9.4880682,3.741775 -4.02966896,2.015151 -2.487099,6.506853 -1.937704,10.557144 0.050779,2.124669 -0.9429492,5.44306 1.403165,4.944489 1.5736237,0.209063 3.1936387,0.23256 4.9444862,-0.267272 0.254061,-1.113622 1.967868,-0.782541 4.009043,-3.340867 C 10.138678,43.995916 10.112887,43.859933 9.0871637,41.474101 9.4260355,39.285932 8.0911859,39.010588 7.2830946,38.133234"
       id="path858"
       inkscape:connector-curvature="0"
       sodipodi:nodetypes="cccccccc" />
    <path
       style="fill:none;stroke:#000000;stroke-width:0.26458332px;stroke-linecap:butt;stroke-linejoin:miter;stroke-opacity:1"
       d="m 5.8131122,38.133234 c 1.111583,0.85496 1.7143263,1.773526 1.403165,2.806329"
       id="path860"
       inkscape:connector-curvature="0"
       sodipodi:nodetypes="cc" />
    <path
       style="fill:none;stroke:#000000;stroke-width:0.26458332px;stroke-linecap:butt;stroke-linejoin:miter;stroke-opacity:1"
       d="m 7.6839986,45.08224 c 0.1145861,3.84346 1.5716799,4.769512 0.8018087,7.349913"
       id="path862"
       inkscape:connector-curvature="0"
       sodipodi:nodetypes="cc" />
    <path
       style="fill:none;stroke:#000000;stroke-width:0.26458332px;stroke-linecap:butt;stroke-linejoin:miter;stroke-opacity:1"
       d="m 2.7395127,43.411806 c -0.051288,2.561333 -0.1456877,5.122665 0.6681737,7.683998"
       id="path864"
       inkscape:connector-curvature="0"
       sodipodi:nodetypes="cc" />
    <path
       style="fill:none;stroke:#000000;stroke-width:0.26458332px;stroke-linecap:butt;stroke-linejoin:miter;stroke-opacity:1"
       d="m 12.027128,43.144537 c 0.227435,1.619143 0.280483,3.281883 -0.200452,5.078119"
       id="path866"
       inkscape:connector-curvature="0"
       sodipodi:nodetypes="cc" />
    <path
       style="fill:none;stroke:#000000;stroke-width:0.26458332px;stroke-linecap:butt;stroke-linejoin:miter;stroke-opacity:1"
       d="m 14.699824,44.013162 c -0.698781,1.780431 -1.362571,3.613349 -2.405426,4.87767"
       id="path868"
       inkscape:connector-curvature="0"
       sodipodi:nodetypes="cc" />
    <path
       style="fill:none;stroke:#000000;stroke-width:0.26458332px;stroke-linecap:butt;stroke-linejoin:miter;stroke-opacity:1"
       d="m 15.768902,49.291734 c -1.20211,0.646505 -2.441896,1.255333 -4.34313,1.202714"
       id="path870"
       inkscape:connector-curvature="0"
       sodipodi:nodetypes="cc" />
    <path
       style="fill:none;stroke:#000000;stroke-width:0.26458332px;stroke-linecap:butt;stroke-linejoin:miter;stroke-opacity:1"
       d="m 3.4076864,52.899873 c 0.8712343,2.093612 1.3050218,4.187223 3.006782,6.280835 1.0754544,2.819038 3.0446913,1.491072 4.8108516,3.073598"
       id="path872"
       inkscape:connector-curvature="0"
       sodipodi:nodetypes="ccc" />
    <path
       style="fill:none;stroke:#000000;stroke-width:0.26458332px;stroke-linecap:butt;stroke-linejoin:miter;stroke-opacity:1"
       d="M 5.0113035,56.708465 4.5435818,62.254306"
       id="path874"
       inkscape:connector-curvature="0" />
    <path
       style="fill:none;stroke:#000000;stroke-width:0.26458332px;stroke-linecap:butt;stroke-linejoin:miter;stroke-opacity:1"
       d="m 11.559407,50.494448 c 0.738198,1.729947 0.958575,3.805059 1.25737,6.099952"
       id="path876"
       inkscape:connector-curvature="0"
       sodipodi:nodetypes="cc" />
    <path
       style="fill:none;stroke:#000000;stroke-width:0.26458332px;stroke-linecap:butt;stroke-linejoin:miter;stroke-opacity:1"
       d="m 11.22532,57.510274 c 2.699679,-2.970264 9.024384,4.137892 14.098467,4.476764 0.657424,-0.295065 1.365798,-0.556026 1.5368,-1.870888"
       id="path878"
       inkscape:connector-curvature="0"
       sodipodi:nodetypes="ccc" />
    <path
       style="fill:none;stroke:#000000;stroke-width:0.26458332px;stroke-linecap:butt;stroke-linejoin:miter;stroke-opacity:1"
       d="m 20.245666,48.824014 c 1.411732,0.947435 2.373423,3.019974 3.0736,5.746295 -1.795307,-1.600874 -3.864434,-2.243382 -6.013564,-2.605878"
       id="path880"
       inkscape:connector-curvature="0"
       sodipodi:nodetypes="ccc" />
    <path
       style="fill:none;stroke:#000000;stroke-width:0.26458332px;stroke-linecap:butt;stroke-linejoin:miter;stroke-opacity:1"
       d="m 24.722431,58.445717 c -0.771832,-0.873901 -2.909614,-0.154195 -4.677217,0.133636"
       id="path884"
       inkscape:connector-curvature="0"
       sodipodi:nodetypes="cc" />
    <path
       style="fill:none;stroke:#000000;stroke-width:0.26458332px;stroke-linecap:butt;stroke-linejoin:miter;stroke-opacity:1"
       d="m 20.245666,32.052852 c -0.362679,0.667869 -0.614349,0.55867 -1.135895,2.338607"
       id="path886"
       inkscape:connector-curvature="0"
       sodipodi:nodetypes="cc" />
    <path
       style="fill:none;stroke:#000000;stroke-width:0.26458332px;stroke-linecap:butt;stroke-linejoin:miter;stroke-opacity:1"
       d="m 21.982918,41.674555 1.670435,-5.011303 c 0.33749,-1.584555 1.028996,-3.129841 0,-4.543585 0.712719,0.53162 1.425437,0.585541 2.138156,2.271793 l 0.06682,4.543582 c -0.757264,-1.846224 -1.514527,-2.048565 -2.271791,-2.338608"
       id="path888"
       inkscape:connector-curvature="0"
       sodipodi:nodetypes="cccccc" />
    <path
       style="fill:none;stroke:#000000;stroke-width:0.26458332px;stroke-linecap:butt;stroke-linejoin:miter;stroke-opacity:1"
       d="m 25.858326,34.458277 c 2.257919,1.14938 4.517058,2.28778 6.949007,1.870887 3.852013,-5.302294 -1.704998,-8.208286 3.87541,-15.100729 0.02543,-3.100123 0.366255,-6.068834 6.681738,-6.548103 C 41.1935,12.576172 36.702168,12.159541 32.6737,11.406281 29.560852,7.7648783 24.54926,10.175084 27.890525,11.524399"
       id="path890"
       inkscape:connector-curvature="0"
       sodipodi:nodetypes="cccccc" />
    <path
       style="fill:none;stroke:#000000;stroke-width:0.26458332px;stroke-linecap:butt;stroke-linejoin:miter;stroke-opacity:1"
       d="M 26.781609,10.019328 32.473246,6.9963336"
       id="path892"
       inkscape:connector-curvature="0"
       sodipodi:nodetypes="cc" />
    <path
       style="fill:none;stroke:#000000;stroke-width:0.26458332px;stroke-linecap:butt;stroke-linejoin:miter;stroke-opacity:1"
       d="M 32.673698,11.406281 40.02361,7.0631509"
       id="path894"
       inkscape:connector-curvature="0"
       sodipodi:nodetypes="cc" />
    <path
       style="fill:none;stroke:#000000;stroke-width:0.26458332px;stroke-linecap:butt;stroke-linejoin:miter;stroke-opacity:1"
       d="m 35.868773,11.921249 c -1.339937,0.677515 -2.032508,1.525161 -2.660536,2.558631 1.670435,0.219829 3.34087,0.65761 5.011305,1.937704"
       id="path896"
       inkscape:connector-curvature="0"
       sodipodi:nodetypes="ccc" />
    <path
       style="fill:none;stroke:#000000;stroke-width:0.26458332px;stroke-linecap:butt;stroke-linejoin:miter;stroke-opacity:1"
       d="m 43.561756,14.722173 2.362351,1.700893 C 49.628833,12.6007 53.943783,10.405599 58.397319,8.5800598 55.971972,6.9653553 53.546625,6.9367123 51.121278,6.784673"
       id="path898"
       inkscape:connector-curvature="0"
       sodipodi:nodetypes="cccc" />
    <path
       style="fill:none;stroke:#000000;stroke-width:0.26458332px;stroke-linecap:butt;stroke-linejoin:miter;stroke-opacity:1"
       d="M 45.924107,16.328572 C 52.88384,17.926314 60.171573,18.745054 65.200892,24.92753 69.866149,9.5629986 63.62343,9.6292625 58.302826,8.3910717"
       id="path900"
       inkscape:connector-curvature="0"
       sodipodi:nodetypes="ccc" />
    <path
       style="fill:none;stroke:#000000;stroke-width:0.26458332px;stroke-linecap:butt;stroke-linejoin:miter;stroke-opacity:1"
       d="m 36.852677,21.053274 1.984375,0.661458 c 0.0066,-2.219693 1.129338,-3.666639 2.267857,-5.102678 -0.779074,1.670591 -1.484494,3.351705 -1.039434,5.197172 0.850447,0.878178 1.700893,0.494437 2.55134,0.661458 -0.06174,-2.78737 0.925875,-3.942411 1.606399,-5.575148 -0.277428,1.826885 -1.073301,3.65377 -0.377978,5.480655 0.883793,0.23166 1.769406,0.443287 2.740329,-0.283483 0.733427,-6.289129 2.83016,-2.340673 1.2147,1.123155 -0.984791,2.111564 -0.375775,3.56096 1.242144,6.436369 1.643864,-2.061889 3.839087,1.173262 0,2.55134 -0.09039,1.946299 -0.918402,3.376264 -2.267857,4.441219 1.448909,0.04094 2.897817,0.34918 4.346726,-0.188986 l 0.94494,-2.645834 c 0.03653,0.94494 0.459372,1.88988 -0.188986,2.83482 0.682332,7.49e-4 1.284371,0.483255 2.078868,-0.188986 0.604415,-1.669396 -0.0282,-3.338791 -0.09449,-5.008187 0.592499,1.425759 0.997484,2.792758 0.992187,5.055432 0.661458,0.04554 1.653646,0.25032 2.315104,-0.897693 -2.946134,-4.402916 1.003549,-11.182055 -4.252232,-17.859375"
       id="path902"
       inkscape:connector-curvature="0"
       sodipodi:nodetypes="ccccccccsccccccccccc" />
    <path
       style="fill:none;stroke:#000000;stroke-width:0.26458332px;stroke-linecap:butt;stroke-linejoin:miter;stroke-opacity:1"
       d="m 50.412573,20.202827 c 0.778066,1.292425 0.809235,3.082782 0.850447,4.866444"
       id="path904"
       inkscape:connector-curvature="0"
       sodipodi:nodetypes="cc" />
    <path
       style="fill:none;stroke:#000000;stroke-width:0.26458332px;stroke-linecap:butt;stroke-linejoin:miter;stroke-opacity:1"
       d="m 53.625371,25.494494 c 0.337525,1.489947 0.464803,2.793008 0.236236,3.779762"
       id="path906"
       inkscape:connector-curvature="0"
       sodipodi:nodetypes="cc" />
    <path
       style="fill:none;stroke:#000000;stroke-width:0.26458332px;stroke-linecap:butt;stroke-linejoin:miter;stroke-opacity:1"
       d="m 49.98735,29.841221 c -0.253256,0.511566 -0.852951,0.948876 -0.661458,1.511904 0.677215,-0.05827 1.00222,-0.275031 0.425222,-0.897695"
       id="path908"
       inkscape:connector-curvature="0"
       sodipodi:nodetypes="ccc" />
    <path
       style="fill:none;stroke:#000000;stroke-width:0.26458332px;stroke-linecap:butt;stroke-linejoin:miter;stroke-opacity:1"
       d="m 36.852677,20.95878 c -0.406529,1.244171 -0.924524,2.488343 -0.236233,3.732514 -0.646179,0.240865 -1.545529,1.556961 -0.519719,3.165552 -1.155608,4.854669 0.895069,4.721785 1.795386,6.378348 1.109715,1.37981 2.328322,2.432944 4.677458,0.09449 1.543403,1.388926 3.086805,0.442313 4.630208,-1.039434"
       id="path910"
       inkscape:connector-curvature="0"
       sodipodi:nodetypes="cccccc" />
    <path
       style="fill:none;stroke:#000000;stroke-width:0.26458332px;stroke-linecap:butt;stroke-linejoin:miter;stroke-opacity:1"
       d="m 36.545573,24.714918 c 1.524433,-0.600253 2.209902,-0.09211 2.480468,1.063058 0.598462,-0.154435 1.196924,-0.520917 1.795386,0.283482 0.684031,-1.520972 3.423718,-1.447841 3.165552,0.992187 l 4.535715,1.842636"
       id="path912"
       inkscape:connector-curvature="0"
       sodipodi:nodetypes="ccccc" />
    <path
       style="fill:none;stroke:#000000;stroke-width:0.26458332px;stroke-linecap:butt;stroke-linejoin:miter;stroke-opacity:1"
       d="m 39.026041,25.825223 c -0.231063,1.461368 -0.779248,2.706114 -2.976564,2.031622"
       id="path914"
       inkscape:connector-curvature="0"
       sodipodi:nodetypes="cc" />
    <path
       style="fill:none;stroke:#000000;stroke-width:0.26458332px;stroke-linecap:butt;stroke-linejoin:miter;stroke-opacity:1"
       d="m 40.821428,26.061458 c -1.611872,4.200256 2.873867,3.319126 3.165551,1.063058"
       id="path916"
       inkscape:connector-curvature="0"
       sodipodi:nodetypes="cc" />
    <path
       style="fill:none;stroke:#000000;stroke-width:0.26458332px;stroke-linecap:butt;stroke-linejoin:miter;stroke-opacity:1"
       d="m 44.364954,24.596801 c -0.326078,-0.773438 -1.505366,-0.815554 -2.69308,-0.850447"
       id="path918"
       inkscape:connector-curvature="0"
       sodipodi:nodetypes="cc" />
    <path
       style="fill:none;stroke:#000000;stroke-width:0.26458332px;stroke-linecap:butt;stroke-linejoin:miter;stroke-opacity:1"
       d="M 38.978795,23.604613 C 38.207093,23.221437 37.435392,23.138085 36.66369,23.510119"
       id="path920"
       inkscape:connector-curvature="0"
       sodipodi:nodetypes="cc" />
    <path
       style="fill:none;stroke:#000000;stroke-width:0.26458332px;stroke-linecap:butt;stroke-linejoin:miter;stroke-opacity:1"
       d="m 38.742559,28.282069 c -0.343116,0.532303 -1.227317,1.098423 0.330729,1.511903"
       id="path922"
       inkscape:connector-curvature="0"
       sodipodi:nodetypes="cc" />
    <path
       style="fill:none;stroke:#000000;stroke-width:0.26458332px;stroke-linecap:butt;stroke-linejoin:miter;stroke-opacity:1"
       d="m 37.750371,30.927902 c 1.291419,0.545042 2.582838,0.618553 3.874257,-0.09449 -0.125868,1.766766 -3.855381,3.514601 -3.023809,0.519716"
       id="path924"
       inkscape:connector-curvature="0"
       sodipodi:nodetypes="ccc" />
    <path
       style="fill:none;stroke:#000000;stroke-width:0.26458332px;stroke-linecap:butt;stroke-linejoin:miter;stroke-opacity:1"
       d="m 38.175594,29.888468 c -0.450334,0.67137 -0.879713,1.345733 -0.897692,2.078868"
       id="path926"
       inkscape:connector-curvature="0"
       sodipodi:nodetypes="cc" />
    <path
       style="fill:none;stroke:#000000;stroke-width:0.26458332px;stroke-linecap:butt;stroke-linejoin:miter;stroke-opacity:1"
       d="m 41.199403,29.841221 c 0.414908,1.126685 1.002568,2.023033 1.795388,2.645834"
       id="path928"
       inkscape:connector-curvature="0"
       sodipodi:nodetypes="cc" />
    <path
       style="fill:none;stroke:#000000;stroke-width:0.26458332px;stroke-linecap:butt;stroke-linejoin:miter;stroke-opacity:1"
       d="m 42.664062,26.746541 c 0.456899,0.857245 -0.736941,1.486394 -1.181177,0.897692 -0.374666,-0.770595 0.630906,-1.490453 1.181177,-0.897692 z"
       id="path930"
       inkscape:connector-curvature="0"
       sodipodi:nodetypes="ccc" />
    <path
       style="fill:none;stroke:#000000;stroke-width:0.26458332px;stroke-linecap:butt;stroke-linejoin:miter;stroke-opacity:1"
       d="m 37.868489,25.990588 c 0.259926,0.561437 -0.529859,1.546915 -1.181177,0.779575 -0.411593,-0.70295 0.720292,-1.421573 1.181177,-0.779575 z"
       id="path932"
       inkscape:connector-curvature="0"
       sodipodi:nodetypes="ccc" />
    <path
       style="fill:none;stroke:#000000;stroke-width:0.26458332px;stroke-linecap:butt;stroke-linejoin:miter;stroke-opacity:1"
       d="M 63.216517,6.9736609 61.988093,9.05253"
       id="path934"
       inkscape:connector-curvature="0" />
    <path
       style="fill:none;stroke:#000000;stroke-width:0.26458332px;stroke-linecap:butt;stroke-linejoin:miter;stroke-opacity:1"
       d="M 64.728423,6.9736609 63.783482,9.8084824"
       id="path936"
       inkscape:connector-curvature="0" />
    <path
       style="fill:none;stroke:#000000;stroke-width:0.26458332px;stroke-linecap:butt;stroke-linejoin:miter;stroke-opacity:1"
       d="m 56.979909,19.541369 -1.511903,3.401786"
       id="path938"
       inkscape:connector-curvature="0" />
    <path
       style="fill:none;stroke:#000000;stroke-width:0.26458332px;stroke-linecap:butt;stroke-linejoin:miter;stroke-opacity:1"
       d="m 58.208333,20.108333 -2.173365,5.197173 c 2.524832,-0.359785 4.359917,1.119755 6.142115,2.740328 1.502553,0.08858 3.066224,0.421639 4.819197,1.511904"
       id="path940"
       inkscape:connector-curvature="0"
       sodipodi:nodetypes="cccc" />
    <path
       style="fill:none;stroke:#000000;stroke-width:0.26458332px;stroke-linecap:butt;stroke-linejoin:miter;stroke-opacity:1"
       d="m 62.177083,28.045833 c 1.270096,-1.430616 1.393362,-3.147939 1.700892,-4.819196"
       id="path942"
       inkscape:connector-curvature="0"
       sodipodi:nodetypes="cc" />
    <path
       style="fill:none;stroke:#000000;stroke-width:0.26458332px;stroke-linecap:butt;stroke-linejoin:miter;stroke-opacity:1"
       d="m 49.420385,36.644791 -8.504462,19.182292 1.41741,0.661458 8.409969,-20.032736"
       id="path944"
       inkscape:connector-curvature="0" />
    <path
       style="fill:none;stroke:#000000;stroke-width:0.26458332px;stroke-linecap:butt;stroke-linejoin:miter;stroke-opacity:1"
       d="m 39.026041,35.510864 c -3.133706,0.555066 -4.657742,0.707714 -6.898066,1.039434 -2.935455,1.407178 -4.844556,4.524945 -7.087053,7.087052 l 1.133929,1.606399 c -1.070933,2.534111 -2.141865,5.311134 -3.212798,8.598959"
       id="path946"
       inkscape:connector-curvature="0"
       sodipodi:nodetypes="ccccc" />
    <path
       style="fill:none;stroke:#000000;stroke-width:0.26458332px;stroke-linecap:butt;stroke-linejoin:miter;stroke-opacity:1"
       d="m 48.286458,39.101635 c -4.362049,2.944449 -7.1583,3.627189 -9.260417,3.307292 -0.868204,-2.610952 0.294828,-3.976477 2.173363,-5.338912 l -0.02362,-1.559152 c -6.932679,5.433656 -5.300533,9.701141 -3.850631,10.772321 4.290649,-0.610752 6.664118,-2.180093 9.543899,-3.496279"
       id="path948"
       inkscape:connector-curvature="0"
       sodipodi:nodetypes="cccccc" />
    <path
       style="fill:none;stroke:#000000;stroke-width:0.26458332px;stroke-linecap:butt;stroke-linejoin:miter;stroke-opacity:1"
       d="m 39.073288,42.36168 c -0.552345,1.058572 -1.164306,2.295994 -1.842635,3.732517"
       id="path950"
       inkscape:connector-curvature="0"
       sodipodi:nodetypes="cc" />
    <path
       style="fill:none;stroke:#000000;stroke-width:0.26458332px;stroke-linecap:butt;stroke-linejoin:miter;stroke-opacity:1"
       d="m 26.127604,45.243749 c 1.039434,0.747859 2.078868,1.849955 3.118302,2.031622 0.144751,-1.49428 0.863414,-2.931168 2.267858,-4.299479"
       id="path952"
       inkscape:connector-curvature="0"
       sodipodi:nodetypes="ccc" />
    <path
       style="fill:none;stroke:#000000;stroke-width:0.26458332px;stroke-linecap:butt;stroke-linejoin:miter;stroke-opacity:1"
       d="m 29.151413,47.133631 c 0.05042,4.501133 4.018175,5.196854 8.409969,5.480653"
       id="path954"
       inkscape:connector-curvature="0"
       sodipodi:nodetypes="cc" />
    <path
       style="fill:none;stroke:#000000;stroke-width:0.26458332px;stroke-linecap:butt;stroke-linejoin:miter;stroke-opacity:1"
       d="m 36.191219,49.401489 c 0.13309,2.022732 2.307708,4.748926 5.338915,5.149925"
       id="path956"
       inkscape:connector-curvature="0"
       sodipodi:nodetypes="cc" />
    <path
       style="fill:none;stroke:#000000;stroke-width:0.26458332px;stroke-linecap:butt;stroke-linejoin:miter;stroke-opacity:1"
       d="m 43.089284,54.929389 c 3.959995,-0.161867 5.156944,-1.799752 6.709077,-3.16555"
       id="path958"
       inkscape:connector-curvature="0"
       sodipodi:nodetypes="cc" />
    <path
       style="fill:none;stroke:#000000;stroke-width:0.26458332px;stroke-linecap:butt;stroke-linejoin:miter;stroke-opacity:1"
       d="m 30.379836,50.582663 -1.13393,4.488468"
       id="path960"
       inkscape:connector-curvature="0" />
    <path
       style="fill:none;stroke:#000000;stroke-width:0.26458332px;stroke-linecap:butt;stroke-linejoin:miter;stroke-opacity:1"
       d="m 26.647322,53.937201 c 2.736219,-0.140572 2.527986,2.243123 8.173733,6.047621 1.196925,-0.482674 2.53559,-0.805188 3.732515,-0.661459 -0.260519,0.27156 -0.48102,0.54979 -10e-7,0.944939 1.128315,1.11428 1.942643,1.129604 2.834823,1.417412 0.449885,0.423514 0.224536,0.678219 -0.330729,0.850445 l -2.220611,-0.425222"
       id="path962"
       inkscape:connector-curvature="0"
       sodipodi:nodetypes="ccccccc" />
    <path
       style="fill:none;stroke:#000000;stroke-width:0.26458332px;stroke-linecap:butt;stroke-linejoin:miter;stroke-opacity:1"
       d="m 39.167781,44.204315 c 0.273673,-0.621752 0.960039,-0.316169 0.803201,0.236236 -0.346524,0.494074 -0.909741,0.423021 -0.803201,-0.236236 z"
       id="path964"
       inkscape:connector-curvature="0"
       sodipodi:nodetypes="ccc" />
    <path
       style="fill:none;stroke:#000000;stroke-width:0.26458332px;stroke-linecap:butt;stroke-linejoin:miter;stroke-opacity:1"
       d="m 37.183406,43.117635 c 0.09805,-0.304984 0.864638,-0.470593 0.566965,0.283479 -0.307116,0.708738 -0.726145,0.32399 -0.566965,-0.283479 z"
       id="path966"
       inkscape:connector-curvature="0"
       sodipodi:nodetypes="ccc" />
    <path
       style="fill:none;stroke:#000000;stroke-width:0.26458332px;stroke-linecap:butt;stroke-linejoin:miter;stroke-opacity:1"
       d="m 50.380304,36.997338 c 1.501024,1.143924 4.465941,1.516644 7.349913,3.608139 1.266878,1.185832 2.139119,4.279079 2.338607,10.623962 l -0.935442,0.734992 c -0.353044,3.278376 -0.544955,6.496327 -2.271792,10.289875"
       id="path968"
       inkscape:connector-curvature="0"
       sodipodi:nodetypes="ccccc" />
    <path
       style="fill:none;stroke:#000000;stroke-width:0.26458332px;stroke-linecap:butt;stroke-linejoin:miter;stroke-opacity:1"
       d="m 58.999746,52.164882 c -2.090557,0.750326 -4.139503,1.557867 -7.617179,0.400904 0.114811,-5.704382 1.039451,-10.284001 4.343127,-11.559405"
       id="path970"
       inkscape:connector-curvature="0"
       sodipodi:nodetypes="ccc" />
    <path
       style="fill:none;stroke:#000000;stroke-width:0.26458332px;stroke-linecap:butt;stroke-linejoin:miter;stroke-opacity:1"
       d="m 58.866113,50.360812 c -2.339194,1.06498 -4.835176,1.03245 -7.349913,0.868627"
       id="path972"
       inkscape:connector-curvature="0"
       sodipodi:nodetypes="cc" />
    <path
       style="fill:none;stroke:#000000;stroke-width:0.26458332px;stroke-linecap:butt;stroke-linejoin:miter;stroke-opacity:1"
       d="m 51.783469,52.632604 c -0.383746,2.160429 -0.440065,3.652684 0.06682,5.813113"
       id="path974"
       inkscape:connector-curvature="0"
       sodipodi:nodetypes="cc" />
    <path
       style="fill:none;stroke:#000000;stroke-width:0.26458332px;stroke-linecap:butt;stroke-linejoin:miter;stroke-opacity:1"
       d="M 54.389347,60.049333 C 51.404837,57.63282 48.420328,57.583351 45.435818,57.510274 44.918523,56.630296 44.354724,55.76892 42.963576,55.238483"
       id="path976"
       inkscape:connector-curvature="0"
       sodipodi:nodetypes="ccc" />
    <path
       style="fill:none;stroke:#000000;stroke-width:0.26458332px;stroke-linecap:butt;stroke-linejoin:miter;stroke-opacity:1"
       d="m 41.326551,54.77076 c -1.333495,-0.242246 -3.154954,1.044725 0.267269,2.839739"
       id="path978"
       inkscape:connector-curvature="0"
       sodipodi:nodetypes="cc" />
    <path
       style="fill:none;stroke:#000000;stroke-width:0.26458332px;stroke-linecap:butt;stroke-linejoin:miter;stroke-opacity:1"
       d="m 39.689524,56.173925 c -2.42506,0.913171 -0.263839,1.826343 1.135895,2.739514"
       id="path980"
       inkscape:connector-curvature="0"
       sodipodi:nodetypes="cc" />
    <path
       style="fill:none;stroke:#000000;stroke-width:0.26458332px;stroke-linecap:butt;stroke-linejoin:miter;stroke-opacity:1"
       d="m 38.954532,57.744134 c -0.921317,0.644738 -0.721174,1.449684 1.469983,2.539061"
       id="path982"
       inkscape:connector-curvature="0"
       sodipodi:nodetypes="cc" />
    <path
       style="fill:none;stroke:#000000;stroke-width:0.26458332px;stroke-linecap:butt;stroke-linejoin:miter;stroke-opacity:1"
       d="m 41.259733,61.619542 c 0.996387,0.404393 1.764736,0.2957 2.405425,-0.100227 l 2.271792,0.902036"
       id="path984"
       inkscape:connector-curvature="0"
       sodipodi:nodetypes="ccc" />
  </g>
</svg>
