<?xml version="1.0" encoding="UTF-8" standalone="no"?>
<!-- Created with Inkscape (http://www.inkscape.org/) -->

<svg
   xmlns:dc="http://purl.org/dc/elements/1.1/"
   xmlns:cc="http://creativecommons.org/ns#"
   xmlns:rdf="http://www.w3.org/1999/02/22-rdf-syntax-ns#"
   xmlns:svg="http://www.w3.org/2000/svg"
   xmlns="http://www.w3.org/2000/svg"
   xmlns:sodipodi="http://sodipodi.sourceforge.net/DTD/sodipodi-0.dtd"
   xmlns:inkscape="http://www.inkscape.org/namespaces/inkscape"
   width="256"
   height="256"
   viewBox="0 0 67.733332 67.733335"
   version="1.1"
   id="svg1968"
   inkscape:version="0.92.2 (5c3e80d, 2017-08-06)"
   sodipodi:docname="fig5.svg">
  <defs
     id="defs1962" />
  <sodipodi:namedview
     id="base"
     pagecolor="#ffffff"
     bordercolor="#666666"
     borderopacity="1.0"
     inkscape:pageopacity="0.0"
     inkscape:pageshadow="2"
     inkscape:zoom="1.979899"
     inkscape:cx="65.705609"
     inkscape:cy="121.337"
     inkscape:document-units="px"
     inkscape:current-layer="layer2"
     showgrid="false"
     units="px"
     inkscape:window-width="1366"
     inkscape:window-height="745"
     inkscape:window-x="-8"
     inkscape:window-y="-8"
     inkscape:window-maximized="1"
     inkscape:snap-global="false" />
  <metadata
     id="metadata1965">
    <rdf:RDF>
      <cc:Work
         rdf:about="">
        <dc:format>image/svg+xml</dc:format>
        <dc:type
           rdf:resource="http://purl.org/dc/dcmitype/StillImage" />
        <dc:title />
      </cc:Work>
    </rdf:RDF>
  </metadata>
  <g
     inkscape:groupmode="layer"
     id="layer2"
     inkscape:label="Capa 2"
     style="display:inline">
    <path
       style="fill:none;stroke:#000000;stroke-width:0.26458332px;stroke-linecap:butt;stroke-linejoin:miter;stroke-opacity:1"
       d="m 67.485555,22.6316 c -5.406922,-0.662523 -13.558359,-4.258837 -14.298919,0.06682 0.457271,-2.567623 2.386347,-4.445339 14.098466,-1.737252"
       id="path817"
       inkscape:connector-curvature="0"
       sodipodi:nodetypes="ccc" />
    <path
       style="fill:none;stroke:#000000;stroke-width:0.26458332px;stroke-linecap:butt;stroke-linejoin:miter;stroke-opacity:1"
       d="m 48.041697,25.371113 c 1.124405,-0.536243 2.561688,-2.845464 3.207234,-0.668174 0.746849,-1.336126 1.723046,-1.663839 6.414468,-2.605878"
       id="path819"
       inkscape:connector-curvature="0"
       sodipodi:nodetypes="ccc" />
    <path
       style="fill:none;stroke:#000000;stroke-width:0.26458332px;stroke-linecap:butt;stroke-linejoin:miter;stroke-opacity:1"
       d="m 56.126599,23.633861 c 2.88028,-3.432281 5.115502,-2.625608 6.748558,2.138156"
       id="path821"
       inkscape:connector-curvature="0"
       sodipodi:nodetypes="cc" />
    <path
       style="fill:none;stroke:#000000;stroke-width:0.26458332px;stroke-linecap:butt;stroke-linejoin:miter;stroke-opacity:1"
       d="m 61.739258,23.232956 c 3.501458,0.697011 4.656436,5.058392 2.806332,9.153983"
       id="path823"
       inkscape:connector-curvature="0"
       sodipodi:nodetypes="cc" />
    <path
       style="fill:none;stroke:#000000;stroke-width:0.26458332px;stroke-linecap:butt;stroke-linejoin:miter;stroke-opacity:1"
       d="m 63.944235,24.368852 c 1.135895,0.181013 2.27179,0.999788 3.407685,2.605879"
       id="path825"
       inkscape:connector-curvature="0"
       sodipodi:nodetypes="cc" />
    <path
       style="fill:none;stroke:#000000;stroke-width:0.26458332px;stroke-linecap:butt;stroke-linejoin:miter;stroke-opacity:1"
       d="m 45.302185,36.39598 c -5.445018,-2.6918 -3.190546,-5.828074 -1.670436,-7.884451 2.437806,-1.790821 4.642472,-3.944302 8.619442,-3.340868 1.299216,-0.731316 2.626736,-1.363568 4.276312,-0.868626 0.654451,0.511741 1.178202,1.372016 2.33861,0.534539 2.87273,1.62925 -0.929045,3.570397 0.400905,5.946747 -1.111959,1.880194 -0.893636,3.570347 -0.801809,5.278572 -0.808078,1.118813 -3.669803,0.934508 -6.013564,2.405428 -3.082157,0.712215 -4.951045,-0.308809 -6.815373,-1.33635"
       id="path827"
       inkscape:connector-curvature="0"
       sodipodi:nodetypes="ccccccccc" />
    <path
       style="fill:none;stroke:#000000;stroke-width:0.26458332px;stroke-linecap:butt;stroke-linejoin:miter;stroke-opacity:1"
       d="m 56.727957,26.974731 c 0.745134,0.987046 0.743248,3.094621 1.00226,4.81085"
       id="path829"
       inkscape:connector-curvature="0"
       sodipodi:nodetypes="cc" />
    <path
       style="fill:none;stroke:#000000;stroke-width:0.26458332px;stroke-linecap:butt;stroke-linejoin:miter;stroke-opacity:1"
       d="m 53.587541,25.7052 c 0.578338,0.980733 1.085296,2.032846 1.135893,3.54132"
       id="path831"
       inkscape:connector-curvature="0"
       sodipodi:nodetypes="cc" />
    <path
       style="fill:none;stroke:#000000;stroke-width:0.26458332px;stroke-linecap:butt;stroke-linejoin:miter;stroke-opacity:1"
       d="m 55.257974,31.518312 c 0.421296,1.519816 0.256554,2.704753 0.06682,3.875408"
       id="path833"
       inkscape:connector-curvature="0"
       sodipodi:nodetypes="cc" />
    <path
       style="fill:none;stroke:#000000;stroke-width:0.26458332px;stroke-linecap:butt;stroke-linejoin:miter;stroke-opacity:1"
       d="m 54.456165,35.727806 c 0.04908,-1.727212 0.19088,-2.884664 -0.868624,-3.808589 -0.107384,0.664509 -0.923409,1.127543 -0.367497,2.839736"
       id="path835"
       inkscape:connector-curvature="0"
       sodipodi:nodetypes="ccc" />
    <path
       style="fill:none;stroke:#000000;stroke-width:0.26458332px;stroke-linecap:butt;stroke-linejoin:miter;stroke-opacity:1"
       d="m 52.785732,26.172921 c 0.405075,1.137907 1.020051,2.252491 0.668173,3.474504 -0.604223,0.0625 -0.909039,-0.354061 -1.069078,-1.002261"
       id="path837"
       inkscape:connector-curvature="0"
       sodipodi:nodetypes="ccc" />
    <path
       style="fill:none;stroke:#000000;stroke-width:0.26458332px;stroke-linecap:butt;stroke-linejoin:miter;stroke-opacity:1"
       d="m 52.85255,31.986034 c -0.741804,0.502362 -1.407054,1.313192 -1.703845,2.171564"
       id="path839"
       inkscape:connector-curvature="0"
       sodipodi:nodetypes="cc" />
    <path
       style="fill:none;stroke:#000000;stroke-width:0.26458332px;stroke-linecap:butt;stroke-linejoin:miter;stroke-opacity:1"
       d="m 52.318009,29.647425 c -0.936413,-0.489186 -1.602645,-1.203522 -2.00452,-2.138156"
       id="path841"
       inkscape:connector-curvature="0"
       sodipodi:nodetypes="cc" />
    <path
       style="fill:none;stroke:#000000;stroke-width:0.26458332px;stroke-linecap:butt;stroke-linejoin:miter;stroke-opacity:1"
       d="m 49.311226,33.522832 c -0.93124,0.341904 -1.58491,0.905865 -2.071338,1.603619"
       id="path843"
       inkscape:connector-curvature="0"
       sodipodi:nodetypes="cc" />
    <path
       style="fill:none;stroke:#000000;stroke-width:0.26458332px;stroke-linecap:butt;stroke-linejoin:miter;stroke-opacity:1"
       d="M 48.308966,28.645164 C 47.440102,28.534041 46.661044,28.333112 45.970359,28.043809"
       id="path845"
       inkscape:connector-curvature="0"
       sodipodi:nodetypes="cc" />
    <path
       style="fill:none;stroke:#000000;stroke-width:0.26458332px;stroke-linecap:butt;stroke-linejoin:miter;stroke-opacity:1"
       d="m 51.04848,30.048329 c -0.834312,-0.0584 -1.683414,-0.07242 -2.605878,0.133636 -0.178204,0.534539 -0.572697,1.069077 0.267268,1.603616 0.601357,1.879063 1.202713,1.16977 1.80407,0.53454"
       id="path847"
       inkscape:connector-curvature="0"
       sodipodi:nodetypes="cccc" />
    <path
       style="fill:none;stroke:#000000;stroke-width:0.26458332px;stroke-linecap:butt;stroke-linejoin:miter;stroke-opacity:1"
       d="m 49.879175,29.380156 c -1.492443,-0.851139 -1.372907,0.0045 -1.403164,0.701582"
       id="path849"
       inkscape:connector-curvature="0"
       sodipodi:nodetypes="cc" />
    <path
       style="fill:none;stroke:#000000;stroke-width:0.26458332px;stroke-linecap:butt;stroke-linejoin:miter;stroke-opacity:1"
       d="m 52.585278,27.275409 c 0.865539,-0.03519 1.183017,1.315888 0.334087,1.436573 -0.714859,0.05644 -1.142455,-1.18192 -0.334087,-1.436573 z"
       id="path851"
       inkscape:connector-curvature="0"
       sodipodi:nodetypes="ccc" />
    <path
       style="fill:none;stroke:#000000;stroke-width:0.26458332px;stroke-linecap:butt;stroke-linejoin:miter;stroke-opacity:1"
       d="m 53.687765,33.188746 c 0.627936,0.0212 1.055352,1.42887 0.133636,1.703845 -1.076681,0.06682 -0.840504,-1.536801 -0.133636,-1.703845 z"
       id="path853"
       inkscape:connector-curvature="0"
       sodipodi:nodetypes="ccc" />
    <path
       style="fill:none;stroke:#000000;stroke-width:0.26458332px;stroke-linecap:butt;stroke-linejoin:miter;stroke-opacity:1"
       d="m 45.93695,29.680834 c 0.535579,1.239487 0.865676,3.037462 0.534538,4.075861 -0.560995,-0.591277 -0.949972,-1.846456 -0.768398,-3.407688"
       id="path855"
       inkscape:connector-curvature="0"
       sodipodi:nodetypes="ccc" />
    <path
       style="fill:none;stroke:#000000;stroke-width:0.26458332px;stroke-linecap:butt;stroke-linejoin:miter;stroke-opacity:1"
       d="m 45.16855,29.948102 c -0.64636,1.158169 -0.901254,2.316337 0.133635,3.474506"
       id="path857"
       inkscape:connector-curvature="0"
       sodipodi:nodetypes="cc" />
    <path
       style="fill:none;stroke:#000000;stroke-width:0.26458332px;stroke-linecap:butt;stroke-linejoin:miter;stroke-opacity:1"
       d="m 58.532026,36.095302 0.06682,2.004523 c -3.593611,1.558023 -3.700396,2.411871 -3.274052,3.775181 0.743295,-0.971281 0.392779,-1.522498 3.374277,-2.405425 2.00539,-1.533877 3.880322,-2.606133 4.744034,-0.100227 0.266724,1.049454 0.323226,2.046352 0.23386,3.006783 l 3.775184,2.138156"
       id="path859"
       inkscape:connector-curvature="0"
       sodipodi:nodetypes="ccccccc" />
    <path
       style="fill:none;stroke:#000000;stroke-width:0.26458332px;stroke-linecap:butt;stroke-linejoin:miter;stroke-opacity:1"
       d="m 57.496357,40.872746 c 2.051039,-0.34847 4.162146,-0.456667 6.046973,-1.469983"
       id="path861"
       inkscape:connector-curvature="0"
       sodipodi:nodetypes="cc" />
    <path
       style="fill:none;stroke:#000000;stroke-width:0.26458332px;stroke-linecap:butt;stroke-linejoin:miter;stroke-opacity:1"
       d="m 63.783482,42.314434 -5.197174,0.283482 -0.661458,5.480656 9.07143,6.236605 0.377976,-6.142112 -8.598958,-5.38616"
       id="path863"
       inkscape:connector-curvature="0" />
    <path
       style="fill:none;stroke:#000000;stroke-width:0.26458332px;stroke-linecap:butt;stroke-linejoin:miter;stroke-opacity:1"
       d="m 59.400651,44.982013 -0.400905,1.169305 1.002263,0.53454 0.334087,-0.902036 -0.601358,2.004523"
       id="path865"
       inkscape:connector-curvature="0" />
    <path
       style="fill:none;stroke:#000000;stroke-width:0.26458332px;stroke-linecap:butt;stroke-linejoin:miter;stroke-opacity:1"
       d="m 61.471992,46.218136 -0.501132,2.438834 1.236123,0.701582 0.501129,-2.271789 z"
       id="path867"
       inkscape:connector-curvature="0" />
    <path
       style="fill:none;stroke:#000000;stroke-width:0.26458332px;stroke-linecap:butt;stroke-linejoin:miter;stroke-opacity:1"
       d="m 63.276061,47.354032 -0.601358,2.706102 0.935445,0.668174 0.835215,-2.706103 z"
       id="path869"
       inkscape:connector-curvature="0" />
    <path
       style="fill:none;stroke:#000000;stroke-width:0.26458332px;stroke-linecap:butt;stroke-linejoin:miter;stroke-opacity:1"
       d="m 64.044459,51.162621 0.400904,-1.202711 0.768401,0.434311 -0.400905,1.403165"
       id="path871"
       inkscape:connector-curvature="0" />
    <path
       style="fill:none;stroke:#000000;stroke-width:0.26458332px;stroke-linecap:butt;stroke-linejoin:miter;stroke-opacity:1"
       d="m 65.213764,52.131475 0.400904,-1.469982 0.200451,0.768397 0.701583,-0.334086 -0.46772,1.503391"
       id="path873"
       inkscape:connector-curvature="0" />
    <path
       style="fill:none;stroke:#000000;stroke-width:0.26458332px;stroke-linecap:butt;stroke-linejoin:miter;stroke-opacity:1"
       d="m 64.211503,50.661493 0.701583,0.501128"
       id="path875"
       inkscape:connector-curvature="0" />
    <path
       style="fill:none;stroke:#000000;stroke-width:0.26458332px;stroke-linecap:butt;stroke-linejoin:miter;stroke-opacity:1"
       d="m 57.863853,47.754936 -3.975634,0.23386 10.557144,8.953529"
       id="path877"
       inkscape:connector-curvature="0" />
    <path
       style="fill:none;stroke:#000000;stroke-width:0.26458332px;stroke-linecap:butt;stroke-linejoin:miter;stroke-opacity:1"
       d="m 53.85481,47.988796 -0.233863,2.405425 9.588296,8.352174"
       id="path879"
       inkscape:connector-curvature="0" />
    <path
       style="fill:none;stroke:#000000;stroke-width:0.26458332px;stroke-linecap:butt;stroke-linejoin:miter;stroke-opacity:1"
       d="m 53.921628,50.995579 -0.100227,7.416729"
       id="path881"
       inkscape:connector-curvature="0" />
    <path
       style="fill:none;stroke:#000000;stroke-width:0.26458332px;stroke-linecap:butt;stroke-linejoin:miter;stroke-opacity:1"
       d="m 56.160008,52.732831 -0.400905,6.247423"
       id="path883"
       inkscape:connector-curvature="0" />
    <path
       style="fill:none;stroke:#000000;stroke-width:0.26458332px;stroke-linecap:butt;stroke-linejoin:miter;stroke-opacity:1"
       d="m 57.229086,53.601455 -0.334087,4.844262"
       id="path885"
       inkscape:connector-curvature="0" />
    <path
       style="fill:none;stroke:#000000;stroke-width:0.26458332px;stroke-linecap:butt;stroke-linejoin:miter;stroke-opacity:1"
       d="M 43.564931,28.578347 C 42.098076,28.406613 41.647674,26.710199 40.825419,25.571565"
       id="path887"
       inkscape:connector-curvature="0"
       sodipodi:nodetypes="cc" />
    <path
       style="fill:none;stroke:#000000;stroke-width:0.26458332px;stroke-linecap:butt;stroke-linejoin:miter;stroke-opacity:1"
       d="m 41.092688,38.066416 c -6.676202,-2.829123 -4.518156,-7.1584 -1.937702,-11.559408 0.70698,-0.721185 1.673085,-2.516259 2.739512,0.133636 1.307031,-1.280318 -2.567066,-3.94227 -6.481286,-6.614921 -1.514527,-1.866786 -3.029054,0.67915 -4.543581,1.536799 -1.271019,0.583549 -2.695879,1.628622 -4.142678,2.739513 -1.526528,0.08655 -3.068678,0.227773 -4.944486,1.5368 -2.003897,-0.777872 -3.300337,0.33081 -4.810852,0.868626 -0.581121,-0.376595 -0.990322,-0.92511 -2.071339,-0.801809 -1.749842,-6.655097 -6.706461,-3.814118 -7.9512683,-3.073599 -2.8553509,1.367572 -4.6670642,0.647869 -6.88219032,0.734991"
       id="path889"
       inkscape:connector-curvature="0"
       sodipodi:nodetypes="ccccccccccc" />
    <path
       style="fill:none;stroke:#000000;stroke-width:0.26458332px;stroke-linecap:butt;stroke-linejoin:miter;stroke-opacity:1"
       d="m 26.593318,24.235217 c -0.997279,1.244767 -1.959496,2.472002 -2.605878,3.54132 -1.778674,1.075325 -3.017313,3.23072 -4.276313,5.345393 -2.436199,3.474122 -3.014303,5.206279 -2.605877,6.013564 -0.294663,2.547595 1.314907,1.921467 2.53906,1.937702 3.459262,0.283695 7.088484,-0.112453 10.22306,1.469983 3.084092,-0.01442 5.721776,0.268765 9.287616,-0.06682 l 3.674956,1.069078 2.472243,0.200454 c 1.06413,-0.264556 1.180783,-0.559675 0.868625,-0.868627 1.602191,-0.339483 1.709219,-0.617939 1.135896,-0.868625 1.952267,-1.149465 0.730639,-1.190586 0,-1.403164 0.812742,-0.765231 0.429514,-0.902578 -0.534538,-0.734992 -1.35862,0.496544 -2.717241,0.343844 -4.075861,0 l 1.336347,-1.603618 c -0.741188,-0.748555 -1.696328,-0.42735 -2.605879,-0.334087 -0.933379,0.315507 -1.850601,0.485605 -2.739512,0.400905 -1.344753,-0.996657 -3.102663,-1.717875 -4.81085,-2.472243 -0.555869,-0.0207 -1.085004,0.0032 -1.269531,0.601356 -1.804069,-0.917318 -3.608139,-0.934078 -5.412208,-1.135896 0.514594,-2.15083 2.668426,-3.647407 2.939965,-5.518165 2.685169,-1.460888 3.761096,-4.729736 3.541321,-6.508963"
       id="path891"
       inkscape:connector-curvature="0"
       sodipodi:nodetypes="cccccccccccccccccccccc" />
    <path
       style="fill:none;stroke:#000000;stroke-width:0.26458332px;stroke-linecap:butt;stroke-linejoin:miter;stroke-opacity:1"
       d="m 43.080506,41.15672 c 1.472286,0.09965 2.925823,-0.01547 4.309721,-0.534541"
       id="path893"
       inkscape:connector-curvature="0"
       sodipodi:nodetypes="cc" />
    <path
       style="fill:none;stroke:#000000;stroke-width:0.26458332px;stroke-linecap:butt;stroke-linejoin:miter;stroke-opacity:1"
       d="m 43.36448,42.008641 c 1.308508,0.213931 2.617015,0.214809 3.925523,-0.01669"
       id="path895"
       inkscape:connector-curvature="0"
       sodipodi:nodetypes="cc" />
    <path
       style="fill:none;stroke:#000000;stroke-width:0.26458332px;stroke-linecap:butt;stroke-linejoin:miter;stroke-opacity:1"
       d="m 43.381186,42.810451 c 0.929919,0.122674 1.879542,0.307463 2.722807,0.08352"
       id="path897"
       inkscape:connector-curvature="0"
       sodipodi:nodetypes="cc" />
    <path
       style="fill:none;stroke:#000000;stroke-width:0.26458332px;stroke-linecap:butt;stroke-linejoin:miter;stroke-opacity:1"
       d="m 44.01595,38.149937 c 0.220999,0.02799 0.609466,-0.228716 0.417608,0.501131 l -0.801809,1.386459"
       id="path899"
       inkscape:connector-curvature="0"
       sodipodi:nodetypes="ccc" />
    <path
       style="fill:none;stroke:#000000;stroke-width:0.26458332px;stroke-linecap:butt;stroke-linejoin:miter;stroke-opacity:1"
       d="m 44.48367,38.667772 c 0.58377,-0.543892 1.204002,-1.188588 1.052375,0.300677 l -0.567946,1.135896"
       id="path901"
       inkscape:connector-curvature="0"
       sodipodi:nodetypes="ccc" />
    <path
       style="fill:none;stroke:#000000;stroke-width:0.26458332px;stroke-linecap:butt;stroke-linejoin:miter;stroke-opacity:1"
       d="m 45.519342,38.968449 c 0.326262,-0.174759 0.701059,-0.482988 0.684877,0.283975 l -0.167042,0.751694"
       id="path903"
       inkscape:connector-curvature="0"
       sodipodi:nodetypes="ccc" />
    <path
       style="fill:none;stroke:#000000;stroke-width:0.26458332px;stroke-linecap:butt;stroke-linejoin:miter;stroke-opacity:1"
       d="m 19.560267,41.08601 c -0.745309,0.407683 -3.124975,3.940185 1.417411,4.063246 5.465312,0.730858 11.107267,0.115611 16.536457,-0.803199 2.516605,0.09159 4.254986,-0.170557 5.386163,-0.708707"
       id="path905"
       inkscape:connector-curvature="0"
       sodipodi:nodetypes="cccc" />
    <path
       style="fill:none;stroke:#000000;stroke-width:0.26458332px;stroke-linecap:butt;stroke-linejoin:miter;stroke-opacity:1"
       d="m 38.671687,38.369308 -0.803198,0.188987 1.039434,0.685083 -1.181174,0.4016 0.87407,0.755952 -1.13393,0.259858 0.968565,0.755951 -1.063059,0.236236 0.755952,0.944941 -1.252045,0.803198 0.826823,0.755955"
       id="path907"
       inkscape:connector-curvature="0" />
    <path
       style="fill:none;stroke:#000000;stroke-width:0.26458332px;stroke-linecap:butt;stroke-linejoin:miter;stroke-opacity:1"
       d="m 34.143682,36.128711 c 2.294687,2.614243 -1.964728,4.014763 -4.075861,5.813113"
       id="path909"
       inkscape:connector-curvature="0"
       sodipodi:nodetypes="cc" />
    <path
       style="fill:none;stroke:#000000;stroke-width:0.26458332px;stroke-linecap:butt;stroke-linejoin:miter;stroke-opacity:1"
       d="m 30.936448,39.937303 c -2.162271,1.816327 -6.748407,0.20054 -10.289877,1.202711"
       id="path911"
       inkscape:connector-curvature="0"
       sodipodi:nodetypes="cc" />
    <path
       style="fill:none;stroke:#000000;stroke-width:0.26458332px;stroke-linecap:butt;stroke-linejoin:miter;stroke-opacity:1"
       d="M 41.894498,28.711982 C 40.506987,28.924831 40.009271,28.069926 39.489073,27.242"
       id="path913"
       inkscape:connector-curvature="0"
       sodipodi:nodetypes="cc" />
    <path
       style="fill:none;stroke:#000000;stroke-width:0.26458332px;stroke-linecap:butt;stroke-linejoin:miter;stroke-opacity:1"
       d="m 38.085908,33.055112 c 0.931214,0.16549 1.729251,-0.06855 2.472243,-0.467722 -0.457635,0.467722 -0.573123,0.935443 -0.400905,1.403165"
       id="path915"
       inkscape:connector-curvature="0"
       sodipodi:nodetypes="ccc" />
    <path
       style="fill:none;stroke:#000000;stroke-width:0.26458332px;stroke-linecap:butt;stroke-linejoin:miter;stroke-opacity:1"
       d="m 41.35996,36.997338 c 0.879916,-0.568103 1.326834,-0.703208 1.870884,-0.935445"
       id="path917"
       inkscape:connector-curvature="0"
       sodipodi:nodetypes="cc" />
    <path
       style="fill:none;stroke:#000000;stroke-width:0.26458332px;stroke-linecap:butt;stroke-linejoin:miter;stroke-opacity:1"
       d="m 35.747298,27.843355 c -1.829394,3.119146 -5.877975,3.488627 -8.485806,7.216278"
       id="path919"
       inkscape:connector-curvature="0"
       sodipodi:nodetypes="cc" />
    <path
       style="fill:none;stroke:#000000;stroke-width:0.26458332px;stroke-linecap:butt;stroke-linejoin:miter;stroke-opacity:1"
       d="m 33.542324,33.456017 c -2.195019,0.279712 -4.319889,0.64711 -5.81311,1.804069 -2.47893,-0.117213 -3.666241,0.89574 -4.744035,2.004521"
       id="path921"
       inkscape:connector-curvature="0"
       sodipodi:nodetypes="ccc" />
    <path
       style="fill:none;stroke:#000000;stroke-width:0.26458332px;stroke-linecap:butt;stroke-linejoin:miter;stroke-opacity:1"
       d="m 25.858327,34.859182 c -1.35862,-0.118747 -2.717241,-0.493085 -4.075861,0.400904"
       id="path923"
       inkscape:connector-curvature="0"
       sodipodi:nodetypes="cc" />
    <path
       style="fill:none;stroke:#000000;stroke-width:0.26458332px;stroke-linecap:butt;stroke-linejoin:miter;stroke-opacity:1"
       d="m 22.45064,36.128711 c -1.41173,0.482653 -2.627973,1.132867 -2.80633,2.672696"
       id="path925"
       inkscape:connector-curvature="0"
       sodipodi:nodetypes="cc" />
    <path
       style="fill:none;stroke:#000000;stroke-width:0.26458332px;stroke-linecap:butt;stroke-linejoin:miter;stroke-opacity:1"
       d="m 47.106255,39.670032 c 2.459509,-1.353646 5.595433,-1.224342 8.753075,-1.00226"
       id="path927"
       inkscape:connector-curvature="0"
       sodipodi:nodetypes="cc" />
    <path
       style="fill:none;stroke:#000000;stroke-width:0.26458332px;stroke-linecap:butt;stroke-linejoin:miter;stroke-opacity:1"
       d="m 53.520723,39.670032 c -2.315277,0.0138 -2.520953,1.458748 -5.278575,2.739514 3.541322,1.327399 4.009044,2.232225 7.416731,1.737252"
       id="path929"
       inkscape:connector-curvature="0"
       sodipodi:nodetypes="ccc" />
    <path
       style="fill:none;stroke:#000000;stroke-width:0.26458332px;stroke-linecap:butt;stroke-linejoin:miter;stroke-opacity:1"
       d="m 53.85481,42.409546 c -2.614617,0.552137 -2.297338,-1.071234 -5.879931,-0.06682"
       id="path931"
       inkscape:connector-curvature="0"
       sodipodi:nodetypes="cc" />
    <path
       style="fill:none;stroke:#000000;stroke-width:0.26458332px;stroke-linecap:butt;stroke-linejoin:miter;stroke-opacity:1"
       d="m 46.237628,42.944084 c 4.999219,1.112025 3.080561,3.822161 11.960312,2.873147"
       id="path933"
       inkscape:connector-curvature="0"
       sodipodi:nodetypes="cc" />
    <path
       style="fill:none;stroke:#000000;stroke-width:0.26458332px;stroke-linecap:butt;stroke-linejoin:miter;stroke-opacity:1"
       d="m 31.470986,43.478624 c -0.617734,0.766283 -2.750648,1.416014 -5.679477,2.00452 -1.5599,-0.431455 -2.958374,0.751351 -4.34313,2.071339"
       id="path935"
       inkscape:connector-curvature="0"
       sodipodi:nodetypes="ccc" />
    <path
       style="fill:none;stroke:#000000;stroke-width:0.26458332px;stroke-linecap:butt;stroke-linejoin:miter;stroke-opacity:1"
       d="m 34.811856,45.149058 c 2.049066,1.188126 4.098133,2.016463 6.147199,2.138156"
       id="path937"
       inkscape:connector-curvature="0"
       sodipodi:nodetypes="cc" />
    <path
       style="fill:none;stroke:#000000;stroke-width:0.26458332px;stroke-linecap:butt;stroke-linejoin:miter;stroke-opacity:1"
       d="m 45.369001,45.61678 c 1.5368,0.530161 3.073601,0.987627 4.610401,0.46772"
       id="path939"
       inkscape:connector-curvature="0"
       sodipodi:nodetypes="cc" />
    <path
       style="fill:none;stroke:#000000;stroke-width:0.26458332px;stroke-linecap:butt;stroke-linejoin:miter;stroke-opacity:1"
       d="M 52.318009,49.158101 C 49.562113,49.26238 46.87473,49.24105 45.16855,47.42085"
       id="path941"
       inkscape:connector-curvature="0"
       sodipodi:nodetypes="cc" />
    <path
       style="fill:none;stroke:#000000;stroke-width:0.26458332px;stroke-linecap:butt;stroke-linejoin:miter;stroke-opacity:1"
       d="m 48.70987,50.761717 c -0.05862,-0.6653 0.534952,-1.692935 -1.00226,-1.536798 l -6.481286,0.133633 c -1.83644,-0.109314 -1.673403,1.580901 -1.804069,3.006783 0.0123,-1.484941 0.427436,-3.159453 -2.472243,-3.274051 L 22.584275,49.95991 c -1.708871,-0.149799 -1.764478,1.353667 -1.5368,3.140417 -0.373608,-1.194962 0.794901,-2.940679 -1.804069,-3.340869 L 7.0158251,49.024467 C 5.6901491,48.995234 5.5900856,49.701368 5.078121,50.160362 4.9874059,49.08096 2.3079328,49.295937 0.20045215,49.224918"
       id="path943"
       inkscape:connector-curvature="0"
       sodipodi:nodetypes="ccccccccccc" />
    <path
       style="fill:none;stroke:#000000;stroke-width:0.26458332px;stroke-linecap:butt;stroke-linejoin:miter;stroke-opacity:1"
       d="m 14.566189,45.349509 c -3.50847,0.731332 -6.3195822,2.0604 -8.9535291,3.541323"
       id="path945"
       inkscape:connector-curvature="0"
       sodipodi:nodetypes="cc" />
    <path
       style="fill:none;stroke:#000000;stroke-width:0.26458332px;stroke-linecap:butt;stroke-linejoin:miter;stroke-opacity:1"
       d="M 18.241145,43.745893 0.13363476,44.881789"
       id="path947"
       inkscape:connector-curvature="0" />
    <path
       style="fill:none;stroke:#000000;stroke-width:0.26458332px;stroke-linecap:butt;stroke-linejoin:miter;stroke-opacity:1"
       d="m 17.305702,40.137754 -6.949008,1.737252"
       id="path949"
       inkscape:connector-curvature="0" />
    <path
       style="fill:none;stroke:#000000;stroke-width:0.26458332px;stroke-linecap:butt;stroke-linejoin:miter;stroke-opacity:1"
       d="M 15.702085,38.200049 C 14.108176,38.023581 12.641857,36.69881 11.22532,34.926"
       id="path951"
       inkscape:connector-curvature="0"
       sodipodi:nodetypes="cc" />
    <path
       style="fill:none;stroke:#000000;stroke-width:0.26458332px;stroke-linecap:butt;stroke-linejoin:miter;stroke-opacity:1"
       d="m 12.027129,30.716503 c 2.397422,1.416563 4.269876,1.520708 6.347651,2.138156 -2.33546,-0.936415 -4.66786,-1.880991 -6.481286,-4.209495"
       id="path953"
       inkscape:connector-curvature="0"
       sodipodi:nodetypes="ccc" />
    <path
       style="fill:none;stroke:#000000;stroke-width:0.26458332px;stroke-linecap:butt;stroke-linejoin:miter;stroke-opacity:1"
       d="m 21.18111,27.976991 c -2.23712,0.09567 -3.261094,-0.61742 -4.476765,-1.202714"
       id="path955"
       inkscape:connector-curvature="0"
       sodipodi:nodetypes="cc" />
    <path
       style="fill:none;stroke:#000000;stroke-width:0.26458332px;stroke-linecap:butt;stroke-linejoin:miter;stroke-opacity:1"
       d="m 14.699824,26.039287 -3.340869,-1.069078 c -1.7294918,0.0053 0.284653,4.322576 -1.9377043,5.011302 0.7438003,3.218915 1.4794463,6.43264 -1.6036171,7.216278"
       id="path957"
       inkscape:connector-curvature="0"
       sodipodi:nodetypes="cccc" />
    <path
       style="fill:none;stroke:#000000;stroke-width:0.26458332px;stroke-linecap:butt;stroke-linejoin:miter;stroke-opacity:1"
       d="M 9.0203463,36.529615 C 9.418362,38.708673 8.3564091,40.922491 1.3363476,43.27817 L 0.20045214,42.810451"
       id="path959"
       inkscape:connector-curvature="0"
       sodipodi:nodetypes="ccc" />
    <path
       style="fill:none;stroke:#000000;stroke-width:0.26458332px;stroke-linecap:butt;stroke-linejoin:miter;stroke-opacity:1"
       d="M 0.06681738,35.794624 C 1.762489,35.644646 0.93245835,33.917767 2.6058779,33.856919 c 3.2384383,-0.299355 3.1404873,1.403123 3.875408,2.605879"
       id="path961"
       inkscape:connector-curvature="0"
       sodipodi:nodetypes="ccc" />
    <path
       style="fill:none;stroke:#000000;stroke-width:0.26458332px;stroke-linecap:butt;stroke-linejoin:miter;stroke-opacity:1"
       d="M 2.2049736,33.656468 C 3.5841706,32.554867 4.6336814,30.903789 5.4790252,28.912433 6.2384085,28.259097 7.149581,28.668285 8.084903,29.24652"
       id="path963"
       inkscape:connector-curvature="0"
       sodipodi:nodetypes="ccc" />
    <path
       style="fill:none;stroke:#000000;stroke-width:0.26458332px;stroke-linecap:butt;stroke-linejoin:miter;stroke-opacity:1"
       d="m 5.2785732,28.578347 c 0.2836418,-2.748215 0.05194,-6.040404 3.4076864,-5.545842"
       id="path965"
       inkscape:connector-curvature="0"
       sodipodi:nodetypes="cc" />
    <path
       style="fill:none;stroke:#000000;stroke-width:0.26458332px;stroke-linecap:butt;stroke-linejoin:miter;stroke-opacity:1"
       d="M 4.3431298,25.237478 C 3.3525871,26.34688 1.9481566,27.290726 0.06681738,28.043809"
       id="path967"
       inkscape:connector-curvature="0"
       sodipodi:nodetypes="cc" />
    <path
       style="fill:none;stroke:#000000;stroke-width:0.26458332px;stroke-linecap:butt;stroke-linejoin:miter;stroke-opacity:1"
       d="m 3.2072344,27.910173 c -0.710542,0.55229 -1.6286794,0.827786 -2.87314749,0.668174"
       id="path969"
       inkscape:connector-curvature="0"
       sodipodi:nodetypes="cc" />
    <path
       style="fill:none;stroke:#000000;stroke-width:0.26458332px;stroke-linecap:butt;stroke-linejoin:miter;stroke-opacity:1"
       d="M 3.6749558,30.315598 C 2.3536018,30.07424 1.0271136,29.83545 0.40090428,29.24652"
       id="path971"
       inkscape:connector-curvature="0"
       sodipodi:nodetypes="cc" />
    <path
       style="fill:none;stroke:#000000;stroke-width:0.26458332px;stroke-linecap:butt;stroke-linejoin:miter;stroke-opacity:1"
       d="M 53.721174,54.503491 28.196934,54.77076"
       id="path973"
       inkscape:connector-curvature="0" />
    <path
       style="fill:none;stroke:#000000;stroke-width:0.26458332px;stroke-linecap:butt;stroke-linejoin:miter;stroke-opacity:1"
       d="M 25.123335,54.904396 19.37704,55.038029"
       id="path975"
       inkscape:connector-curvature="0" />
    <path
       style="fill:none;stroke:#000000;stroke-width:0.26458332px;stroke-linecap:butt;stroke-linejoin:miter;stroke-opacity:1"
       d="M 16.83798,54.904396 H 13.096207"
       id="path977"
       inkscape:connector-curvature="0" />
    <path
       style="fill:none;stroke:#000000;stroke-width:0.26458332px;stroke-linecap:butt;stroke-linejoin:miter;stroke-opacity:1"
       d="M 10.022607,54.77076 0.40090428,54.637127"
       id="path979"
       inkscape:connector-curvature="0" />
    <path
       style="fill:none;stroke:#000000;stroke-width:0.26458332px;stroke-linecap:butt;stroke-linejoin:miter;stroke-opacity:1"
       d="M 52.785732,55.572569 H 0.40090428"
       id="path981"
       inkscape:connector-curvature="0" />
    <path
       style="fill:none;stroke:#000000;stroke-width:0.26458332px;stroke-linecap:butt;stroke-linejoin:miter;stroke-opacity:1"
       d="m 28.064732,45.432739 c -0.164308,0.778518 -0.335892,1.564313 -0.377976,2.220608"
       id="path983"
       inkscape:connector-curvature="0"
       sodipodi:nodetypes="cc" />
    <path
       style="fill:none;stroke:#000000;stroke-width:0.26458332px;stroke-linecap:butt;stroke-linejoin:miter;stroke-opacity:1"
       d="m 29.671131,45.385489 c 0.997377,0.521227 1.903054,1.055553 2.031622,1.700895"
       id="path985"
       inkscape:connector-curvature="0"
       sodipodi:nodetypes="cc" />
    <path
       style="fill:none;stroke:#000000;stroke-width:0.26458332px;stroke-linecap:butt;stroke-linejoin:miter;stroke-opacity:1"
       d="m 55.468006,29.03802 -2.220611,0.661459"
       id="path987"
       inkscape:connector-curvature="0" />
    <path
       style="fill:none;stroke:#000000;stroke-width:0.26458332px;stroke-linecap:butt;stroke-linejoin:miter;stroke-opacity:1"
       d="m 28.998743,27.743131 c 0.76779,0.639517 1.187888,1.54649 0.801809,3.073599 0.357105,-1.237819 0.808899,-2.489165 0.567947,-3.641548"
       id="path989"
       inkscape:connector-curvature="0"
       sodipodi:nodetypes="ccc" />
    <path
       style="fill:none;stroke:#000000;stroke-width:0.26458332px;stroke-linecap:butt;stroke-linejoin:miter;stroke-opacity:1"
       d="m 35.379802,20.192766 c 0.440929,0.698234 0.605059,1.361867 0.334087,1.971113"
       id="path991"
       inkscape:connector-curvature="0"
       sodipodi:nodetypes="cc" />
    <path
       style="fill:none;stroke:#000000;stroke-width:0.26458332px;stroke-linecap:butt;stroke-linejoin:miter;stroke-opacity:1"
       d="m 37.952272,21.729566 c 0.227555,0.996626 0.491427,1.996552 -0.23386,2.906556"
       id="path993"
       inkscape:connector-curvature="0"
       sodipodi:nodetypes="cc" />
  </g>
</svg>
