<?xml version="1.0" encoding="UTF-8" standalone="no"?>
<!-- Created with Inkscape (http://www.inkscape.org/) -->

<svg
   xmlns:dc="http://purl.org/dc/elements/1.1/"
   xmlns:cc="http://creativecommons.org/ns#"
   xmlns:rdf="http://www.w3.org/1999/02/22-rdf-syntax-ns#"
   xmlns:svg="http://www.w3.org/2000/svg"
   xmlns="http://www.w3.org/2000/svg"
   xmlns:sodipodi="http://sodipodi.sourceforge.net/DTD/sodipodi-0.dtd"
   xmlns:inkscape="http://www.inkscape.org/namespaces/inkscape"
   width="256"
   height="256"
   viewBox="0 0 67.733332 67.733335"
   version="1.1"
   id="svg2530"
   inkscape:version="0.92.2 (5c3e80d, 2017-08-06)"
   sodipodi:docname="fig6.svg">
  <defs
     id="defs2524" />
  <sodipodi:namedview
     id="base"
     pagecolor="#ffffff"
     bordercolor="#666666"
     borderopacity="1.0"
     inkscape:pageopacity="0.0"
     inkscape:pageshadow="2"
     inkscape:zoom="1.979899"
     inkscape:cx="81.94364"
     inkscape:cy="118.99383"
     inkscape:document-units="px"
     inkscape:current-layer="layer2"
     showgrid="false"
     units="px"
     showguides="true"
     inkscape:guide-bbox="true"
     inkscape:window-width="1366"
     inkscape:window-height="745"
     inkscape:window-x="-8"
     inkscape:window-y="-8"
     inkscape:window-maximized="1"
     inkscape:snap-global="false" />
  <metadata
     id="metadata2527">
    <rdf:RDF>
      <cc:Work
         rdf:about="">
        <dc:format>image/svg+xml</dc:format>
        <dc:type
           rdf:resource="http://purl.org/dc/dcmitype/StillImage" />
        <dc:title />
      </cc:Work>
    </rdf:RDF>
  </metadata>
  <g
     inkscape:groupmode="layer"
     id="layer2"
     inkscape:label="Capa 2">
    <path
       style="fill:none;stroke:#000000;stroke-width:0.26458332px;stroke-linecap:butt;stroke-linejoin:miter;stroke-opacity:1"
       d="m 21.072172,29.557739 c 1.993977,-2.106716 -4.707365,-7.694013 0.566965,-14.363096"
       id="path816"
       inkscape:connector-curvature="0"
       sodipodi:nodetypes="cc" />
    <path
       style="fill:none;stroke:#000000;stroke-width:0.26458332px;stroke-linecap:butt;stroke-linejoin:miter;stroke-opacity:1"
       d="m 27.875743,21.147767 c -1.932974,-0.30322 -0.496559,4.783509 0.944941,3.779763 0.12386,0.697551 0.591134,1.669832 -0.47247,1.417411 C 22.36218,23.938017 22.30281,12.895829 25.985863,13.588244"
       id="path818"
       inkscape:connector-curvature="0"
       sodipodi:nodetypes="cccc" />
    <path
       style="fill:none;stroke:#000000;stroke-width:0.26458332px;stroke-linecap:butt;stroke-linejoin:miter;stroke-opacity:1"
       d="m 29.009673,26.250446 c -1.792823,4.326382 -10.995055,-9.365494 -5.386161,-14.693824 3.624519,-2.918732 2.377894,5.942797 5.244418,3.401785 0.856425,-0.632403 0.410471,-1.590401 0.33073,-2.456845 1.097845,-0.0074 1.464239,-0.563341 1.559152,-1.322916"
       id="path820"
       inkscape:connector-curvature="0"
       sodipodi:nodetypes="ccccc" />
    <path
       transform="translate(0,-229.26665)"
       style="display:inline;fill:none;stroke:#000000;stroke-width:0.26458332px;stroke-linecap:butt;stroke-linejoin:miter;stroke-opacity:1"
       d="m 29.907365,239.45311 c 0.998039,1.28727 2.293548,1.56314 3.921503,0.7087 0.998388,0.72714 1.971425,1.33598 2.598587,0.33073 0.911003,-2.34695 0.305857,-4.91049 0.425222,-7.37053 -0.995694,-1.62613 -1.680999,-1.15714 -2.173362,0.61421"
       id="path822"
       inkscape:connector-curvature="0"
       sodipodi:nodetypes="ccccc" />
    <path
       transform="translate(0,-229.26665)"
       style="display:inline;fill:none;stroke:#000000;stroke-width:0.26458332px;stroke-linecap:butt;stroke-linejoin:miter;stroke-opacity:1"
       d="m 35.765996,237.18525 c -1.409676,-6.2586 -3.415803,-5.5586 -5.575149,-3.07106"
       id="path824"
       inkscape:connector-curvature="0"
       sodipodi:nodetypes="cc" />
    <path
       transform="translate(0,-229.26665)"
       style="display:inline;fill:none;stroke:#000000;stroke-width:0.26458332px;stroke-linecap:butt;stroke-linejoin:miter;stroke-opacity:1"
       d="m 34.017857,239.31137 c -1.19224,-0.54572 -3.954263,-9.72466 -7.890253,-2.88207"
       id="path826"
       inkscape:connector-curvature="0"
       sodipodi:nodetypes="cc" />
    <path
       transform="translate(0,-229.26665)"
       style="display:inline;fill:none;stroke:#000000;stroke-width:0.26458332px;stroke-linecap:butt;stroke-linejoin:miter;stroke-opacity:1"
       d="m 28.489955,237.98845 c -1.969698,-2.3437 -2.64947,-1.28669 -3.260045,-0.0472"
       id="path828"
       inkscape:connector-curvature="0"
       sodipodi:nodetypes="cc" />
    <path
       transform="translate(0,-229.26665)"
       style="display:inline;fill:none;stroke:#000000;stroke-width:0.26458332px;stroke-linecap:butt;stroke-linejoin:miter;stroke-opacity:1"
       d="M 28.348215,241.20125 C 27.39151,238.5514 22.78662,235.99031 23.529018,240.87052"
       id="path830"
       inkscape:connector-curvature="0"
       sodipodi:nodetypes="cc" />
    <path
       style="fill:none;stroke:#000000;stroke-width:0.26458332px;stroke-linecap:butt;stroke-linejoin:miter;stroke-opacity:1"
       d="m 36.332961,11.131399 c 0.542652,0.825457 2.229896,0.179297 3.590774,-0.04725 4.105607,-0.542988 1.457511,5.790808 4.960938,7.795759"
       id="path837"
       inkscape:connector-curvature="0"
       sodipodi:nodetypes="ccc" />
    <path
       style="fill:none;stroke:#000000;stroke-width:0.26458332px;stroke-linecap:butt;stroke-linejoin:miter;stroke-opacity:1"
       d="m 36.758184,9.8084819 c 2.283608,-4.026203 10.205422,-2.7526214 8.173735,9.0714291 -0.946722,4.110746 -2.892415,8.364202 -0.519718,12.000745"
       id="path839"
       inkscape:connector-curvature="0"
       sodipodi:nodetypes="ccc" />
    <path
       style="fill:none;stroke:#000000;stroke-width:0.26458332px;stroke-linecap:butt;stroke-linejoin:miter;stroke-opacity:1"
       d="M 41.766368,5.6034968 C 38.244397,5.3530086 37.203532,7.0874047 36.80543,9.3360117"
       id="path841"
       inkscape:connector-curvature="0"
       sodipodi:nodetypes="cc" />
    <path
       style="fill:none;stroke:#000000;stroke-width:0.26458332px;stroke-linecap:butt;stroke-linejoin:miter;stroke-opacity:1"
       d="m 52.05074,34.458277 c 1.060256,-0.901818 2.033436,-2.021325 2.739512,-3.808592 -9.915968,-0.0059 0.662062,-30.3648112 -16.437075,-26.7269514"
       id="path843"
       inkscape:connector-curvature="0"
       sodipodi:nodetypes="ccc" />
    <path
       style="fill:none;stroke:#000000;stroke-width:0.26458332px;stroke-linecap:butt;stroke-linejoin:miter;stroke-opacity:1"
       d="M 39.55589,3.7222813 C 38.642719,2.9232575 37.729547,3.3743967 36.816376,3.7890993"
       id="path845"
       inkscape:connector-curvature="0"
       sodipodi:nodetypes="cc" />
    <path
       style="fill:none;stroke:#000000;stroke-width:0.26458332px;stroke-linecap:butt;stroke-linejoin:miter;stroke-opacity:1"
       d="m 28.664656,15.148054 c -0.05663,0.839717 0.278285,1.791307 -0.334086,2.472243 -0.180411,0.530918 -0.31865,1.077651 0.200451,1.870886 0.0514,0.623629 -0.121319,1.247258 -0.334087,1.870887 0.285603,4.956304 2.796506,6.143264 3.608139,7.41673 0.320748,0.85945 0.659958,1.51581 1.069078,1.403165"
       id="path847"
       inkscape:connector-curvature="0"
       sodipodi:nodetypes="cccccc" />
    <path
       style="fill:none;stroke:#000000;stroke-width:0.26458332px;stroke-linecap:butt;stroke-linejoin:miter;stroke-opacity:1"
       d="m 43.230844,27.308818 c -1.294853,1.91794 -2.212991,2.915021 -2.706102,2.873147 l -0.133636,0.46772"
       id="path849"
       inkscape:connector-curvature="0"
       sodipodi:nodetypes="ccc" />
    <path
       style="fill:none;stroke:#000000;stroke-width:0.26458332px;stroke-linecap:butt;stroke-linejoin:miter;stroke-opacity:1"
       d="m 32.43984,13.978749 1.804067,-0.200452"
       id="path851"
       inkscape:connector-curvature="0" />
    <path
       style="fill:none;stroke:#000000;stroke-width:0.26458332px;stroke-linecap:butt;stroke-linejoin:miter;stroke-opacity:1"
       d="m 36.983421,13.978749 2.305198,-0.167043"
       id="path853"
       inkscape:connector-curvature="0" />
    <path
       style="fill:none;stroke:#000000;stroke-width:0.26458332px;stroke-linecap:butt;stroke-linejoin:miter;stroke-opacity:1"
       d="m 39.990201,15.716001 c -0.846353,-0.11865 -1.692705,-0.181129 -2.539058,0.400905"
       id="path855"
       inkscape:connector-curvature="0"
       sodipodi:nodetypes="cc" />
    <path
       style="fill:none;stroke:#000000;stroke-width:0.26458332px;stroke-linecap:butt;stroke-linejoin:miter;stroke-opacity:1"
       d="m 35.112534,16.083497 c -0.762857,-0.269991 -1.565876,-0.439578 -2.505652,-0.26727"
       id="path857"
       inkscape:connector-curvature="0"
       sodipodi:nodetypes="cc" />
    <path
       style="fill:none;stroke:#000000;stroke-width:0.26458332px;stroke-linecap:butt;stroke-linejoin:miter;stroke-opacity:1"
       d="m 34.711629,18.55574 c -0.311814,-0.94926 -4.632672,-0.16904 -4.643808,0.300678 0.228309,0.501141 4.590066,0.561816 4.643808,-0.300678 z"
       id="path859"
       inkscape:connector-curvature="0"
       sodipodi:nodetypes="ccc" />
    <path
       style="fill:none;stroke:#000000;stroke-width:0.26458332px;stroke-linecap:butt;stroke-linejoin:miter;stroke-opacity:1"
       d="m 38.25295,18.889827 c -0.03315,-0.628075 4.561443,-1.283624 4.744035,-0.334087 0.08909,0.673195 -4.565855,0.875219 -4.744035,0.334087 z"
       id="path861"
       inkscape:connector-curvature="0"
       sodipodi:nodetypes="ccc" />
    <path
       style="fill:none;stroke:#000000;stroke-width:0.26458332px;stroke-linecap:butt;stroke-linejoin:miter;stroke-opacity:1"
       d="m 34.978898,19.424366 c 0.991765,1.151728 1.128838,2.895167 0.968854,4.84426"
       id="path863"
       inkscape:connector-curvature="0"
       sodipodi:nodetypes="cc" />
    <path
       style="fill:none;stroke:#000000;stroke-width:0.26458332px;stroke-linecap:butt;stroke-linejoin:miter;stroke-opacity:1"
       d="m 34.811856,21.829792 c -0.238104,0.757504 -0.445497,1.520593 -1.637028,2.104747"
       id="path865"
       inkscape:connector-curvature="0"
       sodipodi:nodetypes="cc" />
    <path
       style="fill:none;stroke:#000000;stroke-width:0.26458332px;stroke-linecap:butt;stroke-linejoin:miter;stroke-opacity:1"
       d="m 34.410951,21.495705 c -1.184039,0.5909 -2.480057,0.509921 -3.841998,0.03341"
       id="path867"
       inkscape:connector-curvature="0"
       sodipodi:nodetypes="cc" />
    <path
       style="fill:none;stroke:#000000;stroke-width:0.26458332px;stroke-linecap:butt;stroke-linejoin:miter;stroke-opacity:1"
       d="m 39.355437,21.36207 c 1.458846,0.214099 2.917693,0.360843 4.376539,-0.300678"
       id="path869"
       inkscape:connector-curvature="0"
       sodipodi:nodetypes="cc" />
    <path
       style="fill:none;stroke:#000000;stroke-width:0.26458332px;stroke-linecap:butt;stroke-linejoin:miter;stroke-opacity:1"
       d="m 38.954532,22.163879 c 0.887203,1.069127 1.511612,1.349874 2.138156,1.637025"
       id="path871"
       inkscape:connector-curvature="0"
       sodipodi:nodetypes="cc" />
    <path
       style="fill:none;stroke:#000000;stroke-width:0.26458332px;stroke-linecap:butt;stroke-linejoin:miter;stroke-opacity:1"
       d="m 34.945492,24.569304 c -0.751916,0.139277 -0.683729,1.709029 0.601355,1.03567 1.189084,1.703763 1.758442,0.618762 2.438834,0.03341 0.621234,0.930838 1.858398,0.13189 0.868627,-0.801808"
       id="path873"
       inkscape:connector-curvature="0"
       sodipodi:nodetypes="cccc" />
    <path
       style="fill:none;stroke:#000000;stroke-width:0.26458332px;stroke-linecap:butt;stroke-linejoin:miter;stroke-opacity:1"
       d="m 33.976638,26.005878 c -0.175719,0.567948 -0.438933,1.135896 -0.968852,1.703844"
       id="path875"
       inkscape:connector-curvature="0"
       sodipodi:nodetypes="cc" />
    <path
       style="fill:none;stroke:#000000;stroke-width:0.26458332px;stroke-linecap:butt;stroke-linejoin:miter;stroke-opacity:1"
       d="m 39.622706,25.972469 c 0.253329,0.421816 0.571069,0.747016 1.002263,0.902035"
       id="path877"
       inkscape:connector-curvature="0"
       sodipodi:nodetypes="cc" />
    <path
       style="fill:none;stroke:#000000;stroke-width:0.26458332px;stroke-linecap:butt;stroke-linejoin:miter;stroke-opacity:1"
       d="m 34.076864,28.110627 c 0.760306,0.02836 1.554955,0.1254 1.971112,-0.534541 0.567948,0.858269 1.135897,0.41622 1.703845,0.06682 0.488092,0.530059 1.070997,0.728276 1.737252,0.634765"
       id="path879"
       inkscape:connector-curvature="0"
       sodipodi:nodetypes="cccc" />
    <path
       style="fill:none;stroke:#000000;stroke-width:0.26458332px;stroke-linecap:butt;stroke-linejoin:miter;stroke-opacity:1"
       d="m 35.312987,28.845615 c 1.202107,0.553986 2.272395,0.492816 3.207234,-0.200451"
       id="path881"
       inkscape:connector-curvature="0"
       sodipodi:nodetypes="cc" />
    <path
       style="fill:none;stroke:#000000;stroke-width:0.26458332px;stroke-linecap:butt;stroke-linejoin:miter;stroke-opacity:1"
       d="m 29.104166,25.919717 c -0.58278,2.368733 -2.339379,3.280624 1.370164,5.85863"
       id="path883"
       inkscape:connector-curvature="0"
       sodipodi:nodetypes="cc" />
    <path
       style="fill:none;stroke:#000000;stroke-width:0.26458332px;stroke-linecap:butt;stroke-linejoin:miter;stroke-opacity:1"
       d="m 29.104166,26.061458 c -1.475792,2.16526 -4.125865,2.273022 -1.795385,5.905878"
       id="path885"
       inkscape:connector-curvature="0"
       sodipodi:nodetypes="cc" />
    <path
       style="fill:none;stroke:#000000;stroke-width:0.26458332px;stroke-linecap:butt;stroke-linejoin:miter;stroke-opacity:1"
       d="m 26.50558,28.754538 c -2.787695,0.351768 -6.287024,0.940748 -7.323288,0.708706 -1.199482,2.686905 -2.146801,5.086548 -4.346727,6.898065 1.11027,0.97665 2.216224,1.979195 3.449033,2.220611"
       id="path887"
       inkscape:connector-curvature="0"
       sodipodi:nodetypes="cccc" />
    <path
       style="fill:none;stroke:#000000;stroke-width:0.26458332px;stroke-linecap:butt;stroke-linejoin:miter;stroke-opacity:1"
       d="m 15.686012,37.11726 c -3.59583,5.918838 -2.322502,14.075543 -0.141741,14.835566 4.802479,0.806319 6.10739,-8.651011 6.992559,-11.197545 0.813136,-0.175739 1.800094,-0.119716 2.267857,-0.755952 l 1.322917,0.566966 c 1.110879,-0.235363 1.16321,-0.759421 0.897694,-1.370164 1.250004,0.320812 1.583213,-0.275171 1.322917,-1.464659 0.538539,-0.401198 1.181225,-0.764525 0.377975,-1.653646 0.81624,-0.354775 1.353407,-0.86902 0.425223,-2.220608 -1.385913,-1.11745 -2.771825,-2.16875 -4.157738,-2.173364 -1.67973,-0.381645 -1.878056,0.58344 -2.22061,1.41741 -4.081499,5.465683 -7.556089,8.31379 -7.9375,11.150298"
       id="path889"
       inkscape:connector-curvature="0"
       sodipodi:nodetypes="cccccccccccc" />
    <path
       style="fill:none;stroke:#000000;stroke-width:0.26458332px;stroke-linecap:butt;stroke-linejoin:miter;stroke-opacity:1"
       d="m 24.190476,37.636979 c 1.164859,0.158625 2.189108,0.598471 2.976562,1.511906"
       id="path891"
       inkscape:connector-curvature="0"
       sodipodi:nodetypes="cc" />
    <path
       style="fill:none;stroke:#000000;stroke-width:0.26458332px;stroke-linecap:butt;stroke-linejoin:miter;stroke-opacity:1"
       d="m 24.804687,35.936086 c 1.198225,0.09723 2.375476,0.404212 3.449032,1.748139"
       id="path893"
       inkscape:connector-curvature="0"
       sodipodi:nodetypes="cc" />
    <path
       style="fill:none;stroke:#000000;stroke-width:0.26458332px;stroke-linecap:butt;stroke-linejoin:miter;stroke-opacity:1"
       d="m 28.678944,35.983333 c -1.291419,-1.295615 -2.582838,-1.458759 -3.874257,-2.078868 1.28426,0.279188 2.654521,0.278608 3.82701,1.228422"
       id="path895"
       inkscape:connector-curvature="0"
       sodipodi:nodetypes="ccc" />
    <path
       style="fill:none;stroke:#000000;stroke-width:0.26458332px;stroke-linecap:butt;stroke-linejoin:miter;stroke-opacity:1"
       d="m 25.457422,16.618036 c 0.738021,0.503176 1.598558,0.638805 2.004521,2.138156"
       id="path897"
       inkscape:connector-curvature="0"
       sodipodi:nodetypes="cc" />
    <path
       style="fill:none;stroke:#000000;stroke-width:0.26458332px;stroke-linecap:butt;stroke-linejoin:miter;stroke-opacity:1"
       d="m 21.648831,23.232957 c 0.261969,1.74774 0.451953,3.503478 2.271791,5.078121"
       id="path899"
       inkscape:connector-curvature="0"
       sodipodi:nodetypes="cc" />
    <path
       style="fill:none;stroke:#000000;stroke-width:0.26458332px;stroke-linecap:butt;stroke-linejoin:miter;stroke-opacity:1"
       d="m 46.438079,14.078976 c 2.216093,4.562515 -0.621928,9.250615 1.202713,14.232102"
       id="path901"
       inkscape:connector-curvature="0"
       sodipodi:nodetypes="cc" />
    <path
       style="fill:none;stroke:#000000;stroke-width:0.26458332px;stroke-linecap:butt;stroke-linejoin:miter;stroke-opacity:1"
       d="m 43.631749,31.651948 c 1.413102,-1.468266 2.817311,-2.758665 4.142679,-2.472243 0.514367,-0.384935 0.930098,-0.473962 1.00226,0.46772 2.709601,0.646971 3.226763,7.511607 6.214018,8.285355 l -1.536801,1.069078 c 1.586307,3.027577 2.111778,12.474569 -1.737251,13.964833 -4.355514,-1.47399 -5.116932,-8.534736 -4.409948,-13.764379 -0.668174,0.03587 -1.336347,-1.140898 -2.004521,-2.605879 -0.33087,0.233986 -0.76053,0.122203 -1.269531,-0.267269 0.04665,0.684069 -0.347532,0.83913 -0.734992,1.002261 -0.814642,0.05974 -1.122992,-0.260242 -0.868624,-1.002261 l 1.00226,-1.069078 c -0.677871,0.264392 -1.303662,0.424623 -1.804069,0.334087 -1.236235,-0.685416 -1.047999,-0.982339 -0.334087,-1.135896 l 1.804069,-0.801809 C 41.00015,33.539659 40.410502,33.148775 42.228584,32.320121 Z"
       id="path903"
       inkscape:connector-curvature="0"
       sodipodi:nodetypes="ccccccccccccccccc" />
    <path
       style="fill:none;stroke:#000000;stroke-width:0.26458332px;stroke-linecap:butt;stroke-linejoin:miter;stroke-opacity:1"
       d="m 53.420496,38.968449 -1.570209,0.56795"
       id="path905"
       inkscape:connector-curvature="0" />
    <path
       style="fill:none;stroke:#000000;stroke-width:0.26458332px;stroke-linecap:butt;stroke-linejoin:miter;stroke-opacity:1"
       d="M 53.620947,45.015422 48.743279,31.384676 48.70987,29.580607"
       id="path907"
       inkscape:connector-curvature="0" />
    <path
       style="fill:none;stroke:#000000;stroke-width:0.26458332px;stroke-linecap:butt;stroke-linejoin:miter;stroke-opacity:1"
       d="m 47.774428,29.24652 -0.634764,1.837478"
       id="path909"
       inkscape:connector-curvature="0" />
    <path
       style="fill:none;stroke:#000000;stroke-width:0.26458332px;stroke-linecap:butt;stroke-linejoin:miter;stroke-opacity:1"
       d="M 48.108515,31.618539 C 46.657712,30.711092 45.44086,30.21306 44.700827,30.549461"
       id="path911"
       inkscape:connector-curvature="0"
       sodipodi:nodetypes="cc" />
    <path
       style="fill:none;stroke:#000000;stroke-width:0.26458332px;stroke-linecap:butt;stroke-linejoin:miter;stroke-opacity:1"
       d="M 47.573975,32.553981 C 46.282172,31.792855 44.99037,31.422258 43.698567,31.551721"
       id="path913"
       inkscape:connector-curvature="0"
       sodipodi:nodetypes="cc" />
    <path
       style="fill:none;stroke:#000000;stroke-width:0.26458332px;stroke-linecap:butt;stroke-linejoin:miter;stroke-opacity:1"
       d="M 46.838983,34.157599 C 45.574046,33.034664 44.217167,33.224308 42.863349,33.790102"
       id="path915"
       inkscape:connector-curvature="0"
       sodipodi:nodetypes="cc" />
    <path
       style="fill:none;stroke:#000000;stroke-width:0.26458332px;stroke-linecap:butt;stroke-linejoin:miter;stroke-opacity:1"
       d="m 46.404672,35.794624 c -0.697394,-0.318396 -1.735362,-0.101604 -1.870887,-1.302938 -0.192867,0.678448 -0.687426,0.652949 -1.135896,0.734991"
       id="path917"
       inkscape:connector-curvature="0"
       sodipodi:nodetypes="ccc" />
    <path
       style="fill:none;stroke:#000000;stroke-width:0.26458332px;stroke-linecap:butt;stroke-linejoin:miter;stroke-opacity:1"
       d="m 26.827178,32.119667 c 1.039768,-0.405893 2.313058,-0.461504 3.708366,-0.334086 3.681226,-3.114681 9.37555,-1.644694 11.191911,-0.167042 l -0.03341,0.801806"
       id="path919"
       inkscape:connector-curvature="0"
       sodipodi:nodetypes="cccc" />
    <path
       style="fill:none;stroke:#000000;stroke-width:0.26458332px;stroke-linecap:butt;stroke-linejoin:miter;stroke-opacity:1"
       d="m 28.965334,37.097562 c 1.058315,0.32351 1.899293,0.321014 3.975635,2.171565 1.501967,1.735674 5.491323,1.346756 6.481286,-0.133633 l 1.737251,-3.842001"
       id="path921"
       inkscape:connector-curvature="0"
       sodipodi:nodetypes="cccc" />
    <path
       style="fill:none;stroke:#000000;stroke-width:0.26458332px;stroke-linecap:butt;stroke-linejoin:miter;stroke-opacity:1"
       d="m 30.368499,31.752172 c 0.714418,2.541118 1.011733,5.123946 2.539061,7.583773 1.302699,-0.80122 3.730314,-1.938172 6.481286,-0.100227"
       id="path923"
       inkscape:connector-curvature="0"
       sodipodi:nodetypes="ccc" />
    <path
       style="fill:none;stroke:#000000;stroke-width:0.26458332px;stroke-linecap:butt;stroke-linejoin:miter;stroke-opacity:1"
       d="m 22.678571,40.897024 c 0.601499,0.928431 0.994239,2.390355 0.47247,6.18936 1.090922,1.371984 2.280362,2.054338 3.496281,2.551338"
       id="path866"
       inkscape:connector-curvature="0"
       sodipodi:nodetypes="ccc" />
    <path
       style="fill:none;stroke:#000000;stroke-width:0.26458332px;stroke-linecap:butt;stroke-linejoin:miter;stroke-opacity:1"
       d="m 23.718006,47.795089 -1.228423,1.984375"
       id="path868"
       inkscape:connector-curvature="0" />
    <path
       style="fill:none;stroke:#000000;stroke-width:0.26458332px;stroke-linecap:butt;stroke-linejoin:miter;stroke-opacity:1"
       d="m 19.938244,55.449107 1.653646,-5.480656 c 2.718027,-0.17916 4.784133,0.619561 6.756325,1.559153"
       id="path870"
       inkscape:connector-curvature="0"
       sodipodi:nodetypes="ccc" />
    <path
       style="fill:none;stroke:#000000;stroke-width:0.26458332px;stroke-linecap:butt;stroke-linejoin:miter;stroke-opacity:1"
       d="m 24.521205,43.542857 c 1.587707,2.476189 3.635973,4.272504 7.843006,2.882069 1.74814,-0.551132 3.49628,-0.82316 5.24442,0 2.370836,0.86564 4.873778,1.232213 8.362723,-2.126117"
       id="path872"
       inkscape:connector-curvature="0"
       sodipodi:nodetypes="cccc" />
    <path
       style="fill:none;stroke:#000000;stroke-width:0.26458332px;stroke-linecap:butt;stroke-linejoin:miter;stroke-opacity:1"
       d="m 36.66369,52.189062 0.283483,2.173364"
       id="path874"
       inkscape:connector-curvature="0" />
    <path
       style="fill:none;stroke:#000000;stroke-width:0.26458332px;stroke-linecap:butt;stroke-linejoin:miter;stroke-opacity:1"
       d="m 47.766739,48.409301 -1.08668,1.511903 c -2.201839,0.02906 -3.3393,2.896456 -5.008185,4.346726"
       id="path876"
       inkscape:connector-curvature="0"
       sodipodi:nodetypes="ccc" />
    <path
       style="fill:none;stroke:#000000;stroke-width:0.26458332px;stroke-linecap:butt;stroke-linejoin:miter;stroke-opacity:1"
       d="m 46.869048,49.873958 0.803198,1.700892"
       id="path878"
       inkscape:connector-curvature="0" />
    <path
       style="fill:none;stroke:#000000;stroke-width:0.26458332px;stroke-linecap:butt;stroke-linejoin:miter;stroke-opacity:1"
       d="m 45.309895,52.378051 2.976563,-0.992187 1.181176,3.354538"
       id="path880"
       inkscape:connector-curvature="0" />
    <path
       style="fill:none;stroke:#000000;stroke-width:0.26458332px;stroke-linecap:butt;stroke-linejoin:miter;stroke-opacity:1"
       d="M 2.6726951,62.187489 11.693042,55.77302 57.462948,54.703942"
       id="path882"
       inkscape:connector-curvature="0" />
    <path
       style="fill:none;stroke:#000000;stroke-width:0.26458332px;stroke-linecap:butt;stroke-linejoin:miter;stroke-opacity:1"
       d="m 13.563928,64.993821 8.018086,-9.421252"
       id="path884"
       inkscape:connector-curvature="0" />
    <path
       style="fill:none;stroke:#000000;stroke-width:0.26458332px;stroke-linecap:butt;stroke-linejoin:miter;stroke-opacity:1"
       d="m 28.998743,63.991558 2.204974,-8.552624"
       id="path886"
       inkscape:connector-curvature="0" />
    <path
       style="fill:none;stroke:#000000;stroke-width:0.26458332px;stroke-linecap:butt;stroke-linejoin:miter;stroke-opacity:1"
       d="m 48.108515,65.394725 -6.68174,-10.22306"
       id="path888"
       inkscape:connector-curvature="0" />
    <path
       style="fill:none;stroke:#000000;stroke-width:0.26458332px;stroke-linecap:butt;stroke-linejoin:miter;stroke-opacity:1"
       d="M 59.400651,63.189751 52.117558,54.971214"
       id="path890"
       inkscape:connector-curvature="0" />
    <path
       style="fill:none;stroke:#000000;stroke-width:0.26458332px;stroke-linecap:butt;stroke-linejoin:miter;stroke-opacity:1"
       d="M 55.792512,64.993821 53.320269,62.45476"
       id="path892"
       inkscape:connector-curvature="0" />
    <path
       style="fill:none;stroke:#000000;stroke-width:0.26458332px;stroke-linecap:butt;stroke-linejoin:miter;stroke-opacity:1"
       d="m 45.970359,59.314341 c 0.06163,-1.142729 -0.726821,-1.945426 -1.536801,-2.739511"
       id="path894"
       inkscape:connector-curvature="0"
       sodipodi:nodetypes="cc" />
    <path
       style="fill:none;stroke:#000000;stroke-width:0.26458332px;stroke-linecap:butt;stroke-linejoin:miter;stroke-opacity:1"
       d="m 34.076864,62.788847 0.06682,-2.873148 -0.601358,0.467723 0.601358,-2.739514"
       id="path896"
       inkscape:connector-curvature="0" />
    <path
       style="fill:none;stroke:#000000;stroke-width:0.26458332px;stroke-linecap:butt;stroke-linejoin:miter;stroke-opacity:1"
       d="m 20.379301,60.11615 2.204974,-2.138156 -1.002261,2.939966 1.26953,-0.467723 -2.405425,4.677217"
       id="path898"
       inkscape:connector-curvature="0" />
    <path
       style="fill:none;stroke:#000000;stroke-width:0.26458332px;stroke-linecap:butt;stroke-linejoin:miter;stroke-opacity:1"
       d="m 13.563928,58.044812 -1.870886,2.004521 2.004521,-0.46772 -2.271791,2.939965"
       id="path900"
       inkscape:connector-curvature="0"
       sodipodi:nodetypes="cccc" />
    <path
       transform="translate(0,-229.26665)"
       style="display:inline;fill:none;stroke:#000000;stroke-width:0.26458332px;stroke-linecap:butt;stroke-linejoin:miter;stroke-opacity:1"
       d="m 36.215021,276.15296 v 3.4745"
       id="path904"
       inkscape:connector-curvature="0" />
  </g>
</svg>
