<?xml version="1.0" encoding="UTF-8" standalone="no"?>
<!-- Created with Inkscape (http://www.inkscape.org/) -->

<svg
   xmlns:dc="http://purl.org/dc/elements/1.1/"
   xmlns:cc="http://creativecommons.org/ns#"
   xmlns:rdf="http://www.w3.org/1999/02/22-rdf-syntax-ns#"
   xmlns:svg="http://www.w3.org/2000/svg"
   xmlns="http://www.w3.org/2000/svg"
   xmlns:sodipodi="http://sodipodi.sourceforge.net/DTD/sodipodi-0.dtd"
   xmlns:inkscape="http://www.inkscape.org/namespaces/inkscape"
   width="256"
   height="256"
   viewBox="0 0 67.733332 67.733335"
   version="1.1"
   id="svg3096"
   inkscape:version="0.92.2 (5c3e80d, 2017-08-06)"
   sodipodi:docname="fig7.svg">
  <defs
     id="defs3090" />
  <sodipodi:namedview
     id="base"
     pagecolor="#ffffff"
     bordercolor="#666666"
     borderopacity="1.0"
     inkscape:pageopacity="0.0"
     inkscape:pageshadow="2"
     inkscape:zoom="1.979899"
     inkscape:cx="80.697912"
     inkscape:cy="129.95634"
     inkscape:document-units="px"
     inkscape:current-layer="layer2"
     showgrid="false"
     units="px"
     showguides="true"
     inkscape:guide-bbox="true"
     inkscape:window-width="1366"
     inkscape:window-height="745"
     inkscape:window-x="-8"
     inkscape:window-y="-8"
     inkscape:window-maximized="1"
     inkscape:snap-global="false" />
  <metadata
     id="metadata3093">
    <rdf:RDF>
      <cc:Work
         rdf:about="">
        <dc:format>image/svg+xml</dc:format>
        <dc:type
           rdf:resource="http://purl.org/dc/dcmitype/StillImage" />
        <dc:title />
      </cc:Work>
    </rdf:RDF>
  </metadata>
  <g
     inkscape:groupmode="layer"
     id="layer2"
     inkscape:label="Capa 2"
     style="display:inline">
    <path
       style="fill:none;stroke:#000000;stroke-width:0.26458332px;stroke-linecap:butt;stroke-linejoin:miter;stroke-opacity:1"
       d="m 12.962572,27.47586 c 0.713181,1.585819 -0.668231,0.707411 -1.336348,0.668173 0.692286,1.648949 -0.07752,1.013382 -0.7684,0.501131 -0.03767,1.728596 -0.541458,1.779159 -1.469982,0.300678 C 7.9127589,29.83618 8.1081858,28.721907 7.8844509,28.110627 6.7375939,28.435612 5.8977998,28.422828 6.5146946,26.807686 5.9809165,26.339019 4.3516301,26.162488 6.2808339,25.037026 5.7716635,24.578195 3.7810843,24.584949 6.1137902,23.232957 5.6375395,22.299477 4.0859464,21.212376 6.5146946,20.693896 c -0.9910825,-1.127758 -1.4979711,-2.124652 0.7684,-2.372017 -1.020336,-2.272129 0.5120941,-1.185356 1.0022607,-1.469982 0.098367,-1.1435 -0.1179541,-2.676614 1.7706607,-1.603617 0.202037,-1.077838 0.193679,-2.471267 1.937704,-1.236122 0.583954,-0.917079 1.154208,-1.91088 2.171565,-0.400904 0.564569,-0.641904 1.13212,-1.248022 1.870887,0.200452 0.828439,-1.50465 1.245755,-0.78924 1.637025,0.06682 0.896073,-1.195965 1.106111,-0.333824 1.403165,0.26727 1.415139,-0.45443 1.491487,0.09523 1.135896,0.968852 0.691739,-0.07148 1.35071,-0.118925 0.734991,0.7684 1.616528,-0.609964 1.066288,0.224585 0.902035,0.801808 0.927961,0.09476 1.626375,0.259375 0.534539,0.968852 0.954384,2.402094 -0.815178,2.080243 -3.307461,1.03567 1.176474,0.892663 0.216741,1.022396 -1.069078,1.035669 -0.230318,0.783722 -0.271681,1.790757 -1.436573,1.469983 0.304689,1.420317 -0.630646,0.980599 -0.968852,1.436573 -0.06377,1.042224 -0.165126,2.049371 -1.5368,1.870887"
       id="path817"
       inkscape:connector-curvature="0"
       sodipodi:nodetypes="cccccccccccccccccccccccccc" />
    <path
       style="fill:none;stroke:#000000;stroke-width:0.26458332px;stroke-linecap:butt;stroke-linejoin:miter;stroke-opacity:1"
       d="m 13.797789,27.275409 c -2.24711,1.184612 -1.970151,-6.182553 0.26727,-2.772919 l 6.548103,-0.300681 c 0.529176,-0.782992 2.260198,-1.603742 0.935444,1.102486 -1.324755,2.706228 -1.995694,1.006877 -1.069079,-1.035669"
       id="path819"
       inkscape:connector-curvature="0"
       sodipodi:nodetypes="ccczc" />
    <path
       style="fill:none;stroke:#000000;stroke-width:0.26458332px;stroke-linecap:butt;stroke-linejoin:miter;stroke-opacity:1"
       d="m 22.149962,19.491183 0.200452,1.670435"
       id="path821"
       inkscape:connector-curvature="0" />
    <path
       style="fill:none;stroke:#000000;stroke-width:0.26458332px;stroke-linecap:butt;stroke-linejoin:miter;stroke-opacity:1"
       d="m 21.014066,20.961166 c 0.741606,0.06751 1.806148,-0.14178 1.369757,0.935443 -0.606792,0.03831 -1.210826,0.06283 -1.904296,0.534539 l 0.03341,0.601357 c 0.645901,-0.366791 1.291803,-0.630711 1.937704,-0.467722 L 22.383821,21.8632"
       id="path823"
       inkscape:connector-curvature="0"
       sodipodi:nodetypes="cccccc" />
    <path
       style="fill:none;stroke:#000000;stroke-width:0.26458332px;stroke-linecap:butt;stroke-linejoin:miter;stroke-opacity:1"
       d="m 22.484049,22.531374 c -0.925499,2.542739 -0.144712,6.361528 -0.701583,6.548104 -2.448323,-1.10997 -1.381151,-1.301422 -1.202713,-1.703843"
       id="path825"
       inkscape:connector-curvature="0"
       sodipodi:nodetypes="ccc" />
    <path
       style="fill:none;stroke:#000000;stroke-width:0.26458332px;stroke-linecap:butt;stroke-linejoin:miter;stroke-opacity:1"
       d="m 20.579753,28.511529 c -0.510436,1.772119 -1.405802,1.564601 -2.53906,0.133635"
       id="path827"
       inkscape:connector-curvature="0"
       sodipodi:nodetypes="cc" />
    <path
       style="fill:none;stroke:#000000;stroke-width:0.26458332px;stroke-linecap:butt;stroke-linejoin:miter;stroke-opacity:1"
       d="m 19.042954,27.576086 c -0.782735,-0.0064 -1.31686,0.484424 -1.837478,1.002261"
       id="path829"
       inkscape:connector-curvature="0"
       sodipodi:nodetypes="cc" />
    <path
       style="fill:none;stroke:#000000;stroke-width:0.26458332px;stroke-linecap:butt;stroke-linejoin:miter;stroke-opacity:1"
       d="m 19.410449,29.78106 c 0.50415,2.914926 -0.330561,2.977495 -1.870886,1.536801 -0.612248,1.201474 -2.400985,1.141455 -1.904296,2.772921 1.801878,0.11465 3.728485,6.272926 6.280834,8.753077 l -2.672695,1.637026"
       id="path831"
       inkscape:connector-curvature="0"
       sodipodi:nodetypes="ccccc" />
    <path
       style="fill:none;stroke:#000000;stroke-width:0.26458332px;stroke-linecap:butt;stroke-linejoin:miter;stroke-opacity:1"
       d="m 16.904798,38.567545 c 1.035054,3.704184 5.928357,9.92154 -2.004522,7.784226"
       id="path833"
       inkscape:connector-curvature="0"
       sodipodi:nodetypes="cc" />
    <path
       style="fill:none;stroke:#000000;stroke-width:0.26458332px;stroke-linecap:butt;stroke-linejoin:miter;stroke-opacity:1"
       d="m 14.666415,28.344487 c -0.727637,1.124129 -1.441654,2.239591 0.701583,1.5368 -0.302651,1.276746 0.422958,1.113929 0.968852,1.202711"
       id="path835"
       inkscape:connector-curvature="0"
       sodipodi:nodetypes="ccc" />
    <path
       style="fill:none;stroke:#000000;stroke-width:0.26458332px;stroke-linecap:butt;stroke-linejoin:miter;stroke-opacity:1"
       d="m 15.067319,31.284452 c -0.593482,0.354728 -0.930509,0.837684 -1.169304,1.369756"
       id="path837"
       inkscape:connector-curvature="0"
       sodipodi:nodetypes="cc" />
    <path
       style="fill:none;stroke:#000000;stroke-width:0.26458332px;stroke-linecap:butt;stroke-linejoin:miter;stroke-opacity:1"
       d="m 13.163024,24.903391 c 0.819983,0.807411 0.358413,1.045244 0.467722,1.5368 -0.442344,0.03718 -0.486536,-0.253873 -0.133635,-0.835217"
       id="path839"
       inkscape:connector-curvature="0"
       sodipodi:nodetypes="ccc" />
    <path
       style="fill:none;stroke:#000000;stroke-width:0.26458332px;stroke-linecap:butt;stroke-linejoin:miter;stroke-opacity:1"
       d="m 10.289877,29.948102 -0.801809,1.269532 -0.6013564,-0.06682 c -0.4727111,0.644654 -1.2465684,1.046978 -2.0713387,1.770661 -4.0191674,5.347085 -1.4506583,9.118857 -1.8374781,13.597337 0.9799883,0.944394 1.9599765,1.189506 2.9399648,1.5368 0.5201773,0.362024 0.5309675,0.726905 -0.200452,1.00226 0.456435,0.69594 0.7240536,1.297471 -0.4009044,1.202714 -0.067326,0.383946 0.569016,1.119725 -0.968852,0.7684 0.096638,0.283077 0.7386408,0.702494 -0.8352173,0.567947 C 4.5658543,51.30707 3.6192747,51.103073 2.6726951,50.12695 2.5643513,48.994073 2.6486733,48.053862 2.8063301,47.186985 3.3465984,45.803712 3.9923178,44.684066 4.7106255,43.745891"
       id="path841"
       inkscape:connector-curvature="0"
       sodipodi:nodetypes="ccccccccccccc" />
    <path
       style="fill:none;stroke:#000000;stroke-width:0.26458332px;stroke-linecap:butt;stroke-linejoin:miter;stroke-opacity:1"
       d="m 4.6103992,47.821754 c 1.1051996,0.773255 2.1904858,1.347375 3.2072344,1.23612"
       id="path843"
       inkscape:connector-curvature="0"
       sodipodi:nodetypes="cc" />
    <path
       style="fill:none;stroke:#000000;stroke-width:0.26458332px;stroke-linecap:butt;stroke-linejoin:miter;stroke-opacity:1"
       d="M 4.1426775,49.091283 C 5.275676,49.95656 6.2945331,50.25113 7.2496859,50.227179"
       id="path845"
       inkscape:connector-curvature="0"
       sodipodi:nodetypes="cc" />
    <path
       style="fill:none;stroke:#000000;stroke-width:0.26458332px;stroke-linecap:butt;stroke-linejoin:miter;stroke-opacity:1"
       d="m 3.8754081,49.859683 c 0.7181968,0.569954 1.4578494,1.104148 2.4388344,1.236121"
       id="path847"
       inkscape:connector-curvature="0"
       sodipodi:nodetypes="cc" />
    <path
       style="fill:none;stroke:#000000;stroke-width:0.26458332px;stroke-linecap:butt;stroke-linejoin:miter;stroke-opacity:1"
       d="m 9.053755,33.957146 c -2.8617885,0.254251 -2.5421963,5.439642 -3.7751818,8.218537 0.4236139,0.07398 0.7429794,-0.08371 1.937704,1.703846 2.3309413,-0.444356 5.2837098,0.999458 6.6149208,0.367495 -0.77298,-4.31934 0.433276,-7.781198 -2.539061,-10.189651"
       id="path849"
       inkscape:connector-curvature="0"
       sodipodi:nodetypes="ccccc" />
    <path
       style="fill:none;stroke:#000000;stroke-width:0.26458332px;stroke-linecap:butt;stroke-linejoin:miter;stroke-opacity:1"
       d="m 11.72645,37.865962 c 0.178648,1.514528 0.470767,3.029056 -0.03341,4.543584"
       id="path851"
       inkscape:connector-curvature="0"
       sodipodi:nodetypes="cc" />
    <path
       style="fill:none;stroke:#000000;stroke-width:0.26458332px;stroke-linecap:butt;stroke-linejoin:miter;stroke-opacity:1"
       d="m 8.41899,37.498467 c -0.8740263,1.665751 -1.1319796,4.024584 -1.3029388,6.481286 0.8930692,3.618141 1.872636,6.924891 3.2072338,8.953529 4.070652,1.961052 8.531705,1.852662 12.194172,2.305201 1.266923,-1.63099 2.864702,-1.73177 4.844261,-0.06682 l -0.634767,1.202714 c 0.111131,1.52891 0.733711,0.807444 1.269532,0.467719 0.303097,0.09539 0.146689,1.109788 1.169305,-0.23386 0.472604,-0.884548 0.472149,-1.709964 0.23386,-2.505651 -0.914857,-1.186518 -2.099308,-1.564254 -3.274052,-1.971112 -1.517552,0.198939 -2.936896,0.446982 -4.276312,0.734989 -3.487058,-0.871918 -4.373161,-1.827428 -8.352173,-3.107007 -0.704071,-2.027861 -0.570928,-3.696915 -0.701583,-5.479026"
       id="path853"
       inkscape:connector-curvature="0"
       sodipodi:nodetypes="ccccccccccccc" />
    <path
       style="fill:none;stroke:#000000;stroke-width:0.26458332px;stroke-linecap:butt;stroke-linejoin:miter;stroke-opacity:1"
       d="m 13.463702,49.859683 c -0.445449,0.0096 -0.890898,-0.03727 -1.336347,0.400905"
       id="path855"
       inkscape:connector-curvature="0"
       sodipodi:nodetypes="cc" />
    <path
       style="fill:none;stroke:#000000;stroke-width:0.26458332px;stroke-linecap:butt;stroke-linejoin:miter;stroke-opacity:1"
       d="m 27.228083,53.501231 c 0.826657,0.780217 1.76906,1.490987 0.868627,3.307458"
       id="path857"
       inkscape:connector-curvature="0"
       sodipodi:nodetypes="cc" />
    <path
       style="fill:none;stroke:#000000;stroke-width:0.26458332px;stroke-linecap:butt;stroke-linejoin:miter;stroke-opacity:1"
       d="m 28.130119,63.156342 -1.102487,-5.913339 c -0.04454,-1.222555 -3.16269,-3.860787 -3.741775,0.601358 -0.470355,0.996772 -1.011536,0.647837 -1.570208,-0.03341 0.08568,-0.8198 0.131731,-1.632996 0.734991,-2.53906"
       id="path859"
       inkscape:connector-curvature="0"
       sodipodi:nodetypes="ccccc" />
    <path
       style="fill:none;stroke:#000000;stroke-width:0.26458332px;stroke-linecap:butt;stroke-linejoin:miter;stroke-opacity:1"
       d="M 29.666917,63.156342 28.731474,57.209594"
       id="path861"
       inkscape:connector-curvature="0" />
    <path
       style="fill:none;stroke:#000000;stroke-width:0.26458332px;stroke-linecap:butt;stroke-linejoin:miter;stroke-opacity:1"
       d="m 17.940467,46.919718 0.567948,4.643808"
       id="path863"
       inkscape:connector-curvature="0" />
    <path
       style="fill:none;stroke:#000000;stroke-width:0.26458332px;stroke-linecap:butt;stroke-linejoin:miter;stroke-opacity:1"
       d="m 18.809093,55.071438 1.469982,8.051496"
       id="path865"
       inkscape:connector-curvature="0" />
    <path
       style="fill:none;stroke:#000000;stroke-width:0.26458332px;stroke-linecap:butt;stroke-linejoin:miter;stroke-opacity:1"
       d="m 18.140919,57.877767 c -0.426283,1.763582 -0.01589,3.434201 0.334087,5.111531"
       id="path867"
       inkscape:connector-curvature="0"
       sodipodi:nodetypes="cc" />
    <path
       style="fill:none;stroke:#000000;stroke-width:0.26458332px;stroke-linecap:butt;stroke-linejoin:miter;stroke-opacity:1"
       d="m 13.697563,55.071438 c -0.887108,2.401529 -0.43074,5.176247 0.26727,8.018087"
       id="path869"
       inkscape:connector-curvature="0"
       sodipodi:nodetypes="cc" />
    <path
       style="fill:none;stroke:#000000;stroke-width:0.26458332px;stroke-linecap:butt;stroke-linejoin:miter;stroke-opacity:1"
       d="m 8.6194423,53.334186 c 0.029802,2.365699 0.2246004,4.802111 -0.334087,6.9156"
       id="path871"
       inkscape:connector-curvature="0"
       sodipodi:nodetypes="cc" />
    <path
       style="fill:none;stroke:#000000;stroke-width:0.26458332px;stroke-linecap:butt;stroke-linejoin:miter;stroke-opacity:1"
       d="M 3.6749558,51.095804 C 0.79638387,53.028787 2.3544616,59.025574 1.6036172,63.056116"
       id="path873"
       inkscape:connector-curvature="0"
       sodipodi:nodetypes="cc" />
    <path
       style="fill:none;stroke:#000000;stroke-width:0.26458332px;stroke-linecap:butt;stroke-linejoin:miter;stroke-opacity:1"
       d="m 21.314744,43.344988 c 0.559429,0.766448 1.116567,1.544351 1.737252,2.004521"
       id="path875"
       inkscape:connector-curvature="0"
       sodipodi:nodetypes="cc" />
    <path
       style="fill:none;stroke:#000000;stroke-width:0.26458332px;stroke-linecap:butt;stroke-linejoin:miter;stroke-opacity:1"
       d="m 21.515197,46.752676 c 1.306131,-1.835421 4.19071,-1.701537 6.748555,-2.106427"
       id="path877"
       inkscape:connector-curvature="0"
       sodipodi:nodetypes="cc" />
    <path
       style="fill:none;stroke:#000000;stroke-width:0.26458332px;stroke-linecap:butt;stroke-linejoin:miter;stroke-opacity:1"
       d="m 17.773423,46.953127 c 4.183194,4.473508 6.022312,1.909472 10.356696,1.069078"
       id="path879"
       inkscape:connector-curvature="0"
       sodipodi:nodetypes="cc" />
    <path
       style="fill:none;stroke:#000000;stroke-width:0.26458332px;stroke-linecap:butt;stroke-linejoin:miter;stroke-opacity:1"
       d="m 31.088541,13.871726 c -1.488179,0.393929 -2.674924,1.390725 -2.787573,4.535714 -0.125449,0.537561 -0.554546,1.161879 0.14174,1.464658 0.399883,-0.380265 0.7912,-0.771952 1.559152,-0.661458 0.271834,-0.66556 0.08441,-0.871855 0,-1.181176 -0.585841,-0.0063 -1.099237,0.132379 -1.559152,0.377976"
       id="path881"
       inkscape:connector-curvature="0"
       sodipodi:nodetypes="cccccc" />
    <path
       style="fill:none;stroke:#000000;stroke-width:0.26458332px;stroke-linecap:butt;stroke-linejoin:miter;stroke-opacity:1"
       d="m 29.009673,15.147396 c -0.228649,-1.645931 0.05561,-3.006915 2.078868,-3.401786"
       id="path883"
       inkscape:connector-curvature="0"
       sodipodi:nodetypes="cc" />
    <path
       style="fill:none;stroke:#000000;stroke-width:0.26458332px;stroke-linecap:butt;stroke-linejoin:miter;stroke-opacity:1"
       d="M 31.41927,14.060714 C 31.106425,11.23588 31.501763,9.027852 35.057291,9.5722468"
       id="path885"
       inkscape:connector-curvature="0"
       sodipodi:nodetypes="cc" />
    <path
       style="fill:none;stroke:#000000;stroke-width:0.26458332px;stroke-linecap:butt;stroke-linejoin:miter;stroke-opacity:1"
       d="M 34.537573,10.895163 C 35.479392,9.2189664 36.333314,7.3773159 39.35677,9.619494"
       id="path887"
       inkscape:connector-curvature="0"
       sodipodi:nodetypes="cc" />
    <path
       style="fill:none;stroke:#000000;stroke-width:0.26458332px;stroke-linecap:butt;stroke-linejoin:miter;stroke-opacity:1"
       d="m 38.553572,9.99747 c 2.060151,-0.7021463 3.244994,0.107603 3.921501,1.795387 1.580806,2.224248 3.904016,5.145906 1.511906,3.638021 0.954313,6.634046 0.358411,6.513586 -0.425223,5.575148 -0.754696,2.735274 -1.903089,3.764522 -3.023809,4.913691 l 0,-1.653646"
       id="path889"
       inkscape:connector-curvature="0"
       sodipodi:nodetypes="ccccc" />
    <path
       style="fill:none;stroke:#000000;stroke-width:0.26458332px;stroke-linecap:butt;stroke-linejoin:miter;stroke-opacity:1"
       d="m 39.734746,23.840848 c 0.692956,1.196229 1.716641,-0.214679 2.078868,-1.606399 0.07518,-1.644461 -1.17899,-2.2044 -1.889879,-0.188988 L 39.35677,21.761979 c 0.04014,-1.984178 -0.509355,-2.907019 -1.08668,-3.779762 0.803377,-1.149678 1.27523,-2.299355 1.322916,-3.449033 -1.611333,-1.179148 -1.981365,-2.125552 0.425223,-2.551339"
       id="path891"
       inkscape:connector-curvature="0"
       sodipodi:nodetypes="ccccccc" />
    <path
       style="fill:none;stroke:#000000;stroke-width:0.26458332px;stroke-linecap:butt;stroke-linejoin:miter;stroke-opacity:1"
       d="m 38.175594,10.989658 c -2.528739,0.225506 -3.414494,2.340823 0,2.031621"
       id="path893"
       inkscape:connector-curvature="0"
       sodipodi:nodetypes="cc" />
    <path
       style="fill:none;stroke:#000000;stroke-width:0.26458332px;stroke-linecap:butt;stroke-linejoin:miter;stroke-opacity:1"
       d="m 36.285715,12.879538 c -1.83442,-0.546465 -2.703005,1.990124 -4.866445,1.370164"
       id="path895"
       inkscape:connector-curvature="0"
       sodipodi:nodetypes="cc" />
    <path
       style="fill:none;stroke:#000000;stroke-width:0.26458332px;stroke-linecap:butt;stroke-linejoin:miter;stroke-opacity:1"
       d="m 36.616444,18.596428 c 0.26088,0.504377 0.08326,0.833354 -0.283483,1.086682 -0.851552,-0.514398 -1.904982,-0.776448 -3.260045,-0.661458 -0.147763,-0.393725 0.07158,-0.787451 0.425223,-1.181176 1.094919,-0.136406 2.149016,0.01295 3.118305,0.755952 z"
       id="path897"
       inkscape:connector-curvature="0"
       sodipodi:nodetypes="ccccc" />
    <path
       style="fill:none;stroke:#000000;stroke-width:0.26458332px;stroke-linecap:butt;stroke-linejoin:miter;stroke-opacity:1"
       d="m 33.120163,19.777604 c -0.838399,2.035323 0.89139,1.502459 2.220611,1.370163"
       id="path899"
       inkscape:connector-curvature="0"
       sodipodi:nodetypes="cc" />
    <path
       style="fill:none;stroke:#000000;stroke-width:0.26458332px;stroke-linecap:butt;stroke-linejoin:miter;stroke-opacity:1"
       d="m 36.899926,22.328943 c 0.762278,0.355425 1.012036,1.065671 0.14174,2.551339"
       id="path901"
       inkscape:connector-curvature="0"
       sodipodi:nodetypes="cc" />
    <path
       style="fill:none;stroke:#000000;stroke-width:0.26458332px;stroke-linecap:butt;stroke-linejoin:miter;stroke-opacity:1"
       d="m 35.010045,24.029836 c 0.66536,0.51691 0.480022,1.155348 0.283482,1.795387"
       id="path903"
       inkscape:connector-curvature="0"
       sodipodi:nodetypes="cc" />
    <path
       style="fill:none;stroke:#000000;stroke-width:0.26458332px;stroke-linecap:butt;stroke-linejoin:miter;stroke-opacity:1"
       d="m 29.954614,19.257887 c 0.699021,1.768406 0.29693,3.23651 -0.377979,4.630208 0.406744,0.845622 1.058711,0.710351 1.842635,0.04725 0.126037,0.669613 1.570286,1.073589 0.944941,-0.897694"
       id="path905"
       inkscape:connector-curvature="0"
       sodipodi:nodetypes="cccc" />
    <path
       style="fill:none;stroke:#000000;stroke-width:0.26458332px;stroke-linecap:butt;stroke-linejoin:miter;stroke-opacity:1"
       d="M 28.442708,19.824851 C 29.013257,20.718803 28.024283,23.605044 28.86793,25.4"
       id="path907"
       inkscape:connector-curvature="0"
       sodipodi:nodetypes="cc" />
    <path
       style="fill:none;stroke:#000000;stroke-width:0.26458332px;stroke-linecap:butt;stroke-linejoin:miter;stroke-opacity:1"
       d="m 30.238094,21.195015 c -0.584101,0.510908 -1.051404,0.437828 -1.511904,0.330729"
       id="path909"
       inkscape:connector-curvature="0"
       sodipodi:nodetypes="cc" />
    <path
       style="fill:none;stroke:#000000;stroke-width:0.26458332px;stroke-linecap:butt;stroke-linejoin:miter;stroke-opacity:1"
       d="m 30.568823,26.34494 -1.795387,0.425222 c 0.04382,-1.031169 0.03266,-2.449892 1.653647,-2.267856 3.960829,-0.396743 1.306729,1.024982 4.063243,0.614211 -0.935522,0.98759 -1.878489,1.963598 -3.921503,1.228423 z"
       id="path911"
       inkscape:connector-curvature="0"
       sodipodi:nodetypes="ccccc" />
    <path
       style="fill:none;stroke:#000000;stroke-width:0.26458332px;stroke-linecap:butt;stroke-linejoin:miter;stroke-opacity:1"
       d="m 29.482142,26.67567 c 0.955274,1.056211 -0.128845,3.202288 2.031622,3.023809 2.401813,-0.379923 3.058271,-0.841831 4.157739,-1.370164"
       id="path913"
       inkscape:connector-curvature="0"
       sodipodi:nodetypes="ccc" />
    <path
       style="fill:none;stroke:#000000;stroke-width:0.26458332px;stroke-linecap:butt;stroke-linejoin:miter;stroke-opacity:1"
       d="m 37.986607,27.148139 c 1.389892,-0.254581 1.375055,-1.445647 1.700893,-2.409598"
       id="path915"
       inkscape:connector-curvature="0"
       sodipodi:nodetypes="cc" />
    <path
       style="fill:none;stroke:#000000;stroke-width:0.26458332px;stroke-linecap:butt;stroke-linejoin:miter;stroke-opacity:1"
       d="m 32.883927,27.100892 c -0.961919,0.259419 -2.396852,1.359753 -2.315104,-0.236236"
       id="path917"
       inkscape:connector-curvature="0"
       sodipodi:nodetypes="cc" />
    <path
       style="fill:none;stroke:#000000;stroke-width:0.26458332px;stroke-linecap:butt;stroke-linejoin:miter;stroke-opacity:1"
       d="m 30.049107,28.849031 c -1.551832,1.032965 -3.317915,2.101639 -5.622396,3.260045 -1.990987,1.974718 -3.67496,4.154112 -5.291666,6.37835"
       id="path919"
       inkscape:connector-curvature="0"
       sodipodi:nodetypes="ccc" />
    <path
       style="fill:none;stroke:#000000;stroke-width:0.26458332px;stroke-linecap:butt;stroke-linejoin:miter;stroke-opacity:1"
       d="m 31.372024,29.699479 c -0.674749,1.486066 -0.469272,3.118836 -0.425223,4.724701 0.88029,-1.395856 2.11345,-2.303376 3.49628,-3.071056 l -1.322918,-1.937128"
       id="path921"
       inkscape:connector-curvature="0"
       sodipodi:nodetypes="cccc" />
    <path
       style="fill:none;stroke:#000000;stroke-width:0.26458332px;stroke-linecap:butt;stroke-linejoin:miter;stroke-opacity:1"
       d="m 34.348586,29.22701 0.236236,2.267855 c 0.392187,1.733557 0.851999,2.723242 1.370163,3.071058 -1.310588,3.373937 -0.987959,5.840532 -1.27567,8.646205"
       id="path923"
       inkscape:connector-curvature="0"
       sodipodi:nodetypes="cccc" />
    <path
       style="fill:none;stroke:#000000;stroke-width:0.26458332px;stroke-linecap:butt;stroke-linejoin:miter;stroke-opacity:1"
       d="m 35.907739,34.565923 c 1.400631,-2.246707 0.846658,-5.938121 4.819195,-6.283854 -0.31678,-0.771702 -0.39122,-1.543403 -0.33073,-2.315105 1.282315,0.181011 4.113802,-0.269378 2.598588,3.260045 -0.716649,1.74814 -0.778287,3.118303 -0.992188,4.677455 -1.306315,-0.191547 -1.836761,-2.710699 -2.409598,-5.102678 1.54737,-0.751056 3.293645,-1.471975 0.803198,-2.834822"
       id="path925"
       inkscape:connector-curvature="0"
       sodipodi:nodetypes="ccccccc" />
    <path
       style="fill:none;stroke:#000000;stroke-width:0.26458332px;stroke-linecap:butt;stroke-linejoin:miter;stroke-opacity:1"
       d="m 25.655134,36.597545 c -0.351192,2.796038 -0.370539,5.550596 0.283482,8.220982"
       id="path927"
       inkscape:connector-curvature="0"
       sodipodi:nodetypes="cc" />
    <path
       style="fill:none;stroke:#000000;stroke-width:0.26458332px;stroke-linecap:butt;stroke-linejoin:miter;stroke-opacity:1"
       d="m 24.237723,36.597545 c -0.04614,1.904522 0.517393,3.199372 1.086682,4.488465 -0.813553,1.591088 -1.818188,2.60893 -2.882069,3.449034"
       id="path929"
       inkscape:connector-curvature="0"
       sodipodi:nodetypes="ccc" />
    <path
       style="fill:none;stroke:#000000;stroke-width:0.26458332px;stroke-linecap:butt;stroke-linejoin:miter;stroke-opacity:1"
       d="m 43.46726,27.242635 c 2.308245,1.630406 4.583721,3.375505 7.134302,4.157736"
       id="path931"
       inkscape:connector-curvature="0"
       sodipodi:nodetypes="cc" />
    <path
       style="fill:none;stroke:#000000;stroke-width:0.26458332px;stroke-linecap:butt;stroke-linejoin:miter;stroke-opacity:1"
       d="m 48.806176,32.298065 c 1.918855,-1.992814 3.111546,0.06014 4.157737,2.929316 -0.204694,1.638069 -0.434998,3.173694 -0.519716,5.291667"
       id="path933"
       inkscape:connector-curvature="0"
       sodipodi:nodetypes="ccc" />
    <path
       style="fill:none;stroke:#000000;stroke-width:0.26458332px;stroke-linecap:butt;stroke-linejoin:miter;stroke-opacity:1"
       d="m 51.26302,34.707663 c 0.163969,2.236211 0.326726,4.47343 1.228424,6.094867 0.19824,1.840586 0.1476,3.482068 -0.283483,4.819195 -2.532396,-0.0094 -5.089457,-0.06805 -8.976934,-2.787573 1.061548,-3.352867 1.911982,-7.022403 3.685267,-9.307663"
       id="path935"
       inkscape:connector-curvature="0"
       sodipodi:nodetypes="ccccc" />
    <path
       style="fill:none;stroke:#000000;stroke-width:0.26458332px;stroke-linecap:butt;stroke-linejoin:miter;stroke-opacity:1"
       d="m 50.979538,45.621725 c -0.822996,2.548911 -1.507824,5.180722 -2.929316,7.370535 -0.567421,2.28087 -1.692211,1.217521 -2.598587,1.464659 -5.183138,-0.783731 -7.654018,-3.575025 -12.614955,-4.866444"
       id="path937"
       inkscape:connector-curvature="0"
       sodipodi:nodetypes="cccc" />
    <path
       style="fill:none;stroke:#000000;stroke-width:0.26458332px;stroke-linecap:butt;stroke-linejoin:miter;stroke-opacity:1"
       d="m 33.781621,48.88177 c -1.495834,1.545548 -3.329387,0.839637 -5.197173,-0.09449 -0.556226,-0.41852 -1.019099,-1.069085 0,-1.464659 -1.010321,-0.401392 -1.428428,-1.489225 -0.09449,-1.181174 -1.059678,-0.683952 -0.447282,-1.508502 0.236234,-1.464659 -1.069814,-1.155413 2.116199,-2.546781 2.598588,-0.236234"
       id="path939"
       inkscape:connector-curvature="0"
       sodipodi:nodetypes="cccccc" />
    <path
       style="fill:none;stroke:#000000;stroke-width:0.26458332px;stroke-linecap:butt;stroke-linejoin:miter;stroke-opacity:1"
       d="m 29.812871,47.984076 -1.27567,-0.614212"
       id="path941"
       inkscape:connector-curvature="0" />
    <path
       style="fill:none;stroke:#000000;stroke-width:0.26458332px;stroke-linecap:butt;stroke-linejoin:miter;stroke-opacity:1"
       d="M 30.190847,47.039135 28.253719,45.999701"
       id="path943"
       inkscape:connector-curvature="0" />
    <path
       style="fill:none;stroke:#000000;stroke-width:0.26458332px;stroke-linecap:butt;stroke-linejoin:miter;stroke-opacity:1"
       d="M 30.521576,45.479985 28.584448,44.629538"
       id="path945"
       inkscape:connector-curvature="0" />
    <path
       style="fill:none;stroke:#000000;stroke-width:0.26458332px;stroke-linecap:butt;stroke-linejoin:miter;stroke-opacity:1"
       d="m 30.190847,43.826339 c -0.633212,0.236235 0.245088,0.47247 0.944941,0.708705 0.871931,0.401372 2.235577,1.458364 1.322917,-0.519718 -1.336931,-1.015572 -1.77143,-2.348027 0.8032,-0.803198 0.520471,0.961066 0.987957,1.89564 1.74814,2.976562 3.338789,1.012605 6.677579,1.128548 10.016368,3.071056"
       id="path947"
       inkscape:connector-curvature="0"
       sodipodi:nodetypes="cccccc" />
    <path
       style="fill:none;stroke:#000000;stroke-width:0.26458332px;stroke-linecap:butt;stroke-linejoin:miter;stroke-opacity:1"
       d="M 31.135788,44.015326 31.702753,43.49561"
       id="path949"
       inkscape:connector-curvature="0" />
    <path
       style="fill:none;stroke:#000000;stroke-width:0.26458332px;stroke-linecap:butt;stroke-linejoin:miter;stroke-opacity:1"
       d="m 32.505951,42.550669 c 0.447997,-1.034358 2.128187,-2.039463 1.13393,0.614212 1.642135,0.438695 2.107079,-0.377501 2.929316,-1.086683 0.944861,-0.977299 1.34961,-0.227745 0.14174,1.27567 2.589188,-2.415948 2.135132,-0.512983 1.181177,0.755954 2.586656,-0.99256 1.089045,0.703891 0.188986,1.228421 0.70424,-0.262276 0.936844,0.909553 -1.464656,1.27567"
       id="path951"
       inkscape:connector-curvature="0"
       sodipodi:nodetypes="ccccccc" />
    <path
       style="fill:none;stroke:#000000;stroke-width:0.26458332px;stroke-linecap:butt;stroke-linejoin:miter;stroke-opacity:1"
       d="m 36.80543,43.164881 c -0.256751,0.579853 -1.059025,0.832392 -1.937128,1.039434"
       id="path953"
       inkscape:connector-curvature="0"
       sodipodi:nodetypes="cc" />
    <path
       style="fill:none;stroke:#000000;stroke-width:0.26458332px;stroke-linecap:butt;stroke-linejoin:miter;stroke-opacity:1"
       d="m 37.797618,44.109822 c -0.740203,0.405421 -1.480405,1.000022 -2.220608,0.566962"
       id="path955"
       inkscape:connector-curvature="0"
       sodipodi:nodetypes="cc" />
    <path
       style="fill:none;stroke:#000000;stroke-width:0.26458332px;stroke-linecap:butt;stroke-linejoin:miter;stroke-opacity:1"
       d="m 38.128347,45.243749 c -0.724455,0.409475 -1.385912,0.62996 -1.984375,0.661459"
       id="path957"
       inkscape:connector-curvature="0"
       sodipodi:nodetypes="cc" />
    <path
       style="fill:none;stroke:#000000;stroke-width:0.26458332px;stroke-linecap:butt;stroke-linejoin:miter;stroke-opacity:1"
       d="m 26.458333,48.409301 v 3.543525"
       id="path959"
       inkscape:connector-curvature="0" />
    <path
       style="fill:none;stroke:#000000;stroke-width:0.26458332px;stroke-linecap:butt;stroke-linejoin:miter;stroke-opacity:1"
       d="m 25.749628,55.874329 c -0.08586,1.194096 -0.406849,2.220237 -1.370164,2.787576 1.039434,0.848378 2.078869,1.55431 3.118303,1.653646"
       id="path961"
       inkscape:connector-curvature="0"
       sodipodi:nodetypes="ccc" />
    <path
       style="fill:none;stroke:#000000;stroke-width:0.26458332px;stroke-linecap:butt;stroke-linejoin:miter;stroke-opacity:1"
       d="m 25.418899,59.51235 -0.472471,3.496281"
       id="path963"
       inkscape:connector-curvature="0" />
    <path
       style="fill:none;stroke:#000000;stroke-width:0.26458332px;stroke-linecap:butt;stroke-linejoin:miter;stroke-opacity:1"
       d="m 29.19866,59.984822 1.700892,-0.283483 c 1.352971,-3.190505 1.766215,-6.515257 2.267858,-9.827381 -0.33426,3.494216 -0.869354,7.229434 -0.614212,10.016368 l 3.82701,0.472472 c 1.171183,2.829064 6.394096,-0.330729 10.016368,1.984375 2.640913,-1.144796 -1.160335,-3.651066 -1.133927,-5.57515"
       id="path965"
       inkscape:connector-curvature="0"
       sodipodi:nodetypes="ccccccc" />
    <path
       style="fill:none;stroke:#000000;stroke-width:0.26458332px;stroke-linecap:butt;stroke-linejoin:miter;stroke-opacity:1"
       d="m 46.254836,54.456919 0.188987,4.582962"
       id="path967"
       inkscape:connector-curvature="0" />
    <path
       style="fill:none;stroke:#000000;stroke-width:0.26458332px;stroke-linecap:butt;stroke-linejoin:miter;stroke-opacity:1"
       d="m 34.962798,60.079315 1.181174,-7.228795 0.283483,7.606771"
       id="path969"
       inkscape:connector-curvature="0" />
    <path
       style="fill:none;stroke:#000000;stroke-width:0.26458332px;stroke-linecap:butt;stroke-linejoin:miter;stroke-opacity:1"
       d="m 31.088541,60.504538 -0.09449,2.504093"
       id="path971"
       inkscape:connector-curvature="0" />
    <path
       style="fill:none;stroke:#000000;stroke-width:0.26458332px;stroke-linecap:butt;stroke-linejoin:miter;stroke-opacity:1"
       d="m 32.883927,61.118749 -0.236233,1.937129"
       id="path973"
       inkscape:connector-curvature="0" />
    <path
       style="fill:none;stroke:#000000;stroke-width:0.26458332px;stroke-linecap:butt;stroke-linejoin:miter;stroke-opacity:1"
       d="m 38.459076,61.732961 0.708705,1.41741"
       id="path975"
       inkscape:connector-curvature="0" />
    <path
       style="fill:none;stroke:#000000;stroke-width:0.26458332px;stroke-linecap:butt;stroke-linejoin:miter;stroke-opacity:1"
       d="m 44.74293,43.826339 c -0.673015,1.260124 -0.849427,2.917531 -0.897691,4.677455"
       id="path977"
       inkscape:connector-curvature="0"
       sodipodi:nodetypes="cc" />
    <path
       style="fill:none;stroke:#000000;stroke-width:0.26458332px;stroke-linecap:butt;stroke-linejoin:miter;stroke-opacity:1"
       d="m 40.726934,21.667485 c -0.292259,0.465222 -0.650473,0.935156 -0.519716,1.370163 0.320168,0.503249 0.571335,-0.340225 0.283482,-0.578776"
       id="path979"
       inkscape:connector-curvature="0"
       sodipodi:nodetypes="ccc" />
    <path
       style="fill:none;stroke:#000000;stroke-width:0.26458332px;stroke-linecap:butt;stroke-linejoin:miter;stroke-opacity:1"
       d="m 9.4966516,31.211385 c 2.3050474,1.480074 5.3530124,2.40296 6.2838544,4.913688 0.302193,-0.474186 0.09301,-1.331908 -0.09449,-2.173362"
       id="path981"
       inkscape:connector-curvature="0"
       sodipodi:nodetypes="ccc" />
    <path
       style="fill:none;stroke:#000000;stroke-width:0.26458332px;stroke-linecap:butt;stroke-linejoin:miter;stroke-opacity:1"
       d="M 42.994791,6.3122023 42.427826,11.887351"
       id="path983"
       inkscape:connector-curvature="0" />
    <path
       style="fill:none;stroke:#000000;stroke-width:0.26458332px;stroke-linecap:butt;stroke-linejoin:miter;stroke-opacity:1"
       d="M 46.207589,6.5011902 45.829614,10.091964 44.128719,9.4305058 44.034225,13.588244"
       id="path985"
       inkscape:connector-curvature="0" />
    <path
       style="fill:none;stroke:#000000;stroke-width:0.26458332px;stroke-linecap:butt;stroke-linejoin:miter;stroke-opacity:1"
       d="m 45.829614,9.99747 1.41741,-0.4724701 v 5.2916661 l -1.795389,0.661459 z"
       id="path987"
       inkscape:connector-curvature="0" />
    <path
       style="fill:none;stroke:#000000;stroke-width:0.26458332px;stroke-linecap:butt;stroke-linejoin:miter;stroke-opacity:1"
       d="M 45.546131,15.572619 44.884673,28.045833"
       id="path989"
       inkscape:connector-curvature="0" />
    <path
       style="fill:none;stroke:#000000;stroke-width:0.26458332px;stroke-linecap:butt;stroke-linejoin:miter;stroke-opacity:1"
       d="M 48.947916,6.4066964 48.097468,30.219197"
       id="path991"
       inkscape:connector-curvature="0" />
    <path
       style="fill:none;stroke:#000000;stroke-width:0.26458332px;stroke-linecap:butt;stroke-linejoin:miter;stroke-opacity:1"
       d="M 66.618302,20.675297 51.026784,19.352381 51.310267,9.902976 66.901784,11.225893"
       id="path995"
       inkscape:connector-curvature="0" />
    <path
       style="fill:none;stroke:#000000;stroke-width:0.26458332px;stroke-linecap:butt;stroke-linejoin:miter;stroke-opacity:1"
       d="m 66.99628,12.076339 -14.741072,-1.133928 -0.09449,7.465029 14.552084,1.322917"
       id="path997"
       inkscape:connector-curvature="0" />
    <path
       style="fill:none;stroke:#000000;stroke-width:0.26458332px;stroke-linecap:butt;stroke-linejoin:miter;stroke-opacity:1"
       d="m 56.601933,11.887351 c 3.619289,0.404186 5.217937,6.320094 -0.283482,6.520089 -5.591254,-1.248303 -2.963871,-6.849267 0.283482,-6.520089 z"
       id="path999"
       inkscape:connector-curvature="0"
       sodipodi:nodetypes="ccc" />
    <path
       style="fill:none;stroke:#000000;stroke-width:0.26458332px;stroke-linecap:butt;stroke-linejoin:miter;stroke-opacity:1"
       d="m 57.128862,13.243758 v 1.26953 l 1.637024,0.167044 -0.133635,1.5368 -1.369756,-0.133635 v 1.169304 l -1.670434,-0.03341 0.06682,-1.436573 -1.570209,-0.133635 0.06682,-1.503391 1.536801,0.06682 v -1.102487 z"
       id="path1001"
       inkscape:connector-curvature="0" />
    <path
       style="fill:none;stroke:#000000;stroke-width:0.26458332px;stroke-linecap:butt;stroke-linejoin:miter;stroke-opacity:1"
       d="m 63.175834,14.012158 0.03341,1.202713 c -2.425632,0.05173 -1.203828,1.570896 -0.200453,1.169304 v 1.202713 c -3.185215,0.07236 -2.830477,-4.312661 0.167043,-3.57473 z"
       id="path1003"
       inkscape:connector-curvature="0"
       sodipodi:nodetypes="ccccc" />
    <path
       style="fill:none;stroke:#000000;stroke-width:0.26458332px;stroke-linecap:butt;stroke-linejoin:miter;stroke-opacity:1"
       d="m 66.717155,14.747149 c -3.288842,-1.662616 -3.773584,4.680642 0.03341,2.873148"
       id="path1005"
       inkscape:connector-curvature="0"
       sodipodi:nodetypes="cc" />
    <path
       style="fill:none;stroke:#000000;stroke-width:0.26458332px;stroke-linecap:butt;stroke-linejoin:miter;stroke-opacity:1"
       d="m 65.748304,15.281688 c -0.728585,0.102049 -0.917821,1.534713 0,1.637026 0.933502,-0.211588 0.551124,-1.592481 0,-1.637026 z"
       id="path1007"
       inkscape:connector-curvature="0"
       sodipodi:nodetypes="ccc" />
    <path
       style="fill:none;stroke:#000000;stroke-width:0.26458332px;stroke-linecap:butt;stroke-linejoin:miter;stroke-opacity:1"
       d="m 43.297662,28.511529 c 0.75619,0.913171 1.381419,1.826343 3.34087,2.739514"
       id="path1009"
       inkscape:connector-curvature="0"
       sodipodi:nodetypes="cc" />
  </g>
</svg>
