<?xml version="1.0" encoding="UTF-8" standalone="no"?>
<!-- Created with Inkscape (http://www.inkscape.org/) -->

<svg
   xmlns:dc="http://purl.org/dc/elements/1.1/"
   xmlns:cc="http://creativecommons.org/ns#"
   xmlns:rdf="http://www.w3.org/1999/02/22-rdf-syntax-ns#"
   xmlns:svg="http://www.w3.org/2000/svg"
   xmlns="http://www.w3.org/2000/svg"
   xmlns:sodipodi="http://sodipodi.sourceforge.net/DTD/sodipodi-0.dtd"
   xmlns:inkscape="http://www.inkscape.org/namespaces/inkscape"
   width="250"
   height="250"
   viewBox="0 0 66.145832 66.145836"
   version="1.1"
   id="svg8"
   inkscape:version="0.92.2 (5c3e80d, 2017-08-06)"
   sodipodi:docname="logo_compartiendo.svg">
  <defs
     id="defs2" />
  <sodipodi:namedview
     id="base"
     pagecolor="#ffffff"
     bordercolor="#666666"
     borderopacity="1.0"
     inkscape:pageopacity="0.0"
     inkscape:pageshadow="2"
     inkscape:zoom="1.6258065"
     inkscape:cx="110.52271"
     inkscape:cy="157.37944"
     inkscape:document-units="px"
     inkscape:current-layer="layer2"
     showgrid="false"
     units="px"
     inkscape:window-width="1366"
     inkscape:window-height="745"
     inkscape:window-x="-8"
     inkscape:window-y="-8"
     inkscape:window-maximized="1"
     showguides="true"
     inkscape:guide-bbox="true"
     inkscape:snap-global="false" />
  <metadata
     id="metadata5">
    <rdf:RDF>
      <cc:Work
         rdf:about="">
        <dc:format>image/svg+xml</dc:format>
        <dc:type
           rdf:resource="http://purl.org/dc/dcmitype/StillImage" />
        <dc:title></dc:title>
      </cc:Work>
    </rdf:RDF>
  </metadata>
  <g
     inkscape:groupmode="layer"
     id="layer2"
     inkscape:label="Capa 2"
     style="display:inline">
    <path
       style="fill:none;stroke:#000000;stroke-width:2;stroke-linecap:butt;stroke-linejoin:miter;stroke-miterlimit:1.5;stroke-dasharray:none;stroke-opacity:1;paint-order:markers fill stroke"
       d="m 64.282203,6.5830854 c 0,0 -31.246035,-1.871507 -26.689321,15.9484956 C 48.770514,13.572034 33.036168,3.65377 33.036168,3.65377 c 0,0 -16.232656,11.655599 -1.930736,25.272328 1.182753,-19.0566876 -19.22543,-16.809861 -19.22543,-16.809861 0,0 -3.2388551,19.048939 16.762195,19.406717 -13.645393,-14.288799 -25.7128813,1.586711 -25.7128813,1.586711 0,0 12.3354993,16.38457 25.7128813,2.074932 C 9.2233807,33.15035 11.717262,54.591314 11.717262,54.591314 c 0,0 21.127397,1.513827 19.418632,-16.860418 -14.857744,12.062928 1.900276,25.566993 1.900276,25.566993 0,0 16.010386,-12.955646 1.830821,-25.509456 -1.830823,19.254385 19.325347,16.640141 19.325347,16.640141 0,0 2.69265,-19.880479 -16.762196,-19.203292 12.793903,14.491899 25.428086,-1.871507 25.428086,-1.871507 0,0 -12.019636,-15.919696 -25.468771,-2.034246 19.462138,1.790136 16.738364,-19.051271 16.738364,-19.051271"
       id="path832"
       inkscape:connector-curvature="0"
       sodipodi:nodetypes="ccccccccccccccccc" />
  </g>
  <g
     inkscape:groupmode="layer"
     id="layer3"
     inkscape:label="Capa 3"
     style="display:inline">
    <path
       style="opacity:1;fill:#000000;fill-opacity:1;stroke:#000000;stroke-width:2;stroke-linecap:round;stroke-linejoin:bevel;stroke-miterlimit:4;stroke-dasharray:none;stroke-opacity:1"
       id="path835"
       sodipodi:type="arc"
       sodipodi:cx="43.498119"
       sodipodi:cy="3.5741391"
       sodipodi:rx="1.208281"
       sodipodi:ry="1.208281"
       sodipodi:start="0"
       sodipodi:end="6.2709331"
       sodipodi:open="true"
       d="M 44.7064,3.5741391 A 1.208281,1.208281 0 0 1 43.50182,4.7824145 1.208281,1.208281 0 0 1 42.289861,3.5815411 1.208281,1.208281 0 0 1 43.487016,2.3659091 1.208281,1.208281 0 0 1 44.70631,3.5593354" />
    <path
       style="display:inline;opacity:1;fill:#000000;fill-opacity:1;stroke:#000000;stroke-width:2;stroke-linecap:round;stroke-linejoin:bevel;stroke-miterlimit:4;stroke-dasharray:none;stroke-opacity:1"
       id="path835-6"
       sodipodi:type="arc"
       sodipodi:cx="22.266802"
       sodipodi:cy="7.3428249"
       sodipodi:rx="1.208281"
       sodipodi:ry="1.208281"
       sodipodi:start="0"
       sodipodi:end="6.2709331"
       sodipodi:open="true"
       d="m 23.475083,7.3428249 a 1.208281,1.208281 0 0 1 -1.20458,1.2082754 1.208281,1.208281 0 0 1 -1.21196,-1.2008734 1.208281,1.208281 0 0 1 1.197156,-1.215632 1.208281,1.208281 0 0 1 1.219293,1.1934263" />
    <path
       style="display:inline;opacity:1;fill:#000000;fill-opacity:1;stroke:#000000;stroke-width:2;stroke-linecap:round;stroke-linejoin:bevel;stroke-miterlimit:4;stroke-dasharray:none;stroke-opacity:1"
       id="path835-6-2"
       sodipodi:type="arc"
       sodipodi:cx="7.1632886"
       sodipodi:cy="22.590181"
       sodipodi:rx="1.208281"
       sodipodi:ry="1.208281"
       sodipodi:start="0"
       sodipodi:end="6.2709331"
       sodipodi:open="true"
       d="m 8.3715696,22.590181 a 1.208281,1.208281 0 0 1 -1.20458,1.208276 1.208281,1.208281 0 0 1 -1.2119594,-1.200874 1.208281,1.208281 0 0 1 1.1971555,-1.215632 1.208281,1.208281 0 0 1 1.2192932,1.193427" />
    <path
       style="display:inline;opacity:1;fill:#000000;fill-opacity:1;stroke:#000000;stroke-width:2;stroke-linecap:round;stroke-linejoin:bevel;stroke-miterlimit:4;stroke-dasharray:none;stroke-opacity:1"
       id="path835-6-5"
       sodipodi:type="arc"
       sodipodi:cx="7.1345201"
       sodipodi:cy="43.994019"
       sodipodi:rx="1.208281"
       sodipodi:ry="1.208281"
       sodipodi:start="0"
       sodipodi:end="6.2709331"
       sodipodi:open="true"
       d="m 8.3428011,43.994019 a 1.208281,1.208281 0 0 1 -1.20458,1.208275 1.208281,1.208281 0 0 1 -1.2119594,-1.200873 1.208281,1.208281 0 0 1 1.1971554,-1.215632 1.208281,1.208281 0 0 1 1.2192933,1.193426" />
    <path
       style="display:inline;opacity:1;fill:#000000;fill-opacity:1;stroke:#000000;stroke-width:2;stroke-linecap:round;stroke-linejoin:bevel;stroke-miterlimit:4;stroke-dasharray:none;stroke-opacity:1"
       id="path835-6-7"
       sodipodi:type="arc"
       sodipodi:cx="22.29557"
       sodipodi:cy="59.183834"
       sodipodi:rx="1.208281"
       sodipodi:ry="1.208281"
       sodipodi:start="0"
       sodipodi:end="6.2709331"
       sodipodi:open="true"
       d="m 23.503851,59.183834 a 1.208281,1.208281 0 0 1 -1.20458,1.208275 1.208281,1.208281 0 0 1 -1.211959,-1.200873 1.208281,1.208281 0 0 1 1.197155,-1.215632 1.208281,1.208281 0 0 1 1.219294,1.193426" />
    <path
       style="display:inline;opacity:1;fill:#000000;fill-opacity:1;stroke:#000000;stroke-width:2;stroke-linecap:round;stroke-linejoin:bevel;stroke-miterlimit:4;stroke-dasharray:none;stroke-opacity:1"
       id="path835-6-6"
       sodipodi:type="arc"
       sodipodi:cx="43.613098"
       sodipodi:cy="59.241371"
       sodipodi:rx="1.208281"
       sodipodi:ry="1.208281"
       sodipodi:start="0"
       sodipodi:end="6.2709331"
       sodipodi:open="true"
       d="m 44.821379,59.241371 a 1.208281,1.208281 0 0 1 -1.20458,1.208276 1.208281,1.208281 0 0 1 -1.211959,-1.200874 1.208281,1.208281 0 0 1 1.197155,-1.215632 1.208281,1.208281 0 0 1 1.219293,1.193426" />
    <path
       style="display:inline;opacity:1;fill:#000000;fill-opacity:1;stroke:#000000;stroke-width:2;stroke-linecap:round;stroke-linejoin:bevel;stroke-miterlimit:4;stroke-dasharray:none;stroke-opacity:1"
       id="path835-6-28"
       sodipodi:type="arc"
       sodipodi:cx="58.889221"
       sodipodi:cy="43.994015"
       sodipodi:rx="1.208281"
       sodipodi:ry="1.208281"
       sodipodi:start="0"
       sodipodi:end="6.2709331"
       sodipodi:open="true"
       d="m 60.097502,43.994015 a 1.208281,1.208281 0 0 1 -1.20458,1.208275 1.208281,1.208281 0 0 1 -1.211959,-1.200873 1.208281,1.208281 0 0 1 1.197155,-1.215632 1.208281,1.208281 0 0 1 1.219294,1.193426" />
    <path
       style="display:inline;opacity:1;fill:#000000;fill-opacity:1;stroke:#000000;stroke-width:2;stroke-linecap:round;stroke-linejoin:bevel;stroke-miterlimit:4;stroke-dasharray:none;stroke-opacity:1"
       id="path835-6-4"
       sodipodi:type="arc"
       sodipodi:cx="58.860455"
       sodipodi:cy="22.532644"
       sodipodi:rx="1.208281"
       sodipodi:ry="1.208281"
       sodipodi:start="0"
       sodipodi:end="6.2709331"
       sodipodi:open="true"
       d="m 60.068736,22.532644 a 1.208281,1.208281 0 0 1 -1.20458,1.208276 1.208281,1.208281 0 0 1 -1.21196,-1.200874 1.208281,1.208281 0 0 1 1.197156,-1.215632 1.208281,1.208281 0 0 1 1.219293,1.193427" />
  </g>
</svg>
