<?xml version="1.0" encoding="UTF-8" standalone="no"?>
<!-- Created with Inkscape (http://www.inkscape.org/) -->

<svg
   xmlns:dc="http://purl.org/dc/elements/1.1/"
   xmlns:cc="http://creativecommons.org/ns#"
   xmlns:rdf="http://www.w3.org/1999/02/22-rdf-syntax-ns#"
   xmlns:svg="http://www.w3.org/2000/svg"
   xmlns="http://www.w3.org/2000/svg"
   xmlns:sodipodi="http://sodipodi.sourceforge.net/DTD/sodipodi-0.dtd"
   xmlns:inkscape="http://www.inkscape.org/namespaces/inkscape"
   width="250"
   height="250"
   viewBox="0 0 66.145832 66.145835"
   version="1.1"
   id="svg1226"
   inkscape:version="0.92.2 (5c3e80d, 2017-08-06)"
   sodipodi:docname="logo_piesplaza.svg">
  <defs
     id="defs1220" />
  <sodipodi:namedview
     id="base"
     pagecolor="#ffffff"
     bordercolor="#666666"
     borderopacity="1.0"
     inkscape:pageopacity="0.0"
     inkscape:pageshadow="2"
     inkscape:zoom="1.601716"
     inkscape:cx="34.80219"
     inkscape:cy="85.05393"
     inkscape:document-units="px"
     inkscape:current-layer="layer4"
     showgrid="false"
     units="px"
     inkscape:snap-global="false"
     inkscape:window-width="1366"
     inkscape:window-height="745"
     inkscape:window-x="-8"
     inkscape:window-y="-8"
     inkscape:window-maximized="1" />
  <metadata
     id="metadata1223">
    <rdf:RDF>
      <cc:Work
         rdf:about="">
        <dc:format>image/svg+xml</dc:format>
        <dc:type
           rdf:resource="http://purl.org/dc/dcmitype/StillImage" />
        <dc:title></dc:title>
      </cc:Work>
    </rdf:RDF>
  </metadata>
  <g
     inkscape:groupmode="layer"
     id="layer4"
     inkscape:label="Capa 2"
     style="display:inline">
    <path
       style="fill:none;stroke:#000000;stroke-width:0.26458333;stroke-linecap:butt;stroke-linejoin:miter;stroke-miterlimit:4;stroke-dasharray:none;stroke-opacity:1"
       d="M 41.671874,48.097468 V 5.0081843"
       id="path1786"
       inkscape:connector-curvature="0" />
    <path
       style="fill:none;stroke:#000000;stroke-width:0.26458333;stroke-linecap:butt;stroke-linejoin:miter;stroke-miterlimit:4;stroke-dasharray:none;stroke-opacity:1"
       d="M 43.650851,28.784236 43.561756,6.8035712 41.671874,5.0081843 c 0,0 -1.759353,-2.0537853 -2.567001,-2.004777 -0.807647,0.049008 -0.785104,0.6013564 -0.785104,0.6013564 L 37.348364,25.826415"
       id="path1788"
       inkscape:connector-curvature="0"
       sodipodi:nodetypes="cccccc" />
    <path
       style="fill:none;stroke:#000000;stroke-width:0.26458333;stroke-linecap:butt;stroke-linejoin:miter;stroke-miterlimit:4;stroke-dasharray:none;stroke-opacity:1"
       d="M 49.958477,31.150225 47.43601,4.7247021 c 0,0 -0.328575,-0.141018 -0.991365,-0.091377 -0.66279,0.049641 -2.905528,0.7154315 -2.905528,0.7154315"
       id="path1790"
       inkscape:connector-curvature="0"
       sodipodi:nodetypes="cczc" />
    <path
       style="fill:none;stroke:#000000;stroke-width:0.26458333;stroke-linecap:butt;stroke-linejoin:miter;stroke-miterlimit:4;stroke-dasharray:none;stroke-opacity:1"
       d="M 34.11235,7.1815475 31.95018,27.457253"
       id="path1792"
       inkscape:connector-curvature="0"
       sodipodi:nodetypes="cc" />
    <path
       style="fill:none;stroke:#000000;stroke-width:0.26458333;stroke-linecap:butt;stroke-linejoin:miter;stroke-miterlimit:4;stroke-dasharray:none;stroke-opacity:1"
       d="M 43.561756,6.8035712 43.42231,1.5963915 42.283461,2.0052095 41.407423,1.2605767 40.458382,1.9322063 39.275728,1.6109921 v 1.4600642"
       id="path1794"
       inkscape:connector-curvature="0" />
    <path
       style="fill:none;stroke:#000000;stroke-width:0.26458333;stroke-linecap:butt;stroke-linejoin:miter;stroke-miterlimit:4;stroke-dasharray:none;stroke-opacity:1"
       d="m 40.458382,1.9322063 -0.0438,1.7666776"
       id="path1796"
       inkscape:connector-curvature="0" />
    <path
       style="fill:none;stroke:#000000;stroke-width:0.26458333;stroke-linecap:butt;stroke-linejoin:miter;stroke-miterlimit:4;stroke-dasharray:none;stroke-opacity:1"
       d="m 41.407423,1.2605767 -0.0292,3.3727484"
       id="path1798"
       inkscape:connector-curvature="0" />
    <path
       style="fill:none;stroke:#000000;stroke-width:0.26458333;stroke-linecap:butt;stroke-linejoin:miter;stroke-miterlimit:4;stroke-dasharray:none;stroke-opacity:1"
       d="m 42.283461,2.0052095 0.0584,3.6647613"
       id="path1800"
       inkscape:connector-curvature="0" />
    <path
       style="fill:none;stroke:#000000;stroke-width:0.26458333;stroke-linecap:butt;stroke-linejoin:miter;stroke-miterlimit:4;stroke-dasharray:none;stroke-opacity:1"
       d="m 43.451512,2.4286281 1.153451,0.6570289 0.102203,1.9418856"
       id="path1802"
       inkscape:connector-curvature="0" />
    <path
       style="fill:none;stroke:#000000;stroke-width:0.26458333;stroke-linecap:butt;stroke-linejoin:miter;stroke-miterlimit:4;stroke-dasharray:none;stroke-opacity:1"
       d="m 47.612696,6.7504185 c 0,0 0.05054,-0.1933733 -0.642429,-0.2336104 -0.69297,-0.040237 -3.387349,0.8030352 -3.387349,0.8030352"
       id="path1806"
       inkscape:connector-curvature="0"
       sodipodi:nodetypes="czc" />
    <path
       style="fill:none;stroke:#000000;stroke-width:0.26458333;stroke-linecap:butt;stroke-linejoin:miter;stroke-miterlimit:4;stroke-dasharray:none;stroke-opacity:1"
       d="m 47.831705,8.7507063 c 0,0 -0.0091,-0.196277 -0.730033,-0.2336102 -0.720967,-0.037333 -3.489552,0.730032 -3.489552,0.730032"
       id="path1808"
       inkscape:connector-curvature="0"
       sodipodi:nodetypes="czc" />
    <path
       style="fill:none;stroke:#000000;stroke-width:0.26458333;stroke-linecap:butt;stroke-linejoin:miter;stroke-miterlimit:4;stroke-dasharray:none;stroke-opacity:1"
       d="m 47.992312,10.692592 c 0,0 -0.08233,-0.228617 -0.832236,-0.262812 -0.749906,-0.03419 -3.547956,0.773834 -3.547956,0.773834"
       id="path1810"
       inkscape:connector-curvature="0"
       sodipodi:nodetypes="czc" />
    <path
       style="fill:none;stroke:#000000;stroke-width:0.26458333;stroke-linecap:butt;stroke-linejoin:miter;stroke-miterlimit:4;stroke-dasharray:none;stroke-opacity:1"
       d="m 48.182122,12.503072 c 0,0 -0.271339,-0.172264 -1.051248,-0.102205 -0.779909,0.07006 -3.504155,0.992844 -3.504155,0.992844"
       id="path1812"
       inkscape:connector-curvature="0"
       sodipodi:nodetypes="czc" />
    <path
       style="fill:none;stroke:#000000;stroke-width:0.26458333;stroke-linecap:butt;stroke-linejoin:miter;stroke-miterlimit:4;stroke-dasharray:none;stroke-opacity:1"
       d="m 48.41573,14.722369 c 0,0 -0.310885,-0.263987 -1.138848,-0.23361 -0.827963,0.03038 -3.664762,1.036646 -3.664762,1.036646"
       id="path1814"
       inkscape:connector-curvature="0"
       sodipodi:nodetypes="czc" />
    <path
       style="fill:none;stroke:#000000;stroke-width:0.26458333;stroke-linecap:butt;stroke-linejoin:miter;stroke-miterlimit:4;stroke-dasharray:none;stroke-opacity:1"
       d="m 48.60554,16.970868 c 0,0 -0.187226,-0.208322 -1.036645,-0.160607 -0.849419,0.04772 -3.912974,1.065847 -3.912974,1.065847"
       id="path1816"
       inkscape:connector-curvature="0"
       sodipodi:nodetypes="czc" />
    <path
       style="fill:none;stroke:#000000;stroke-width:0.26458333;stroke-linecap:butt;stroke-linejoin:miter;stroke-miterlimit:4;stroke-dasharray:none;stroke-opacity:1"
       d="m 48.839148,19.27777 c 0,0 -0.272134,-0.225478 -1.153451,-0.175208 -0.881317,0.05027 -3.985974,1.080448 -3.985974,1.080448"
       id="path1818"
       inkscape:connector-curvature="0"
       sodipodi:nodetypes="czc" />
    <path
       style="fill:none;stroke:#000000;stroke-width:0.26458333;stroke-linecap:butt;stroke-linejoin:miter;stroke-miterlimit:4;stroke-dasharray:none;stroke-opacity:1"
       d="m 49.101962,21.716077 c 0,0 -0.184877,-0.218934 -1.10965,-0.160607 -0.924773,0.05833 -4.277989,1.182652 -4.277989,1.182652"
       id="path1820"
       inkscape:connector-curvature="0"
       sodipodi:nodetypes="czc" />
    <path
       style="fill:none;stroke:#000000;stroke-width:0.26458333;stroke-linecap:butt;stroke-linejoin:miter;stroke-miterlimit:4;stroke-dasharray:none;stroke-opacity:1"
       d="m 49.31367,24.351493 c 0,0 -0.112461,-0.223106 -1.087746,-0.182508 -0.975285,0.0406 -4.540801,1.211853 -4.540801,1.211853"
       id="path1822"
       inkscape:connector-curvature="0"
       sodipodi:nodetypes="czc" />
    <path
       style="fill:none;stroke:#000000;stroke-width:0.26458333;stroke-linecap:butt;stroke-linejoin:miter;stroke-miterlimit:4;stroke-dasharray:none;stroke-opacity:1"
       d="m 49.583781,27.24972 c 0,0 -0.147913,-0.241291 -1.153448,-0.175207 -1.005535,0.06608 -4.686808,1.35786 -4.686808,1.35786"
       id="path1824"
       inkscape:connector-curvature="0"
       sodipodi:nodetypes="czc" />
    <path
       style="fill:none;stroke:#000000;stroke-width:0.26458333;stroke-linecap:butt;stroke-linejoin:miter;stroke-miterlimit:4;stroke-dasharray:none;stroke-opacity:1"
       d="m 49.919598,30.155247 c 0,0 -0.390637,-0.189377 -0.87604,-0.189806 -0.485403,-4.29e-4 -1.153449,0.277412 -1.153449,0.277412"
       id="path1826"
       inkscape:connector-curvature="0"
       sodipodi:nodetypes="czc" />
    <path
       style="fill:none;stroke:#000000;stroke-width:0.26458333;stroke-linecap:butt;stroke-linejoin:miter;stroke-miterlimit:4;stroke-dasharray:none;stroke-opacity:1"
       d="M 43.774664,34.842817 47.925,33.624559"
       id="path1828"
       inkscape:connector-curvature="0" />
    <path
       style="fill:none;stroke:#000000;stroke-width:0.26458333;stroke-linecap:butt;stroke-linejoin:miter;stroke-miterlimit:4;stroke-dasharray:none;stroke-opacity:1"
       d="m 50.650592,37.196738 c 0,0 -0.288433,-0.346213 -1.466041,-0.309726 -1.177608,0.03649 -5.502803,1.527983 -5.502803,1.527983"
       id="path1830"
       inkscape:connector-curvature="0"
       sodipodi:nodetypes="czc" />
    <path
       style="display:inline;fill:none;stroke:#000000;stroke-width:0.26458333;stroke-linecap:butt;stroke-linejoin:miter;stroke-miterlimit:4;stroke-dasharray:none;stroke-opacity:1"
       d="m 41.643236,6.7885731 c 0,0 -1.760529,-1.9133699 -2.457162,-2.0028999 -0.696633,-0.0895 -0.949828,0.43361 -0.949828,0.43361"
       id="path1832"
       inkscape:connector-curvature="0"
       sodipodi:nodetypes="czc" />
    <path
       style="display:inline;fill:none;stroke:#000000;stroke-width:0.26458333;stroke-linecap:butt;stroke-linejoin:miter;stroke-miterlimit:4;stroke-dasharray:none;stroke-opacity:1"
       d="m 41.663884,8.7501734 c 0,0 -1.836813,-2.0537603 -2.560405,-2.1061403 -0.723592,-0.0524 -0.924385,0.53686 -0.924385,0.53686"
       id="path1834"
       inkscape:connector-curvature="0"
       sodipodi:nodetypes="czc" />
    <path
       style="display:inline;fill:none;stroke:#000000;stroke-width:0.26458333;stroke-linecap:butt;stroke-linejoin:miter;stroke-miterlimit:4;stroke-dasharray:none;stroke-opacity:1"
       d="m 41.684532,10.732413 c 0,0 -1.791416,-2.0965896 -2.560405,-2.1267799 -0.768989,-0.0302 -1.053068,0.7433403 -1.053068,0.7433403"
       id="path1836"
       inkscape:connector-curvature="0"
       sodipodi:nodetypes="czc" />
    <path
       style="display:inline;fill:none;stroke:#000000;stroke-width:0.26458333;stroke-linecap:butt;stroke-linejoin:miter;stroke-miterlimit:4;stroke-dasharray:none;stroke-opacity:1"
       d="m 41.684532,13.003743 c 0,0 -1.822606,-2.28123 -2.601701,-2.35392 -0.779095,-0.0727 -1.077475,0.61215 -1.077475,0.61215"
       id="path1838"
       inkscape:connector-curvature="0"
       sodipodi:nodetypes="czc" />
    <path
       style="display:inline;fill:none;stroke:#000000;stroke-width:0.26458333;stroke-linecap:butt;stroke-linejoin:miter;stroke-miterlimit:4;stroke-dasharray:none;stroke-opacity:1"
       d="m 41.643236,15.151182 c 0,0 -1.916021,-2.345179 -2.704944,-2.457159 -0.788923,-0.11198 -1.019072,0.510161 -1.019072,0.510161"
       id="path1840"
       inkscape:connector-curvature="0"
       sodipodi:nodetypes="czc" />
    <path
       style="display:inline;fill:none;stroke:#000000;stroke-width:0.26458333;stroke-linecap:butt;stroke-linejoin:miter;stroke-miterlimit:4;stroke-dasharray:none;stroke-opacity:1"
       d="m 41.684532,17.567042 c 0,0 -2.038772,-2.44743 -2.849483,-2.5604 -0.810711,-0.112969 -1.014278,0.47491 -1.014278,0.47491"
       id="path1842"
       inkscape:connector-curvature="0"
       sodipodi:nodetypes="czc" />
    <path
       style="display:inline;fill:none;stroke:#000000;stroke-width:0.26458333;stroke-linecap:butt;stroke-linejoin:miter;stroke-miterlimit:4;stroke-dasharray:none;stroke-opacity:1"
       d="m 41.622588,19.962262 c 0,0 -2.100519,-2.452189 -2.911428,-2.581049 -0.810909,-0.12886 -1.000929,0.412969 -1.000929,0.412969"
       id="path1844"
       inkscape:connector-curvature="0"
       sodipodi:nodetypes="czc" />
    <path
       style="display:inline;fill:none;stroke:#000000;stroke-width:0.26458333;stroke-linecap:butt;stroke-linejoin:miter;stroke-miterlimit:4;stroke-dasharray:none;stroke-opacity:1"
       d="m 41.622588,22.212942 c 0,0 -2.217997,-2.38714 -3.035319,-2.47781 -0.817322,-0.0907 -0.966934,0.46156 -0.966934,0.46156"
       id="path1846"
       inkscape:connector-curvature="0"
       sodipodi:nodetypes="czc" />
    <path
       style="display:inline;fill:none;stroke:#000000;stroke-width:0.26458333;stroke-linecap:butt;stroke-linejoin:miter;stroke-miterlimit:4;stroke-dasharray:none;stroke-opacity:1"
       d="m 41.622588,24.752702 c 0,0 -2.222273,-2.42279 -3.076615,-2.47781 -0.854342,-0.055 -1.055577,0.61945 -1.055577,0.61945"
       id="path1848"
       inkscape:connector-curvature="0"
       sodipodi:nodetypes="czc" />
    <path
       style="display:inline;fill:none;stroke:#000000;stroke-width:0.26458333;stroke-linecap:butt;stroke-linejoin:miter;stroke-miterlimit:4;stroke-dasharray:none;stroke-opacity:1"
       d="m 41.60194,27.705422 c 0,0 -2.285194,-2.49231 -3.15921,-2.5604 -0.874016,-0.0681 -1.068925,0.5915 -1.068925,0.5915"
       id="path1850"
       inkscape:connector-curvature="0"
       sodipodi:nodetypes="czc" />
    <path
       style="display:inline;fill:none;stroke:#000000;stroke-width:0.26458333;stroke-linecap:butt;stroke-linejoin:miter;stroke-miterlimit:4;stroke-dasharray:none;stroke-opacity:1"
       d="m 41.622588,34.374862 c 0,0 -2.486031,-2.8432 -3.42764,-2.952719 -0.941609,-0.109521 -1.072572,0.56241 -1.072572,0.56241"
       id="path1852"
       inkscape:connector-curvature="0"
       sodipodi:nodetypes="czc" />
    <path
       style="display:inline;fill:none;stroke:#000000;stroke-width:0.26458333;stroke-linecap:butt;stroke-linejoin:miter;stroke-miterlimit:4;stroke-dasharray:none;stroke-opacity:1"
       d="m 41.643236,38.215471 c 0,0 -2.692135,-3.139868 -3.696068,-3.200508 -1.003933,-0.0606 -0.979029,0.676611 -0.979029,0.676611"
       id="path1854"
       inkscape:connector-curvature="0"
       sodipodi:nodetypes="czc" />
    <path
       style="display:inline;fill:none;stroke:#000000;stroke-width:0.26458333;stroke-linecap:butt;stroke-linejoin:miter;stroke-miterlimit:4;stroke-dasharray:none;stroke-opacity:1"
       d="m 41.648247,42.249429 c 0,0 -2.821481,-2.989896 -3.783674,-3.187368 -0.962193,-0.197469 -1.053068,0.309722 -1.053068,0.309722"
       id="path1856"
       inkscape:connector-curvature="0"
       sodipodi:nodetypes="czc" />
    <path
       style="fill:none;stroke:#000000;stroke-width:0.26458333;stroke-linecap:butt;stroke-linejoin:miter;stroke-miterlimit:4;stroke-dasharray:none;stroke-opacity:1"
       d="m 34.029756,7.2847896 c 0,0 2.578236,-0.6999772 3.271628,-0.6373991 0.693392,0.062578 0.887881,0.3200509 0.887881,0.3200509"
       id="path1947"
       inkscape:connector-curvature="0"
       sodipodi:nodetypes="czc" />
    <path
       style="fill:none;stroke:#000000;stroke-width:0.26458333;stroke-linecap:butt;stroke-linejoin:miter;stroke-miterlimit:4;stroke-dasharray:none;stroke-opacity:1"
       d="m 33.966663,9.2594167 c 0,0 2.391097,-0.6829399 3.097263,-0.6607498 0.706166,0.02219 1.032422,0.2890782 1.032422,0.2890782"
       id="path1949"
       inkscape:connector-curvature="0"
       sodipodi:nodetypes="czc" />
    <path
       style="fill:none;stroke:#000000;stroke-width:0.26458333;stroke-linecap:butt;stroke-linejoin:miter;stroke-miterlimit:4;stroke-dasharray:none;stroke-opacity:1"
       d="m 33.780827,11.241666 c 0,0 2.449893,-0.581003 3.179858,-0.536859 0.729965,0.04414 1.115015,0.330374 1.115015,0.330374"
       id="path1951"
       inkscape:connector-curvature="0"
       sodipodi:nodetypes="czc" />
    <path
       style="fill:none;stroke:#000000;stroke-width:0.26458333;stroke-linecap:butt;stroke-linejoin:miter;stroke-miterlimit:4;stroke-dasharray:none;stroke-opacity:1"
       d="m 33.533045,13.161969 c 0,0 2.749162,-0.540448 3.42764,-0.536859 0.678478,0.0036 0.949828,0.227133 0.949828,0.227133"
       id="path1953"
       inkscape:connector-curvature="0"
       sodipodi:nodetypes="czc" />
    <path
       style="fill:none;stroke:#000000;stroke-width:0.26458333;stroke-linecap:butt;stroke-linejoin:miter;stroke-miterlimit:4;stroke-dasharray:none;stroke-opacity:1"
       d="m 33.305914,15.371351 c 0,0 2.678578,-0.551214 3.406989,-0.598804 0.728411,-0.04759 1.115015,0.351023 1.115015,0.351023"
       id="path1955"
       inkscape:connector-curvature="0"
       sodipodi:nodetypes="czc" />
    <path
       style="fill:none;stroke:#000000;stroke-width:0.26458333;stroke-linecap:butt;stroke-linejoin:miter;stroke-miterlimit:4;stroke-dasharray:none;stroke-opacity:1"
       d="m 33.05917,17.404488 c 0,0 3.182204,-0.654494 3.860216,-0.587747 0.678012,0.06675 0.815615,0.449103 0.815615,0.449103"
       id="path1957"
       inkscape:connector-curvature="0"
       sodipodi:nodetypes="czc" />
    <path
       style="fill:none;stroke:#000000;stroke-width:0.26458333;stroke-linecap:butt;stroke-linejoin:miter;stroke-miterlimit:4;stroke-dasharray:none;stroke-opacity:1"
       d="m 32.872296,19.686872 c 0,0 3.098255,-0.613363 3.799311,-0.578156 0.701056,0.03521 0.949827,0.309727 0.949827,0.309727"
       id="path1959"
       inkscape:connector-curvature="0"
       sodipodi:nodetypes="czc" />
    <path
       style="fill:none;stroke:#000000;stroke-width:0.26458333;stroke-linecap:butt;stroke-linejoin:miter;stroke-miterlimit:4;stroke-dasharray:none;stroke-opacity:1"
       d="m 32.613458,22.002001 c 0,0 3.402359,-0.636363 4.099445,-0.563555 0.697086,0.07281 0.825936,0.39232 0.825936,0.39232"
       id="path1961"
       inkscape:connector-curvature="0"
       sodipodi:nodetypes="czc" />
    <path
       style="fill:none;stroke:#000000;stroke-width:0.26458333;stroke-linecap:butt;stroke-linejoin:miter;stroke-miterlimit:4;stroke-dasharray:none;stroke-opacity:1"
       d="m 32.356086,24.477307 c 0,0 3.413824,-0.522321 4.150333,-0.495562 0.736509,0.02676 0.92918,0.289078 0.92918,0.289078"
       id="path1963"
       inkscape:connector-curvature="0"
       sodipodi:nodetypes="czc" />
    <path
       style="fill:none;stroke:#000000;stroke-width:0.26458333;stroke-linecap:butt;stroke-linejoin:miter;stroke-miterlimit:4;stroke-dasharray:none;stroke-opacity:1"
       d="m 32.087656,27.05836 c 0,0 3.891229,-0.509756 4.58395,-0.474913"
       id="path1965"
       inkscape:connector-curvature="0"
       sodipodi:nodetypes="cc" />
    <path
       style="fill:none;stroke:#000000;stroke-width:0.26458333;stroke-linecap:butt;stroke-linejoin:miter;stroke-miterlimit:4;stroke-dasharray:none;stroke-opacity:1"
       d="m 50.602286,37.198805 0.233609,2.705092"
       id="path2051"
       inkscape:connector-curvature="0"
       sodipodi:nodetypes="cc" />
    <path
       style="fill:none;stroke:#000000;stroke-width:0.26458333;stroke-linecap:butt;stroke-linejoin:miter;stroke-miterlimit:4;stroke-dasharray:none;stroke-opacity:1"
       d="m 51.389252,44.596751 0.151017,2.333169"
       id="path2053"
       inkscape:connector-curvature="0"
       sodipodi:nodetypes="cc" />
    <path
       style="fill:none;stroke:#000000;stroke-width:0.26458333;stroke-linecap:butt;stroke-linejoin:miter;stroke-miterlimit:4;stroke-dasharray:none;stroke-opacity:1"
       d="m 43.860331,46.522568 -0.0584,1.54767"
       id="path2055"
       inkscape:connector-curvature="0" />
    <path
       style="fill:none;stroke:#000000;stroke-width:0.26458333;stroke-linecap:butt;stroke-linejoin:miter;stroke-miterlimit:4;stroke-dasharray:none;stroke-opacity:1"
       d="m 43.655921,31.454706 0.0292,7.329522"
       id="path2057"
       inkscape:connector-curvature="0" />
    <path
       style="fill:none;stroke:#000000;stroke-width:0.26458333;stroke-linecap:butt;stroke-linejoin:miter;stroke-miterlimit:4;stroke-dasharray:none;stroke-opacity:1"
       d="m 31.550797,31.539068 -0.144539,1.755117"
       id="path2059"
       inkscape:connector-curvature="0" />
    <path
       style="fill:none;stroke:#000000;stroke-width:0.26458333;stroke-linecap:butt;stroke-linejoin:miter;stroke-miterlimit:4;stroke-dasharray:none;stroke-opacity:1"
       d="m 37.001981,32.757327 -0.681397,-0.02064"
       id="path2061"
       inkscape:connector-curvature="0" />
    <path
       style="fill:none;stroke:#000000;stroke-width:0.26458333;stroke-linecap:butt;stroke-linejoin:miter;stroke-miterlimit:4;stroke-dasharray:none;stroke-opacity:1"
       d="m 37.187817,29.928492 c 0,0 -0.456891,-0.388671 -0.887884,-0.330375 -0.430993,0.0583 -0.763989,0.144539 -0.763989,0.144539"
       id="path2063"
       inkscape:connector-curvature="0"
       sodipodi:nodetypes="czc" />
    <path
       style="fill:none;stroke:#000000;stroke-width:0.26458333;stroke-linecap:butt;stroke-linejoin:miter;stroke-miterlimit:4;stroke-dasharray:none;stroke-opacity:1"
       d="m 37.290041,28.242564 -0.438019,11.15489"
       id="path2065"
       inkscape:connector-curvature="0"
       sodipodi:nodetypes="cc" />
  </g>
  <g
     inkscape:groupmode="layer"
     id="layer5"
     inkscape:label="Capa 3"
     style="display:inline">
    <path
       style="fill:none;stroke:#000000;stroke-width:0.5291667;stroke-linecap:butt;stroke-linejoin:miter;stroke-miterlimit:3.44444442;stroke-dasharray:none;stroke-opacity:1"
       d="M 61.205895,65.094587 26.80678,65.211392 c 0,0 0.654485,-6.083689 -1.460064,-10.804478 -2.11455,-4.720788 -8.643581,-6.249073 -8.643581,-6.249073 l 1.051247,-4.613803 c 0,0 7.199354,2.342085 10.629266,-0.934442 3.429912,-3.276527 2.752057,-7.941495 2.452909,-9.052398 1.511331,-0.702084 3.854569,-1.868881 3.854569,-1.868881"
       id="path1972"
       inkscape:connector-curvature="0"
       sodipodi:nodetypes="cczcczcc" />
    <path
       style="display:inline;fill:none;stroke:#000000;stroke-width:0.5291667;stroke-linecap:butt;stroke-linejoin:miter;stroke-miterlimit:3.44444442;stroke-dasharray:none;stroke-opacity:1"
       d="m 15.042563,47.279747 c 0,0 -4.332457,-5.163979 -6.1322714,-8.585178 -1.7998152,-3.421201 -2.0243033,-8.61798 -2.0440899,-11.21329 -0.019787,-2.59531 0.043465,-4.622321 -0.7008307,-6.424291 -0.7442961,-1.80197 -2.817776,-3.39832 -3.033087,-3.91267 -0.215311,-0.51434 0.1698806,-0.74079 0.6969842,-0.40912 0.5271036,0.33167 1.480753,1.29986 2.0148886,1.98569 0.5341358,0.68583 1.2556553,1.95649 1.2556553,1.95649 0,0 0.029083,-0.88262 0.4964219,-0.78844 0.4673383,0.0942 0.9526066,2.06825 1.0804474,4.497001 0.1278406,2.42875 -0.1610135,7.05899 1.1680513,10.278859 1.3290643,3.219861 6.3074783,8.00114 6.3074783,8.00114 z"
       id="path1974"
       inkscape:connector-curvature="0"
       sodipodi:nodetypes="czzzzzzczzzcc" />
    <path
       style="display:inline;fill:none;stroke:#000000;stroke-width:0.5291667;stroke-linecap:butt;stroke-linejoin:miter;stroke-miterlimit:3.44444442;stroke-dasharray:none;stroke-opacity:1"
       d="m 33.872728,30.225799 c 0,0 -3.370146,-4.87611 -6.494728,-7.152291 -3.12458,-2.27616 -8.586699,-3.39133 -11.151801,-3.78666 -2.565101,-0.39531 -4.579914,-0.6262 -6.2551407,-1.62354 -1.6752274,-0.99734 -2.9545635,-3.280079 -3.4323224,-3.56759 -0.4777483,-0.287509 -0.7575814,0.0608 -0.5057182,0.6304 0.251863,0.56958 1.0717847,1.65335 1.6730586,2.28115 0.6012725,0.627801 1.7540846,1.52568 1.7540846,1.52568 0,0 -0.877532,-0.099 -0.8520042,0.37704 0.025551,0.47605 1.9085423,1.242 4.2931953,1.72013 2.384654,0.47814 6.077601,1.13966 9.650639,2.62003 3.573037,1.480381 8.048209,8.872971 8.048209,8.872971 z"
       id="path1974-6"
       inkscape:connector-curvature="0"
       sodipodi:nodetypes="czzzzzzczzzcc" />
    <path
       style="opacity:1;fill:none;fill-opacity:1;stroke:#000000;stroke-width:0.5291667;stroke-linecap:round;stroke-linejoin:round;stroke-miterlimit:3.44444442;stroke-dasharray:none;stroke-opacity:1;paint-order:markers fill stroke"
       id="path2009"
       sodipodi:type="arc"
       sodipodi:cx="18.226513"
       sodipodi:cy="30.079079"
       sodipodi:rx="3.3669553"
       sodipodi:ry="3.3669553"
       sodipodi:start="0"
       sodipodi:end="6.2709331"
       sodipodi:open="true"
       d="m 21.593468,30.079079 a 3.3669553,3.3669553 0 0 1 -3.356642,3.366939 3.3669553,3.3669553 0 0 1 -3.377205,-3.346313 3.3669553,3.3669553 0 0 1 3.335953,-3.387439 3.3669553,3.3669553 0 0 1 3.397641,3.325561" />
    <path
       style="fill:none;stroke:#000000;stroke-width:0.5291667;stroke-linecap:butt;stroke-linejoin:miter;stroke-miterlimit:3.44444442;stroke-dasharray:none;stroke-opacity:1"
       d="m 16.028221,32.536703 c -0.899249,1.821044 -0.846199,3.362704 -0.572807,5.055707 0.515645,3.19317 4.538421,6.389164 8.649112,5.418858 4.110691,-0.970306 6.177833,-5.195592 5.342296,-8.756369 -0.835537,-3.560777 -4.216184,-5.976027 -8.053388,-5.422229"
       id="path2015"
       inkscape:connector-curvature="0"
       sodipodi:nodetypes="cszzc" />
    <path
       style="fill:none;stroke:#000000;stroke-width:0.5291667;stroke-linecap:butt;stroke-linejoin:miter;stroke-miterlimit:3.44444442;stroke-dasharray:none;stroke-opacity:1"
       d="m 46.313238,64.977782 c 0,0 1.297423,-5.254612 0.175209,-8.409972 -1.122213,-3.15536 -5.840259,-6.307476 -5.840259,-6.307476 l 1.868882,-3.465793 c 0,0 2.691445,4.272327 7.743352,1.212284 5.051908,-3.060043 1.893073,-7.73333 1.893073,-7.73333 l 4.088179,-1.284858 c 0,0 -0.113999,3.45459 1.401661,7.066712 1.515661,3.612123 4.014576,8.25493 4.321792,11.038084 0.307216,2.783153 -0.759232,8.059556 -0.759232,8.059556"
       id="path2017"
       inkscape:connector-curvature="0"
       sodipodi:nodetypes="czcczcczzc" />
    <path
       style="opacity:1;fill:none;fill-opacity:1;stroke:#000000;stroke-width:0.5291667;stroke-linecap:round;stroke-linejoin:round;stroke-miterlimit:3.44444442;stroke-dasharray:none;stroke-opacity:1;paint-order:markers fill stroke"
       id="path2009-8"
       sodipodi:type="arc"
       sodipodi:cx="46.809643"
       sodipodi:cy="42.638805"
       sodipodi:rx="4.8620157"
       sodipodi:ry="4.8620157"
       sodipodi:start="0"
       sodipodi:end="6.2709331"
       sodipodi:open="true"
       d="m 51.671659,42.638805 a 4.8620157,4.8620157 0 0 1 -4.847124,4.861993 4.8620157,4.8620157 0 0 1 -4.876817,-4.832208 4.8620157,4.8620157 0 0 1 4.817248,-4.891595 4.8620157,4.8620157 0 0 1 4.906328,4.802241" />
    <path
       style="fill:none;stroke:#000000;stroke-width:0.5291667;stroke-linecap:butt;stroke-linejoin:miter;stroke-miterlimit:3.44444442;stroke-dasharray:none;stroke-opacity:1"
       d="m 39.669517,49.473974 c 0,0 -4.421315,-3.088094 -5.022192,-7.857222 -0.600878,-4.769129 0.436968,-9.237172 0.160607,-9.986839 -0.276361,-0.749667 -1.040087,-1.528832 -1.477171,-2.13792 -0.437085,-0.609088 -1.061748,-1.341935 -1.150946,-1.775053 -0.0892,-0.433118 0.252622,-0.574491 0.525624,-0.408816 0.136501,0.08284 0.854527,1.232709 1.269997,1.680472 0.415471,0.447764 0.611887,0.349337 0.75552,0.02823 0.143633,-0.321105 0.139558,-0.390112 0.282851,-0.543589 0.143293,-0.153477 0.472378,-0.06542 0.511022,0.248211 0.03865,0.313631 -0.150239,0.437263 -0.0438,1.490125 0.106461,1.052862 0.788375,2.196688 1.034138,3.918413 0.245763,1.721725 -0.05058,4.868997 0.46783,6.411327 0.518413,1.54233 4.249215,5.280421 4.249215,5.280421 z"
       id="path2034"
       inkscape:connector-curvature="0"
       sodipodi:nodetypes="czzzzsszzzzzzcc" />
    <path
       style="display:inline;fill:none;stroke:#000000;stroke-width:0.5291667;stroke-linecap:butt;stroke-linejoin:miter;stroke-miterlimit:3.44444442;stroke-dasharray:none;stroke-opacity:1"
       d="m 55.694081,37.83606 c 0,0 -2.72405,-5.457985 -7.135888,-7.366207 -4.41184,-1.908224 -8.816778,-1.925205 -9.459505,-2.39984 -0.642727,-0.474634 -1.177739,-1.425495 -1.640612,-2.015224 -0.462873,-0.589729 -0.992225,-1.394126 -1.383229,-1.600677 -0.391004,-0.206552 -0.622172,0.08222 -0.539287,0.390617 0.04145,0.154199 0.945184,1.164653 1.259177,1.688595 0.313994,0.523944 0.164652,0.685079 -0.183784,0.73337 -0.348435,0.04829 -0.413561,0.02512 -0.600936,0.119874 -0.187375,0.09476 -0.194677,0.43534 0.0957,0.559994 0.290376,0.124659 0.46182,-0.02221 1.443122,0.373886 0.981296,0.39612 1.889311,1.370211 3.474,2.086798 1.584689,0.716588 4.631179,1.544146 5.967499,2.472468 1.336317,0.928325 4.877274,6.021486 4.877274,6.021486 z"
       id="path2034-5"
       inkscape:connector-curvature="0"
       sodipodi:nodetypes="czzzzsszzzzzzcc" />
  </g>
</svg>
